<?xml version="1.0" encoding="utf-8"?>
<!-- Generator: Adobe Illustrator 15.1.0, SVG Export Plug-In . SVG Version: 6.00 Build 0)  -->
<!DOCTYPE svg PUBLIC "-//W3C//DTD SVG 1.1//EN" "http://www.w3.org/Graphics/SVG/1.1/DTD/svg11.dtd">
<svg version="1.1" id="Layer_1" xmlns="http://www.w3.org/2000/svg" xmlns:xlink="http://www.w3.org/1999/xlink" x="0px" y="0px"
	 width="20px" height="31px" viewBox="0 0 20 31" enable-background="new 0 0 20 31" xml:space="preserve">
<path fill="#FFFFFF" d="M13.54,17.84H8c-0.816,0-1.247-0.293-1.247-0.854c0-0.413,0.282-0.846,0.642-1.157
	c0.792,0.19,1.655,0.286,2.568,0.286c4.161,0,7.163-1.942,7.163-5.453c0-1.348-0.471-2.501-1.523-3.343V7.102l2.393,0.806h0.364
	V4.65h-0.315l-3.74,1.181h-0.31c-1.071-0.6-2.322-0.952-4.031-0.952c-4.172,0-7.194,2.012-7.194,5.618
	c0,2.072,1.128,3.712,2.797,4.651v0.257c-1.429,0.543-2.732,1.866-2.732,3.413c0,1.597,0.996,2.986,2.396,3.404v0.219
	c-1.834,0.384-3.521,1.104-3.521,2.871C1.71,27.494,4.547,29,9.665,29c6.363,0,9.236-2.434,9.236-6.309
	C18.9,19.508,17.135,17.84,13.54,17.84z M9.964,6.919c1.176,0,1.754,0.741,1.754,3.578s-0.588,3.401-1.754,3.401
	s-1.736-1.044-1.736-3.401S8.787,6.919,9.964,6.919z M9.664,26.872c-2.726,0-3.344-0.945-3.344-2.078
	c0-0.706,0.206-1.147,0.624-1.638h5.4c1.338,0,1.95,0.551,1.95,1.396C14.294,25.951,12.904,26.872,9.664,26.872z"/>
</svg>
