<?xml version="1.0" encoding="utf-8"?>
<!-- Generator: Adobe Illustrator 15.1.0, SVG Export Plug-In . SVG Version: 6.00 Build 0)  -->
<!DOCTYPE svg PUBLIC "-//W3C//DTD SVG 1.1//EN" "http://www.w3.org/Graphics/SVG/1.1/DTD/svg11.dtd">
<svg version="1.1" id="Layer_1" xmlns="http://www.w3.org/2000/svg" xmlns:xlink="http://www.w3.org/1999/xlink" x="0px" y="0px"
	 width="240px" height="493px" viewBox="0 0 240 493" enable-background="new 0 0 240 493" xml:space="preserve">
<g>
	<rect x="13.037" y="53.801" fill="#282A2D" stroke="#050606" stroke-miterlimit="10" width="214" height="378.374"/>
	<path fill="#414547" stroke="#121212" stroke-width="2" stroke-miterlimit="10" d="M207.505,2.576H32.976
		c-16.811,0-30.439,13.316-30.439,29.742v429.499c0,16.427,13.628,29.742,30.439,29.742h174.529
		c16.811,0,30.439-13.315,30.439-29.742V32.318C237.945,15.893,224.316,2.576,207.505,2.576z M226.908,432.668h-214V54.293h214
		V432.668z"/>
	<circle fill="#282A2D" stroke="#020202" stroke-miterlimit="10" cx="119.741" cy="20.5" r="4.5"/>
	<path fill="#282A2D" stroke="#020202" stroke-miterlimit="10" d="M140.741,36.75c0,2.347-1.903,4.25-4.25,4.25h-34.5
		c-2.347,0-4.25-1.903-4.25-4.25l0,0c0-2.347,1.903-4.25,4.25-4.25h34.5C138.837,32.5,140.741,34.403,140.741,36.75L140.741,36.75z"
		/>
	<path fill="#282A2D" d="M198.241,1.288c0,0.711-0.577,1.288-1.288,1.288h-35.424c-0.711,0-1.288-0.577-1.288-1.288l0,0
		c0-0.711,0.577-1.288,1.288-1.288h35.424C197.664,0,198.241,0.577,198.241,1.288L198.241,1.288z"/>
	<path fill="#282A2D" d="M1.874,78.75C1.391,78.75,1,78.409,1,77.989V57.055c0-0.42,0.391-0.761,0.874-0.761l0,0
		c0.482,0,0.873,0.341,0.873,0.761v20.934C2.747,78.409,2.356,78.75,1.874,78.75L1.874,78.75z"/>
	<path fill="#282A2D" d="M1.874,122.75c-0.482,0-0.874-0.249-0.874-0.558v-15.339c0-0.308,0.391-0.558,0.874-0.558l0,0
		c0.482,0,0.873,0.25,0.873,0.558v15.339C2.747,122.501,2.356,122.75,1.874,122.75L1.874,122.75z"/>
	<path fill="#282A2D" d="M1.874,153.751c-0.482,0-0.874-0.249-0.874-0.557v-15.34c0-0.308,0.391-0.557,0.874-0.557l0,0
		c0.482,0,0.873,0.249,0.873,0.557v15.34C2.747,153.502,2.356,153.751,1.874,153.751L1.874,153.751z"/>
	<circle fill="#1D1E1E" stroke="#0D0D0D" stroke-miterlimit="10" cx="119.908" cy="462.517" r="18.667"/>
</g>
</svg>
