<?xml version="1.0" encoding="UTF-8" standalone="no"?>
<svg width="161px" height="97px" viewBox="0 0 161 97" version="1.1" xmlns="http://www.w3.org/2000/svg" xmlns:xlink="http://www.w3.org/1999/xlink" xmlns:sketch="http://www.bohemiancoding.com/sketch/ns">
    <title>image-5x3</title>
    <description>Created with Sketch (http://www.bohemiancoding.com/sketch)</description>
    <defs></defs>
    <g id="Page 1" stroke="none" stroke-width="1" fill="none" fill-rule="evenodd" sketch:type="MSPage">
        <g id="Layer_1" sketch:type="MSLayerGroup" fill="#CCCCCC">
            <g id="Page_1" sketch:type="MSShapeGroup">
                <path d="M0.5,0.5 L0.5,96.5 L160.5,96.5 L160.5,0.5 L0.5,0.5 L0.5,0.5 Z M0.5,0.5" id="Rectangle_1"></path>
            </g>
        </g>
        <g id="Group" sketch:type="MSLayerGroup" transform="translate(34.500000, 36.000000)" fill="#E5E5E5">
            <polygon d="M80,0.5 L92,24.5 L68,24.5 L80,0.5 Z M80,0.5" id="Triangle 1" sketch:type="MSShapeGroup" points="80 0.5 92 24.5 68 24.5 "></polygon>
            <rect d="M34,0.5 L34,24.5 L58,24.5 L58,0.5 L34,0.5 Z M34,0.5" id="Rectangle 1" sketch:type="MSShapeGroup" x="34" y="0.5" width="24" height="24"></rect>
            <circle d="M12,24.5 C18.6274173,24.5 24,19.1274173 24,12.5 C24,5.87258267 18.6274173,0.5 12,0.5 C5.37258267,0.5 0,5.87258267 0,12.5 C0,19.1274173 5.37258267,24.5 12,24.5 Z M12,24.5" id="Oval 1" sketch:type="MSShapeGroup" cx="12" cy="12.5" r="12"></circle>
        </g>
    </g>
</svg>