<?xml version="1.0" standalone="no"?>
<!DOCTYPE svg PUBLIC "-//W3C//DTD SVG 1.1//EN" "http://www.w3.org/Graphics/SVG/1.1/DTD/svg11.dtd" >
<svg xmlns="http://www.w3.org/2000/svg">
<metadata></metadata>
<defs>
<font id="WT1WebTextBold" horiz-adv-x="1214" >
<font-face units-per-em="2048" ascent="1638" descent="-410" />
<missing-glyph horiz-adv-x="475" />
<glyph unicode="&#xfb01;" horiz-adv-x="1306" d="M49 0v96l144 35v834h-140v102l140 51v123q0 99 38 175.5t105 123.5t152.5 70.5t185.5 23.5q203 0 336 -39v-262h-183l-30 162q-50 8 -88 8q-135 0 -193.5 -70.5t-58.5 -211.5v-111h510l133 18l26 -14v-983l142 -35v-96h-543v96l137 35v834h-405v-838l129 -31v-96h-537z " />
<glyph unicode="&#xfb02;" horiz-adv-x="1296" d="M49 0v96l144 35v834h-140v102l140 51v123q0 99 38 175.5t105 123.5t152.5 70.5t185.5 23.5q175 0 325 -51l101 51l26 -14v-1489l131 -35v-96h-532v96l137 35v1329q-77 43 -174 43q-231 0 -231 -282v-111h254v-145h-254v-838l129 -31v-96h-537z" />
<glyph unicode="&#xfb03;" horiz-adv-x="1974" d="M49 0v96l144 35v834h-140v102l140 51v99q0 99 38 175.5t105 123.5t152.5 70.5t185.5 23.5q181 0 334 -68q126 92 333 92q203 0 336 -39v-262h-182l-31 162q-50 8 -88 8q-135 0 -193.5 -70.5t-58.5 -211.5v-111h510l133 18l27 -14v-983l141 -35v-96h-538v96l131 35l2 834 h-406v-838l127 -31v-96h-526v96l135 35v834h-403v-838l129 -31v-96h-537zM457 1110h403v131q0 99 37 172q-94 66 -209 66q-120 0 -175.5 -69t-55.5 -214v-86z" />
<glyph unicode="&#xfb04;" horiz-adv-x="1964" d="M49 0v96l144 35v834h-140v102l140 51v99q0 99 38 175.5t105 123.5t152.5 70.5t185.5 23.5q181 0 334 -68q126 92 333 92q176 0 326 -51l100 51l27 -14v-1489l131 -35v-96h-532v96l137 35v1329q-77 43 -174 43q-232 0 -232 -282v-111h254v-145h-254v-838l129 -31v-96h-528 v96l135 35v834h-403v-838l129 -31v-96h-537zM457 1110h403v131q0 99 37 172q-94 66 -209 66q-120 0 -175.5 -69t-55.5 -214v-86z" />
<glyph horiz-adv-x="0" />
<glyph horiz-adv-x="2048" />
<glyph unicode=" "  horiz-adv-x="475" />
<glyph unicode="&#x09;" horiz-adv-x="475" />
<glyph unicode="&#xa0;" horiz-adv-x="475" />
<glyph unicode="!" horiz-adv-x="532" d="M111 131q0 62 44 107t109 45t110.5 -45t45.5 -107t-45.5 -108t-110.5 -46t-109 45.5t-44 108.5zM117 1477h293l-74 -1045h-150z" />
<glyph unicode="&#x22;" horiz-adv-x="1087" d="M102 950q123 76 176.5 139t59.5 152q-26 -16 -62 -16q-56 0 -92.5 38t-36.5 99t44 100t112 39q81 0 137 -58t56 -161q0 -57 -18 -113t-57 -112.5t-111.5 -106t-170.5 -82.5zM569 950q123 76 176.5 139t59.5 152q-26 -16 -62 -16q-56 0 -92.5 38t-36.5 99t44 100t112 39 q81 0 137 -58t56 -161q0 -57 -18 -113t-57 -112.5t-111.5 -106t-170.5 -82.5z" />
<glyph unicode="#" horiz-adv-x="1155" d="M84 348v219h207l41 260h-180v220h215l51 323h133l-51 -323h264l51 323h135l-51 -323h172v-220h-207l-41 -260h178v-219h-213l-53 -348h-135l53 348h-264l-53 -348h-135l55 348h-172zM422 557h264l45 281h-264z" />
<glyph unicode="$" horiz-adv-x="1099" d="M66 365h149l55 -222q65 -28 138 -39l59 504l-70 27q-75 27 -129.5 58.5t-100 75.5t-68.5 105t-23 138q0 174 120.5 278t358.5 107l20 176h132l-21 -182q125 -13 254 -58l16 -282h-147l-45 188q-63 20 -100 27l-52 -449l62 -22q56 -21 97 -39.5t84.5 -44t72.5 -55 t53 -66.5t35.5 -84.5t11.5 -104.5q0 -190 -127.5 -304t-380.5 -120l-31 -268h-131l29 273q-191 16 -305 61zM303 1073q0 -79 43 -126t150 -87l47 414q-106 0 -173 -52t-67 -149zM530 98q125 3 189.5 63.5t64.5 162.5q0 93 -48 147t-152 96z" />
<glyph unicode="%" horiz-adv-x="1845" d="M61 979q0 95 29.5 170.5t79.5 122t113.5 70.5t134.5 24q95 0 174.5 -40t131.5 -127.5t52 -209.5q0 -93 -29 -167.5t-79 -120.5t-114 -70.5t-136 -24.5q-153 0 -255 97t-102 276zM279 989q0 -139 32 -207.5t107 -68.5t107 64.5t32 201.5q0 141 -32 211t-107 70t-107 -67 t-32 -204zM346 -68l979 1450h160l-979 -1450h-160zM1069 354q0 126 51.5 215t131 129.5t175.5 40.5q70 0 133 -23.5t113.5 -68.5t80.5 -118.5t30 -166.5t-29 -167t-79.5 -120.5t-114.5 -70.5t-136 -24q-74 0 -137.5 23.5t-112.5 68.5t-77.5 117.5t-28.5 164.5zM1286 362 q0 -138 32 -207t107 -69q76 0 108 64t32 204t-31.5 210.5t-106.5 70.5q-77 0 -109 -67.5t-32 -205.5z" />
<glyph unicode="&#x26;" horiz-adv-x="1478" d="M45 381q0 76 23.5 138.5t71 114t105.5 91.5t140 82q-64 85 -95.5 159t-31.5 156q0 169 117 274t301 105q163 0 264.5 -83.5t101.5 -225.5q0 -69 -24.5 -125.5t-74 -103.5t-102.5 -81t-132 -75l340 -401q64 109 96 264l-119 39v104h428v-104l-139 -39q-48 -192 -180 -365 l131 -153l161 -41v-111h-364l-107 125q-191 -150 -405 -150q-233 0 -369.5 109t-136.5 297zM332 420q0 -124 73 -203.5t211 -79.5q144 0 265 78l-414 492q-1 1 -3 2t-3 2q-69 -59 -99 -128.5t-30 -162.5zM514 1151q0 -73 29 -129t92 -131q93 59 131.5 127t38.5 166 q0 89 -35.5 135.5t-97.5 46.5q-73 0 -115.5 -56t-42.5 -159z" />
<glyph unicode="'" horiz-adv-x="620" d="M102 950q123 76 176.5 139t59.5 152q-26 -16 -62 -16q-56 0 -92.5 38t-36.5 99t44 100t112 39q81 0 137 -58t56 -161q0 -57 -18 -113t-57 -112.5t-111.5 -106t-170.5 -82.5z" />
<glyph unicode="(" horiz-adv-x="718" d="M84 643q0 532 514 946l76 -73q-147 -167 -234.5 -378t-87.5 -454q0 -307 83.5 -521.5t238.5 -391.5l-76 -74q-83 67 -146 125.5t-136.5 149t-120.5 183.5t-79 220.5t-32 267.5z" />
<glyph unicode=")" horiz-adv-x="718" d="M45 -229q147 168 234.5 378t87.5 453q0 307 -83.5 522t-238.5 392l76 73q83 -67 146 -125.5t136.5 -149t120.5 -183.5t79 -220.5t32 -267.5q0 -532 -514 -946z" />
<glyph unicode="*" horiz-adv-x="956" d="M106 1004l320 98l-320 98l103 176l244 -229l-82 330h217l-84 -330l244 229l102 -176l-320 -98l320 -98l-102 -177l-244 230l84 -330h-217l82 330l-244 -230z" />
<glyph unicode="+" horiz-adv-x="1263" d="M123 588v153h426v447h166v-447h426v-153h-426v-447h-166v447h-426z" />
<glyph unicode="," horiz-adv-x="638" d="M76 -264q130 76 191.5 143.5t68.5 155.5q-30 -15 -60 -15q-58 0 -95.5 40.5t-37.5 103.5t45.5 103t114.5 40q84 0 141.5 -59.5t57.5 -165.5q0 -60 -17.5 -115.5t-58.5 -114t-121 -110t-192 -88.5z" />
<glyph unicode="-" horiz-adv-x="739" d="M98 502v213h543v-213h-543z" />
<glyph unicode="." horiz-adv-x="638" d="M150 139q0 71 49.5 119.5t122.5 48.5q70 0 118.5 -48.5t48.5 -119.5q0 -68 -48.5 -117t-118.5 -49q-73 0 -122.5 49t-49.5 117z" />
<glyph unicode="/" horiz-adv-x="768" d="M20 -256l515 1817h165l-514 -1817h-166z" />
<glyph unicode="0" horiz-adv-x="1296" d="M80 623q0 135 31 246.5t84.5 188t126 129t155 77t172.5 24.5q92 0 174.5 -23.5t155 -74.5t125 -126t83 -184.5t30.5 -242.5q0 -135 -30 -245.5t-82.5 -187t-125 -129t-155 -76.5t-175.5 -24q-120 0 -221.5 38.5t-180 115.5t-123 203.5t-44.5 290.5zM369 637 q0 -275 70 -397.5t212 -122.5q138 0 206.5 118t68.5 386q0 276 -69 400t-210 124q-138 0 -208 -122.5t-70 -385.5z" />
<glyph unicode="1" horiz-adv-x="890" d="M66 1004v106l426 170h108v-1139l234 -37v-104h-754v104l235 37v887z" />
<glyph unicode="2" horiz-adv-x="1069" d="M43 0v145l332 287q146 127 216.5 234.5t70.5 220.5q0 118 -61 189t-191 71q-62 0 -117 -12l-45 -220h-160v295q197 78 424 78q214 0 334.5 -97t120.5 -273q0 -49 -11 -94.5t-28.5 -84t-51 -80.5t-66.5 -75.5t-87.5 -78t-101 -79.5t-119.5 -88l-183 -131v-4h674l-18 -203 h-932zM109 1067l106 47q-44 -15 -106 -47z" />
<glyph unicode="3" horiz-adv-x="1073" d="M45 -4q186 -64 338 -64q154 0 239 68t85 201q0 154 -73.5 214t-236.5 60h-94v143h76q143 0 221 66.5t78 189.5q0 273 -262 273q-51 0 -121 -8l-45 -217h-160v297q176 69 408 69q222 0 339 -96t117 -277q0 -130 -78 -220.5t-214 -127.5v-8q156 -26 246.5 -117.5 t90.5 -255.5q0 -194 -142 -306.5t-392 -112.5q-236 0 -420 106v123z" />
<glyph unicode="4" horiz-adv-x="1267" d="M53 180v144l692 940h232v-926h205v-158h-205v-395h-279v395h-645zM233 338h465v623h-8l-457 -615v-8z" />
<glyph unicode="5" horiz-adv-x="1085" d="M59 -10q171 -60 316 -60q162 0 250 80.5t88 235.5q0 158 -84 225.5t-258 67.5q-95 0 -232 -29l54 754h753l-18 -217h-594l-27 -371q82 20 201 20q239 0 366 -112t127 -326q0 -221 -148.5 -357.5t-403.5 -136.5q-207 0 -390 105v121z" />
<glyph unicode="6" horiz-adv-x="1204" d="M70 676q0 170 37.5 309.5t101.5 234t151 159t184.5 93.5t203.5 29q207 0 325 -78v-125q-98 37 -270 37q-68 0 -128 -16t-116.5 -55t-98 -99t-69 -154.5t-33.5 -215.5q163 120 347 120q197 0 314.5 -118t117.5 -322q0 -105 -33.5 -195.5t-97 -160t-163.5 -109t-225 -39.5 q-258 0 -403 191.5t-145 513.5zM356 627q0 -126 13 -218t42.5 -160.5t80.5 -103t124 -34.5q120 0 177 84.5t57 255.5q0 164 -62 234.5t-178 70.5q-143 0 -254 -76v-53z" />
<glyph unicode="7" horiz-adv-x="1064" d="M39 889l20 375h959v-179l-512 -1298h-309l661 1249v11h-629l-53 -158h-137z" />
<glyph unicode="8" horiz-adv-x="1251" d="M84 369q0 87 49.5 162t123 123.5t165.5 78.5v10q-283 113 -283 367q0 170 131.5 280.5t354.5 110.5q225 0 353 -95.5t128 -264.5q0 -226 -307 -338v-10q176 -58 271 -150.5t95 -234.5q0 -200 -140.5 -318.5t-397.5 -118.5q-259 0 -401 105.5t-142 292.5zM326 379 q0 -127 74 -198.5t214 -71.5t212.5 69.5t72.5 186.5q0 35 -8.5 65t-21.5 53t-39.5 45.5t-52 38.5t-70.5 36.5t-82.5 35t-100.5 37.5q-198 -101 -198 -297zM397 1145q0 -109 65 -167.5t228 -115.5q85 47 131.5 108t46.5 156q0 117 -67.5 177.5t-169.5 60.5q-104 0 -169 -59.5 t-65 -159.5z" />
<glyph unicode="9" horiz-adv-x="1204" d="M68 788q0 105 33.5 195t96.5 158.5t162.5 107.5t223.5 39q259 0 404 -187t145 -515q0 -213 -51.5 -373.5t-144.5 -257.5t-214.5 -145t-269.5 -48q-212 0 -330 78v125q100 -41 274 -41q75 0 137.5 15.5t119.5 54t97 99t65.5 155t29.5 217.5q-68 -49 -158.5 -81t-189.5 -32 q-197 0 -313.5 115.5t-116.5 320.5zM352 809q0 -297 240 -297q130 0 256 68v57q0 117 -13 207t-42.5 160.5t-81.5 107.5t-125 37q-117 0 -175.5 -89.5t-58.5 -250.5z" />
<glyph unicode=":" horiz-adv-x="659" d="M158 139q0 71 49.5 119.5t122.5 48.5q70 0 119 -48.5t49 -119.5q0 -68 -49 -117t-119 -49q-73 0 -122.5 49t-49.5 117zM158 754q0 71 49.5 119.5t122.5 48.5q70 0 119 -49t49 -119q0 -68 -49 -117t-119 -49q-73 0 -122.5 49t-49.5 117z" />
<glyph unicode=";" horiz-adv-x="659" d="M86 -264q130 76 191.5 143.5t68.5 155.5q-30 -15 -59 -15q-58 0 -95.5 40.5t-37.5 103.5t45 103t114 40q84 0 141.5 -59.5t57.5 -165.5q0 -60 -17.5 -115.5t-58.5 -114t-121 -110t-192 -88.5zM158 754q0 71 49.5 119.5t122.5 48.5q70 0 119 -49t49 -119q0 -68 -49 -117 t-119 -49q-73 0 -122.5 49t-49.5 117z" />
<glyph unicode="&#x3c;" horiz-adv-x="1200" d="M152 575v158l899 412v-180l-717 -312l717 -311v-180z" />
<glyph unicode="=" horiz-adv-x="1220" d="M115 319v154h991v-154h-991zM115 717v153h991v-153h-991z" />
<glyph unicode="&#x3e;" horiz-adv-x="1200" d="M150 162v180l716 311l-716 312v180l899 -414v-158z" />
<glyph unicode="?" horiz-adv-x="927" d="M63 1194v256q155 51 332 51q100 0 180 -19.5t142.5 -61.5t96.5 -113.5t34 -169.5q0 -71 -16 -125.5t-54 -100t-78.5 -78t-111.5 -79.5q-100 -68 -126 -95q-46 -47 -46 -108q0 -51 16 -119h-137q-39 84 -39 168q0 44 9 77t34.5 66.5t49.5 57.5t75 69q75 67 109 120.5 t34 133.5q0 119 -51.5 178.5t-171.5 59.5q-57 0 -82 -2l-39 -166h-160zM217 131q0 62 44.5 107t109.5 45t110 -45t45 -107t-45 -108t-110 -46t-109.5 45.5t-44.5 108.5z" />
<glyph unicode="@" horiz-adv-x="1966" d="M125 457q0 200 68.5 380.5t190 315.5t300.5 215t387 80q352 0 561 -201.5t209 -550.5q0 -140 -42 -255.5t-114.5 -189.5t-166.5 -114.5t-199 -40.5q-101 0 -155 35.5t-79 104.5h-10q-120 -123 -246 -123q-118 0 -186 79t-68 230q0 114 33.5 217.5t92.5 180.5t145 122 t186 45q54 0 96.5 -11t61.5 -21.5t55 -34.5l49 49h136l-125 -625q-14 -60 -1.5 -89.5t58.5 -29.5q64 0 122.5 27.5t107.5 81.5t78.5 146t29.5 210q0 308 -162.5 475.5t-470.5 167.5q-182 0 -333 -68.5t-251 -186.5t-154.5 -277t-54.5 -340q0 -336 177.5 -505t527.5 -169 q257 0 483 78v-103q-202 -92 -487 -92q-405 0 -627.5 208t-222.5 579zM817 424q0 -90 24 -132t81 -42q31 0 59 12.5t44 26t48 43.5l86 469q-34 78 -117 78q-66 0 -118.5 -66.5t-79.5 -169.5t-27 -219z" />
<glyph unicode="A" horiz-adv-x="1449" d="M6 0v111l129 39l461 1327h270l447 -1327l129 -39v-111h-608v111l163 39l-90 286h-495l-95 -286l166 -39v-111h-477zM455 571h409l-86 273q-22 68 -47.5 172.5t-40.5 175.5l-14 70h-10q-70 -266 -121 -418z" />
<glyph unicode="B" horiz-adv-x="1351" d="M53 0v111l172 39v1179l-170 37v111h647q258 0 386.5 -90t128.5 -275q0 -129 -78.5 -218.5t-253.5 -117.5v-12q218 -27 311.5 -115.5t93.5 -253.5q0 -181 -136 -288t-402 -107h-699zM514 143h186q142 0 211.5 66t69.5 211q0 149 -67.5 212.5t-208.5 63.5h-191v-553z M514 823h160q116 0 181 55t65 185q0 152 -61.5 211t-190.5 59h-154v-510z" />
<glyph unicode="C" horiz-adv-x="1347" d="M68 723q0 170 41 304.5t109.5 222t164 145t198.5 82t220 24.5q263 0 424 -59l14 -389h-158l-69 247q-118 48 -230 48q-407 0 -407 -584q0 -334 99.5 -483.5t324.5 -149.5q135 0 225 51l72 264h155l-14 -395q-179 -76 -471 -76q-126 0 -230.5 25.5t-192 82.5t-148 143.5 t-94 212t-33.5 284.5z" />
<glyph unicode="D" horiz-adv-x="1492" d="M59 0v111l172 39v1179l-170 37v111h631q372 0 550.5 -175.5t178.5 -531.5q0 -382 -180.5 -576t-531.5 -194h-650zM522 145h178q107 0 181 27.5t128 94.5t79.5 183t25.5 289q0 111 -10.5 197.5t-29 149t-50 106.5t-66 71t-85 42.5t-100 20.5t-116.5 5h-135v-1186z" />
<glyph unicode="E" horiz-adv-x="1308" d="M57 0v111l172 39v1179l-170 37v111h1137l21 -387h-152l-74 245h-475v-510h225l50 187h122v-512h-122l-50 192h-225v-551h500l90 299h151l-24 -440h-1176z" />
<glyph unicode="F" horiz-adv-x="1298" d="M55 0v111l172 39v1179l-170 37v111h1145l21 -408h-150l-76 262h-479v-534h227l46 190h122v-514h-122l-46 193h-227v-516l189 -39v-111h-652z" />
<glyph unicode="G" horiz-adv-x="1468" d="M74 723q0 170 41.5 304.5t111.5 222t168 145t205 82t229 24.5q269 0 433 -59l16 -379h-156l-69 235q-92 50 -250 50q-208 0 -315 -154.5t-107 -429.5q0 -323 101 -480t325 -157q90 0 194 31v379l-170 36v111h592v-111l-139 -36v-492q-205 -74 -463 -74 q-142 0 -256.5 26.5t-207 83.5t-154.5 144.5t-95.5 212.5t-33.5 285z" />
<glyph unicode="H" horiz-adv-x="1607" d="M61 0v111l170 39v1179l-170 37v111h625v-111l-164 -37v-506h563v506l-163 37v111h622v-111l-168 -37v-1179l170 -39v-111h-624v111l163 36v541h-563v-541l164 -36v-111h-625z" />
<glyph unicode="I" horiz-adv-x="724" d="M53 0v111l164 39v1179l-164 37v111h619v-111l-162 -37v-1179l162 -39v-111h-619z" />
<glyph unicode="J" horiz-adv-x="917" d="M27 39v154q114 -29 204 -29q97 0 148 51.5t51 173.5v940l-170 37v111h631v-111l-168 -37v-962q0 -187 -108 -286t-314 -99q-162 0 -274 57z" />
<glyph unicode="K" horiz-adv-x="1460" d="M61 0v111l170 39v1179l-170 37v111h627v-111l-166 -35v-672l543 670l-168 37v111h506v-111l-135 -37l-383 -452l432 -727l131 -39v-111h-373l-387 657l-166 -137v-373l166 -36v-111h-627z" />
<glyph unicode="L" horiz-adv-x="1241" d="M61 0v111l170 39v1179l-170 37v111h648v-111l-187 -35v-1188h432l93 355h149l-27 -498h-1108z" />
<glyph unicode="M" horiz-adv-x="1908" d="M61 0v111l170 39v1179l-170 37v111h553l205 -666q24 -80 50.5 -199t41.5 -198l15 -78h10q62 295 115 475l209 666h587v-111l-182 -37v-1179l182 -39v-111h-608v111l145 39v708q0 86 3 209.5t7 204.5l3 80h-11q-90 -287 -145 -467l-260 -834h-184l-269 830 q-24 80 -54.5 197t-49.5 194l-18 76h-11q13 -301 13 -494v-704l147 -39v-111h-494z" />
<glyph unicode="N" horiz-adv-x="1570" d="M61 0v111l172 41v1177l-172 37v111h496l422 -693q43 -70 93 -172t79 -168l29 -67h10v946l-170 41v113h498v-111l-152 -39v-1327h-225l-529 877q-42 69 -90.5 170.5t-75.5 168.5l-28 66h-8v-1130l172 -41v-111h-521z" />
<glyph unicode="O" horiz-adv-x="1517" d="M82 735q0 155 38 283.5t103.5 216.5t153 149t185 89t202.5 28q144 0 265.5 -48.5t213 -141t143.5 -238t52 -328.5q0 -155 -38 -284t-103.5 -217.5t-153 -150t-185 -90t-202.5 -28.5q-144 0 -266 49t-213.5 142t-143 239t-51.5 330zM387 758q0 -318 87.5 -473.5 t287.5 -155.5q182 0 275 153.5t93 438.5q0 325 -92 477t-282 152q-183 0 -276 -154.5t-93 -437.5z" />
<glyph unicode="P" horiz-adv-x="1245" d="M61 0v111l170 39v1179l-170 37v111h594q300 0 434 -109.5t134 -320.5q0 -223 -129 -333t-373 -110q-106 0 -199 19v-473l203 -39v-111h-664zM522 748q73 -13 158 -13q132 0 193 72t61 229q0 152 -64 219.5t-196 67.5h-152v-575z" />
<glyph unicode="Q" horiz-adv-x="1517" d="M82 735q0 155 38 283.5t103.5 216.5t153 149t185 89t202.5 28q144 0 265.5 -48.5t213 -141t143.5 -238t52 -328.5q0 -574 -500 -690v-6l635 -88l-53 -235l-922 258q-516 147 -516 751zM387 758q0 -316 88.5 -472.5t288.5 -156.5q184 0 275 153.5t91 438.5 q0 322 -92.5 475.5t-281.5 153.5q-183 0 -276 -155.5t-93 -436.5z" />
<glyph unicode="R" horiz-adv-x="1417" d="M61 0v111l175 39v1175l-170 41v111h671q269 0 400 -107t131 -307q0 -253 -299 -361v-8l317 -549l111 -34v-111h-353l-354 643h-164v-496l150 -36v-111h-615zM526 780h176q144 0 205.5 69t61.5 210q0 139 -60.5 203.5t-195.5 64.5h-187v-547z" />
<glyph unicode="S" horiz-adv-x="1167" d="M98 399h162l55 -217q104 -55 248 -55q123 0 192.5 65t69.5 166q0 53 -16.5 92t-55 70t-77 51.5t-107.5 49.5l-143 59q-150 62 -228.5 156.5t-78.5 250.5q0 187 126.5 301.5t377.5 114.5q225 0 381 -55l16 -326h-158l-43 185q-92 47 -211 47q-105 0 -172 -51t-67 -146 q0 -88 53 -143.5t166 -100.5l143 -57q72 -28 120.5 -52t98.5 -60t78.5 -76.5t47 -99.5t18.5 -132q0 -99 -32.5 -181.5t-97.5 -145.5t-170 -98.5t-241 -35.5q-262 0 -436 72z" />
<glyph unicode="T" horiz-adv-x="1327" d="M47 1024l23 453h1187l23 -453h-156l-65 309h-250v-1183l180 -39v-111h-651v111l180 39v1183h-250l-63 -309h-158z" />
<glyph unicode="U" horiz-adv-x="1501" d="M31 1366v111h624v-111l-166 -35v-839q0 -180 79 -267.5t247 -87.5q171 0 251.5 87.5t80.5 267.5v837l-168 35v113h489v-111l-147 -37v-850q0 -235 -141 -371.5t-412 -136.5q-284 0 -427.5 130t-143.5 358v870z" />
<glyph unicode="V" horiz-adv-x="1431" d="M18 1366v111h592v-111l-166 -37l177 -559q30 -96 65.5 -235.5t55.5 -230.5l20 -91h10q92 348 158 557l176 559l-162 37v111h469v-111l-123 -37l-448 -1329h-254l-451 1329z" />
<glyph unicode="W" horiz-adv-x="2062" d="M25 1366v111h565v-111l-146 -37l103 -448q24 -105 55.5 -260t51.5 -258l20 -103h10q80 401 133 608l158 609h203l157 -596q24 -91 56 -246.5t53 -264.5l20 -110h11q90 416 139 633l100 436l-149 37v111h473v-111l-137 -37l-338 -1329h-265l-159 612q-20 76 -45 202 t-40 214l-14 88h-10q-63 -334 -108 -504l-166 -612h-269l-340 1329z" />
<glyph unicode="X" horiz-adv-x="1492" d="M59 0v111l131 36l383 609l-360 575l-137 37v111h610v-111l-139 -33l260 -456h10l256 456l-149 33v111h477v-111l-133 -37l-353 -583l383 -598l136 -39v-111h-598v111l141 34l-295 494h-10l-283 -492l148 -38v-109h-478z" />
<glyph unicode="Y" horiz-adv-x="1357" d="M20 1366v111h564v-111l-140 -35l306 -563h8l291 563l-146 35v111h434v-111l-112 -37l-385 -713v-466l170 -39v-111h-637v111l176 39v464l-414 715z" />
<glyph unicode="Z" horiz-adv-x="1189" d="M47 0v135l760 1184v10h-488l-81 -285h-158l22 433h1033v-136l-764 -1185v-9h534l84 299h154l-21 -446h-1075z" />
<glyph unicode="[" horiz-adv-x="765" d="M156 -256v1817h526v-111l-270 -39v-1520l270 -36v-111h-526z" />
<glyph unicode="\" horiz-adv-x="768" d="M66 1561h163l516 -1817h-165z" />
<glyph unicode="]" horiz-adv-x="765" d="M84 -145l272 36v1520l-272 39v111h526v-1817h-526v111z" />
<glyph unicode="^" horiz-adv-x="978" d="M111 954l299 523h159l301 -523h-135l-246 306l-243 -306h-135z" />
<glyph unicode="_" horiz-adv-x="716" d="M-6 -137h729v-135h-729v135z" />
<glyph unicode="`" horiz-adv-x="1024" d="M211 1432l100 198l459 -282l-45 -91z" />
<glyph unicode="a" horiz-adv-x="1067" d="M37 274q0 60 17 106t46 77.5t76.5 56t98.5 39.5t122 29l246 49v100q0 62 -8.5 105t-32 80.5t-71 56t-119.5 18.5q-48 0 -97 -6l-32 -178h-160v264q67 26 184 42.5t234 16.5q189 0 278.5 -83t89.5 -256v-603q0 -44 22.5 -60.5t67.5 -16.5h52v-95q-27 -14 -84 -26.5 t-113 -12.5q-151 0 -180 132h-15q-49 -58 -123 -98t-169 -40q-148 0 -239 83.5t-91 219.5zM303 309q0 -96 40.5 -143t127.5 -47q96 0 172 76v311l-172 -12q-91 -6 -129.5 -50.5t-38.5 -134.5z" />
<glyph unicode="b" d="M-10 1475v104l372 49l31 -12v-612h10q51 39 89 62.5t103.5 45t135.5 21.5q65 0 121.5 -14.5t112 -52.5t95 -97t63.5 -154.5t24 -218.5q0 -310 -155.5 -465.5t-424.5 -155.5q-252 0 -432 86v1381zM399 168q26 -18 44 -28t57 -19.5t86 -9.5q68 0 117.5 21.5t87.5 71 t57.5 137.5t19.5 214q0 214 -65.5 301.5t-198.5 87.5q-98 0 -205 -45v-731z" />
<glyph unicode="c" horiz-adv-x="1021" d="M59 545q0 152 44.5 266.5t125 183t185 102t233.5 33.5q178 0 305 -43v-305h-159l-31 193q-58 16 -135 16q-138 0 -213.5 -103t-75.5 -315q0 -120 25.5 -205.5t74 -134t109.5 -70.5t141 -22q167 0 281 54v-121q-137 -99 -361 -99q-266 0 -407.5 152t-141.5 418z" />
<glyph unicode="d" horiz-adv-x="1284" d="M74 528q0 156 40 272.5t114.5 188t173.5 106.5t223 35q98 0 194 -28v340l-160 35v104l396 49l28 -10v-1460l146 -33v-98l-361 -49l-26 12v121h-13q-48 -61 -127 -99.5t-180 -38.5q-65 0 -125.5 16t-120.5 56t-104 101t-71 158.5t-27 221.5zM348 557q0 -216 67.5 -311.5 t200.5 -95.5q107 0 203 61v723q-26 18 -44.5 28.5t-56.5 19.5t-87 9q-67 0 -116 -20.5t-88 -68t-59 -134t-20 -211.5z" />
<glyph unicode="e" horiz-adv-x="1110" d="M59 563q0 261 146.5 414t376.5 153q243 0 356 -145t113 -442h-715q11 -404 342 -404q22 0 44 1t39 2t38 4.5t33 5t33 6.5t28.5 6.5t28.5 7.5t25 7t26.5 8.5t23.5 7.5v-117q-169 -103 -383 -103q-278 0 -416.5 156t-138.5 432zM334 666h438q0 178 -50 252.5t-151 74.5 q-217 0 -237 -327z" />
<glyph unicode="f" horiz-adv-x="759" d="M49 0v96l144 35v834h-140v102l140 51v146q0 78 23.5 141t63.5 105t95 70.5t115 41t126 12.5q157 0 295 -26v-271h-159l-31 162q-40 4 -70 4q-194 0 -194 -260v-133h254v-145h-254v-834l182 -35v-96h-590z" />
<glyph unicode="g" horiz-adv-x="1134" d="M14 -197q0 154 248 244v10q-133 46 -133 158q0 117 147 252q-89 37 -139.5 112.5t-50.5 176.5q0 177 125.5 275.5t323.5 98.5q126 0 219 -34l350 45v-164l-250 18v-8q123 -64 123 -221q0 -167 -125 -263.5t-320 -96.5q-92 0 -165 18q-16 -25 -26.5 -59.5t-10.5 -57.5 q0 -29 19.5 -47t58.5 -18h360q71 0 128.5 -14t105 -45.5t74 -87.5t26.5 -134q0 -86 -39 -161t-113 -133t-192 -91t-266 -33q-237 0 -357.5 75.5t-120.5 184.5zM258 -158q0 -72 64 -116.5t190 -44.5q171 0 260.5 58.5t89.5 147.5q0 69 -40 97t-126 28h-323q-49 -24 -82 -69 t-33 -101zM344 770q0 -119 51.5 -180.5t136.5 -61.5q86 0 137.5 62t51.5 176q0 120 -52 180t-137 60q-87 0 -137.5 -61.5t-50.5 -174.5z" />
<glyph unicode="h" horiz-adv-x="1298" d="M45 1483v104l377 49l27 -14v-623h12q200 131 362 131q147 0 223 -66.5t76 -219.5v-713l142 -35v-96h-539v96l131 31v643q0 94 -45.5 131t-144.5 37q-74 0 -209 -41v-770l129 -31v-96h-539v96l146 35v1317z" />
<glyph unicode="i" horiz-adv-x="628" d="M27 973v104l395 51l27 -14v-983l141 -35v-96h-549v96l143 35v807zM154 1440q0 63 43 105t108 42t108.5 -42t43.5 -105t-43.5 -105.5t-108.5 -42.5q-64 0 -107.5 42.5t-43.5 105.5z" />
<glyph unicode="j" horiz-adv-x="612" d="M-94 -289q59 -6 104 -6q87 0 137 45t50 162v1026l-156 35v104l391 51l29 -14v-1212q0 -167 -94.5 -254.5t-278.5 -87.5q-88 0 -182 32v119zM166 1440q0 63 43 105t108 42t108.5 -42t43.5 -105t-43.5 -105.5t-108.5 -42.5q-64 0 -107.5 42.5t-43.5 105.5z" />
<glyph unicode="k" horiz-adv-x="1187" d="M31 1481v104l383 49l28 -14v-1012l125 13l252 358l-141 31v100h459v-100l-144 -33l-262 -346l344 -500l105 -35v-96h-320l-323 485l-95 19v-377l138 -31v-96h-547v96l145 33v1317z" />
<glyph unicode="l" horiz-adv-x="628" d="M25 1481v104l395 49l26 -14v-1489l144 -35v-96h-553v96l145 35v1313z" />
<glyph unicode="m" horiz-adv-x="1939" d="M45 973v104l373 51l26 -14v-113h13q93 63 176 96t188 33q183 0 254 -139h10q197 139 383 139q140 0 216.5 -72t76.5 -222v-705l140 -35v-96h-535v96l129 31v633q0 100 -45 139t-145 39q-93 0 -205 -41q8 -24 8 -84v-686l127 -31v-96h-520v96l129 31v633q0 99 -43.5 138.5 t-138.5 39.5q-87 0 -205 -41v-770l129 -31v-96h-539v96l146 35v807z" />
<glyph unicode="n" horiz-adv-x="1302" d="M45 973v104l373 51l26 -14v-115h13q204 131 366 131q299 0 299 -286v-713l142 -35v-96h-539v96l131 31v633q0 97 -45.5 136.5t-144.5 39.5q-80 0 -209 -39v-770l129 -31v-96h-539v96l146 35v807z" />
<glyph unicode="o" d="M66 547q0 132 42 242.5t115 184.5t171 115t210 41q252 0 398.5 -153t146.5 -420q0 -131 -42.5 -242t-115.5 -186t-171.5 -116.5t-209.5 -41.5q-251 0 -397.5 157t-146.5 419zM344 563q0 -124 21.5 -214t60 -139.5t84.5 -72t102 -22.5q43 0 79 12.5t69.5 43t56.5 78 t37 122.5t14 172q0 100 -14.5 178.5t-39 128.5t-59 82t-72 45.5t-81.5 13.5q-258 0 -258 -428z" />
<glyph unicode="p" horiz-adv-x="1265" d="M35 973v104l373 51l26 -14v-115h12q74 60 153.5 97t180.5 37q65 0 122 -14.5t112 -52.5t94 -97t62.5 -154.5t23.5 -218.5q0 -156 -41 -273.5t-116.5 -189.5t-176.5 -107.5t-227 -35.5q-97 0 -184 24v-331l167 -33v-94h-577v94l145 31v1257zM449 176q29 -17 44 -24.5 t55 -17t89 -9.5q66 0 115.5 21.5t87.5 70t58 133.5t20 205q0 206 -67 297.5t-200 91.5q-95 0 -202 -45v-723z" />
<glyph unicode="q" horiz-adv-x="1236" d="M66 520q0 305 154 457.5t419 152.5q250 0 436 -69v-1380l142 -31v-94h-574v94l170 35v405h-14q-64 -57 -130 -86t-161 -29q-67 0 -126.5 15t-119 54t-101.5 99t-68.5 156.5t-26.5 220.5zM340 557q0 -407 268 -407q108 0 203 51v733q-26 19 -45 29t-58.5 19t-91.5 9 q-276 0 -276 -434z" />
<glyph unicode="r" horiz-adv-x="827" d="M41 973v104l373 51l26 -14v-160h13q54 74 125.5 124t154.5 50q43 0 58 -6v-237q-33 8 -89 8q-164 0 -249 -49v-713l168 -35v-96h-578v96l145 35v807z" />
<glyph unicode="s" horiz-adv-x="950" d="M57 313h154l51 -163q86 -44 184 -44q92 0 150.5 42.5t58.5 115.5q0 72 -38 106t-144 66l-119 35q-146 43 -217 117.5t-71 202.5q0 149 110.5 244t321.5 95q192 0 327 -49v-258h-147l-41 144q-62 30 -156 30q-84 0 -138 -36t-54 -107q0 -63 42.5 -99t151.5 -69l125 -37 q155 -45 221 -119t66 -196q0 -163 -117.5 -263t-345.5 -100q-183 0 -356 66z" />
<glyph unicode="t" horiz-adv-x="806" d="M37 965v102l156 53v250h264v-260h284v-145h-284v-654q0 -95 35.5 -131.5t132.5 -36.5q62 0 131 15v-109q-111 -69 -258 -69q-156 0 -230.5 64t-74.5 218v703h-156z" />
<glyph unicode="u" horiz-adv-x="1302" d="M27 985v102l385 39l24 -14v-754q0 -104 39 -149t141 -45q50 0 96.5 9.5t66.5 17t59 24.5v735l-138 35v102l375 39l29 -14v-952l145 -33v-98l-372 -49l-27 12v129h-12q-151 -144 -351 -144q-315 0 -315 320v653z" />
<glyph unicode="v" horiz-adv-x="1198" d="M16 1010v100h512v-100l-125 -25l117 -348q25 -75 59.5 -190t56.5 -193l21 -78h9q76 291 133 461l116 348l-127 25v100h394v-100l-103 -31l-354 -979h-240l-366 979z" />
<glyph unicode="w" horiz-adv-x="1732" d="M25 1010v100h493v-100l-127 -31l101 -348q18 -63 38.5 -165.5t31.5 -173.5l11 -71h9q47 269 90 410l143 479h199l143 -479q19 -63 41.5 -165.5t35.5 -173.5l13 -71h8q54 269 93 410l98 348l-123 31v100h385v-100l-94 -31l-295 -979h-211l-141 489q-18 64 -38.5 156 t-32.5 153l-11 60h-6q-41 -224 -86 -369l-154 -489h-219l-299 979z" />
<glyph unicode="x" horiz-adv-x="1200" d="M35 0v96l108 33l301 420l-292 428l-105 33v100h522v-100l-118 -27l213 -336h8l209 336l-127 27v100h395v-100l-94 -31l-287 -422l293 -428l108 -33v-96h-526v96l127 27l-225 336h-8l-222 -336l131 -27v-96h-411z" />
<glyph unicode="y" horiz-adv-x="1181" d="M12 1010v100h518v-100l-137 -29l139 -363q23 -60 51.5 -152.5t46.5 -155.5l17 -62h8q62 235 109 370l127 361l-131 31v100h405v-100l-94 -31l-422 -1126q-42 -112 -83.5 -173t-105 -93.5t-159.5 -32.5q-94 0 -192 53v141q81 -18 124 -18q105 0 154 41t84 129l41 102 l-403 977z" />
<glyph unicode="z" horiz-adv-x="1064" d="M70 0v121l598 852v8h-377l-53 -217h-138l19 346h854v-121l-594 -850v-8h397l68 240h137l-29 -371h-882z" />
<glyph unicode="{" horiz-adv-x="882" d="M88 565v176q80 10 130.5 24t76 35t33.5 43t8 56q0 38 -34 173.5t-34 195.5q0 68 25 117.5t84 89t163 61t255 25.5v-131q-155 -22 -206.5 -54t-51.5 -110q0 -43 21.5 -169.5t21.5 -181.5q0 -47 -14.5 -82.5t-50.5 -69t-104 -60t-169 -46.5v-10q134 -27 210 -66t102 -83.5 t26 -108.5q0 -55 -21.5 -180.5t-21.5 -167.5q0 -79 52 -111.5t206 -52.5v-133q-151 4 -255 25.5t-163 61t-84 90t-25 118.5q0 60 34 194.5t34 174.5q0 45 -15.5 71.5t-71 49.5t-161.5 36z" />
<glyph unicode="|" horiz-adv-x="509" d="M168 -256v1817h176v-1817h-176z" />
<glyph unicode="}" horiz-adv-x="882" d="M88 -123q153 21 205.5 53.5t52.5 110.5q0 42 -22.5 167.5t-22.5 180.5q0 48 14.5 83.5t50.5 69t104.5 59.5t170.5 46v10q-102 20 -170.5 46.5t-104.5 60t-50.5 69t-14.5 82.5q0 55 22.5 181.5t22.5 169.5q0 78 -52 110t-206 54v131q121 -3 212 -18t150 -39.5t95.5 -61 t51.5 -78.5t15 -96q0 -60 -33.5 -195.5t-33.5 -173.5q0 -46 16 -73t72 -50t162 -35v-176q-106 -14 -162 -37t-72 -49.5t-16 -70.5q0 -40 33.5 -174.5t33.5 -194.5q0 -68 -24.5 -118.5t-83 -90t-162 -61t-254.5 -25.5v133z" />
<glyph unicode="~" horiz-adv-x="911" d="M41 553q53 127 118 188.5t156 61.5q50 0 106 -24t105 -48t80 -24q78 0 146 110l122 -72q-52 -125 -118.5 -187t-155.5 -62q-52 0 -108.5 24t-105 48t-79.5 24q-79 0 -147 -113z" />
<glyph unicode="&#xa1;" horiz-adv-x="532" d="M113 1094q0 62 45 107.5t110 45.5t109.5 -45.5t44.5 -107.5t-44.5 -107t-109.5 -45t-110 45t-45 107zM123 -252l74 1045h149l70 -1045h-293z" />
<glyph unicode="&#xa2;" horiz-adv-x="1021" d="M57 545q0 144 40 254t113 179.5t168.5 106.5t213.5 43l18 181h131l-18 -181q132 -9 233 -43v-303h-135l-39 201q-35 12 -73 14l-86 -866q18 -2 57 -2q152 0 293 61v-116q-141 -99 -367 -99l-28 -290h-132l29 303q-203 35 -310.5 181t-107.5 376zM322 573 q0 -176 43.5 -274.5t136.5 -138.5l86 839q-266 -28 -266 -426z" />
<glyph unicode="&#xa3;" horiz-adv-x="1099" d="M66 0v139q88 53 130 133t42 213v125h-134v140h134v163q0 121 38.5 215.5t105 151.5t151 86t182.5 29q155 0 315 -41v-303h-160l-45 202q-40 7 -71 7q-126 0 -179.5 -78t-70.5 -291l-12 -141h360v-140h-371l-4 -63q-9 -121 -52 -195t-132 -141v-4h751l-26 -207h-952z" />
<glyph unicode="&#xa4;" horiz-adv-x="1325" d="M90 469v111h146q-5 41 -5 104q0 61 2 90h-143v111h158q24 137 83 238t143.5 159t182 85.5t211.5 27.5q191 0 344 -54l13 -325h-148l-71 201q-62 36 -156 36q-148 0 -230 -89t-104 -279h402v-111h-410v-51q0 -100 4 -143h406v-111h-392q32 -179 121.5 -254.5t255.5 -75.5 q150 0 326 70v-121q-171 -113 -389 -113q-233 0 -387.5 123t-202.5 371h-160z" />
<glyph unicode="&#xa5;" horiz-adv-x="1269" d="M23 1262v108h534v-108l-135 -35l276 -475h7l266 475l-133 35v108h407v-108l-102 -39l-307 -510h297v-111h-347v-168h347v-110h-347v-177l170 -38v-109h-620v109l172 38v177h-346v110h346v168h-346v111h289l-328 510z" />
<glyph unicode="&#xa6;" horiz-adv-x="509" d="M176 -256v850h156v-850h-156zM176 791v770h156v-770h-156z" />
<glyph unicode="&#xa7;" horiz-adv-x="1153" d="M59 610q0 210 273 283q-152 93 -152 270q0 157 112 247.5t326 90.5q193 0 330 -51v-252h-147l-41 135q-68 33 -160 33q-84 0 -141.5 -39t-57.5 -113q0 -70 39.5 -108.5t145.5 -77.5l164 -61q85 -32 142.5 -61.5t106 -69t72 -90t23.5 -113.5q0 -110 -70 -182t-199 -105 q172 -101 172 -276q0 -155 -115 -253t-333 -98q-197 0 -363 66l-16 266h152l53 -153q88 -41 182 -41q89 0 149 39t60 116q0 69 -49 115.5t-150 83.5l-168 61q-173 64 -256.5 139.5t-83.5 198.5zM274 668q0 -65 56.5 -105t195.5 -92l158 -61q90 8 141.5 49.5t51.5 111.5 q0 65 -55.5 105.5t-186.5 89.5l-168 63q-90 -9 -141.5 -51.5t-51.5 -109.5z" />
<glyph unicode="&#xa8;" horiz-adv-x="1024" d="M156 1407q0 61 41 101t100 40q60 0 100.5 -40t40.5 -101q0 -58 -41 -99.5t-100 -41.5q-58 0 -99.5 42t-41.5 99zM586 1407q0 61 41 101t100 40q60 0 100.5 -40t40.5 -101q0 -58 -41 -99.5t-100 -41.5q-58 0 -99.5 42t-41.5 99z" />
<glyph unicode="&#xa9;" horiz-adv-x="1718" d="M111 733q0 207 97.5 381t269.5 275.5t380 101.5q207 0 380 -101.5t271.5 -275.5t98.5 -381t-98.5 -382.5t-271.5 -278.5t-380 -103q-208 0 -380 103t-269.5 278t-97.5 383zM233 733q0 -181 77.5 -331t221.5 -240t326 -90q180 0 323.5 89.5t221.5 240.5t78 331 q0 179 -78 329t-221.5 239.5t-323.5 89.5q-182 0 -326 -89.5t-221.5 -239t-77.5 -329.5zM506 731q0 99 31.5 175.5t86 122t123 68.5t148.5 23q135 0 227 -30l8 -213h-102l-43 124q-57 21 -98 21q-93 0 -131.5 -68.5t-38.5 -201.5q0 -159 39 -229t139 -70q62 0 94 18l47 141 h103l-13 -217q-109 -41 -247 -41q-168 0 -270.5 97t-102.5 280z" />
<glyph unicode="&#xaa;" horiz-adv-x="1003" d="M63 739q0 53 16 95t43.5 71.5t71 52t91 37.5t110.5 27l205 39v76q0 116 -43 173.5t-160 57.5q-21 0 -75 -4l-25 -164h-156v238q154 59 373 59q338 0 338 -305v-502q0 -38 19 -51.5t59 -13.5h39v-113q-59 -39 -168 -39q-147 0 -172 113h-11q-103 -119 -262 -119 q-132 0 -212.5 75t-80.5 197zM311 768q0 -78 35.5 -120t104.5 -42q43 0 85 17t64 39v274l-143 -8q-72 -4 -109 -45t-37 -115z" />
<glyph unicode="&#xab;" horiz-adv-x="1011" d="M92 500v75l281 447h157l-211 -483l211 -486h-157zM496 500v75l280 447h158l-209 -483l209 -486h-158z" />
<glyph unicode="&#xad;" horiz-adv-x="739" d="M98 502v213h543v-213h-543z" />
<glyph unicode="&#xae;" horiz-adv-x="1718" d="M111 733q0 207 97.5 381t269.5 275.5t380 101.5q207 0 380 -101.5t271.5 -275.5t98.5 -381t-98.5 -382.5t-271.5 -278.5t-380 -103q-208 0 -380 103t-269.5 278t-97.5 383zM233 733q0 -181 77.5 -331t221.5 -240t326 -90q180 0 323.5 89.5t221.5 240.5t78 331 q0 179 -78 329t-221.5 239.5t-323.5 89.5q-182 0 -326 -89.5t-221.5 -239t-77.5 -329.5zM539 375v76l75 18v526l-73 19v78h338q134 0 206 -54.5t72 -150.5q0 -128 -129 -174v-8l143 -236l60 -18v-76h-203l-168 297h-63v-203l67 -18v-76h-325zM797 760h75q109 0 109 117 q0 62 -26.5 89t-86.5 27h-71v-233z" />
<glyph unicode="&#xaf;" horiz-adv-x="1024" d="M219 1325v154h584v-154h-584z" />
<glyph unicode="&#xb0;" horiz-adv-x="911" d="M106 1155q0 141 101 240.5t250 99.5t248.5 -99.5t99.5 -240.5q0 -142 -99.5 -243t-248.5 -101t-250 101.5t-101 242.5zM244 1155q0 -98 58 -163.5t155 -65.5q96 0 153.5 65.5t57.5 163.5t-57.5 161.5t-153.5 63.5q-98 0 -155.5 -63.5t-57.5 -161.5z" />
<glyph unicode="&#xb2;" horiz-adv-x="745" d="M31 514v133l215 205q84 81 130 149t46 134q0 84 -40 129t-116 45q-9 0 -26 -1t-25 -1l-22 -133h-138v217q128 53 303 53q155 0 240.5 -72t85.5 -201q0 -55 -20 -105t-63.5 -99t-92 -90t-125.5 -97l-133 -96v-4h448l-12 -166h-655z" />
<glyph unicode="&#xb3;" horiz-adv-x="737" d="M33 561v105q95 -31 207 -31q184 0 184 145q0 73 -40.5 104t-127.5 31h-86v125h72q81 0 125.5 39t44.5 101q0 75 -33.5 110t-110.5 35q-37 0 -53 -2l-25 -119h-137v191q43 20 126.5 34.5t162.5 14.5q149 0 230 -60.5t81 -169.5q0 -83 -59.5 -138.5t-153.5 -80.5v-6 q107 -17 173.5 -70.5t66.5 -152.5q0 -125 -97.5 -195.5t-273.5 -70.5q-164 0 -276 61z" />
<glyph unicode="&#xb4;" horiz-adv-x="1024" d="M254 1348l459 282l100 -198l-514 -175z" />
<glyph unicode="&#xb6;" horiz-adv-x="1310" d="M84 1094q0 383 496 383h686v-111l-154 -37v-1585h-143v1597h-226v-1597h-143v956q-38 -6 -86 -6q-87 0 -163 24t-136.5 71.5t-95.5 126t-35 178.5z" />
<glyph unicode="&#xb7;" horiz-adv-x="638" d="M150 694q0 71 49.5 119.5t122.5 48.5q70 0 118.5 -48.5t48.5 -119.5q0 -68 -48.5 -117t-118.5 -49q-73 0 -122.5 49t-49.5 117z" />
<glyph unicode="&#xb8;" horiz-adv-x="1024" d="M365 -410q280 28 280 121q0 37 -38.5 53t-147.5 17v219h102v-113q141 -6 209 -45.5t68 -115.5q0 -60 -40 -102t-147.5 -72t-285.5 -39v77z" />
<glyph unicode="&#xb9;" horiz-adv-x="614" d="M51 1214v97l279 129h114v-807l134 -23v-96h-517v96l134 23v592z" />
<glyph unicode="&#xba;" horiz-adv-x="1095" d="M74 977q0 237 134.5 378.5t336.5 141.5q222 0 348.5 -136t126.5 -372q0 -238 -134.5 -380t-336.5 -142q-222 0 -348.5 138t-126.5 372zM330 991q0 -114 17 -193.5t48.5 -121t69 -59t86.5 -17.5q38 0 68 9.5t57.5 34.5t45.5 66.5t29 107.5t11 155q0 92 -11.5 162 t-31 113.5t-48 70.5t-59 37t-67.5 10q-39 0 -69 -9.5t-58.5 -34.5t-47 -66t-29.5 -108t-11 -157z" />
<glyph unicode="&#xbb;" horiz-adv-x="1011" d="M78 53l209 484l-209 485h158l280 -447v-75l-280 -447h-158zM481 53l211 484l-211 485h158l281 -447v-75l-281 -447h-158z" />
<glyph unicode="&#xbc;" horiz-adv-x="1855" d="M59 1214v97l279 129h115v-807l133 -23v-96h-516v96l133 23v592zM387 -82l997 1542h158l-997 -1542h-158zM1032 106v107l445 553h198v-541h135v-119h-135v-256h-233v256h-410zM1188 225h254v322h-6l-248 -318v-4z" />
<glyph unicode="&#xbd;" horiz-adv-x="1910" d="M61 1214v97l279 129h115v-807l133 -23v-96h-516v96l133 23v592zM377 -82l997 1542h158l-997 -1542h-158zM1186 -16l215 204q84 81 130 149t46 134q0 84 -40 129t-116 45q-9 0 -26 -1t-25 -1l-22 -133h-138v217q128 53 303 53q155 0 240.5 -71.5t85.5 -200.5 q0 -55 -20 -105t-63.5 -99t-92 -90t-125.5 -97l-133 -97v-4h448l-12 -166h-655v134z" />
<glyph unicode="&#xbe;" horiz-adv-x="1896" d="M59 561v105q95 -31 207 -31q185 0 185 145q0 73 -40.5 104t-127.5 31h-86v125h71q81 0 125.5 39t44.5 101q0 75 -33 110t-110 35q-37 0 -53 -2l-25 -119h-137v191q43 20 126.5 34.5t162.5 14.5q149 0 230 -60.5t81 -169.5q0 -83 -59.5 -138.5t-153.5 -80.5v-6 q107 -17 173.5 -70.5t66.5 -152.5q0 -125 -97.5 -195.5t-273.5 -70.5q-165 0 -277 61zM430 -82l997 1542h158l-997 -1542h-158zM1063 106v107l444 553h199v-541h135v-119h-135v-256h-233v256h-410zM1219 225h254v322h-7l-247 -318v-4z" />
<glyph unicode="&#xbf;" horiz-adv-x="927" d="M80 88q0 71 16 125.5t54 100t78.5 78t111.5 79.5q100 68 126 95q46 47 46 108q0 51 -16 119h137q39 -85 39 -168q0 -44 -9 -77t-34 -67t-49.5 -58t-75.5 -69q-76 -67 -110 -121t-34 -133q0 -119 52 -178t172 -59q55 0 80 2l41 166h159v-256q-155 -51 -332 -51 q-100 0 -180 19.5t-142 61.5t-96 113.5t-34 169.5zM401 1094q0 62 45.5 107.5t110.5 45.5t109.5 -45.5t44.5 -107.5t-44.5 -107t-109.5 -45t-110.5 45t-45.5 107z" />
<glyph unicode="&#xc0;" horiz-adv-x="1449" d="M6 0v111l129 39l461 1327h270l447 -1327l129 -39v-111h-608v111l163 39l-90 286h-495l-95 -286l166 -39v-111h-477zM424 1780l100 198l459 -282l-45 -90zM455 571h409l-86 273q-22 68 -47.5 172.5t-40.5 175.5l-14 70h-10q-70 -266 -121 -418z" />
<glyph unicode="&#xc1;" horiz-adv-x="1449" d="M6 0v111l129 39l461 1327h270l447 -1327l129 -39v-111h-608v111l163 39l-90 286h-495l-95 -286l166 -39v-111h-477zM455 571h409l-86 273q-22 68 -47.5 172.5t-40.5 175.5l-14 70h-10q-70 -266 -121 -418zM467 1696l459 282l100 -198l-514 -174z" />
<glyph unicode="&#xc2;" horiz-adv-x="1449" d="M6 0v111l129 39l461 1327h270l447 -1327l129 -39v-111h-608v111l163 39l-90 286h-495l-95 -286l166 -39v-111h-477zM381 1636l281 301h124l281 -301l-47 -65l-297 170l-295 -170zM455 571h409l-86 273q-22 68 -47.5 172.5t-40.5 175.5l-14 70h-10q-70 -266 -121 -418z " />
<glyph unicode="&#xc3;" horiz-adv-x="1449" d="M6 0v111l129 39l461 1327h270l447 -1327l129 -39v-111h-608v111l163 39l-90 286h-495l-95 -286l166 -39v-111h-477zM352 1681q95 234 252 234q51 0 150 -41t125 -41q66 0 125 96l92 -51q-45 -111 -105.5 -166t-144.5 -55q-50 0 -147.5 39t-129.5 39q-35 0 -63 -24.5 t-62 -80.5zM455 571h409l-86 273q-22 68 -47.5 172.5t-40.5 175.5l-14 70h-10q-70 -266 -121 -418z" />
<glyph unicode="&#xc4;" horiz-adv-x="1449" d="M6 0v111l129 39l461 1327h270l447 -1327l129 -39v-111h-608v111l163 39l-90 286h-495l-95 -286l166 -39v-111h-477zM369 1755q0 61 41 101t100 40q60 0 100.5 -40t40.5 -101q0 -58 -41 -99.5t-100 -41.5q-58 0 -99.5 42t-41.5 99zM455 571h409l-86 273 q-22 68 -47.5 172.5t-40.5 175.5l-14 70h-10q-70 -266 -121 -418zM799 1755q0 61 41 101t100 40q60 0 100.5 -40t40.5 -101q0 -58 -41 -99.5t-100 -41.5q-58 0 -99.5 42t-41.5 99z" />
<glyph unicode="&#xc5;" horiz-adv-x="1449" d="M6 0v111l129 39l461 1327h270l447 -1327l129 -39v-111h-608v111l163 39l-90 286h-495l-95 -286l166 -39v-111h-477zM455 571h409l-86 273q-22 68 -47.5 172.5t-40.5 175.5l-14 70h-10q-70 -266 -121 -418zM471 1817q0 100 74.5 170.5t181.5 70.5t179.5 -70.5t72.5 -170.5 q0 -102 -72.5 -173t-179.5 -71t-181.5 71.5t-74.5 172.5zM580 1817q0 -70 39.5 -111t107.5 -41q67 0 106 40.5t39 111.5q0 69 -39 109t-106 40q-68 0 -107.5 -40t-39.5 -109z" />
<glyph unicode="&#xc6;" horiz-adv-x="2019" d="M33 0v115l106 37l709 1191l-166 21v113h1223l20 -387h-151l-74 245h-459v-510h209l49 187h123v-512h-123l-49 192h-209v-551h483l91 299h151l-24 -440h-1151v111l172 39v266h-488l-151 -264l165 -41v-111h-456zM555 551h408v342q0 99 6.5 211t12.5 174l7 63h-12 q-86 -210 -203 -411z" />
<glyph unicode="&#xc7;" horiz-adv-x="1347" d="M68 723q0 170 41 304.5t109.5 222t164 145t198.5 82t220 24.5q263 0 424 -59l14 -389h-158l-69 247q-118 48 -230 48q-407 0 -407 -584q0 -334 99.5 -483.5t324.5 -149.5q135 0 225 51l72 264h155l-14 -395q-179 -76 -471 -76q-29 0 -43 2v-90q141 -6 208.5 -45.5 t67.5 -115.5q0 -60 -40 -102t-147.5 -72t-285.5 -39v77q281 28 281 121q0 37 -38.5 53t-147.5 17v205q-128 18 -227 69t-173.5 139t-113.5 221.5t-39 307.5z" />
<glyph unicode="&#xc8;" horiz-adv-x="1308" d="M57 0v111l172 39v1179l-170 37v111h1137l21 -387h-152l-74 245h-475v-510h225l50 187h122v-512h-122l-50 192h-225v-551h500l90 299h151l-24 -440h-1176zM352 1780l101 198l458 -282l-45 -90z" />
<glyph unicode="&#xc9;" horiz-adv-x="1308" d="M57 0v111l172 39v1179l-170 37v111h1137l21 -387h-152l-74 245h-475v-510h225l50 187h122v-512h-122l-50 192h-225v-551h500l90 299h151l-24 -440h-1176zM395 1696l459 282l100 -198l-514 -174z" />
<glyph unicode="&#xca;" horiz-adv-x="1308" d="M57 0v111l172 39v1179l-170 37v111h1137l21 -387h-152l-74 245h-475v-510h225l50 187h122v-512h-122l-50 192h-225v-551h500l90 299h151l-24 -440h-1176zM309 1636l281 301h125l280 -301l-47 -65l-297 170l-295 -170z" />
<glyph unicode="&#xcb;" horiz-adv-x="1308" d="M57 0v111l172 39v1179l-170 37v111h1137l21 -387h-152l-74 245h-475v-510h225l50 187h122v-512h-122l-50 192h-225v-551h500l90 299h151l-24 -440h-1176zM297 1755q0 61 41 101t100 40q60 0 101 -40t41 -101q0 -58 -41.5 -99.5t-100.5 -41.5q-58 0 -99.5 42t-41.5 99z M727 1755q0 61 41 101t100 40q60 0 101 -40t41 -101q0 -58 -41.5 -99.5t-100.5 -41.5q-58 0 -99.5 42t-41.5 99z" />
<glyph unicode="&#xcc;" horiz-adv-x="724" d="M53 0v111l164 39v1179l-164 37v111h619v-111l-162 -37v-1179l162 -39v-111h-619zM61 1780l101 198l459 -282l-46 -90z" />
<glyph unicode="&#xcd;" horiz-adv-x="724" d="M53 0v111l164 39v1179l-164 37v111h619v-111l-162 -37v-1179l162 -39v-111h-619zM104 1696l459 282l101 -198l-514 -174z" />
<glyph unicode="&#xce;" horiz-adv-x="724" d="M18 1636l281 301h125l281 -301l-48 -65l-297 170l-294 -170zM53 0v111l164 39v1179l-164 37v111h619v-111l-162 -37v-1179l162 -39v-111h-619z" />
<glyph unicode="&#xcf;" horiz-adv-x="724" d="M6 1755q0 61 41 101t100 40q60 0 101 -40t41 -101q0 -58 -41.5 -99.5t-100.5 -41.5q-58 0 -99.5 42t-41.5 99zM53 0v111l164 39v1179l-164 37v111h619v-111l-162 -37v-1179l162 -39v-111h-619zM436 1755q0 61 41.5 101t100.5 40q60 0 100.5 -40t40.5 -101 q0 -58 -41 -99.5t-100 -41.5q-58 0 -100 42t-42 99z" />
<glyph unicode="&#xd0;" horiz-adv-x="1492" d="M59 0v111l172 39v520h-155v153h155v506l-170 37v111h631q372 0 550.5 -175.5t178.5 -531.5q0 -382 -180.5 -576t-531.5 -194h-650zM522 145h178q107 0 181 27.5t128 94.5t79.5 183t25.5 289q0 111 -10.5 197.5t-29 149t-50 106.5t-66 71t-85 42.5t-100 20.5t-116.5 5 h-135v-508h328v-153h-328v-525z" />
<glyph unicode="&#xd1;" horiz-adv-x="1570" d="M61 0v111l172 41v1177l-172 37v111h496l422 -693q43 -70 93 -172t79 -168l29 -67h10v946l-170 41v113h498v-111l-152 -39v-1327h-225l-529 877q-42 69 -90.5 170.5t-75.5 168.5l-28 66h-8v-1130l172 -41v-111h-521zM412 1681q95 234 252 234q51 0 149.5 -41t124.5 -41 q66 0 125 96l92 -51q-45 -111 -105.5 -166t-144.5 -55q-50 0 -147 39t-129 39q-35 0 -63 -24.5t-62 -80.5z" />
<glyph unicode="&#xd2;" horiz-adv-x="1517" d="M82 735q0 155 38 283.5t103.5 216.5t153 149t185 89t202.5 28q144 0 265.5 -48.5t213 -141t143.5 -238t52 -328.5q0 -155 -38 -284t-103.5 -217.5t-153 -150t-185 -90t-202.5 -28.5q-144 0 -266 49t-213.5 142t-143 239t-51.5 330zM387 758q0 -318 87.5 -473.5 t287.5 -155.5q182 0 275 153.5t93 438.5q0 325 -92 477t-282 152q-183 0 -276 -154.5t-93 -437.5zM457 1780l100 198l459 -282l-45 -90z" />
<glyph unicode="&#xd3;" horiz-adv-x="1517" d="M82 735q0 155 38 283.5t103.5 216.5t153 149t185 89t202.5 28q144 0 265.5 -48.5t213 -141t143.5 -238t52 -328.5q0 -155 -38 -284t-103.5 -217.5t-153 -150t-185 -90t-202.5 -28.5q-144 0 -266 49t-213.5 142t-143 239t-51.5 330zM387 758q0 -318 87.5 -473.5 t287.5 -155.5q182 0 275 153.5t93 438.5q0 325 -92 477t-282 152q-183 0 -276 -154.5t-93 -437.5zM500 1696l458 282l101 -198l-514 -174z" />
<glyph unicode="&#xd4;" horiz-adv-x="1517" d="M82 735q0 155 38 283.5t103.5 216.5t153 149t185 89t202.5 28q144 0 265.5 -48.5t213 -141t143.5 -238t52 -328.5q0 -155 -38 -284t-103.5 -217.5t-153 -150t-185 -90t-202.5 -28.5q-144 0 -266 49t-213.5 142t-143 239t-51.5 330zM387 758q0 -318 87.5 -473.5 t287.5 -155.5q182 0 275 153.5t93 438.5q0 325 -92 477t-282 152q-183 0 -276 -154.5t-93 -437.5zM414 1636l280 301h125l281 -301l-47 -65l-297 170l-295 -170z" />
<glyph unicode="&#xd5;" horiz-adv-x="1517" d="M82 735q0 155 38 283.5t103.5 216.5t153 149t185 89t202.5 28q144 0 265.5 -48.5t213 -141t143.5 -238t52 -328.5q0 -155 -38 -284t-103.5 -217.5t-153 -150t-185 -90t-202.5 -28.5q-144 0 -266 49t-213.5 142t-143 239t-51.5 330zM385 1681q95 234 252 234 q51 0 149.5 -41t124.5 -41q66 0 125 96l92 -51q-45 -112 -105 -166.5t-144 -54.5q-50 0 -147.5 39t-129.5 39q-35 0 -63 -24.5t-62 -80.5zM387 758q0 -318 87.5 -473.5t287.5 -155.5q182 0 275 153.5t93 438.5q0 325 -92 477t-282 152q-183 0 -276 -154.5t-93 -437.5z" />
<glyph unicode="&#xd6;" horiz-adv-x="1517" d="M82 735q0 155 38 283.5t103.5 216.5t153 149t185 89t202.5 28q144 0 265.5 -48.5t213 -141t143.5 -238t52 -328.5q0 -155 -38 -284t-103.5 -217.5t-153 -150t-185 -90t-202.5 -28.5q-144 0 -266 49t-213.5 142t-143 239t-51.5 330zM387 758q0 -318 87.5 -473.5 t287.5 -155.5q182 0 275 153.5t93 438.5q0 325 -92 477t-282 152q-183 0 -276 -154.5t-93 -437.5zM401 1755q0 61 41.5 101t100.5 40q60 0 100.5 -40t40.5 -101q0 -58 -41 -99.5t-100 -41.5q-58 0 -100 42t-42 99zM831 1755q0 61 41.5 101t100.5 40q60 0 100.5 -40 t40.5 -101q0 -58 -41 -99.5t-100 -41.5q-58 0 -100 42t-42 99z" />
<glyph unicode="&#xd7;" horiz-adv-x="1245" d="M154 295l356 360l-356 363l112 112l357 -362l354 360l113 -112l-357 -361l359 -360l-113 -113l-356 361l-357 -361z" />
<glyph unicode="&#xd8;" horiz-adv-x="1517" d="M82 735q0 155 38 283.5t103.5 216.5t153 149t185 89t202.5 28q208 0 366 -100l95 139h155l-147 -219q205 -205 205 -576q0 -155 -38 -284t-103.5 -217.5t-153 -150t-185 -90t-202.5 -28.5q-205 0 -365 97l-106 -158h-158l162 240q-207 204 -207 581zM377 760 q0 -281 47 -418l608 901q-86 107 -278 107q-185 0 -281 -154.5t-96 -435.5zM487 225q81 -96 275 -96q186 0 283.5 151t97.5 431q0 277 -47 417z" />
<glyph unicode="&#xd9;" horiz-adv-x="1501" d="M31 1366v111h624v-111l-166 -35v-839q0 -180 79 -267.5t247 -87.5q171 0 251.5 87.5t80.5 267.5v837l-168 35v113h489v-111l-147 -37v-850q0 -235 -141 -371.5t-412 -136.5q-284 0 -427.5 130t-143.5 358v870zM449 1780l100 198l459 -282l-45 -90z" />
<glyph unicode="&#xda;" horiz-adv-x="1501" d="M31 1366v111h624v-111l-166 -35v-839q0 -180 79 -267.5t247 -87.5q171 0 251.5 87.5t80.5 267.5v837l-168 35v113h489v-111l-147 -37v-850q0 -235 -141 -371.5t-412 -136.5q-284 0 -427.5 130t-143.5 358v870zM492 1696l458 282l101 -198l-514 -174z" />
<glyph unicode="&#xdb;" horiz-adv-x="1501" d="M31 1366v111h624v-111l-166 -35v-839q0 -180 79 -267.5t247 -87.5q171 0 251.5 87.5t80.5 267.5v837l-168 35v113h489v-111l-147 -37v-850q0 -235 -141 -371.5t-412 -136.5q-284 0 -427.5 130t-143.5 358v870zM406 1636l280 301h125l281 -301l-48 -65l-296 170l-295 -170 z" />
<glyph unicode="&#xdc;" horiz-adv-x="1501" d="M31 1366v111h624v-111l-166 -35v-839q0 -180 79 -267.5t247 -87.5q171 0 251.5 87.5t80.5 267.5v837l-168 35v113h489v-111l-147 -37v-850q0 -235 -141 -371.5t-412 -136.5q-284 0 -427.5 130t-143.5 358v870zM393 1755q0 61 41.5 101t100.5 40q60 0 100.5 -40t40.5 -101 q0 -58 -41 -99.5t-100 -41.5q-58 0 -100 42t-42 99zM823 1755q0 61 41.5 101t100.5 40q60 0 100.5 -40t40.5 -101q0 -58 -41 -99.5t-100 -41.5q-58 0 -100 42t-42 99z" />
<glyph unicode="&#xdd;" horiz-adv-x="1357" d="M20 1366v111h564v-111l-140 -35l306 -563h8l291 563l-146 35v111h434v-111l-112 -37l-385 -713v-466l170 -39v-111h-637v111l176 39v464l-414 715zM420 1696l459 282l100 -198l-514 -174z" />
<glyph unicode="&#xde;" horiz-adv-x="1251" d="M61 0v109l170 38v1182l-170 37v111h625v-111l-164 -37v-170h152q149 0 255 -27t167.5 -79.5t89.5 -121t28 -159.5q0 -201 -128 -302t-371 -101q-111 0 -193 20v-242l203 -38v-109h-664zM522 514q79 -14 152 -14q130 0 188 64t58 196q0 136 -57 195t-187 59h-154v-500z " />
<glyph unicode="&#xdf;" horiz-adv-x="1333" d="M49 0v96l144 35v834h-140v102l140 51v76q0 192 142 316t378 124q206 0 323 -82t117 -225q0 -57 -34.5 -116.5t-83.5 -107.5t-98 -92.5t-83.5 -88t-34.5 -78.5q0 -42 32.5 -73.5t111.5 -80.5l88 -55q46 -29 69.5 -45t59.5 -47.5t54 -61t32 -74t14 -96.5 q0 -151 -96.5 -245.5t-284.5 -94.5q-145 0 -295 52l-10 231h145l39 -127q60 -29 115 -29q79 0 122.5 41t43.5 111q0 21 -4 38.5t-18 35t-22.5 28t-37 30t-40 26.5t-50.5 32l-90 56q-86 53 -136.5 113.5t-50.5 148.5q0 59 29 120t70 112.5t82.5 102t70.5 106t29 106.5 q0 101 -46 145.5t-140 44.5q-131 0 -189.5 -83.5t-58.5 -246.5v-1165h-408z" />
<glyph unicode="&#xe0;" horiz-adv-x="1067" d="M37 274q0 60 17 106t46 77.5t76.5 56t98.5 39.5t122 29l246 49v100q0 62 -8.5 105t-32 80.5t-71 56t-119.5 18.5q-48 0 -97 -6l-32 -178h-160v264q67 26 184 42.5t234 16.5q189 0 278.5 -83t89.5 -256v-603q0 -44 22.5 -60.5t67.5 -16.5h52v-95q-27 -14 -84 -26.5 t-113 -12.5q-151 0 -180 132h-15q-49 -58 -123 -98t-169 -40q-148 0 -239 83.5t-91 219.5zM231 1432l101 198l459 -282l-46 -91zM303 309q0 -96 40.5 -143t127.5 -47q96 0 172 76v311l-172 -12q-91 -6 -129.5 -50.5t-38.5 -134.5z" />
<glyph unicode="&#xe1;" horiz-adv-x="1067" d="M37 274q0 60 17 106t46 77.5t76.5 56t98.5 39.5t122 29l246 49v100q0 62 -8.5 105t-32 80.5t-71 56t-119.5 18.5q-48 0 -97 -6l-32 -178h-160v264q67 26 184 42.5t234 16.5q189 0 278.5 -83t89.5 -256v-603q0 -44 22.5 -60.5t67.5 -16.5h52v-95q-27 -14 -84 -26.5 t-113 -12.5q-151 0 -180 132h-15q-49 -58 -123 -98t-169 -40q-148 0 -239 83.5t-91 219.5zM274 1348l459 282l101 -198l-515 -175zM303 309q0 -96 40.5 -143t127.5 -47q96 0 172 76v311l-172 -12q-91 -6 -129.5 -50.5t-38.5 -134.5z" />
<glyph unicode="&#xe2;" horiz-adv-x="1067" d="M37 274q0 60 17 106t46 77.5t76.5 56t98.5 39.5t122 29l246 49v100q0 62 -8.5 105t-32 80.5t-71 56t-119.5 18.5q-48 0 -97 -6l-32 -178h-160v264q67 26 184 42.5t234 16.5q189 0 278.5 -83t89.5 -256v-603q0 -44 22.5 -60.5t67.5 -16.5h52v-95q-27 -14 -84 -26.5 t-113 -12.5q-151 0 -180 132h-15q-49 -58 -123 -98t-169 -40q-148 0 -239 83.5t-91 219.5zM188 1288l281 301h125l280 -301l-47 -65l-297 170l-294 -170zM303 309q0 -96 40.5 -143t127.5 -47q96 0 172 76v311l-172 -12q-91 -6 -129.5 -50.5t-38.5 -134.5z" />
<glyph unicode="&#xe3;" horiz-adv-x="1067" d="M37 274q0 60 17 106t46 77.5t76.5 56t98.5 39.5t122 29l246 49v100q0 62 -8.5 105t-32 80.5t-71 56t-119.5 18.5q-48 0 -97 -6l-32 -178h-160v264q67 26 184 42.5t234 16.5q189 0 278.5 -83t89.5 -256v-603q0 -44 22.5 -60.5t67.5 -16.5h52v-95q-27 -14 -84 -26.5 t-113 -12.5q-151 0 -180 132h-15q-49 -58 -123 -98t-169 -40q-148 0 -239 83.5t-91 219.5zM160 1333q95 234 252 234q51 0 149.5 -41t124.5 -41q66 0 125 96l92 -51q-45 -111 -105.5 -166t-144.5 -55q-50 0 -147 38.5t-129 38.5q-35 0 -63 -24.5t-62 -79.5zM303 309 q0 -96 40.5 -143t127.5 -47q96 0 172 76v311l-172 -12q-91 -6 -129.5 -50.5t-38.5 -134.5z" />
<glyph unicode="&#xe4;" horiz-adv-x="1067" d="M37 274q0 60 17 106t46 77.5t76.5 56t98.5 39.5t122 29l246 49v100q0 62 -8.5 105t-32 80.5t-71 56t-119.5 18.5q-48 0 -97 -6l-32 -178h-160v264q67 26 184 42.5t234 16.5q189 0 278.5 -83t89.5 -256v-603q0 -44 22.5 -60.5t67.5 -16.5h52v-95q-27 -14 -84 -26.5 t-113 -12.5q-151 0 -180 132h-15q-49 -58 -123 -98t-169 -40q-148 0 -239 83.5t-91 219.5zM176 1407q0 61 41 101t100 40q60 0 101 -40t41 -101q0 -58 -41.5 -99.5t-100.5 -41.5q-58 0 -99.5 42t-41.5 99zM303 309q0 -96 40.5 -143t127.5 -47q96 0 172 76v311l-172 -12 q-91 -6 -129.5 -50.5t-38.5 -134.5zM606 1407q0 61 41.5 101t100.5 40q60 0 100.5 -40t40.5 -101q0 -58 -41 -99.5t-100 -41.5q-58 0 -100 42t-42 99z" />
<glyph unicode="&#xe5;" horiz-adv-x="1067" d="M37 274q0 60 17 106t46 77.5t76.5 56t98.5 39.5t122 29l246 49v100q0 62 -8.5 105t-32 80.5t-71 56t-119.5 18.5q-48 0 -97 -6l-32 -178h-160v264q67 26 184 42.5t234 16.5q189 0 278.5 -83t89.5 -256v-603q0 -44 22.5 -60.5t67.5 -16.5h52v-95q-27 -14 -84 -26.5 t-113 -12.5q-151 0 -180 132h-15q-49 -58 -123 -98t-169 -40q-148 0 -239 83.5t-91 219.5zM279 1468q0 100 74.5 171t181.5 71q106 0 178.5 -70.5t72.5 -171.5q0 -102 -72 -172.5t-179 -70.5t-181.5 71t-74.5 172zM303 309q0 -96 40.5 -143t127.5 -47q96 0 172 76v311 l-172 -12q-91 -6 -129.5 -50.5t-38.5 -134.5zM387 1468q0 -70 40 -110.5t108 -40.5t106.5 40.5t38.5 110.5q0 69 -39 109.5t-106 40.5q-68 0 -108 -40.5t-40 -109.5z" />
<glyph unicode="&#xe6;" horiz-adv-x="1701" d="M43 274q0 74 24.5 127.5t74.5 89t111 57t150 38.5l271 49v96q0 123 -58 191.5t-198 68.5q-46 0 -96 -6l-33 -178h-160v264q67 26 185.5 42.5t236.5 16.5q224 0 299 -124q118 124 321 124q240 0 352.5 -152t112.5 -446h-690q6 -209 83 -301t235 -92q22 0 44 1t39 2t38 4.5 t33 5t33 6.5t28.5 6.5t28.5 7.5t25 7t26.5 8.5t23.5 7.5v-117q-169 -103 -379 -103q-301 0 -432 189q-68 -88 -171 -140.5t-228 -52.5q-148 0 -239 83.5t-91 219.5zM309 309q0 -97 41.5 -143.5t134.5 -46.5q130 0 240 129q-45 105 -55 260l-193 -10q-91 -6 -129.5 -52 t-38.5 -137zM944 655h414q0 179 -48.5 258.5t-144.5 79.5q-199 0 -221 -338z" />
<glyph unicode="&#xe7;" horiz-adv-x="1021" d="M59 545q0 152 44.5 266.5t125 183t185 102t233.5 33.5q178 0 305 -43v-305h-159l-31 193q-58 16 -135 16q-138 0 -213.5 -103t-75.5 -315q0 -120 25.5 -205.5t74 -134t109.5 -70.5t141 -22q167 0 281 54v-121q-137 -99 -361 -99q-8 0 -24.5 1t-24.5 1v-90 q141 -6 209 -45.5t68 -115.5q0 -60 -40 -102t-148 -72t-286 -39v77q281 28 281 121q0 37 -38.5 53t-147.5 17v209q-194 41 -296 185.5t-102 369.5z" />
<glyph unicode="&#xe8;" horiz-adv-x="1110" d="M59 563q0 261 146.5 414t376.5 153q243 0 356 -145t113 -442h-715q11 -404 342 -404q22 0 44 1t39 2t38 4.5t33 5t33 6.5t28.5 6.5t28.5 7.5t25 7t26.5 8.5t23.5 7.5v-117q-169 -103 -383 -103q-278 0 -416.5 156t-138.5 432zM254 1432l100 198l459 -282l-45 -91z M334 666h438q0 178 -50 252.5t-151 74.5q-217 0 -237 -327z" />
<glyph unicode="&#xe9;" horiz-adv-x="1110" d="M59 563q0 261 146.5 414t376.5 153q243 0 356 -145t113 -442h-715q11 -404 342 -404q22 0 44 1t39 2t38 4.5t33 5t33 6.5t28.5 6.5t28.5 7.5t25 7t26.5 8.5t23.5 7.5v-117q-169 -103 -383 -103q-278 0 -416.5 156t-138.5 432zM297 1348l459 282l100 -198l-514 -175z M334 666h438q0 178 -50 252.5t-151 74.5q-217 0 -237 -327z" />
<glyph unicode="&#xea;" horiz-adv-x="1110" d="M59 563q0 261 146.5 414t376.5 153q243 0 356 -145t113 -442h-715q11 -404 342 -404q22 0 44 1t39 2t38 4.5t33 5t33 6.5t28.5 6.5t28.5 7.5t25 7t26.5 8.5t23.5 7.5v-117q-169 -103 -383 -103q-278 0 -416.5 156t-138.5 432zM211 1288l281 301h124l281 -301l-47 -65 l-297 170l-295 -170zM334 666h438q0 178 -50 252.5t-151 74.5q-217 0 -237 -327z" />
<glyph unicode="&#xeb;" horiz-adv-x="1110" d="M59 563q0 261 146.5 414t376.5 153q243 0 356 -145t113 -442h-715q11 -404 342 -404q22 0 44 1t39 2t38 4.5t33 5t33 6.5t28.5 6.5t28.5 7.5t25 7t26.5 8.5t23.5 7.5v-117q-169 -103 -383 -103q-278 0 -416.5 156t-138.5 432zM199 1407q0 61 41 101t100 40 q60 0 100.5 -40t40.5 -101q0 -58 -41 -99.5t-100 -41.5q-58 0 -99.5 42t-41.5 99zM334 666h438q0 178 -50 252.5t-151 74.5q-217 0 -237 -327zM629 1407q0 61 41 101t100 40q60 0 100.5 -40t40.5 -101q0 -58 -41 -99.5t-100 -41.5q-58 0 -99.5 42t-41.5 99z" />
<glyph unicode="&#xec;" horiz-adv-x="628" d="M12 1432l101 198l458 -282l-45 -91zM27 973v104l395 51l27 -14v-983l141 -35v-96h-549v96l143 35v807z" />
<glyph unicode="&#xed;" horiz-adv-x="628" d="M27 973v104l395 51l27 -14v-983l141 -35v-96h-549v96l143 35v807zM55 1348l459 282l100 -198l-514 -175z" />
<glyph unicode="&#xee;" horiz-adv-x="628" d="M-31 1288l281 301h125l280 -301l-47 -65l-297 170l-295 -170zM27 973v104l395 51l27 -14v-983l141 -35v-96h-549v96l143 35v807z" />
<glyph unicode="&#xef;" horiz-adv-x="628" d="M-43 1407q0 61 41 101t100 40q60 0 101 -40t41 -101q0 -58 -41.5 -99.5t-100.5 -41.5q-58 0 -99.5 42t-41.5 99zM27 973v104l395 51l27 -14v-983l141 -35v-96h-549v96l143 35v807zM387 1407q0 61 41 101t100 40q60 0 101 -40t41 -101q0 -58 -41.5 -99.5t-100.5 -41.5 q-58 0 -99.5 42t-41.5 99z" />
<glyph unicode="&#xf0;" d="M66 532q0 133 41 239.5t110.5 173t158 101.5t187.5 35q142 0 242 -94q-75 174 -225 324l-285 -135v122l197 95q-107 86 -197 139l88 110q151 -63 293 -161l262 125v-125l-164 -78q176 -151 275.5 -347.5t99.5 -434.5q0 -157 -41.5 -281.5t-114.5 -204.5t-170.5 -122 t-212.5 -42q-250 0 -397 153.5t-147 407.5zM344 547q0 -98 14.5 -174t39 -124t59.5 -79t72.5 -43t82.5 -12q43 0 79 12t69.5 42t56.5 76.5t37 120t14 169.5q0 122 -22 206t-62.5 127t-85.5 60.5t-102 17.5q-44 0 -79 -10t-68.5 -36.5t-55.5 -70t-35.5 -115t-13.5 -167.5z " />
<glyph unicode="&#xf1;" horiz-adv-x="1302" d="M45 973v104l373 51l26 -14v-115h13q204 131 366 131q299 0 299 -286v-713l142 -35v-96h-539v96l131 31v633q0 97 -45.5 136.5t-144.5 39.5q-80 0 -209 -39v-770l129 -31v-96h-539v96l146 35v807zM279 1333q95 234 251 234q51 0 150 -41t125 -41q66 0 125 96l92 -51 q-45 -111 -105.5 -166t-144.5 -55q-50 0 -147 38.5t-129 38.5q-35 0 -63 -24.5t-62 -79.5z" />
<glyph unicode="&#xf2;" d="M66 547q0 132 42 242.5t115 184.5t171 115t210 41q252 0 398.5 -153t146.5 -420q0 -131 -42.5 -242t-115.5 -186t-171.5 -116.5t-209.5 -41.5q-251 0 -397.5 157t-146.5 419zM305 1432l101 198l458 -282l-45 -91zM344 563q0 -124 21.5 -214t60 -139.5t84.5 -72t102 -22.5 q43 0 79 12.5t69.5 43t56.5 78t37 122.5t14 172q0 100 -14.5 178.5t-39 128.5t-59 82t-72 45.5t-81.5 13.5q-258 0 -258 -428z" />
<glyph unicode="&#xf3;" d="M66 547q0 132 42 242.5t115 184.5t171 115t210 41q252 0 398.5 -153t146.5 -420q0 -131 -42.5 -242t-115.5 -186t-171.5 -116.5t-209.5 -41.5q-251 0 -397.5 157t-146.5 419zM344 563q0 -124 21.5 -214t60 -139.5t84.5 -72t102 -22.5q43 0 79 12.5t69.5 43t56.5 78 t37 122.5t14 172q0 100 -14.5 178.5t-39 128.5t-59 82t-72 45.5t-81.5 13.5q-258 0 -258 -428zM348 1348l459 282l100 -198l-514 -175z" />
<glyph unicode="&#xf4;" d="M66 547q0 132 42 242.5t115 184.5t171 115t210 41q252 0 398.5 -153t146.5 -420q0 -131 -42.5 -242t-115.5 -186t-171.5 -116.5t-209.5 -41.5q-251 0 -397.5 157t-146.5 419zM262 1288l281 301h125l280 -301l-47 -65l-297 170l-295 -170zM344 563q0 -124 21.5 -214 t60 -139.5t84.5 -72t102 -22.5q43 0 79 12.5t69.5 43t56.5 78t37 122.5t14 172q0 100 -14.5 178.5t-39 128.5t-59 82t-72 45.5t-81.5 13.5q-258 0 -258 -428z" />
<glyph unicode="&#xf5;" d="M66 547q0 132 42 242.5t115 184.5t171 115t210 41q252 0 398.5 -153t146.5 -420q0 -131 -42.5 -242t-115.5 -186t-171.5 -116.5t-209.5 -41.5q-251 0 -397.5 157t-146.5 419zM233 1333q95 234 252 234q51 0 150 -41t125 -41q66 0 125 96l92 -51q-45 -111 -105.5 -166 t-144.5 -55q-50 0 -147 38.5t-129 38.5q-35 0 -63 -24.5t-62 -79.5zM344 563q0 -124 21.5 -214t60 -139.5t84.5 -72t102 -22.5q43 0 79 12.5t69.5 43t56.5 78t37 122.5t14 172q0 100 -14.5 178.5t-39 128.5t-59 82t-72 45.5t-81.5 13.5q-258 0 -258 -428z" />
<glyph unicode="&#xf6;" d="M66 547q0 132 42 242.5t115 184.5t171 115t210 41q252 0 398.5 -153t146.5 -420q0 -131 -42.5 -242t-115.5 -186t-171.5 -116.5t-209.5 -41.5q-251 0 -397.5 157t-146.5 419zM250 1407q0 61 41 101t100 40q60 0 100.5 -40t40.5 -101q0 -58 -41 -99.5t-100 -41.5 q-58 0 -99.5 42t-41.5 99zM344 563q0 -124 21.5 -214t60 -139.5t84.5 -72t102 -22.5q43 0 79 12.5t69.5 43t56.5 78t37 122.5t14 172q0 100 -14.5 178.5t-39 128.5t-59 82t-72 45.5t-81.5 13.5q-258 0 -258 -428zM680 1407q0 61 41 101t100 40q60 0 101 -40t41 -101 q0 -58 -41.5 -99.5t-100.5 -41.5q-58 0 -99.5 42t-41.5 99z" />
<glyph unicode="&#xf7;" horiz-adv-x="1263" d="M123 588v153h1018v-153h-1018zM477 244q0 65 44 109t110 44t111.5 -44.5t45.5 -108.5q0 -60 -46 -105t-111 -45t-109.5 45t-44.5 105zM477 1083q0 63 44.5 107.5t109.5 44.5q66 0 111.5 -44.5t45.5 -107.5q0 -62 -45.5 -106.5t-111.5 -44.5q-65 0 -109.5 44.5 t-44.5 106.5z" />
<glyph unicode="&#xf8;" d="M63 -86l154 209q-151 154 -151 424q0 132 42 242.5t115 184.5t171 115t210 41q171 0 297 -75l88 119h150l-142 -193q152 -152 152 -424q0 -131 -42.5 -242t-115.5 -186t-171.5 -116.5t-209.5 -41.5q-166 0 -299 76l-98 -133h-150zM330 563q0 -167 26 -262l447 608 q-67 84 -201 84q-57 0 -103.5 -21t-85.5 -68t-61 -133.5t-22 -207.5zM410 193q65 -82 202 -82q57 0 103.5 21.5t86 69t61.5 134.5t22 207q0 152 -29 258z" />
<glyph unicode="&#xf9;" horiz-adv-x="1302" d="M27 985v102l385 39l24 -14v-754q0 -104 39 -149t141 -45q50 0 96.5 9.5t66.5 17t59 24.5v735l-138 35v102l375 39l29 -14v-952l145 -33v-98l-372 -49l-27 12v129h-12q-151 -144 -351 -144q-315 0 -315 320v653zM350 1432l101 198l458 -282l-45 -91z" />
<glyph unicode="&#xfa;" horiz-adv-x="1302" d="M27 985v102l385 39l24 -14v-754q0 -104 39 -149t141 -45q50 0 96.5 9.5t66.5 17t59 24.5v735l-138 35v102l375 39l29 -14v-952l145 -33v-98l-372 -49l-27 12v129h-12q-151 -144 -351 -144q-315 0 -315 320v653zM393 1348l459 282l100 -198l-514 -175z" />
<glyph unicode="&#xfb;" horiz-adv-x="1302" d="M27 985v102l385 39l24 -14v-754q0 -104 39 -149t141 -45q50 0 96.5 9.5t66.5 17t59 24.5v735l-138 35v102l375 39l29 -14v-952l145 -33v-98l-372 -49l-27 12v129h-12q-151 -144 -351 -144q-315 0 -315 320v653zM307 1288l281 301h125l280 -301l-47 -65l-297 170 l-295 -170z" />
<glyph unicode="&#xfc;" horiz-adv-x="1302" d="M27 985v102l385 39l24 -14v-754q0 -104 39 -149t141 -45q50 0 96.5 9.5t66.5 17t59 24.5v735l-138 35v102l375 39l29 -14v-952l145 -33v-98l-372 -49l-27 12v129h-12q-151 -144 -351 -144q-315 0 -315 320v653zM295 1407q0 61 41 101t100 40q60 0 101 -40t41 -101 q0 -58 -41.5 -99.5t-100.5 -41.5q-58 0 -99.5 42t-41.5 99zM725 1407q0 61 41 101t100 40q60 0 101 -40t41 -101q0 -58 -41.5 -99.5t-100.5 -41.5q-58 0 -99.5 42t-41.5 99z" />
<glyph unicode="&#xfd;" horiz-adv-x="1181" d="M12 1010v100h518v-100l-137 -29l139 -363q23 -60 51.5 -152.5t46.5 -155.5l17 -62h8q62 235 109 370l127 361l-131 31v100h405v-100l-94 -31l-422 -1126q-42 -112 -83.5 -173t-105 -93.5t-159.5 -32.5q-94 0 -192 53v141q81 -18 124 -18q105 0 154 41t84 129l41 102 l-403 977zM332 1348l459 282l100 -198l-514 -175z" />
<glyph unicode="&#xfe;" horiz-adv-x="1243" d="M14 1475v104l381 49l29 -12v-612h10q51 39 89 63t102 45t133 21q65 0 121.5 -14.5t111 -52.5t93 -97.5t62 -154.5t23.5 -218q0 -156 -41 -273.5t-116.5 -189.5t-176.5 -107.5t-227 -35.5q-97 0 -184 24v-331l168 -33v-94h-576v94l144 31v1761zM424 176q29 -17 44 -24.5 t55 -17t89 -9.5q66 0 115.5 21.5t87.5 70t58 133.5t20 205q0 206 -66.5 297.5t-199.5 91.5q-95 0 -203 -45v-723z" />
<glyph unicode="&#xff;" horiz-adv-x="1181" d="M12 1010v100h518v-100l-137 -29l139 -363q23 -60 51.5 -152.5t46.5 -155.5l17 -62h8q62 235 109 370l127 361l-131 31v100h405v-100l-94 -31l-422 -1126q-42 -112 -83.5 -173t-105 -93.5t-159.5 -32.5q-94 0 -192 53v141q81 -18 124 -18q105 0 154 41t84 129l41 102 l-403 977zM233 1407q0 61 41.5 101t100.5 40q60 0 100.5 -40t40.5 -101q0 -58 -41 -99.5t-100 -41.5q-58 0 -100 42t-42 99zM664 1407q0 61 41 101t100 40q60 0 100.5 -40t40.5 -101q0 -58 -41 -99.5t-100 -41.5q-58 0 -99.5 42t-41.5 99z" />
<glyph unicode="&#x152;" horiz-adv-x="2007" d="M78 705q0 382 187 577t544 195h1083l21 -387h-152l-73 245h-459v-510h209l49 187h123v-512h-123l-49 192h-209v-551h483l90 299h152l-25 -440h-1100q-381 0 -566 175t-185 530zM385 737q0 -111 11.5 -198t31 -149.5t52 -106.5t69 -70.5t89 -42t103 -20.5t119.5 -5h84 v1186h-127q-110 0 -187 -28t-134 -94.5t-84 -183t-27 -288.5z" />
<glyph unicode="&#x153;" horiz-adv-x="1951" d="M66 547q0 132 42 242.5t115 184.5t171 115t210 41q294 0 418 -210q128 210 397 210q243 0 356 -145t113 -442h-725q6 -209 98 -306.5t255 -97.5q22 0 44 1t39 2t38 4.5t33 5t33 6.5t28.5 6.5t28.5 7.5t25 7t26.5 8.5t23.5 7.5v-117q-169 -103 -383 -103q-317 0 -436 215 q-67 -105 -171 -162t-235 -57q-251 0 -397.5 157t-146.5 419zM344 563q0 -124 21.5 -214t60 -139.5t84.5 -72t102 -22.5q54 0 99 21t84.5 67.5t61.5 133t22 206.5q0 100 -15.5 178.5t-41.5 128t-62.5 82.5t-75 46t-82.5 13q-258 0 -258 -428zM1161 666h449q0 178 -50 252.5 t-151 74.5q-107 0 -172.5 -80t-75.5 -247z" />
<glyph unicode="&#x178;" horiz-adv-x="1357" d="M20 1366v111h564v-111l-140 -35l306 -563h8l291 563l-146 35v111h434v-111l-112 -37l-385 -713v-466l170 -39v-111h-637v111l176 39v464l-414 715zM322 1755q0 61 41 101t100 40q60 0 100.5 -40t40.5 -101q0 -58 -41 -99.5t-100 -41.5q-58 0 -99.5 42t-41.5 99zM752 1755 q0 61 41 101t100 40q60 0 100.5 -40t40.5 -101q0 -58 -41 -99.5t-100 -41.5q-58 0 -99.5 42t-41.5 99z" />
<glyph unicode="&#x2c6;" horiz-adv-x="1024" d="M168 1288l281 301h124l281 -301l-47 -65l-297 170l-295 -170z" />
<glyph unicode="&#x2dc;" horiz-adv-x="1024" d="M139 1333q95 234 252 234q51 0 150 -41t125 -41q66 0 125 96l92 -51q-45 -111 -105.5 -166t-144.5 -55q-50 0 -147.5 38.5t-129.5 38.5q-35 0 -63 -24.5t-62 -79.5z" />
<glyph unicode="&#x2000;" horiz-adv-x="1029" />
<glyph unicode="&#x2001;" horiz-adv-x="2058" />
<glyph unicode="&#x2002;" horiz-adv-x="1029" />
<glyph unicode="&#x2003;" horiz-adv-x="2058" />
<glyph unicode="&#x2004;" horiz-adv-x="686" />
<glyph unicode="&#x2005;" horiz-adv-x="514" />
<glyph unicode="&#x2006;" horiz-adv-x="343" />
<glyph unicode="&#x2007;" horiz-adv-x="343" />
<glyph unicode="&#x2008;" horiz-adv-x="257" />
<glyph unicode="&#x2009;" horiz-adv-x="411" />
<glyph unicode="&#x200a;" horiz-adv-x="114" />
<glyph unicode="&#x2010;" horiz-adv-x="739" d="M98 502v213h543v-213h-543z" />
<glyph unicode="&#x2011;" horiz-adv-x="739" d="M98 502v213h543v-213h-543z" />
<glyph unicode="&#x2012;" horiz-adv-x="739" d="M98 502v213h543v-213h-543z" />
<glyph unicode="&#x2013;" horiz-adv-x="933" d="M109 545v143h716v-143h-716z" />
<glyph unicode="&#x2014;" horiz-adv-x="1536" d="M109 545v143h1318v-143h-1318z" />
<glyph unicode="&#x2018;" horiz-adv-x="620" d="M125 1098q0 57 18 112.5t56.5 112t111 106t170.5 82.5l37 -81q-122 -75 -175.5 -138.5t-59.5 -152.5q26 16 61 16q56 0 92.5 -38t36.5 -99t-44 -100t-112 -39q-81 0 -136.5 58t-55.5 161z" />
<glyph unicode="&#x2019;" horiz-adv-x="620" d="M102 950q123 76 176.5 139t59.5 152q-26 -16 -62 -16q-56 0 -92.5 38t-36.5 99t44 100t112 39q81 0 137 -58t56 -161q0 -57 -18 -113t-57 -112.5t-111.5 -106t-170.5 -82.5z" />
<glyph unicode="&#x201a;" horiz-adv-x="620" d="M96 -190q115 71 169.5 133t64.5 143q-21 -12 -54 -12q-56 0 -92.5 38t-36.5 99t44 100t112 39q81 0 137 -58t56 -161q0 -57 -18 -113t-57 -112.5t-111.5 -106t-170.5 -82.5z" />
<glyph unicode="&#x201c;" horiz-adv-x="1087" d="M125 1098q0 57 18 112.5t56.5 112t111 106t170.5 82.5l37 -81q-122 -75 -175.5 -138.5t-59.5 -152.5q26 16 61 16q56 0 92.5 -38t36.5 -99t-44 -100t-112 -39q-81 0 -136.5 58t-55.5 161zM592 1098q0 57 18 112.5t56.5 112t111 106t170.5 82.5l37 -81 q-122 -75 -175.5 -138.5t-59.5 -152.5q26 16 61 16q56 0 92.5 -38t36.5 -99t-44 -100t-112 -39q-81 0 -136.5 58t-55.5 161z" />
<glyph unicode="&#x201d;" horiz-adv-x="1087" d="M102 950q123 76 176.5 139t59.5 152q-26 -16 -62 -16q-56 0 -92.5 38t-36.5 99t44 100t112 39q81 0 137 -58t56 -161q0 -57 -18 -113t-57 -112.5t-111.5 -106t-170.5 -82.5zM569 950q123 76 176.5 139t59.5 152q-26 -16 -62 -16q-56 0 -92.5 38t-36.5 99t44 100t112 39 q81 0 137 -58t56 -161q0 -57 -18 -113t-57 -112.5t-111.5 -106t-170.5 -82.5z" />
<glyph unicode="&#x201e;" horiz-adv-x="1087" d="M102 -201q123 76 176.5 139t59.5 152q-26 -16 -62 -16q-56 0 -92.5 38t-36.5 99t44 100t112 39q81 0 137 -58t56 -161q0 -57 -18 -113t-57 -112.5t-111.5 -106t-170.5 -82.5zM569 -201q123 76 176.5 139t59.5 152q-26 -16 -62 -16q-56 0 -92.5 38t-36.5 99t44 100t112 39 q81 0 137 -58t56 -161q0 -57 -18 -113t-57 -112.5t-111.5 -106t-170.5 -82.5z" />
<glyph unicode="&#x2022;" horiz-adv-x="1800" d="M100 760q0 215 107 396.5t291 287.5t401 106q162 0 310.5 -62.5t256.5 -168.5t172 -252.5t64 -306.5q0 -161 -64 -308t-172 -253.5t-256.5 -170t-310.5 -63.5q-163 0 -311 63.5t-255 170t-170 253.5t-63 308z" />
<glyph unicode="&#x2026;" horiz-adv-x="1835" d="M145 139q0 71 49.5 119.5t122.5 48.5q71 0 119.5 -48.5t48.5 -119.5q0 -68 -49 -117t-119 -49q-73 0 -122.5 49t-49.5 117zM745 139q0 71 50 119.5t123 48.5q70 0 118.5 -48.5t48.5 -119.5q0 -68 -48.5 -117t-118.5 -49q-73 0 -123 49t-50 117zM1350 139q0 71 49.5 119.5 t122.5 48.5q70 0 119 -48.5t49 -119.5q0 -68 -49 -117t-119 -49q-73 0 -122.5 49t-49.5 117z" />
<glyph unicode="&#x202f;" horiz-adv-x="411" />
<glyph unicode="&#x2039;" horiz-adv-x="618" d="M96 500v75l281 447h158l-211 -483l211 -486h-158z" />
<glyph unicode="&#x203a;" horiz-adv-x="618" d="M84 53l211 484l-211 485h158l280 -447v-75l-280 -447h-158z" />
<glyph unicode="&#x205f;" horiz-adv-x="514" />
<glyph unicode="&#x20ac;" horiz-adv-x="1325" d="M90 469v111h146q-5 41 -5 104q0 61 2 90h-143v111h158q24 137 83 238t143.5 159t182 85.5t211.5 27.5q191 0 344 -54l13 -325h-148l-71 201q-62 36 -156 36q-148 0 -230 -89t-104 -279h402v-111h-410v-51q0 -100 4 -143h406v-111h-392q32 -179 121.5 -254.5t255.5 -75.5 q150 0 326 70v-121q-171 -113 -389 -113q-233 0 -387.5 123t-202.5 371h-160z" />
<glyph unicode="&#x2122;" horiz-adv-x="2185" d="M70 1176l10 301h784l10 -301h-126l-50 200h-112v-614l98 -19v-94h-422v94l96 19v614h-112l-49 -200h-127zM975 649v94l94 19v602l-94 18v95h385l88 -281q16 -51 33.5 -129.5t26.5 -130.5l10 -53h8q30 198 69 313l95 281h411v-95l-102 -18v-600l102 -21v-94h-399v94l78 21 v258q0 56 3 147t6 154l3 63h-10q-68 -219 -107 -350l-108 -358h-150l-114 356q-20 60 -45.5 148t-40.5 146l-15 58h-8q14 -231 14 -366v-256l78 -21v-94h-311z" />
<glyph unicode="&#xe000;" horiz-adv-x="1105" d="M0 0v1106h1106v-1106h-1106z" />
</font>
</defs>
</svg>
