<?xml version="1.0" standalone="no"?>
<!DOCTYPE svg PUBLIC "-//W3C//DTD SVG 1.1//EN" "http://www.w3.org/Graphics/SVG/1.1/DTD/svg11.dtd" >
<svg xmlns="http://www.w3.org/2000/svg">
<metadata></metadata>
<defs>
<font id="WT1WebTextBoldItalic" horiz-adv-x="1202" >
<font-face units-per-em="2048" ascent="1638" descent="-410" />
<missing-glyph horiz-adv-x="475" />
<glyph unicode="&#xfb01;" horiz-adv-x="1224" d="M-328 -233q0 55 47 102h156v-119q8 -2 21 -2q64 0 103 27.5t66.5 99.5t47.5 205l125 864h-136l21 123l141 49q27 138 82.5 240t133.5 162t169 88t199 28q138 0 212.5 -45.5t74.5 -122.5q0 -29 -16.5 -63.5t-39.5 -59.5h-176v134q-33 10 -69 10q-58 0 -102.5 -17.5 t-84.5 -59t-69.5 -116.5t-49.5 -184h469q65 0 101.5 -25t36.5 -94q0 -21 -11 -78l-159 -757q46 6 95.5 19.5t75.5 23.5l27 10l-30 -131q-55 -42 -132 -69t-153 -27q-67 0 -106.5 35t-39.5 108q0 31 9 72l161 747h-370l-146 -870q-41 -241 -151.5 -356t-296.5 -115 q-106 0 -171 45.5t-65 118.5z" />
<glyph unicode="&#xfb02;" horiz-adv-x="1228" d="M-328 -233q0 55 47 102h156v-119q8 -2 21 -2q64 0 103 27.5t66.5 99.5t47.5 205l125 864h-136l21 123l141 49q28 138 84 240t132 161.5t162.5 88t184.5 28.5q179 0 269 -90l147 84l25 -12l-301 -1460q46 6 96 19.5t77 23.5l27 10l-30 -131q-56 -42 -132 -69t-157 -27 q-66 0 -104.5 34.5t-38.5 106.5q0 38 8 74l248 1183q-45 107 -150 107q-50 0 -90 -17.5t-77.5 -59t-67 -117t-48.5 -183.5h230l-33 -166h-223l-146 -870q-41 -241 -151.5 -356t-296.5 -115q-106 0 -171 45.5t-65 118.5z" />
<glyph unicode="&#xfb03;" horiz-adv-x="1796" d="M-330 -233q0 55 47 102h156v-119q8 -2 21 -2q64 0 103 27.5t66.5 99.5t47.5 205l127 864h-140l21 123l151 53q123 490 555 490q168 0 256 -78q130 102 338 102q138 0 212.5 -45.5t74.5 -122.5q0 -30 -16 -64.5t-39 -58.5h-176v134q-33 10 -70 10q-77 0 -128.5 -32 t-91 -115.5t-65.5 -229.5h449q64 0 100.5 -25t36.5 -94q0 -26 -10 -78l-160 -757q46 6 96 19.5t76 23.5l27 10l-31 -131q-55 -42 -132 -69t-153 -27q-67 0 -106 35t-39 108q0 36 8 72l162 747h-350l-144 -852q-38 -227 -138 -336.5t-269 -109.5q-101 0 -156 45.5t-55 115.5 q0 51 43 97h145v-113h17q45 0 73 20.5t53 89t44 197.5l122 846h-327l-148 -870q-41 -241 -151.5 -356t-296.5 -115q-106 0 -171 45.5t-65 118.5zM532 1110h324q29 160 92 270q-43 82 -131 82q-52 0 -91 -15t-75.5 -53t-66 -108.5t-52.5 -175.5z" />
<glyph unicode="&#xfb04;" horiz-adv-x="1800" d="M-330 -233q0 55 47 102h156v-119q8 -2 21 -2q64 0 103 27.5t66.5 99.5t47.5 205l127 864h-140l21 123l151 53q123 490 555 490q172 0 260 -82q138 106 334 106q171 0 260 -82l136 76l24 -12l-301 -1460q46 6 96.5 19.5t77.5 23.5l27 10l-31 -131q-56 -42 -132 -69 t-157 -27q-66 0 -104.5 34.5t-38.5 106.5q0 38 8 74l254 1212q-47 78 -135 78q-50 0 -90 -17.5t-77.5 -59t-67 -117t-48.5 -183.5h209l-33 -166h-202l-144 -852q-38 -227 -138 -336.5t-269 -109.5q-101 0 -156 45.5t-55 115.5q0 51 43 97h145v-113h17q45 0 73 20.5t53 89 t44 197.5l122 846h-327l-148 -870q-41 -241 -151.5 -356t-296.5 -115q-106 0 -171 45.5t-65 118.5zM532 1110h324q29 154 96 266q-24 44 -55.5 65t-79.5 21q-52 0 -91 -15t-75.5 -53t-66 -108.5t-52.5 -175.5z" />
<glyph horiz-adv-x="0" />
<glyph horiz-adv-x="2048" />
<glyph unicode=" "  horiz-adv-x="475" />
<glyph unicode="&#x09;" horiz-adv-x="475" />
<glyph unicode="&#xa0;" horiz-adv-x="475" />
<glyph unicode="!" horiz-adv-x="532" d="M25 125q0 67 47 112.5t112 45.5t108.5 -43t43.5 -103q0 -67 -47 -113.5t-113 -46.5q-65 0 -108 44t-43 104zM139 432l133 1045h291l-254 -1045h-170z" />
<glyph unicode="&#x22;" horiz-adv-x="1103" d="M158 965q261 106 295 295q-24 -31 -70 -31q-43 0 -75 34.5t-32 84.5q0 68 49.5 110.5t116.5 42.5q76 0 126 -52.5t50 -135.5q0 -63 -22.5 -125.5t-70 -124.5t-134.5 -113t-205 -80zM631 965q261 106 295 295q-24 -31 -70 -31q-43 0 -74.5 34.5t-31.5 84.5q0 68 49 110.5 t116 42.5q76 0 126.5 -53t50.5 -135q0 -50 -13 -99.5t-45 -102t-80.5 -97t-124 -83t-170.5 -61.5z" />
<glyph unicode="#" horiz-adv-x="1155" d="M76 348l39 219h174l65 260h-188l35 220h207l79 323h154l-80 -323h240l80 323h153l-80 -323h154l-37 -220h-170l-65 -260h184l-39 -219h-199l-86 -348h-153l86 348h-240l-86 -348h-153l86 348h-160zM440 557h240l70 281h-240z" />
<glyph unicode="$" horiz-adv-x="1099" d="M-23 244q0 81 60 141h182v-192q51 -41 117 -58l133 477l-61 33q-126 61 -190 144.5t-64 203.5q0 184 135 294t352 110q6 0 18.5 -1t18.5 -1l49 178h141l-51 -193q138 -27 211.5 -91t73.5 -140q0 -65 -55 -131h-179v172q-47 30 -98 43l-117 -428l49 -25 q135 -66 208.5 -152.5t74.5 -213.5q0 -201 -139 -319t-389 -118h-31l-72 -268h-143l78 285q-146 27 -229 97.5t-83 152.5zM391 1049q0 -58 33 -100.5t115 -86.5l106 391h-12q-112 0 -177 -50.5t-65 -153.5zM463 121q136 3 204 68.5t68 168.5q0 62 -36 107.5t-115 89.5z" />
<glyph unicode="%" horiz-adv-x="1845" d="M115 930q0 98 34 181t90.5 138t129 86t151.5 31q145 0 237.5 -88t92.5 -238q0 -193 -119.5 -313.5t-286.5 -120.5q-145 0 -237 88.5t-92 235.5zM258 -68l1157 1450h180l-1157 -1450h-180zM330 889q0 -79 28 -118.5t91 -39.5q47 0 84 31.5t59.5 84t34.5 116.5t12 133 q0 70 -32 109.5t-91 39.5q-62 0 -105 -52.5t-62 -131t-19 -172.5zM1020 303q0 98 34 181t90.5 138t129 86t151.5 31q145 0 237.5 -87.5t92.5 -237.5q0 -193 -119 -313.5t-286 -120.5q-145 0 -237.5 88t-92.5 235zM1235 262q0 -79 28 -118.5t91 -39.5q47 0 84 31.5t59.5 84 t34.5 116.5t12 133q0 70 -32 109.5t-91 39.5q-62 0 -105 -52.5t-62 -131t-19 -172.5z" />
<glyph unicode="&#x26;" horiz-adv-x="1495" d="M27 360q0 171 99 280.5t300 188.5q-80 144 -80 254q0 191 130 304.5t319 113.5q166 0 260 -87t96 -214q0 -144 -100 -239.5t-289 -169.5l268 -392q86 115 129 250l-121 39l19 125h432l-23 -125l-127 -41q-93 -214 -229 -364l78 -113l168 -39l-23 -131h-354l-70 104 q-192 -127 -405 -127q-226 0 -351.5 108t-125.5 275zM311 397q0 -109 69 -183.5t198 -74.5q130 0 256 76l-338 506q-100 -57 -142.5 -135t-42.5 -189zM606 1126q0 -102 84 -231q119 53 173.5 129.5t54.5 181.5q0 140 -130 140q-78 0 -130 -56t-52 -164z" />
<glyph unicode="'" horiz-adv-x="638" d="M166 965q261 106 295 295q-24 -31 -70 -31q-43 0 -74.5 34.5t-31.5 84.5q0 68 49.5 110.5t116.5 42.5q76 0 126 -52.5t50 -135.5q0 -63 -22.5 -125.5t-70 -124.5t-134.5 -113t-205 -80z" />
<glyph unicode="(" horiz-adv-x="718" d="M78 477q0 155 40.5 302.5t106 264.5t156.5 224t184 185t197 144l78 -92q-112 -99 -198 -205t-157 -238.5t-109 -295t-38 -346.5q0 -195 51 -350.5t143 -296.5l-102 -78q-71 74 -127 148t-110.5 172t-84.5 216.5t-30 245.5z" />
<glyph unicode=")" horiz-adv-x="718" d="M-106 -213q89 78 160.5 159.5t136.5 184t109 212.5t69.5 245.5t25.5 283.5q0 196 -51 351.5t-143 296.5l102 77q71 -74 127 -148t110.5 -172t84.5 -216.5t30 -245.5q0 -155 -40.5 -302.5t-106 -264.5t-156.5 -224t-184 -185t-197 -144z" />
<glyph unicode="*" horiz-adv-x="956" d="M195 1028l313 80l-285 119l125 164l209 -220l-22 306h215l-115 -312l270 189l72 -178l-313 -82l282 -119l-125 -162l-207 221l21 -307h-213l115 313l-273 -190z" />
<glyph unicode="+" horiz-adv-x="1263" d="M133 578v174h418v436h182v-436h418v-174h-418v-437h-182v437h-418z" />
<glyph unicode="," horiz-adv-x="638" d="M-76 -246q137 55 207.5 121.5t99.5 155.5q-26 -11 -49 -11q-51 0 -83.5 38.5t-32.5 93.5q0 68 51.5 111.5t122.5 43.5q76 0 125 -53t49 -141q0 -47 -12 -94.5t-44.5 -102.5t-82 -102t-132.5 -89t-188 -67z" />
<glyph unicode="-" horiz-adv-x="739" d="M80 502l39 213h543l-39 -213h-543z" />
<glyph unicode="." horiz-adv-x="638" d="M68 133q0 76 50 125t124 49q71 0 117.5 -47t46.5 -115q0 -74 -50.5 -123t-124.5 -49q-71 0 -117 47t-46 113z" />
<glyph unicode="/" horiz-adv-x="768" d="M-137 -256l831 1817h185l-832 -1817h-184z" />
<glyph unicode="0" horiz-adv-x="1294" d="M76 506q0 173 55.5 322.5t147 248.5t210 155t244.5 56q225 0 359.5 -138t134.5 -386q0 -182 -53.5 -333.5t-143.5 -249.5t-207 -152t-245 -54q-232 0 -367 139.5t-135 391.5zM352 432q0 -295 228 -295q95 0 167.5 58.5t115 158.5t64 221.5t21.5 258.5q0 290 -221 290 q-90 0 -163.5 -59t-118.5 -157.5t-69 -221t-24 -254.5z" />
<glyph unicode="1" horiz-adv-x="890" d="M-27 0l23 125l250 35l147 839l-264 -24l23 129l466 176h109l-199 -1120l236 -35l-25 -125h-766z" />
<glyph unicode="2" horiz-adv-x="1069" d="M-66 0l25 141l379 275q194 140 289.5 262t95.5 244q0 99 -50 152.5t-151 53.5q-93 0 -151 -38v-201h-191q-61 61 -61 129q0 109 120.5 188.5t331.5 79.5q213 0 328 -96t115 -252q0 -91 -32 -168.5t-104.5 -152.5t-173.5 -145.5t-255 -158.5l-185 -104v-6h666l-56 -203 h-940z" />
<glyph unicode="3" horiz-adv-x="1073" d="M-80 -94l23 137q183 -94 366 -94q151 0 239.5 70.5t88.5 222.5q0 225 -277 225h-100l29 160h114q163 0 238.5 80.5t75.5 214.5q0 103 -51.5 154.5t-165.5 51.5q-75 0 -142 -36v-185h-186q-61 57 -61 119q0 108 115.5 184t308.5 76q212 0 330 -98.5t118 -251.5 q0 -150 -93 -251.5t-257 -137.5v-8q135 -30 211 -112.5t76 -213.5q0 -142 -74 -244.5t-198 -152t-283 -49.5q-273 0 -445 139z" />
<glyph unicode="4" horiz-adv-x="1267" d="M-20 176l28 152l854 936h228l-160 -920h207l-33 -168h-207l-70 -391h-274l68 391h-641zM215 344h438l101 592h-9l-530 -586v-6z" />
<glyph unicode="5" horiz-adv-x="1075" d="M-59 -109l22 142q57 -29 91 -43t99 -28.5t138 -14.5q163 0 258.5 80t95.5 245q0 263 -315 263q-85 0 -213 -33l174 762h749l-57 -217h-565l-86 -367q95 27 172 27q208 0 317 -115.5t109 -306.5q0 -238 -158 -379.5t-405 -141.5q-261 0 -426 127z" />
<glyph unicode="6" horiz-adv-x="1204" d="M78 522q0 269 108 504q47 101 110.5 182.5t131.5 135.5t144.5 90t150.5 51.5t149 15.5q215 0 342 -100l-24 -146q-50 24 -126.5 42t-152.5 18q-61 0 -119 -14t-120.5 -50t-114.5 -92t-97 -147t-71 -207q155 110 332 110q187 0 290 -107t103 -276q0 -160 -67 -287.5 t-192 -200.5t-288 -73q-124 0 -219 41t-153.5 116t-87.5 174t-29 220zM338 426q2 -142 54 -219.5t173 -77.5q126 0 199.5 112t73.5 281q0 118 -58 172t-180 54q-127 0 -233 -70q-11 -39 -20 -114t-9 -138z" />
<glyph unicode="7" horiz-adv-x="1064" d="M80 -213l833 1249v11h-598l-79 -160h-138l80 377h952l-30 -177l-715 -1300h-305z" />
<glyph unicode="8" horiz-adv-x="1239" d="M45 348q0 80 31 149t85 118.5t122 84.5t147 56v10q-207 110 -207 326q0 182 139.5 295.5t356.5 113.5q226 0 347.5 -96t121.5 -248q0 -267 -342 -373v-10q135 -64 205.5 -156t70.5 -223q0 -193 -149 -307.5t-395 -114.5q-255 0 -394 104.5t-139 270.5zM281 367 q0 -107 72.5 -171.5t215.5 -64.5q133 0 210 66.5t77 179.5q0 97 -77.5 166t-239.5 141q-258 -84 -258 -317zM481 1120q0 -88 57 -148t191 -116q52 23 89.5 47.5t70 58t49 78.5t16.5 101q0 95 -61.5 147.5t-163.5 52.5q-107 0 -177.5 -59.5t-70.5 -161.5z" />
<glyph unicode="9" d="M-6 -139l26 145q48 -24 125 -42.5t156 -18.5q68 0 128.5 13.5t124.5 49t114 91.5t91 147t62 209q-71 -51 -160 -81t-174 -30q-187 0 -287 108.5t-100 278.5q0 245 148.5 401t394.5 156q122 0 215.5 -40.5t151.5 -114t87 -172t29 -220.5q0 -148 -24.5 -277.5t-67 -228 t-102 -179t-129 -135.5t-148.5 -92t-159 -54t-162 -17q-213 0 -340 103zM373 735q0 -113 56 -168t177 -55q126 0 236 70q26 91 26 247q0 299 -227 299q-126 0 -197 -108.5t-71 -284.5z" />
<glyph unicode=":" horiz-adv-x="659" d="M78 133q0 76 50 125t124 49q71 0 117.5 -47t46.5 -115q0 -74 -50 -123t-124 -49q-71 0 -117.5 47t-46.5 113zM184 745q0 76 51 126.5t125 50.5q71 0 117.5 -47.5t46.5 -114.5q0 -74 -51 -124t-125 -50q-71 0 -117.5 46.5t-46.5 112.5z" />
<glyph unicode=";" horiz-adv-x="659" d="M-70 -246q137 55 208 121.5t100 155.5q-26 -11 -50 -11q-51 0 -83.5 38.5t-32.5 93.5q0 68 51.5 111.5t122.5 43.5q76 0 125 -53t49 -141q0 -47 -12 -94.5t-44.5 -102.5t-82 -102t-132.5 -89t-188 -67zM184 745q0 76 51 126.5t125 50.5q71 0 117.5 -47.5t46.5 -114.5 q0 -74 -51 -124t-125 -50q-71 0 -117.5 46.5t-46.5 112.5z" />
<glyph unicode="&#x3c;" horiz-adv-x="1200" d="M123 575v158l915 412v-201l-692 -291l692 -291v-200z" />
<glyph unicode="=" horiz-adv-x="1220" d="M113 313v176h991v-176h-991zM113 700v177h991v-177h-991z" />
<glyph unicode="&#x3e;" horiz-adv-x="1200" d="M178 162v200l692 291l-692 291v201l916 -414v-158z" />
<glyph unicode="?" horiz-adv-x="919" d="M154 125q0 67 47 112.5t112 45.5t108.5 -43t43.5 -103q0 -67 -47 -113.5t-113 -46.5q-65 0 -108 44t-43 104zM190 1194l31 258q160 47 305 47q192 0 309 -85t117 -247q0 -104 -40 -182.5t-107.5 -133t-183.5 -116.5q-47 -25 -70 -39t-53 -36t-43 -41.5t-23 -47t-10 -61.5 q0 -39 8 -78h-154q-24 54 -24 121q0 95 48 159.5t187 157.5q47 31 78.5 59t59.5 64t41.5 79.5t13.5 96.5q0 84 -52.5 127t-148.5 45q-43 0 -80 -6l-51 -141h-158z" />
<glyph unicode="@" horiz-adv-x="1966" d="M125 457q0 200 68.5 380.5t190 315.5t300.5 215t387 80q352 0 561 -201.5t209 -550.5q0 -141 -42 -255.5t-115.5 -189.5t-170.5 -115t-208 -40q-101 0 -159.5 35.5t-72.5 95.5h-10q-114 -114 -246 -114q-116 0 -181 75t-65 211q0 157 64 292.5t174.5 215.5t239.5 80 q54 0 96 -11t61.5 -22t53.5 -34l51 49h135l-148 -625q-8 -31 -8 -57q0 -28 14 -39.5t48 -11.5q64 0 123.5 27.5t108.5 80.5t78.5 142.5t29.5 203.5q0 301 -159.5 467t-465.5 166q-146 0 -272.5 -44.5t-219.5 -124t-159 -187.5t-99.5 -236.5t-33.5 -269.5q0 -328 174.5 -496 t521.5 -168q257 0 483 78v-113q-202 -92 -487 -92q-405 0 -627.5 208t-222.5 579zM815 414q0 -82 23 -118t80 -36q42 0 75 18t74 54l100 454q-16 37 -41 57.5t-73 20.5q-64 0 -119 -62t-87 -166t-32 -222z" />
<glyph unicode="A" horiz-adv-x="1449" d="M-96 0l22 131l144 37l700 1309h254l203 -1309l129 -37l-23 -131h-596l23 131l164 37l-35 272h-479l-140 -272l152 -37l-21 -131h-497zM483 584h387l-39 305q-8 69 -15 157.5t-10 142.5l-3 54h-10q-66 -186 -144 -340z" />
<glyph unicode="B" horiz-adv-x="1351" d="M-47 0l22 131l181 39l202 1137l-163 39l22 131h623q219 0 333.5 -88t114.5 -248q0 -71 -18 -129t-58 -107t-111 -83t-171 -50v-12q160 -21 241.5 -100.5t81.5 -204.5q0 -217 -151.5 -336t-448.5 -119h-700zM446 164h195q158 0 237.5 70t79.5 231q0 108 -60.5 164.5 t-176.5 56.5h-182zM561 834h150q148 0 220.5 73.5t72.5 225.5q0 100 -57.5 140t-168.5 40h-133z" />
<glyph unicode="C" horiz-adv-x="1325" d="M76 575q0 206 62.5 380t171.5 293.5t260 186t325 66.5q249 0 428 -82l-33 -364h-160l-47 219q-96 55 -211 55q-102 0 -186.5 -44.5t-142 -120.5t-97.5 -179t-58.5 -219t-18.5 -242q0 -370 329 -370q128 0 213 45l119 239h164l-82 -385q-199 -76 -410 -76q-294 0 -460 150 t-166 448z" />
<glyph unicode="D" horiz-adv-x="1488" d="M-47 0l22 131l185 39l198 1137l-165 39l22 131h610q308 0 470.5 -151.5t162.5 -426.5q0 -204 -60.5 -372.5t-169 -284t-262 -179t-335.5 -63.5h-678zM446 166h195q255 0 389.5 208t134.5 593q0 189 -94 266.5t-285 77.5h-137z" />
<glyph unicode="E" horiz-adv-x="1308" d="M-47 0l22 131l185 39l198 1137l-165 39l22 131h1096l-25 -387h-141l-58 223h-444l-86 -486h223l76 185h127l-76 -512h-125l-20 188h-230l-92 -526h492l145 278h150l-94 -440h-1180z" />
<glyph unicode="F" horiz-adv-x="1298" d="M-47 0l22 131l183 37l200 1139l-165 39l22 131h1112l-27 -408h-149l-53 240h-451l-90 -510h229l78 188h123l-80 -514h-123l-18 182h-234l-88 -485l183 -39l-23 -131h-651z" />
<glyph unicode="G" horiz-adv-x="1462" d="M78 573q0 144 34 273.5t93 230t140 181.5t175.5 134t197.5 81t208 28q282 0 450 -67l-24 -371h-154l-55 215q-70 49 -228 49q-166 0 -290.5 -101.5t-191 -284t-66.5 -419.5q0 -179 89.5 -277t278.5 -98q45 0 100.5 10t92.5 27l59 344l-166 37l23 131h594l-23 -131 l-149 -37l-84 -477q-90 -34 -218.5 -57t-234.5 -23q-167 0 -293 43t-203.5 123t-116 189t-38.5 247z" />
<glyph unicode="H" horiz-adv-x="1607" d="M-47 0l22 131l179 37l202 1139l-163 39l22 131h623l-23 -131l-168 -39l-82 -473h568l81 473l-159 39l22 131h625l-25 -131l-174 -39l-203 -1139l162 -37l-22 -131h-623l23 131l172 37l90 510h-567l-91 -510l156 -37l-22 -131h-625z" />
<glyph unicode="I" horiz-adv-x="724" d="M-55 0l22 131l174 37l201 1139l-158 39l23 131h620l-22 -131l-174 -39l-201 -1139l160 -37l-23 -131h-622z" />
<glyph unicode="J" horiz-adv-x="976" d="M-29 186q0 65 54 119h178v-155q18 -3 43 -3q89 0 139.5 55t73.5 187l159 918l-163 39l22 131h610l-22 -131l-156 -39l-166 -942q-33 -187 -161 -285t-312 -98q-149 0 -224 60t-75 144z" />
<glyph unicode="K" horiz-adv-x="1460" d="M-47 0l22 131l181 37l200 1139l-163 39l22 131h629l-23 -131l-174 -37l-106 -594l624 594l-127 37l23 131h495l-22 -131l-133 -39l-498 -461l307 -676l152 -39l-23 -131h-356l-295 657l-178 -122l-66 -367l160 -37l-22 -131h-629z" />
<glyph unicode="L" horiz-adv-x="1241" d="M-47 0l22 131l181 37l200 1139l-166 39l23 131h649l-22 -131l-193 -37l-203 -1143h428l148 332h149l-100 -498h-1116z" />
<glyph unicode="M" horiz-adv-x="1908" d="M-47 0l27 131l176 37l200 1139l-163 39l22 131h561l74 -598q24 -173 24 -459v-86h9q123 331 223 536l297 607h600l-23 -131l-192 -39l-199 -1137l176 -39l-22 -131h-608l22 131l152 39l110 637q16 92 44 227t47 224l20 90h-10q-144 -326 -242 -525l-383 -774h-195 l-102 768q-12 90 -24 221.5t-18 217.5l-7 87h-10q-37 -317 -76 -536l-111 -637l140 -39l-23 -131h-516z" />
<glyph unicode="N" horiz-adv-x="1558" d="M-47 0l22 131l183 39l198 1137l-163 39l22 131h504l287 -711q26 -65 53.5 -158.5t42.5 -153.5l14 -61h10l162 912l-164 41l23 131h522l-22 -131l-160 -39l-246 -1307h-233l-346 891q-27 69 -54 161.5t-40 149.5l-13 58h-8l-193 -1090l164 -39l-22 -131h-543z" />
<glyph unicode="O" horiz-adv-x="1456" d="M78 590q0 208 65.5 383.5t173 289t243.5 176t280 62.5q270 0 427.5 -165.5t157.5 -450.5q0 -171 -43 -319t-116.5 -255t-171.5 -184t-209.5 -114.5t-227.5 -37.5q-267 0 -423 164.5t-156 450.5zM367 512q0 -182 71.5 -273.5t227.5 -91.5q111 0 201.5 68t147.5 182 t87.5 258.5t30.5 302.5q0 371 -299 371q-111 0 -201 -69t-147.5 -184t-88 -260.5t-30.5 -303.5z" />
<glyph unicode="P" horiz-adv-x="1269" d="M-47 0l22 131l183 39l198 1137l-163 39l22 131h592q246 0 368.5 -102t122.5 -277q0 -129 -41 -227t-115 -157t-169.5 -88.5t-210.5 -29.5q-123 0 -236 33l-82 -459l197 -39l-23 -131h-665zM551 764q82 -19 166 -19q291 0 291 351q0 110 -53 158.5t-173 48.5h-135z" />
<glyph unicode="Q" horiz-adv-x="1456" d="M76 596q0 168 42.5 314.5t116 253t170.5 183.5t207.5 115.5t225.5 38.5q270 0 427.5 -168t157.5 -454q0 -156 -35.5 -287t-91.5 -219.5t-131 -155t-149.5 -101.5t-151.5 -50v-11l568 -114l-58 -226l-829 260q-86 27 -153 60t-128 84.5t-101 116.5t-63.5 156.5 t-23.5 203.5zM367 512q0 -182 71.5 -276.5t227.5 -94.5q111 0 201.5 68.5t147.5 184t87.5 260.5t30.5 304q0 371 -299 371q-111 0 -201 -69t-147.5 -184t-88 -260.5t-30.5 -303.5z" />
<glyph unicode="R" horiz-adv-x="1417" d="M-47 0l22 131l187 39l198 1135l-161 41l22 131h619q241 0 362 -100t121 -269q0 -92 -28 -165t-78 -120.5t-107.5 -77.5t-128.5 -47v-8l219 -524l123 -35l-23 -131h-344l-247 635h-174l-86 -467l145 -37l-23 -131h-618zM559 786h186q81 0 139 26.5t89.5 73.5t46 102.5 t14.5 123.5q0 99 -57.5 146t-177.5 47h-150z" />
<glyph unicode="S" horiz-adv-x="1155" d="M10 80l37 323h158l31 -196q97 -62 247 -62q136 0 215.5 63.5t79.5 166.5q0 80 -42.5 130t-162.5 116l-114 63q-132 73 -199 164t-67 219q0 198 135.5 316t373.5 118q243 0 424 -84l-28 -297h-154l-29 162q-81 53 -225 53q-107 0 -175.5 -50.5t-68.5 -143.5 q0 -77 37.5 -125t157.5 -115l113 -63q78 -44 127 -78.5t91.5 -80t61.5 -99t19 -121.5q0 -223 -147 -352.5t-421 -129.5q-269 0 -475 103z" />
<glyph unicode="T" horiz-adv-x="1329" d="M119 1024l96 453h1194l-49 -453h-158l-26 289h-242l-203 -1145l172 -37l-22 -131h-652l23 131l188 37l203 1145h-244l-118 -289h-162z" />
<glyph unicode="U" horiz-adv-x="1501" d="M166 1346l22 131h623l-23 -131l-172 -37l-141 -799q-12 -67 -12 -121q0 -124 68.5 -181.5t218.5 -57.5q146 0 233.5 72.5t118.5 246.5l149 838l-161 39l22 131h508l-23 -131l-151 -39l-156 -867q-42 -235 -180.5 -352t-386.5 -117q-145 0 -252.5 31.5t-171.5 89 t-94.5 131.5t-30.5 166q0 68 10 117l140 801z" />
<glyph unicode="V" horiz-adv-x="1431" d="M152 1346l22 131h582l-23 -131l-166 -39l86 -586q12 -84 21 -205t12 -200l2 -80h10q121 301 209 479l297 592l-151 39l22 131h490l-23 -131l-135 -39l-672 -1307h-248l-215 1307z" />
<glyph unicode="W" horiz-adv-x="2062" d="M164 1346l22 131h547l-22 -131l-152 -39l35 -469q10 -122 10 -324l-4 -235h10q117 335 213 552l289 646h211l59 -629q8 -88 14 -231t8 -242l1 -99h10q121 371 205 568l199 463l-144 39l23 131h489l-22 -131l-144 -39l-561 -1307h-260l-53 600q-12 131 -12 365l2 170h-11 q-117 -320 -211 -529l-272 -606h-264l-103 1307z" />
<glyph unicode="X" horiz-adv-x="1492" d="M-47 0l22 131l150 37l481 588l-254 551l-139 39l23 131h591l-22 -131l-139 -37l176 -426h10l317 426l-137 37l23 131h497l-22 -131l-146 -39l-438 -555l266 -584l138 -37l-23 -131h-584l23 131l143 35l-198 467h-11l-360 -465l133 -37l-22 -131h-498z" />
<glyph unicode="Y" horiz-adv-x="1357" d="M152 1346l22 131h551l-23 -131l-137 -39l203 -533h8l373 535l-133 37l22 131h455l-20 -131l-127 -39l-506 -691l-78 -446l164 -39l-23 -131h-637l23 131l184 39l78 451l-283 686z" />
<glyph unicode="Z" horiz-adv-x="1189" d="M-70 0l27 156l977 1142v11h-492l-129 -262h-151l84 430h1054l-26 -156l-975 -1145v-8h535l137 276h151l-90 -444h-1102z" />
<glyph unicode="[" horiz-adv-x="765" d="M4 -256l320 1817h526l-23 -131l-276 -39l-262 -1479l264 -37l-23 -131h-526z" />
<glyph unicode="\" horiz-adv-x="768" d="M229 1561h174l199 -1817h-174z" />
<glyph unicode="]" horiz-adv-x="765" d="M-68 -256l23 131l278 37l263 1479l-267 39l23 131h526l-319 -1817h-527z" />
<glyph unicode="^" horiz-adv-x="978" d="M164 954l397 523h160l215 -523h-148l-180 299l-289 -299h-155z" />
<glyph unicode="_" horiz-adv-x="716" d="M-164 -285l29 156h729l-31 -156h-727z" />
<glyph unicode="`" horiz-adv-x="1024" d="M389 1423l111 201l413 -270l-57 -105z" />
<glyph unicode="a" d="M29 285q0 165 56.5 318.5t147.5 262.5t207.5 174.5t233.5 65.5q71 0 116.5 -18t81.5 -54h13l30 76h205l23 -10l-201 -944q46 6 96.5 19.5t77.5 23.5l27 10l-33 -131q-53 -41 -127.5 -68.5t-140.5 -27.5q-86 0 -126 54q-30 41 -31 111q0 21 3 46h-6q-97 -111 -185 -164.5 t-196 -53.5q-127 0 -199.5 86.5t-72.5 223.5zM297 328q0 -86 26 -124t93 -38q65 0 139.5 52.5t169.5 152.5l102 481q-33 47 -65.5 69.5t-89.5 22.5q-91 0 -178 -86t-142 -230t-55 -300z" />
<glyph unicode="b" horiz-adv-x="1159" d="M37 145l250 1276l-146 33l27 125l387 47l29 -12l-127 -670h10q85 95 172 142t192 47q133 0 211 -91.5t78 -287.5q0 -120 -28.5 -233.5t-86 -212.5t-137 -173t-188.5 -117t-234 -43q-155 0 -256 46.5t-153 123.5zM317 221q14 -38 55 -64t109 -26q87 0 158.5 57t114 148 t65.5 197t23 212q0 103 -33.5 144t-103.5 41q-72 0 -137.5 -37.5t-139.5 -104.5z" />
<glyph unicode="c" horiz-adv-x="946" d="M29 375q0 211 87.5 385t239.5 273.5t336 99.5q136 0 206.5 -48t70.5 -135q0 -33 -17.5 -80.5t-38.5 -74.5h-180v176q-40 8 -67 8q-102 0 -186.5 -81t-130.5 -213t-46 -282q0 -128 52 -183.5t163 -55.5q77 0 147 25t166 79l-38 -149q-165 -144 -383 -144 q-176 0 -278.5 104.5t-102.5 295.5z" />
<glyph unicode="d" horiz-adv-x="1239" d="M35 311q0 160 54.5 312.5t143.5 263.5t208 178.5t243 67.5q53 0 92.5 -7t58.5 -15.5t48 -25.5l61 336l-158 33l21 125l407 49l27 -12l-260 -1460q46 6 96.5 19.5t77.5 23.5l27 10l-33 -131q-54 -42 -123 -69t-135 -27q-84 0 -127 47t-43 129h-8q-160 -183 -367 -183 q-139 0 -225 90t-86 246zM305 348q0 -97 39 -140.5t115 -43.5q77 0 144.5 40t141.5 118l103 567q-33 40 -68.5 61t-91.5 21q-99 0 -187.5 -85.5t-142 -230t-53.5 -307.5z" />
<glyph unicode="e" horiz-adv-x="985" d="M29 385q0 148 49 284.5t133.5 238.5t206.5 163.5t260 61.5q153 0 239.5 -66.5t86.5 -177.5q0 -85 -35 -153t-95 -114t-150.5 -79.5t-192 -52.5t-228.5 -29q-2 -18 -2 -60q0 -132 54 -183.5t171 -51.5q80 0 158 26.5t176 79.5l-35 -151q-167 -146 -407 -146 q-183 0 -286 107t-103 303zM324 606q98 7 171 23.5t132 46t90 78t31 114.5q0 51 -23.5 79t-69.5 28q-118 0 -206.5 -102t-124.5 -267z" />
<glyph unicode="f" horiz-adv-x="759" d="M-315 -233q0 55 47 102h155v-119q8 -2 21 -2q64 0 103 27.5t66.5 99.5t47.5 205l125 864h-137l22 123l141 49q101 518 572 518q137 0 208.5 -45.5t71.5 -122.5q0 -30 -16 -64.5t-39 -58.5h-176v134q-30 10 -63 10q-77 0 -130 -31.5t-95 -116t-68 -229.5h268l-33 -166 h-262l-145 -870q-41 -241 -152 -356t-297 -115q-106 0 -170.5 45t-64.5 119z" />
<glyph unicode="g" horiz-adv-x="1017" d="M-162 -190q0 54 30.5 102t84.5 84.5t115.5 64t134.5 48.5q-72 54 -72 131q0 57 32 116.5t87 110.5q-75 41 -118.5 107t-43.5 151q0 122 63 215.5t167 141.5t231 48q112 0 182 -40l359 49l-33 -174l-195 14v-6q74 -85 74 -180q0 -166 -131 -275.5t-330 -109.5 q-65 0 -117 14q-32 -52 -32 -88q0 -30 25.5 -48.5t90.5 -39.5l131 -41q161 -50 243.5 -120.5t82.5 -186.5q0 -163 -137 -259t-406 -96q-264 0 -391 72t-127 195zM76 -166q0 -137 276 -137q145 0 225 40t80 99q0 103 -192 164l-123 41q-18 4 -23 8q-243 -85 -243 -215z M336 696q0 -67 37.5 -109t105.5 -42q102 0 156.5 77t54.5 209q0 73 -36.5 117.5t-106.5 44.5q-98 0 -154.5 -81.5t-56.5 -215.5z" />
<glyph unicode="h" horiz-adv-x="1257" d="M59 0l303 1427l-141 35l23 125l385 49l24 -14l-145 -713h12q100 105 199.5 164.5t222.5 59.5q97 0 152 -52.5t55 -156.5q0 -48 -12 -107l-140 -661q46 6 96.5 19t77.5 23l27 9l-33 -131q-53 -41 -130 -67.5t-156 -26.5q-67 0 -105.5 34.5t-38.5 106.5q0 38 8 74l119 567 q8 41 8 76q0 44 -18 63t-55 19q-137 0 -318 -189l-155 -733h-265z" />
<glyph unicode="i" horiz-adv-x="628" d="M51 866l29 131q58 55 155.5 95.5t172.5 40.5q133 0 133 -129q0 -24 -11 -84l-174 -764q47 6 99.5 19.5t80.5 23.5l29 10l-30 -131q-54 -41 -136 -68.5t-159 -27.5q-67 0 -106.5 35t-39.5 108q0 36 8 72l168 723q-47 -7 -102 -20.5t-86 -23.5zM305 1440q0 66 45 109.5 t113 43.5t113 -43.5t45 -109.5t-45 -110t-113 -44t-113 44t-45 110z" />
<glyph unicode="j" horiz-adv-x="598" d="M-356 -270q0 58 45 106h170v-129h10q78 0 122 41.5t70 163.5l209 1008q-47 -7 -101.5 -20.5t-84.5 -23.5l-31 -10l29 131q59 56 153 96t168 40q134 0 134 -129q0 -24 -11 -84l-202 -973q-43 -198 -154.5 -292.5t-275.5 -94.5q-113 0 -181.5 49t-68.5 121zM313 1440 q0 66 45 109.5t113 43.5t113 -43.5t45 -109.5t-45 -110t-113 -44t-113 44t-45 110z" />
<glyph unicode="k" horiz-adv-x="1140" d="M59 0l303 1427l-141 35l23 125l385 49l24 -14l-198 -979l51 6q88 9 140 66.5t122 220.5q47 110 107 153.5t139 43.5q50 0 90.5 -26.5t52.5 -55.5l-27 -138h-161q-47 -97 -115 -176.5t-147 -113.5l170 -469q45 5 94 18.5t75 23.5l27 11l-31 -129q-45 -33 -71.5 -50 t-66.5 -31.5t-81 -14.5q-27 0 -50 6.5t-42.5 15.5t-38 31t-32.5 40.5t-31 58t-29 69t-30 87t-31 99.5t-35 119h-78l-102 -508h-265z" />
<glyph unicode="l" horiz-adv-x="628" d="M78 127q0 34 8 70l260 1230l-141 35l22 125l389 49l25 -14l-301 -1466q48 6 102.5 20.5t84.5 25.5l30 11l-31 -131q-56 -42 -139.5 -71t-165.5 -29q-66 0 -104.5 35.5t-38.5 109.5z" />
<glyph unicode="m" horiz-adv-x="1832" d="M53 866l29 131q59 56 150 96t165 40q62 0 95.5 -29t33.5 -98q0 -18 -8 -72l-4 -23h12q102 109 189.5 165.5t197.5 56.5q97 0 149.5 -53.5t51.5 -164.5h12q67 69 118 111.5t123.5 74.5t148.5 32q98 0 153 -52.5t55 -158.5q0 -46 -12 -105l-141 -661q46 6 96.5 19.5 t77.5 23.5l27 10l-31 -131q-54 -42 -131 -69t-156 -27q-66 0 -104.5 34.5t-38.5 106.5q0 38 8 74l119 567q10 55 10 80q0 43 -18 61.5t-54 18.5q-38 0 -76.5 -15.5t-77 -47t-65.5 -57.5t-65 -67l-158 -737h-262l162 764q10 55 10 80q0 43 -17.5 61.5t-52.5 18.5 q-38 0 -75.5 -15t-77.5 -47.5t-65.5 -57t-68.5 -69.5l-155 -735h-264l196 920q-45 -7 -98 -20.5t-83 -23.5z" />
<glyph unicode="n" horiz-adv-x="1257" d="M53 868l29 131q59 56 150 95t165 39q62 0 95.5 -29t33.5 -98q0 -37 -8 -76l-4 -23h12q110 114 202 170t214 56q97 0 152 -52.5t55 -156.5q0 -48 -12 -107l-140 -661q46 6 96.5 19t77.5 23l27 9l-33 -131q-53 -41 -130 -67.5t-156 -26.5q-67 0 -105.5 34.5t-38.5 106.5 q0 38 8 74l119 567q8 41 8 76q0 44 -18 63t-55 19q-80 0 -153.5 -51t-156.5 -138l-155 -733h-264l196 920q-46 -7 -99 -20t-83 -22z" />
<glyph unicode="o" horiz-adv-x="1124" d="M37 428q0 138 44 265.5t122 224t193.5 154.5t250.5 58q205 0 321.5 -127t116.5 -325q0 -139 -42 -265.5t-118 -224t-191.5 -155.5t-252.5 -58q-209 0 -326.5 126.5t-117.5 326.5zM305 389q0 -130 46 -192t145 -62t172 76.5t110 207.5t37 298q0 254 -186 254 q-92 0 -166 -75t-116 -208t-42 -299z" />
<glyph unicode="p" d="M-143 -444l20 114l150 29l217 1221q-45 -7 -96 -20.5t-79 -23.5l-28 -10l29 131q60 57 147.5 96.5t161.5 39.5q63 0 95 -25.5t32 -95.5q0 -39 -4 -62l-2 -14h10q84 97 166 147t186 50q133 0 215 -98.5t82 -297.5q0 -97 -18.5 -190.5t-53.5 -178.5t-89 -156.5 t-121.5 -124.5t-154.5 -82.5t-185 -29.5q-111 0 -191 39l-51 -313l162 -31l-21 -114h-579zM381 207q17 -23 32 -36.5t48.5 -25.5t79.5 -12q70 0 128.5 36.5t97.5 95.5t66.5 136.5t39.5 157.5t12 160q0 116 -38 164.5t-110 48.5q-48 0 -93.5 -20t-72 -41.5t-74.5 -66.5 q-9 -9 -14 -13z" />
<glyph unicode="q" horiz-adv-x="1204" d="M37 311q0 165 57 317t152.5 262.5t227 176.5t274.5 66q134 0 225.5 -23.5t183.5 -77.5l-285 -1333l136 -29l-23 -114h-575l24 114l178 33l97 459h-11q-78 -90 -165 -138.5t-205 -48.5q-133 0 -212 87.5t-79 248.5zM311 340q0 -176 133 -176q84 0 150 43t151 141l121 570 q-20 25 -59.5 39t-87.5 14q-109 0 -203.5 -86.5t-149.5 -232t-55 -312.5z" />
<glyph unicode="r" horiz-adv-x="897" d="M49 866l29 131q59 56 150 96t165 40q123 0 123 -123q0 -29 -6 -66l-6 -37h12q144 223 285 223q55 0 95 -35t40 -96q0 -90 -82 -180h-170v113q-51 -33 -97.5 -81.5t-105.5 -121.5l-153 -729h-265l197 920q-46 -7 -99 -20.5t-83 -23.5z" />
<glyph unicode="s" horiz-adv-x="868" d="M-37 207q0 63 49 119h195v-168q63 -29 135 -29q95 0 147 38.5t52 104.5q0 57 -31.5 92t-118.5 85l-67 38q-102 60 -153.5 129.5t-51.5 169.5q0 150 112.5 247t305.5 97q163 0 246 -55.5t83 -146.5q0 -27 -13.5 -61.5t-35.5 -59.5h-184v149q-52 25 -107 25 q-78 0 -130 -35.5t-52 -95.5q0 -52 31.5 -87.5t116.5 -84.5l67 -39q108 -64 165.5 -138t57.5 -175q0 -74 -27.5 -137t-80.5 -111.5t-138.5 -76.5t-195.5 -28q-177 0 -277 68.5t-100 165.5z" />
<glyph unicode="t" horiz-adv-x="757" d="M100 154q0 30 9 71l153 719h-156l25 121l168 51l53 254h260l-55 -260h231l-34 -166h-232l-168 -784q68 5 139 22.5t107 31.5l37 15l-31 -135q-151 -114 -323 -114q-82 0 -132.5 43.5t-50.5 130.5z" />
<glyph unicode="u" horiz-adv-x="1216" d="M31 866l28 131q60 57 149.5 96.5t164.5 39.5q67 0 102 -30t35 -102q0 -39 -12 -94l-121 -565q-8 -36 -8 -68q0 -90 86 -90q73 0 133 40.5t147 131.5l160 754h264l-205 -954q46 6 96.5 19.5t77.5 23.5l27 10l-31 -131q-56 -42 -129 -69t-147 -27q-144 0 -144 140 q0 20 3 44l2 16h-13q-49 -48 -72 -70t-64 -54t-72 -45.5t-75 -24.5t-94 -11q-103 0 -163 59.5t-60 170.5q0 44 13 104l129 609q-45 -8 -97 -21.5t-81 -22.5z" />
<glyph unicode="v" horiz-adv-x="1114" d="M33 866l28 131q59 56 137 96t146 40q57 0 93.5 -36t49.5 -122q37 -232 43 -522v-32q0 -98 -14 -263h10q28 48 81.5 139.5t78.5 134.5q163 273 203 486h-98l28 159q26 25 66.5 41.5t75.5 16.5q69 0 113 -37.5t44 -118.5q0 -136 -174.5 -423t-413.5 -556h-213 q-27 543 -84 915q-44 -8 -94 -20t-78 -21z" />
<glyph unicode="w" horiz-adv-x="1576" d="M37 868l29 131q142 134 264 134q57 0 92 -35t46 -121q5 -47 7.5 -108.5t3.5 -109.5t2 -130t1 -129q0 -171 -14 -324h9q14 36 38.5 104t44 119.5t36.5 92.5q111 258 219 618h207q49 -304 55 -664q0 -11 1 -36.5t1 -40.5q0 -88 -10 -215h10q29 61 79 173t52 117 q115 251 150 474h-105l29 159q27 25 65.5 41.5t73.5 16.5q70 0 115 -35t45 -111q0 -132 -142 -427.5t-333 -561.5h-236q0 289 -12 541q-4 98 -4 161q0 31 4 129h-10q-5 -19 -20 -77t-22 -84t-19.5 -65.5t-24.5 -67.5q-131 -305 -262 -537h-240q-1 42 -4.5 159t-5 163 t-5 142.5t-7 155.5t-9.5 140t-14 155q-44 -7 -89 -19t-68 -20z" />
<glyph unicode="x" horiz-adv-x="1095" d="M-45 33l39 176h160q141 165 252 369l-134 340q-44 -8 -94.5 -21t-79.5 -22l-28 -9l26 131q62 57 136 96.5t130 39.5q60 0 96.5 -31.5t65.5 -126.5l92 -297h7l73 143q94 182 161 247t149 65q60 0 112 -48l-35 -170h-153q-115 -142 -240 -370l154 -387q44 7 90 20t70 22 l24 9l-31 -131q-62 -48 -112 -72t-117 -24q-83 0 -128.5 51t-90.5 190l-72 221h-4l-92 -161q-98 -171 -163 -236t-146 -65q-30 0 -64.5 15t-52.5 36z" />
<glyph unicode="y" horiz-adv-x="1126" d="M-137 -371l33 138q83 -27 135 -27q105 0 177 27t154 116q-10 252 -46 534.5t-78 500.5q-45 -8 -95.5 -21t-78.5 -22l-27 -9l26 131q66 57 142.5 96.5t142.5 39.5q58 0 95 -33t53 -119q44 -228 59 -537q2 -31 2 -102q0 -122 -14 -242h10q26 56 81 166t77 160 q119 259 168 492h-99l29 159q25 25 66.5 41.5t76.5 16.5q71 0 115.5 -37t44.5 -115q0 -127 -120.5 -384t-319.5 -562q-174 -267 -309 -374t-308 -107q-104 0 -192 73z" />
<glyph unicode="z" horiz-adv-x="974" d="M-47 0v104l735 770l-385 23q-17 -33 -31 -71t-19 -60l-5 -21h-111q-10 46 -10 107q0 126 62 202t169 76q65 0 135 -25.5t152.5 -61t155.5 -50.5l112 117h111v-104l-739 -773l403 -24q19 36 34.5 79.5t21.5 69.5l6 25h112q10 -49 10 -111q0 -133 -62 -214t-169 -81 q-68 0 -141.5 27.5t-160 64t-165.5 50.5l-113 -119h-108z" />
<glyph unicode="{" horiz-adv-x="882" d="M80 594l31 170q142 11 204 44.5t70 90.5q6 35 -3 149t-9 158q0 48 6 86q11 65 45.5 113.5t100 85t174 54.5t257.5 16l-22 -131q-153 -12 -215 -43.5t-74 -102.5q-8 -49 -8 -143v-72q0 -119 -8 -164q-14 -88 -95 -144t-266 -87v-10q273 -73 273 -222q0 -68 -57.5 -226.5 t-57.5 -207.5q0 -57 43.5 -80t183.5 -53l-24 -131q-176 17 -282 55t-147.5 89.5t-41.5 125.5q0 50 22.5 117.5t50 122t50 114.5t22.5 97q0 46 -48.5 74.5t-174.5 54.5z" />
<glyph unicode="|" horiz-adv-x="509" d="M174 -256v1817h176v-1817h-176z" />
<glyph unicode="}" horiz-adv-x="882" d="M-61 -254l22 131q153 12 215 43.5t74 102.5q8 49 8 143v72q0 118 8 163q10 58 43.5 100t112.5 76.5t205 55.5v10q-273 73 -273 221q0 68 57.5 226.5t57.5 207.5q0 57 -44 80.5t-183 53.5l24 131q133 -13 225.5 -37t145.5 -59t76.5 -77.5t23.5 -97.5q0 -64 -36.5 -152.5 t-72.5 -170t-36 -127.5t48.5 -74.5t174.5 -54.5l-31 -170q-142 -11 -204 -44.5t-70 -90.5q-6 -35 3 -149.5t9 -158.5q0 -48 -6 -86q-11 -65 -45.5 -113t-100 -85t-174 -54.5t-257.5 -15.5z" />
<glyph unicode="~" horiz-adv-x="911" d="M33 545q66 130 138 193t163 63q52 0 108.5 -24t105 -48t79.5 -24q39 0 75.5 26.5t79.5 85.5l111 -61q-65 -130 -138 -193t-163 -63q-52 0 -108 24t-104 48t-79 24q-40 0 -77 -27.5t-81 -87.5z" />
<glyph unicode="&#xa1;" horiz-adv-x="532" d="M-31 -254l254 1045h170l-133 -1045h-291zM197 1085q0 67 46.5 113.5t112.5 46.5q65 0 108.5 -43.5t43.5 -103.5q0 -67 -47.5 -112.5t-112.5 -45.5t-108 42.5t-43 102.5z" />
<glyph unicode="&#xa2;" horiz-adv-x="1028" d="M27 383q0 199 82 364t230 266.5t335 114.5l49 181h145l-53 -185q113 -13 175.5 -61.5t62.5 -120.5q0 -32 -17 -73.5t-39 -69.5h-163v162q-20 7 -62 14l-235 -823h12q169 0 360 108l-37 -149q-163 -124 -385 -134l-84 -292h-145l84 299q-146 25 -230.5 128.5t-84.5 270.5z M287 412q0 -98 29 -156t92 -84l227 803q-102 -20 -182 -102t-123 -202.5t-43 -258.5z" />
<glyph unicode="&#xa3;" horiz-adv-x="1099" d="M-39 0l23 139q102 51 160 125t77 209l17 127h-136l27 160h129l23 160q17 125 69 219.5t127.5 148.5t161.5 80.5t182 26.5q153 0 235.5 -51t82.5 -144q0 -66 -52 -129h-194v158q-30 6 -64 6q-58 0 -102 -15.5t-82 -53t-65.5 -105t-44.5 -166.5l-25 -135h364l-28 -160h-363 l-12 -74q-20 -120 -72.5 -190.5t-136.5 -120.5v-8h715l-57 -207h-959z" />
<glyph unicode="&#xa4;" horiz-adv-x="1325" d="M61 465l23 127h152q3 76 20 172h-143l22 127h154q83 240 268 372t412 132q178 0 269 -58t91 -163q0 -75 -59 -142h-197v174q-52 27 -121 27q-141 0 -239.5 -90.5t-153.5 -251.5h424l-22 -127h-435q-17 -96 -20 -172h424l-23 -127h-401q9 -155 90 -229t250 -74 q62 0 135 16.5t102 27t91 34.5l-27 -140q-65 -54 -165.5 -89.5t-213.5 -35.5q-240 0 -374.5 127.5t-155.5 362.5h-177z" />
<glyph unicode="&#xa5;" horiz-adv-x="1269" d="M86 326l23 127h378l27 151h-379l23 127h309l-223 473l-105 37l21 129h532l-22 -129l-135 -33l184 -446h6l330 446l-125 33l22 129h430l-22 -129l-117 -37l-375 -473h314l-21 -127h-377l-26 -151h377l-23 -127h-377l-28 -160l167 -37l-22 -129h-623l23 129l184 37l29 160 h-379z" />
<glyph unicode="&#xa6;" horiz-adv-x="509" d="M174 -256v850h176v-850h-176zM174 791v770h176v-770h-176z" />
<glyph unicode="&#xa7;" horiz-adv-x="1153" d="M47 -199l33 262h147l23 -137q80 -51 199 -51q92 0 150 46t58 120q0 58 -35.5 99.5t-117.5 78.5l-168 78q-124 58 -186 131.5t-62 171.5q0 244 309 311q-98 88 -98 226q0 172 123.5 268t329.5 96q200 0 342 -69l-29 -244h-141l-25 112q-65 48 -162 48q-92 0 -149.5 -44 t-57.5 -118q0 -54 31 -93t107 -73l163 -74q126 -57 188 -130.5t62 -174.5q0 -243 -301 -315q115 -101 115 -234q0 -167 -119.5 -270t-341.5 -103q-215 0 -387 82zM317 666q0 -58 46.5 -103.5t138.5 -87.5l155 -72q191 39 191 177q0 55 -42 98t-130 84l-158 72 q-87 -12 -144 -54t-57 -114z" />
<glyph unicode="&#xa8;" horiz-adv-x="1024" d="M293 1405q0 61 43.5 102t105.5 41t101 -39.5t39 -97.5q0 -61 -43.5 -103t-104.5 -42t-101 40.5t-40 98.5zM725 1405q0 61 43.5 102t105.5 41q60 0 100 -40t40 -97q0 -61 -44 -103t-106 -42t-100.5 40.5t-38.5 98.5z" />
<glyph unicode="&#xa9;" horiz-adv-x="1718" d="M133 733q0 155 57.5 295t157 241.5t238.5 161.5t295 60q207 0 379.5 -101.5t271 -275.5t98.5 -381t-98.5 -382.5t-271 -278.5t-379.5 -103q-156 0 -295.5 60.5t-238 163.5t-156.5 244t-58 296zM262 733q0 -133 45.5 -253t125.5 -209t196.5 -141t251.5 -52q178 0 320 89 t219 238t77 328q0 178 -77 326t-219 236.5t-320 88.5q-135 0 -251.5 -52t-196.5 -140t-125.5 -207t-45.5 -252zM528 731q0 99 31.5 175.5t86.5 122t123.5 68.5t148.5 23q135 0 227 -30l8 -213h-102l-43 114q-57 21 -99 21q-92 0 -131 -66t-39 -194q0 -152 39.5 -220.5 t139.5 -68.5q62 0 94 18l47 131h102l-12 -217q-109 -41 -248 -41q-168 0 -270.5 97t-102.5 280z" />
<glyph unicode="&#xaa;" horiz-adv-x="1124" d="M96 745q0 151 50 291t131 238t185 156.5t210 58.5q118 0 184 -66h10l29 70h190l21 -10l-182 -850q40 6 84 18t68 21l24 8l-29 -119q-48 -37 -116.5 -62.5t-127.5 -25.5q-76 0 -112 47.5t-27 138.5h-6q-85 -101 -165 -146.5t-179 -45.5q-115 0 -178.5 75.5t-63.5 202.5z M346 784q0 -76 23 -110.5t75 -34.5q63 0 128 44.5t147 133.5l94 445q-27 41 -58.5 60t-86.5 19q-81 0 -155.5 -78t-120.5 -207.5t-46 -271.5z" />
<glyph unicode="&#xab;" horiz-adv-x="1011" d="M57 514l15 76l360 432h180l-321 -490l123 -479h-164zM481 506l15 76l362 440h180l-323 -498l123 -471h-164z" />
<glyph unicode="&#xad;" horiz-adv-x="739" d="M80 502l39 213h543l-39 -213h-543z" />
<glyph unicode="&#xae;" horiz-adv-x="1718" d="M133 733q0 155 57.5 295t157 241.5t238.5 161.5t295 60q207 0 379.5 -101.5t271 -275.5t98.5 -381t-98.5 -382.5t-271 -278.5t-379.5 -103q-156 0 -295.5 60.5t-238 163.5t-156.5 244t-58 296zM262 733q0 -133 45.5 -253t125.5 -209t196.5 -141t251.5 -52q178 0 320 89 t219 238t77 328q0 178 -77 326t-219 236.5t-320 88.5q-135 0 -251.5 -52t-196.5 -140t-125.5 -207t-45.5 -252zM561 375v84l76 18v510l-74 19v86h338q134 0 206.5 -54.5t72.5 -150.5q0 -128 -129 -174v-8l139 -228l63 -18v-84h-202l-168 295h-64v-193l68 -18v-84h-326z M819 764h76q109 0 109 113q0 58 -26.5 83t-86.5 25h-72v-221z" />
<glyph unicode="&#xaf;" horiz-adv-x="1024" d="M344 1315l31 174h583l-30 -174h-584z" />
<glyph unicode="&#xb0;" horiz-adv-x="911" d="M203 1155q0 141 100.5 240.5t249.5 99.5t248.5 -99.5t99.5 -240.5q0 -142 -99.5 -243t-248.5 -101t-249.5 101t-100.5 243zM350 1155q0 -94 55 -156.5t148 -62.5q91 0 146 62.5t55 156.5q0 93 -54.5 154t-146.5 61q-93 0 -148 -61t-55 -154z" />
<glyph unicode="&#xb2;" horiz-adv-x="745" d="M35 514l26 133l258 201q64 50 102 84t72 75t49 82.5t15 90.5q0 59 -33.5 91t-97.5 32q-41 0 -84 -15v-145h-160q-47 43 -47 96q0 86 95 145.5t243 59.5q159 0 243.5 -69t84.5 -179q0 -125 -90.5 -220.5t-278.5 -205.5l-143 -84v-6h448l-43 -166h-659z" />
<glyph unicode="&#xb3;" horiz-adv-x="737" d="M33 588l18 112q118 -53 234 -53q95 0 145.5 39t50.5 115q0 61 -38 86.5t-113 25.5h-86l22 129h68q101 0 151 44t50 120q0 109 -125 109q-40 0 -88 -23v-125h-142q-47 40 -47 88q0 84 88.5 136.5t224.5 52.5q151 0 234.5 -60.5t83.5 -160.5q0 -91 -65.5 -150t-174.5 -84 v-6q90 -19 147.5 -68t57.5 -127q0 -130 -107 -209t-280 -79q-192 0 -309 88z" />
<glyph unicode="&#xb4;" horiz-adv-x="1024" d="M408 1352l477 272l78 -201l-517 -174z" />
<glyph unicode="&#xb6;" horiz-adv-x="1263" d="M127 1036q0 213 131.5 327t403.5 114h735l-27 -131l-162 -39l-311 -1563h-164l318 1591h-207l-316 -1591h-163l190 954q-30 -6 -68 -6q-160 0 -260 91.5t-100 252.5z" />
<glyph unicode="&#xb7;" horiz-adv-x="638" d="M166 688q0 76 50 125t124 49q71 0 117.5 -47t46.5 -115q0 -74 -50 -123t-124 -49q-71 0 -117.5 47t-46.5 113z" />
<glyph unicode="&#xb8;" horiz-adv-x="1024" d="M160 -494l14 95q158 4 225.5 28t67.5 70q0 32 -38.5 51.5t-131.5 26.5l51 223h121l-31 -117q113 -12 170.5 -56t57.5 -110q0 -50 -23.5 -86.5t-79 -65.5t-156.5 -44t-247 -15z" />
<glyph unicode="&#xb9;" horiz-adv-x="614" d="M27 514l18 107l152 26l110 563l-160 -12l19 105l317 135h109l-154 -791l142 -26l-19 -107h-534z" />
<glyph unicode="&#xba;" horiz-adv-x="1038" d="M102 874q0 165 72 307.5t201.5 229t286.5 86.5q184 0 294.5 -114t110.5 -291q0 -167 -68.5 -309.5t-196.5 -229t-288 -86.5q-186 0 -299 114.5t-113 292.5zM352 836q0 -115 43.5 -167.5t130.5 -52.5q134 0 211.5 141t77.5 371q0 110 -43 166t-125 56q-128 0 -211.5 -144 t-83.5 -370z" />
<glyph unicode="&#xbb;" horiz-adv-x="1011" d="M-25 53l324 498l-123 471h164l192 -453l-14 -75l-362 -441h-181zM401 53l322 490l-123 479h164l192 -461l-14 -76l-360 -432h-181z" />
<glyph unicode="&#xbc;" horiz-adv-x="1855" d="M55 514l19 107l151 26l111 563l-160 -12l19 105l317 135h109l-154 -791l141 -26l-18 -107h-535zM303 -82l1178 1542h178l-1178 -1542h-178zM936 102l22 119l551 549h195l-102 -534h133l-27 -134h-131l-49 -252h-230l50 252h-412zM1143 236h229l55 290h-6l-278 -284v-6z " />
<glyph unicode="&#xbd;" horiz-adv-x="1910" d="M55 514l19 107l151 26l111 563l-160 -12l19 105l317 135h109l-154 -791l141 -26l-18 -107h-535zM287 -82l1188 1542h178l-1188 -1542h-178zM1063 -150l27 134l258 200q63 50 101.5 84t72.5 75t48.5 82.5t14.5 90.5q0 59 -33.5 91t-97.5 32q-44 0 -84 -14v-146h-160 q-47 43 -47 96q0 86 95 145.5t243 59.5q159 0 243.5 -69t84.5 -179q0 -125 -90.5 -220.5t-278.5 -205.5l-143 -83v-7h448l-43 -166h-659z" />
<glyph unicode="&#xbe;" horiz-adv-x="1896" d="M59 588l19 112q118 -53 233 -53q95 0 146 39t51 115q0 61 -38 86.5t-114 25.5h-86l23 129h67q101 0 151 44t50 120q0 109 -125 109q-40 0 -88 -23v-125h-141q-47 40 -47 88q0 84 88.5 136.5t224.5 52.5q151 0 234.5 -60.5t83.5 -160.5q0 -91 -65.5 -150t-174.5 -84v-6 q90 -19 147.5 -68t57.5 -127q0 -130 -107 -209t-280 -79q-193 0 -310 88zM342 -82l1190 1542h178l-1190 -1542h-178zM977 102l22 119l551 549h195l-103 -534h134l-27 -134h-131l-49 -252h-230l50 252h-412zM1184 236h229l55 290h-6l-278 -284v-6z" />
<glyph unicode="&#xbf;" horiz-adv-x="919" d="M-31 53q0 151 78.5 245t253.5 187q57 31 85.5 49t59 45.5t42.5 58.5t12 73q0 38 -8 77h153q25 -56 25 -120q0 -95 -48.5 -160t-187.5 -158q-96 -64 -144 -131t-48 -168q0 -85 52 -127.5t148 -44.5q42 0 80 6l51 142h158l-31 -258q-164 -48 -305 -48q-192 0 -309 85 t-117 247zM457 1083q0 67 46.5 113.5t112.5 46.5q65 0 108.5 -43.5t43.5 -103.5q0 -67 -47.5 -112.5t-112.5 -45.5t-108 42.5t-43 102.5z" />
<glyph unicode="&#xc0;" horiz-adv-x="1449" d="M-96 0l22 131l144 37l700 1309h254l203 -1309l129 -37l-23 -131h-596l23 131l164 37l-35 272h-479l-140 -272l152 -37l-21 -131h-497zM483 584h387l-39 305q-8 69 -15 157.5t-10 142.5l-3 54h-10q-66 -186 -144 -340zM641 1772l111 200l413 -270l-57 -105z" />
<glyph unicode="&#xc1;" horiz-adv-x="1449" d="M-96 0l22 131l144 37l700 1309h254l203 -1309l129 -37l-23 -131h-596l23 131l164 37l-35 272h-479l-140 -272l152 -37l-21 -131h-497zM483 584h387l-39 305q-8 69 -15 157.5t-10 142.5l-3 54h-10q-66 -186 -144 -340zM680 1700l477 272l78 -200l-516 -175z" />
<glyph unicode="&#xc2;" horiz-adv-x="1449" d="M-96 0l22 131l144 37l700 1309h254l203 -1309l129 -37l-23 -131h-596l23 131l164 37l-35 272h-479l-140 -272l152 -37l-21 -131h-497zM483 584h387l-39 305q-8 69 -15 157.5t-10 142.5l-3 54h-10q-66 -186 -144 -340zM563 1655l328 282h127l231 -286l-67 -78l-252 170 l-320 -170z" />
<glyph unicode="&#xc3;" horiz-adv-x="1449" d="M-96 0l22 131l144 37l700 1309h254l203 -1309l129 -37l-23 -131h-596l23 131l164 37l-35 272h-479l-140 -272l152 -37l-21 -131h-497zM483 584h387l-39 305q-8 69 -15 157.5t-10 142.5l-3 54h-10q-66 -186 -144 -340zM539 1690q122 229 266 229q50 0 148.5 -40t125.5 -40 q69 0 138 98l100 -55q-122 -233 -264 -233q-50 0 -150 41t-125 41q-69 0 -137 -99z" />
<glyph unicode="&#xc4;" horiz-adv-x="1449" d="M-96 0l22 131l144 37l700 1309h254l203 -1309l129 -37l-23 -131h-596l23 131l164 37l-35 272h-479l-140 -272l152 -37l-21 -131h-497zM483 584h387l-39 305q-8 69 -15 157.5t-10 142.5l-3 54h-10q-66 -186 -144 -340zM567 1753q0 61 44 102t106 41t100.5 -39.5 t38.5 -97.5q0 -61 -43 -103t-104 -42t-101.5 40.5t-40.5 98.5zM999 1753q0 61 44 102t106 41q59 0 99 -40t40 -97q0 -61 -43.5 -103t-105.5 -42t-101 40.5t-39 98.5z" />
<glyph unicode="&#xc5;" horiz-adv-x="1449" d="M-96 0l22 131l144 37l700 1309h254l203 -1309l129 -37l-23 -131h-596l23 131l164 37l-35 272h-479l-140 -272l152 -37l-21 -131h-497zM483 584h387l-39 305q-8 69 -15 157.5t-10 142.5l-3 54h-10q-66 -186 -144 -340zM678 1810q0 103 76.5 175.5t185.5 72.5 q106 0 177 -68.5t71 -166.5q0 -105 -75 -177.5t-183 -72.5t-180 69t-72 168zM793 1815q0 -67 36.5 -106.5t100.5 -39.5q65 0 105 41.5t40 108.5q0 65 -37 104t-100 39q-65 0 -105 -40.5t-40 -106.5z" />
<glyph unicode="&#xc6;" horiz-adv-x="2019" d="M-74 0l23 131l117 39l878 1157l-131 19l23 131h1189l-24 -387h-141l-58 223h-436l-86 -486h215l76 185h127l-76 -512h-125l-20 188h-222l-92 -526h484l145 278h150l-95 -440h-1165l23 131l184 39l43 246h-479l-185 -246l154 -39l-23 -131h-473zM559 559h397l74 414 q14 77 37.5 173.5t40.5 153.5l16 58h-12q-100 -200 -217 -354z" />
<glyph unicode="&#xc7;" horiz-adv-x="1325" d="M76 575q0 206 62.5 380t171.5 293.5t260 186t325 66.5q249 0 428 -82l-33 -364h-160l-47 219q-96 55 -211 55q-102 0 -186.5 -44.5t-142 -120.5t-97.5 -179t-58.5 -219t-18.5 -242q0 -370 329 -370q128 0 213 45l119 239h164l-82 -385q-199 -76 -410 -76q-30 0 -57 3 l-24 -97q113 -12 170 -56t57 -110q0 -50 -23.5 -86.5t-79 -65.5t-156.5 -44t-247 -15l14 95q158 4 225.5 28t67.5 70q0 32 -38.5 51.5t-131.5 26.5l49 217q-216 39 -334 184.5t-118 396.5z" />
<glyph unicode="&#xc8;" horiz-adv-x="1308" d="M-47 0l22 131l185 39l198 1137l-165 39l22 131h1096l-25 -387h-141l-58 223h-444l-86 -486h223l76 185h127l-76 -512h-125l-20 188h-230l-92 -526h492l145 278h150l-94 -440h-1180zM569 1772l111 200l414 -270l-58 -105z" />
<glyph unicode="&#xc9;" horiz-adv-x="1308" d="M-47 0l22 131l185 39l198 1137l-165 39l22 131h1096l-25 -387h-141l-58 223h-444l-86 -486h223l76 185h127l-76 -512h-125l-20 188h-230l-92 -526h492l145 278h150l-94 -440h-1180zM610 1700l477 272l78 -200l-516 -175z" />
<glyph unicode="&#xca;" horiz-adv-x="1308" d="M-47 0l22 131l185 39l198 1137l-165 39l22 131h1096l-25 -387h-141l-58 223h-444l-86 -486h223l76 185h127l-76 -512h-125l-20 188h-230l-92 -526h492l145 278h150l-94 -440h-1180zM502 1655l327 282h127l232 -286l-68 -78l-252 170l-319 -170z" />
<glyph unicode="&#xcb;" horiz-adv-x="1308" d="M-47 0l22 131l185 39l198 1137l-165 39l22 131h1096l-25 -387h-141l-58 223h-444l-86 -486h223l76 185h127l-76 -512h-125l-20 188h-230l-92 -526h492l145 278h150l-94 -440h-1180zM487 1753q0 61 44 102t106 41t100.5 -39.5t38.5 -97.5q0 -61 -43 -103t-104 -42 t-101.5 40.5t-40.5 98.5zM920 1753q0 61 43.5 102t105.5 41q59 0 99 -40t40 -97q0 -61 -43.5 -103t-105.5 -42t-100.5 40.5t-38.5 98.5z" />
<glyph unicode="&#xcc;" horiz-adv-x="724" d="M-55 0l22 131l174 37l201 1139l-158 39l23 131h620l-22 -131l-174 -39l-201 -1139l160 -37l-23 -131h-622zM299 1772l111 200l413 -270l-57 -105z" />
<glyph unicode="&#xcd;" horiz-adv-x="724" d="M-55 0l22 131l174 37l201 1139l-158 39l23 131h620l-22 -131l-174 -39l-201 -1139l160 -37l-23 -131h-622zM317 1700l478 272l77 -200l-516 -175z" />
<glyph unicode="&#xce;" horiz-adv-x="724" d="M-55 0l22 131l174 37l201 1139l-158 39l23 131h620l-22 -131l-174 -39l-201 -1139l160 -37l-23 -131h-622zM201 1655l327 282h127l232 -286l-68 -78l-252 170l-319 -170z" />
<glyph unicode="&#xcf;" horiz-adv-x="724" d="M-55 0l22 131l174 37l201 1139l-158 39l23 131h620l-22 -131l-174 -39l-201 -1139l160 -37l-23 -131h-622zM203 1753q0 61 43.5 102t105.5 41t101 -39.5t39 -97.5q0 -61 -43.5 -103t-104.5 -42t-101 40.5t-40 98.5zM635 1753q0 61 43.5 102t105.5 41q60 0 100 -40t40 -97 q0 -61 -44 -103t-106 -42t-100.5 40.5t-38.5 98.5z" />
<glyph unicode="&#xd0;" horiz-adv-x="1488" d="M-47 0l22 131l185 39l86 489h-160l31 175h159l82 473l-165 39l22 131h610q308 0 470.5 -151.5t162.5 -426.5q0 -204 -60.5 -372.5t-169 -284t-262 -179t-335.5 -63.5h-678zM446 166h195q255 0 389.5 208t134.5 593q0 189 -94 266.5t-285 77.5h-137l-86 -477h328l-31 -175 h-328z" />
<glyph unicode="&#xd1;" horiz-adv-x="1558" d="M-47 0l22 131l183 39l198 1137l-163 39l22 131h504l287 -711q26 -65 53.5 -158.5t42.5 -153.5l14 -61h10l162 912l-164 41l23 131h522l-22 -131l-160 -39l-246 -1307h-233l-346 891q-27 69 -54 161.5t-40 149.5l-13 58h-8l-193 -1090l164 -39l-22 -131h-543zM582 1690 q122 229 266 229q50 0 148.5 -40t125.5 -40q69 0 138 98l100 -55q-122 -233 -264 -233q-50 0 -150 41t-125 41q-69 0 -137 -99z" />
<glyph unicode="&#xd2;" horiz-adv-x="1456" d="M78 590q0 208 65.5 383.5t173 289t243.5 176t280 62.5q270 0 427.5 -165.5t157.5 -450.5q0 -171 -43 -319t-116.5 -255t-171.5 -184t-209.5 -114.5t-227.5 -37.5q-267 0 -423 164.5t-156 450.5zM367 512q0 -182 71.5 -273.5t227.5 -91.5q111 0 201.5 68t147.5 182 t87.5 258.5t30.5 302.5q0 371 -299 371q-111 0 -201 -69t-147.5 -184t-88 -260.5t-30.5 -303.5zM653 1772l111 200l414 -270l-58 -105z" />
<glyph unicode="&#xd3;" horiz-adv-x="1456" d="M78 590q0 208 65.5 383.5t173 289t243.5 176t280 62.5q270 0 427.5 -165.5t157.5 -450.5q0 -171 -43 -319t-116.5 -255t-171.5 -184t-209.5 -114.5t-227.5 -37.5q-267 0 -423 164.5t-156 450.5zM367 512q0 -182 71.5 -273.5t227.5 -91.5q111 0 201.5 68t147.5 182 t87.5 258.5t30.5 302.5q0 371 -299 371q-111 0 -201 -69t-147.5 -184t-88 -260.5t-30.5 -303.5zM631 1700l477 272l78 -200l-516 -175z" />
<glyph unicode="&#xd4;" horiz-adv-x="1456" d="M78 590q0 208 65.5 383.5t173 289t243.5 176t280 62.5q270 0 427.5 -165.5t157.5 -450.5q0 -171 -43 -319t-116.5 -255t-171.5 -184t-209.5 -114.5t-227.5 -37.5q-267 0 -423 164.5t-156 450.5zM367 512q0 -182 71.5 -273.5t227.5 -91.5q111 0 201.5 68t147.5 182 t87.5 258.5t30.5 302.5q0 371 -299 371q-111 0 -201 -69t-147.5 -184t-88 -260.5t-30.5 -303.5zM551 1655l328 282h127l231 -286l-68 -78l-251 170l-320 -170z" />
<glyph unicode="&#xd5;" horiz-adv-x="1456" d="M78 590q0 208 65.5 383.5t173 289t243.5 176t280 62.5q270 0 427.5 -165.5t157.5 -450.5q0 -171 -43 -319t-116.5 -255t-171.5 -184t-209.5 -114.5t-227.5 -37.5q-267 0 -423 164.5t-156 450.5zM367 512q0 -182 71.5 -273.5t227.5 -91.5q111 0 201.5 68t147.5 182 t87.5 258.5t30.5 302.5q0 371 -299 371q-111 0 -201 -69t-147.5 -184t-88 -260.5t-30.5 -303.5zM547 1690q122 229 266 229q50 0 148.5 -40t125.5 -40q69 0 138 98l100 -55q-122 -233 -264 -233q-50 0 -150 41t-125 41q-69 0 -137 -99z" />
<glyph unicode="&#xd6;" horiz-adv-x="1456" d="M78 590q0 208 65.5 383.5t173 289t243.5 176t280 62.5q270 0 427.5 -165.5t157.5 -450.5q0 -171 -43 -319t-116.5 -255t-171.5 -184t-209.5 -114.5t-227.5 -37.5q-267 0 -423 164.5t-156 450.5zM367 512q0 -182 71.5 -273.5t227.5 -91.5q111 0 201.5 68t147.5 182 t87.5 258.5t30.5 302.5q0 371 -299 371q-111 0 -201 -69t-147.5 -184t-88 -260.5t-30.5 -303.5zM559 1753q0 61 44 102t106 41t100.5 -39.5t38.5 -97.5q0 -61 -43.5 -103t-104.5 -42t-101 40.5t-40 98.5zM991 1753q0 61 44 102t106 41q59 0 99 -40t40 -97q0 -61 -44 -103 t-106 -42t-100.5 40.5t-38.5 98.5z" />
<glyph unicode="&#xd7;" horiz-adv-x="1245" d="M162 303l348 352l-348 355l121 120l348 -352l346 350l121 -120l-348 -353l350 -352l-121 -121l-348 353l-348 -353z" />
<glyph unicode="&#xd8;" horiz-adv-x="1456" d="M-4 -86l209 260q-129 163 -129 422q0 168 42.5 314.5t116 253t170.5 183.5t207.5 115.5t225.5 38.5q203 0 346 -98l108 137h193l-193 -240q131 -165 131 -421q0 -171 -43 -318.5t-116.5 -253.5t-171.5 -182t-209.5 -113t-227.5 -37q-200 0 -342 97l-125 -158h-192z M358 512q0 -87 11 -143l702 864q-74 100 -231 100q-113 0 -206.5 -69.5t-152.5 -185.5t-91 -262t-32 -304zM424 236q69 -93 231 -93q114 0 207.5 68.5t152.5 183.5t90.5 260t31.5 303q0 75 -13 142z" />
<glyph unicode="&#xd9;" horiz-adv-x="1501" d="M166 1346l22 131h623l-23 -131l-172 -37l-141 -799q-12 -67 -12 -121q0 -124 68.5 -181.5t218.5 -57.5q146 0 233.5 72.5t118.5 246.5l149 838l-161 39l22 131h508l-23 -131l-151 -39l-156 -867q-42 -235 -180.5 -352t-386.5 -117q-145 0 -252.5 31.5t-171.5 89 t-94.5 131.5t-30.5 166q0 68 10 117l140 801zM645 1772l111 200l413 -270l-57 -105z" />
<glyph unicode="&#xda;" horiz-adv-x="1501" d="M166 1346l22 131h623l-23 -131l-172 -37l-141 -799q-12 -67 -12 -121q0 -124 68.5 -181.5t218.5 -57.5q146 0 233.5 72.5t118.5 246.5l149 838l-161 39l22 131h508l-23 -131l-151 -39l-156 -867q-42 -235 -180.5 -352t-386.5 -117q-145 0 -252.5 31.5t-171.5 89 t-94.5 131.5t-30.5 166q0 68 10 117l140 801zM745 1700l478 272l77 -200l-516 -175z" />
<glyph unicode="&#xdb;" horiz-adv-x="1501" d="M166 1346l22 131h623l-23 -131l-172 -37l-141 -799q-12 -67 -12 -121q0 -124 68.5 -181.5t218.5 -57.5q146 0 233.5 72.5t118.5 246.5l149 838l-161 39l22 131h508l-23 -131l-151 -39l-156 -867q-42 -235 -180.5 -352t-386.5 -117q-145 0 -252.5 31.5t-171.5 89 t-94.5 131.5t-30.5 166q0 68 10 117l140 801zM618 1655l328 282h127l232 -286l-68 -78l-252 170l-319 -170z" />
<glyph unicode="&#xdc;" horiz-adv-x="1501" d="M166 1346l22 131h623l-23 -131l-172 -37l-141 -799q-12 -67 -12 -121q0 -124 68.5 -181.5t218.5 -57.5q146 0 233.5 72.5t118.5 246.5l149 838l-161 39l22 131h508l-23 -131l-151 -39l-156 -867q-42 -235 -180.5 -352t-386.5 -117q-145 0 -252.5 31.5t-171.5 89 t-94.5 131.5t-30.5 166q0 68 10 117l140 801zM614 1753q0 61 44 102t106 41t100.5 -39.5t38.5 -97.5q0 -61 -43 -103t-104 -42t-101.5 40.5t-40.5 98.5zM1047 1753q0 61 43.5 102t105.5 41q60 0 99.5 -40t39.5 -97q0 -61 -43.5 -103t-105.5 -42t-100.5 40.5t-38.5 98.5z" />
<glyph unicode="&#xdd;" horiz-adv-x="1357" d="M152 1346l22 131h551l-23 -131l-137 -39l203 -533h8l373 535l-133 37l22 131h455l-20 -131l-127 -39l-506 -691l-78 -446l164 -39l-23 -131h-637l23 131l184 39l78 451l-283 686zM633 1700l477 272l78 -200l-516 -175z" />
<glyph unicode="&#xde;" horiz-adv-x="1251" d="M-45 0l22 131l179 39l198 1137l-161 36l22 134h625l-23 -134l-172 -36l-24 -142h133q483 0 483 -334q0 -119 -40.5 -209.5t-114.5 -146t-171.5 -83t-216.5 -27.5q-120 0 -211 24l-37 -219l195 -39l-25 -131h-661zM508 528q75 -14 154 -14q148 0 215 76.5t67 234.5 q0 92 -53 133t-158 41h-141z" />
<glyph unicode="&#xdf;" horiz-adv-x="1314" d="M-373 -231q0 55 45 100h154v-119q8 -2 22 -2q64 0 103 28t67 99t52 205l213 1077q94 477 569 477q194 0 294.5 -85t100.5 -216q0 -54 -21 -107t-54.5 -96t-74.5 -82.5t-81.5 -74t-74 -64t-54.5 -58.5t-21 -52q0 -32 26.5 -61.5t82.5 -73.5l76 -62q58 -47 94 -84.5 t62 -92.5t26 -116q0 -69 -24.5 -129t-72.5 -107.5t-129 -74.5t-186 -27q-163 0 -255.5 68t-92.5 164q0 68 49 108h174v-155q57 -31 123 -31q170 0 170 127q0 50 -27.5 87t-84.5 81l-76 61q-80 63 -119 120t-39 130q0 48 20.5 94.5t53 85t71.5 77t78.5 76.5t72 76.5t53 84 t20.5 92.5q0 76 -46.5 116t-129.5 40q-120 0 -186.5 -78t-104.5 -250l-232 -1071q-47 -242 -157.5 -356.5t-296.5 -114.5q-102 0 -167 48.5t-65 117.5z" />
<glyph unicode="&#xe0;" d="M29 285q0 165 56.5 318.5t147.5 262.5t207.5 174.5t233.5 65.5q71 0 116.5 -18t81.5 -54h13l30 76h205l23 -10l-201 -944q46 6 96.5 19.5t77.5 23.5l27 10l-33 -131q-53 -41 -127.5 -68.5t-140.5 -27.5q-87 0 -126.5 53.5t-27.5 157.5h-6q-97 -111 -185 -164.5 t-196 -53.5q-127 0 -199.5 86.5t-72.5 223.5zM297 328q0 -86 26 -124t93 -38q65 0 139.5 52.5t169.5 152.5l102 481q-33 47 -65.5 69.5t-89.5 22.5q-91 0 -178 -86t-142 -230t-55 -300zM496 1423l110 201l414 -270l-57 -105z" />
<glyph unicode="&#xe1;" d="M29 285q0 165 56.5 318.5t147.5 262.5t207.5 174.5t233.5 65.5q71 0 116.5 -18t81.5 -54h13l30 76h205l23 -10l-201 -944q46 6 96.5 19.5t77.5 23.5l27 10l-33 -131q-53 -41 -127.5 -68.5t-140.5 -27.5q-87 0 -126.5 53.5t-27.5 157.5h-6q-97 -111 -185 -164.5 t-196 -53.5q-127 0 -199.5 86.5t-72.5 223.5zM297 328q0 -86 26 -124t93 -38q65 0 139.5 52.5t169.5 152.5l102 481q-33 47 -65.5 69.5t-89.5 22.5q-91 0 -178 -86t-142 -230t-55 -300zM514 1352l477 272l78 -201l-516 -174z" />
<glyph unicode="&#xe2;" d="M29 285q0 165 56.5 318.5t147.5 262.5t207.5 174.5t233.5 65.5q71 0 116.5 -18t81.5 -54h13l30 76h205l23 -10l-201 -944q46 6 96.5 19.5t77.5 23.5l27 10l-33 -131q-53 -41 -127.5 -68.5t-140.5 -27.5q-87 0 -126.5 53.5t-27.5 157.5h-6q-97 -111 -185 -164.5 t-196 -53.5q-127 0 -199.5 86.5t-72.5 223.5zM297 328q0 -86 26 -124t93 -38q65 0 139.5 52.5t169.5 152.5l102 481q-33 47 -65.5 69.5t-89.5 22.5q-91 0 -178 -86t-142 -230t-55 -300zM397 1307l328 282h127l231 -286l-67 -78l-252 170l-320 -170z" />
<glyph unicode="&#xe3;" d="M29 285q0 165 56.5 318.5t147.5 262.5t207.5 174.5t233.5 65.5q71 0 116.5 -18t81.5 -54h13l30 76h205l23 -10l-201 -944q46 6 96.5 19.5t77.5 23.5l27 10l-33 -131q-53 -41 -127.5 -68.5t-140.5 -27.5q-87 0 -126.5 53.5t-27.5 157.5h-6q-97 -111 -185 -164.5 t-196 -53.5q-127 0 -199.5 86.5t-72.5 223.5zM297 328q0 -86 26 -124t93 -38q65 0 139.5 52.5t169.5 152.5l102 481q-33 47 -65.5 69.5t-89.5 22.5q-91 0 -178 -86t-142 -230t-55 -300zM377 1341q122 230 266 230q50 0 149 -40t126 -40q68 0 137 98l100 -55 q-123 -234 -264 -234q-50 0 -150 41t-125 41q-69 0 -137 -98z" />
<glyph unicode="&#xe4;" d="M29 285q0 165 56.5 318.5t147.5 262.5t207.5 174.5t233.5 65.5q71 0 116.5 -18t81.5 -54h13l30 76h205l23 -10l-201 -944q46 6 96.5 19.5t77.5 23.5l27 10l-33 -131q-53 -41 -127.5 -68.5t-140.5 -27.5q-87 0 -126.5 53.5t-27.5 157.5h-6q-97 -111 -185 -164.5 t-196 -53.5q-127 0 -199.5 86.5t-72.5 223.5zM297 328q0 -86 26 -124t93 -38q65 0 139.5 52.5t169.5 152.5l102 481q-33 47 -65.5 69.5t-89.5 22.5q-91 0 -178 -86t-142 -230t-55 -300zM389 1405q0 61 44 102t106 41t100.5 -39.5t38.5 -97.5q0 -61 -43.5 -103t-104.5 -42 t-101 40.5t-40 98.5zM821 1405q0 61 44 102t106 41q59 0 99 -40t40 -97q0 -61 -43.5 -103t-105.5 -42t-101 40.5t-39 98.5z" />
<glyph unicode="&#xe5;" d="M29 285q0 165 56.5 318.5t147.5 262.5t207.5 174.5t233.5 65.5q71 0 116.5 -18t81.5 -54h13l30 76h205l23 -10l-201 -944q46 6 96.5 19.5t77.5 23.5l27 10l-33 -131q-53 -41 -127.5 -68.5t-140.5 -27.5q-87 0 -126.5 53.5t-27.5 157.5h-6q-97 -111 -185 -164.5 t-196 -53.5q-127 0 -199.5 86.5t-72.5 223.5zM297 328q0 -86 26 -124t93 -38q65 0 139.5 52.5t169.5 152.5l102 481q-33 47 -65.5 69.5t-89.5 22.5q-91 0 -178 -86t-142 -230t-55 -300zM516 1462q0 103 76.5 175.5t185.5 72.5q106 0 177 -68.5t71 -166.5q0 -105 -75 -177.5 t-183 -72.5t-180 69t-72 168zM631 1466q0 -67 36.5 -106t100.5 -39q65 0 105 41t40 108q0 65 -37 104.5t-100 39.5q-65 0 -105 -41t-40 -107z" />
<glyph unicode="&#xe6;" horiz-adv-x="1701" d="M29 285q0 165 56.5 318.5t147.5 262.5t207.5 174.5t233.5 65.5q70 0 110.5 -20t77.5 -72h12l31 96h139l-26 -139q165 162 377 162q145 0 230 -67t85 -177q0 -85 -34.5 -153t-95 -114t-150.5 -79.5t-191.5 -52.5t-228.5 -29q-2 -18 -2 -60q0 -132 54 -183.5t171 -51.5 q80 0 158 26.5t176 79.5l-35 -151q-71 -62 -174.5 -104t-233.5 -42q-140 0 -234 65t-132 187h-10q-118 -137 -223.5 -194.5t-223.5 -57.5q-127 0 -199.5 86.5t-72.5 223.5zM297 328q0 -86 26 -124t93 -38q65 0 137 49.5t162 144.5l112 492q-33 47 -65.5 69.5t-89.5 22.5 q-91 0 -178 -86t-142 -230t-55 -300zM1030 606q98 7 171 23.5t132 46t90 78t31 114.5q0 107 -92 107q-118 0 -207 -102.5t-125 -266.5z" />
<glyph unicode="&#xe7;" horiz-adv-x="978" d="M29 375q0 211 87.5 385t239.5 273.5t336 99.5q136 0 206.5 -48t70.5 -135q0 -33 -17.5 -80.5t-38.5 -74.5h-180v176q-40 8 -67 8q-102 0 -186.5 -81t-130.5 -213t-46 -282q0 -128 52 -183.5t163 -55.5q77 0 147 25t166 79l-38 -149q-160 -139 -369 -144l-25 -92 q113 -12 170.5 -56t57.5 -110q0 -50 -23.5 -86.5t-79 -65.5t-156.5 -44t-247 -15l14 95q158 4 225.5 28t67.5 70q0 32 -38.5 51.5t-131.5 26.5l47 209q-130 28 -203 128.5t-73 260.5z" />
<glyph unicode="&#xe8;" horiz-adv-x="985" d="M29 385q0 148 49 284.5t133.5 238.5t206.5 163.5t260 61.5q153 0 239.5 -66.5t86.5 -177.5q0 -85 -35 -153t-95 -114t-150.5 -79.5t-192 -52.5t-228.5 -29q-2 -18 -2 -60q0 -132 54 -183.5t171 -51.5q80 0 158 26.5t176 79.5l-35 -151q-167 -146 -407 -146 q-183 0 -286 107t-103 303zM324 606q98 7 171 23.5t132 46t90 78t31 114.5q0 51 -23.5 79t-69.5 28q-118 0 -206.5 -102t-124.5 -267zM408 1423l110 201l414 -270l-58 -105z" />
<glyph unicode="&#xe9;" horiz-adv-x="985" d="M29 385q0 148 49 284.5t133.5 238.5t206.5 163.5t260 61.5q153 0 239.5 -66.5t86.5 -177.5q0 -85 -35 -153t-95 -114t-150.5 -79.5t-192 -52.5t-228.5 -29q-2 -18 -2 -60q0 -132 54 -183.5t171 -51.5q80 0 158 26.5t176 79.5l-35 -151q-167 -146 -407 -146 q-183 0 -286 107t-103 303zM324 606q98 7 171 23.5t132 46t90 78t31 114.5q0 51 -23.5 79t-69.5 28q-118 0 -206.5 -102t-124.5 -267zM410 1352l477 272l78 -201l-516 -174z" />
<glyph unicode="&#xea;" horiz-adv-x="985" d="M29 385q0 148 49 284.5t133.5 238.5t206.5 163.5t260 61.5q153 0 239.5 -66.5t86.5 -177.5q0 -85 -35 -153t-95 -114t-150.5 -79.5t-192 -52.5t-228.5 -29q-2 -18 -2 -60q0 -132 54 -183.5t171 -51.5q80 0 158 26.5t176 79.5l-35 -151q-167 -146 -407 -146 q-183 0 -286 107t-103 303zM324 606q98 7 171 23.5t132 46t90 78t31 114.5q0 51 -23.5 79t-69.5 28q-118 0 -206.5 -102t-124.5 -267zM326 1307l327 282h127l232 -286l-68 -78l-252 170l-319 -170z" />
<glyph unicode="&#xeb;" horiz-adv-x="985" d="M29 385q0 148 49 284.5t133.5 238.5t206.5 163.5t260 61.5q153 0 239.5 -66.5t86.5 -177.5q0 -85 -35 -153t-95 -114t-150.5 -79.5t-192 -52.5t-228.5 -29q-2 -18 -2 -60q0 -132 54 -183.5t171 -51.5q80 0 158 26.5t176 79.5l-35 -151q-167 -146 -407 -146 q-183 0 -286 107t-103 303zM322 1405q0 61 43.5 102t105.5 41t100.5 -39.5t38.5 -97.5q0 -61 -43 -103t-104 -42t-101 40.5t-40 98.5zM324 606q98 7 171 23.5t132 46t90 78t31 114.5q0 51 -23.5 79t-69.5 28q-118 0 -206.5 -102t-124.5 -267zM754 1405q0 61 43.5 102 t105.5 41q59 0 99 -40t40 -97q0 -61 -43.5 -103t-105.5 -42t-100.5 40.5t-38.5 98.5z" />
<glyph unicode="&#xec;" horiz-adv-x="628" d="M51 866l29 131q58 55 155.5 95.5t172.5 40.5q133 0 133 -129q0 -24 -11 -84l-174 -764q47 6 99.5 19.5t80.5 23.5l29 10l-30 -131q-54 -41 -136 -68.5t-159 -27.5q-67 0 -106.5 35t-39.5 108q0 36 8 72l168 723q-47 -7 -102 -20.5t-86 -23.5zM184 1423l111 201l414 -270 l-58 -105z" />
<glyph unicode="&#xed;" horiz-adv-x="628" d="M51 866l29 131q58 55 155.5 95.5t172.5 40.5q133 0 133 -129q0 -24 -11 -84l-174 -764q47 6 99.5 19.5t80.5 23.5l29 10l-30 -131q-54 -41 -136 -68.5t-159 -27.5q-67 0 -106.5 35t-39.5 108q0 36 8 72l168 723q-47 -7 -102 -20.5t-86 -23.5zM227 1352l478 272l77 -201 l-516 -174z" />
<glyph unicode="&#xee;" horiz-adv-x="628" d="M51 866l29 131q58 55 155.5 95.5t172.5 40.5q133 0 133 -129q0 -24 -11 -84l-174 -764q47 6 99.5 19.5t80.5 23.5l29 10l-30 -131q-54 -41 -136 -68.5t-159 -27.5q-67 0 -106.5 35t-39.5 108q0 36 8 72l168 723q-47 -7 -102 -20.5t-86 -23.5zM100 1307l328 282h127 l231 -286l-67 -78l-252 170l-320 -170z" />
<glyph unicode="&#xef;" horiz-adv-x="628" d="M51 866l29 131q58 55 155.5 95.5t172.5 40.5q133 0 133 -129q0 -24 -11 -84l-174 -764q47 6 99.5 19.5t80.5 23.5l29 10l-30 -131q-54 -41 -136 -68.5t-159 -27.5q-67 0 -106.5 35t-39.5 108q0 36 8 72l168 723q-47 -7 -102 -20.5t-86 -23.5zM111 1405q0 61 43.5 102 t105.5 41t100.5 -39.5t38.5 -97.5q0 -61 -43 -103t-104 -42t-101 40.5t-40 98.5zM543 1405q0 61 43.5 102t105.5 41q60 0 99.5 -40t39.5 -97q0 -61 -43.5 -103t-105.5 -42t-100.5 40.5t-38.5 98.5z" />
<glyph unicode="&#xf0;" horiz-adv-x="1112" d="M35 418q0 153 45.5 280.5t121.5 210t174 127.5t206 45q89 0 143.5 -23t89.5 -75q-50 183 -160 320l-321 -134l31 146l200 84q-64 59 -164 125l99 116q161 -70 270 -157l305 127l-31 -146l-174 -73q220 -239 220 -609q0 -371 -165.5 -590t-430.5 -219q-223 0 -341 123.5 t-118 321.5zM301 369q0 -234 199 -234q91 0 163.5 75t113 207.5t40.5 297.5q0 113 -52 162t-151 49q-136 0 -224.5 -147.5t-88.5 -409.5z" />
<glyph unicode="&#xf1;" horiz-adv-x="1257" d="M53 868l29 131q59 56 150 95t165 39q62 0 95.5 -29t33.5 -98q0 -37 -8 -76l-4 -23h12q110 114 202 170t214 56q97 0 152 -52.5t55 -156.5q0 -48 -12 -107l-140 -661q46 6 96.5 19t77.5 23l27 9l-33 -131q-53 -41 -130 -67.5t-156 -26.5q-67 0 -105.5 34.5t-38.5 106.5 q0 38 8 74l119 567q8 41 8 76q0 44 -18 63t-55 19q-80 0 -153.5 -51t-156.5 -138l-155 -733h-264l196 920q-46 -7 -99 -20t-83 -22zM397 1341q122 230 267 230q50 0 148.5 -40t125.5 -40q68 0 137 98l101 -55q-123 -234 -265 -234q-50 0 -149.5 41t-124.5 41q-69 0 -137 -98 z" />
<glyph unicode="&#xf2;" horiz-adv-x="1124" d="M37 428q0 138 44 265.5t122 224t193.5 154.5t250.5 58q205 0 321.5 -127t116.5 -325q0 -139 -42 -265.5t-118 -224t-191.5 -155.5t-252.5 -58q-209 0 -326.5 126.5t-117.5 326.5zM305 389q0 -130 46 -192t145 -62t172 76.5t110 207.5t37 298q0 254 -186 254 q-92 0 -166 -75t-116 -208t-42 -299zM449 1423l110 201l414 -270l-58 -105z" />
<glyph unicode="&#xf3;" horiz-adv-x="1124" d="M37 428q0 138 44 265.5t122 224t193.5 154.5t250.5 58q205 0 321.5 -127t116.5 -325q0 -139 -42 -265.5t-118 -224t-191.5 -155.5t-252.5 -58q-209 0 -326.5 126.5t-117.5 326.5zM305 389q0 -130 46 -192t145 -62t172 76.5t110 207.5t37 298q0 254 -186 254 q-92 0 -166 -75t-116 -208t-42 -299zM498 1352l477 272l78 -201l-516 -174z" />
<glyph unicode="&#xf4;" horiz-adv-x="1124" d="M37 428q0 138 44 265.5t122 224t193.5 154.5t250.5 58q205 0 321.5 -127t116.5 -325q0 -139 -42 -265.5t-118 -224t-191.5 -155.5t-252.5 -58q-209 0 -326.5 126.5t-117.5 326.5zM305 389q0 -130 46 -192t145 -62t172 76.5t110 207.5t37 298q0 254 -186 254 q-92 0 -166 -75t-116 -208t-42 -299zM350 1307l328 282h127l231 -286l-67 -78l-252 170l-320 -170z" />
<glyph unicode="&#xf5;" horiz-adv-x="1124" d="M37 428q0 138 44 265.5t122 224t193.5 154.5t250.5 58q205 0 321.5 -127t116.5 -325q0 -139 -42 -265.5t-118 -224t-191.5 -155.5t-252.5 -58q-209 0 -326.5 126.5t-117.5 326.5zM305 389q0 -130 46 -192t145 -62t172 76.5t110 207.5t37 298q0 254 -186 254 q-92 0 -166 -75t-116 -208t-42 -299zM332 1341q122 230 266 230q50 0 148.5 -40t125.5 -40q69 0 138 98l100 -55q-123 -234 -264 -234q-50 0 -150 41t-125 41q-69 0 -137 -98z" />
<glyph unicode="&#xf6;" horiz-adv-x="1124" d="M37 428q0 138 44 265.5t122 224t193.5 154.5t250.5 58q205 0 321.5 -127t116.5 -325q0 -139 -42 -265.5t-118 -224t-191.5 -155.5t-252.5 -58q-209 0 -326.5 126.5t-117.5 326.5zM305 389q0 -130 46 -192t145 -62t172 76.5t110 207.5t37 298q0 254 -186 254 q-92 0 -166 -75t-116 -208t-42 -299zM354 1405q0 61 44 102t106 41t100.5 -39.5t38.5 -97.5q0 -61 -43 -103t-104 -42t-101.5 40.5t-40.5 98.5zM786 1405q0 61 44 102t106 41q60 0 99.5 -40t39.5 -97q0 -61 -43.5 -103t-105.5 -42t-101 40.5t-39 98.5z" />
<glyph unicode="&#xf7;" horiz-adv-x="1263" d="M133 578v174h1018v-174h-1018zM487 244q0 65 44 109t110 44t112 -44.5t46 -108.5q0 -59 -46.5 -104.5t-111.5 -45.5t-109.5 45t-44.5 105zM487 1083q0 63 44.5 107.5t109.5 44.5q66 0 112 -44.5t46 -107.5q0 -62 -46 -106.5t-112 -44.5q-65 0 -109.5 44.5t-44.5 106.5z " />
<glyph unicode="&#xf8;" horiz-adv-x="1124" d="M-39 -86l170 215q-98 124 -98 299q0 138 44.5 265.5t123.5 224t195 154.5t251 58q129 0 234 -59l86 107h188l-164 -203q99 -123 99 -297q0 -139 -43 -265.5t-119.5 -224t-193 -155.5t-253.5 -58q-126 0 -235 58l-96 -119h-189zM287 387q0 -53 4 -76l495 607 q-48 57 -153 57q-145 0 -245.5 -166t-100.5 -422zM338 184q47 -53 154 -53q154 0 248 164t94 424q0 17 -5 67z" />
<glyph unicode="&#xf9;" horiz-adv-x="1216" d="M31 866l28 131q60 57 149.5 96.5t164.5 39.5q67 0 102 -30t35 -102q0 -39 -12 -94l-121 -565q-8 -36 -8 -68q0 -90 86 -90q73 0 133 40.5t147 131.5l160 754h264l-205 -954q46 6 96.5 19.5t77.5 23.5l27 10l-31 -131q-56 -42 -129 -69t-147 -27q-165 0 -141 184l2 16h-13 q-49 -48 -72 -70t-64 -54t-72 -45.5t-75 -24.5t-94 -11q-103 0 -163 59.5t-60 170.5q0 44 13 104l129 609q-45 -8 -97 -21.5t-81 -22.5zM475 1423l111 201l413 -270l-57 -105z" />
<glyph unicode="&#xfa;" horiz-adv-x="1216" d="M31 866l28 131q60 57 149.5 96.5t164.5 39.5q67 0 102 -30t35 -102q0 -39 -12 -94l-121 -565q-8 -36 -8 -68q0 -90 86 -90q73 0 133 40.5t147 131.5l160 754h264l-205 -954q46 6 96.5 19.5t77.5 23.5l27 10l-31 -131q-56 -42 -129 -69t-147 -27q-165 0 -141 184l2 16h-13 q-49 -48 -72 -70t-64 -54t-72 -45.5t-75 -24.5t-94 -11q-103 0 -163 59.5t-60 170.5q0 44 13 104l129 609q-45 -8 -97 -21.5t-81 -22.5zM537 1352l477 272l78 -201l-517 -174z" />
<glyph unicode="&#xfb;" horiz-adv-x="1216" d="M31 866l28 131q60 57 149.5 96.5t164.5 39.5q67 0 102 -30t35 -102q0 -39 -12 -94l-121 -565q-8 -36 -8 -68q0 -90 86 -90q73 0 133 40.5t147 131.5l160 754h264l-205 -954q46 6 96.5 19.5t77.5 23.5l27 10l-31 -131q-56 -42 -129 -69t-147 -27q-165 0 -141 184l2 16h-13 q-49 -48 -72 -70t-64 -54t-72 -45.5t-75 -24.5t-94 -11q-103 0 -163 59.5t-60 170.5q0 44 13 104l129 609q-45 -8 -97 -21.5t-81 -22.5zM412 1307l327 282h127l232 -286l-68 -78l-252 170l-319 -170z" />
<glyph unicode="&#xfc;" horiz-adv-x="1216" d="M31 866l28 131q60 57 149.5 96.5t164.5 39.5q67 0 102 -30t35 -102q0 -39 -12 -94l-121 -565q-8 -36 -8 -68q0 -90 86 -90q73 0 133 40.5t147 131.5l160 754h264l-205 -954q46 6 96.5 19.5t77.5 23.5l27 10l-31 -131q-56 -42 -129 -69t-147 -27q-165 0 -141 184l2 16h-13 q-49 -48 -72 -70t-64 -54t-72 -45.5t-75 -24.5t-94 -11q-103 0 -163 59.5t-60 170.5q0 44 13 104l129 609q-45 -8 -97 -21.5t-81 -22.5zM408 1405q0 61 43.5 102t105.5 41t100.5 -39.5t38.5 -97.5q0 -61 -43 -103t-104 -42t-101 40.5t-40 98.5zM840 1405q0 61 43.5 102 t105.5 41q59 0 99 -40t40 -97q0 -61 -43.5 -103t-105.5 -42t-100.5 40.5t-38.5 98.5z" />
<glyph unicode="&#xfd;" horiz-adv-x="1126" d="M-137 -371l33 138q83 -27 135 -27q105 0 177 27t154 116q-10 252 -46 534.5t-78 500.5q-45 -8 -95.5 -21t-78.5 -22l-27 -9l26 131q66 57 142.5 96.5t142.5 39.5q58 0 95 -33t53 -119q44 -228 59 -537q2 -31 2 -102q0 -122 -14 -242h10q26 56 81 166t77 160 q119 259 168 492h-99l29 159q25 25 66.5 41.5t76.5 16.5q71 0 115.5 -37t44.5 -115q0 -127 -120.5 -384t-319.5 -562q-174 -267 -309 -374t-308 -107q-104 0 -192 73zM434 1352l477 272l78 -201l-516 -174z" />
<glyph unicode="&#xfe;" horiz-adv-x="1175" d="M-178 -444l20 114l150 29l319 1722l-145 33l27 125l387 47l28 -12l-125 -662h11q86 92 168 136.5t182 44.5q130 0 207 -99t77 -289q0 -119 -25.5 -231t-77.5 -210t-125.5 -171t-175.5 -115.5t-220 -42.5q-107 0 -191 43l-55 -317l164 -31l-21 -114h-579zM350 207 q17 -23 32 -36.5t48.5 -25.5t79.5 -12q70 0 128.5 37t97.5 97t66.5 139.5t39.5 162t12 166.5q0 197 -147 197q-48 0 -93.5 -20t-72 -41.5t-74.5 -66.5q-9 -9 -14 -13z" />
<glyph unicode="&#xff;" horiz-adv-x="1126" d="M-137 -371l33 138q83 -27 135 -27q105 0 177 27t154 116q-10 252 -46 534.5t-78 500.5q-45 -8 -95.5 -21t-78.5 -22l-27 -9l26 131q66 57 142.5 96.5t142.5 39.5q58 0 95 -33t53 -119q44 -228 59 -537q2 -31 2 -102q0 -122 -14 -242h10q26 56 81 166t77 160 q119 259 168 492h-99l29 159q25 25 66.5 41.5t76.5 16.5q71 0 115.5 -37t44.5 -115q0 -127 -120.5 -384t-319.5 -562q-174 -267 -309 -374t-308 -107q-104 0 -192 73zM338 1405q0 61 43.5 102t105.5 41t101 -39.5t39 -97.5q0 -61 -43.5 -103t-104.5 -42t-101 40.5t-40 98.5z M770 1405q0 61 44 102t106 41q60 0 99.5 -40t39.5 -97q0 -61 -44 -103t-106 -42t-100.5 40.5t-38.5 98.5z" />
<glyph unicode="&#x152;" horiz-adv-x="2019" d="M76 573q0 272 104 477.5t291.5 316t431.5 110.5h1118l-24 -387h-142l-57 223h-436l-86 -486h215l76 185h127l-76 -512h-125l-20 188h-222l-92 -526h483l146 278h149l-94 -440h-1112q-322 0 -488.5 149t-166.5 424zM375 518q0 -105 25 -175t77 -108t117 -53.5t158 -15.5 h125l202 1145h-186q-255 0 -386.5 -201.5t-131.5 -591.5z" />
<glyph unicode="&#x153;" horiz-adv-x="1753" d="M37 428q0 138 44.5 265.5t122.5 224t191.5 154.5t243.5 58q143 0 234.5 -63.5t130.5 -179.5q84 116 201.5 181t258.5 65q144 0 226 -71t77 -185q-4 -82 -39.5 -147t-96 -110.5t-149.5 -78t-190 -51.5t-227 -29q-2 -18 -2 -60q0 -132 54.5 -183.5t172.5 -51.5 q80 0 158 26.5t176 79.5l-35 -151q-167 -146 -393 -146q-252 0 -324 201q-154 -201 -395 -201q-138 0 -239 60t-151 161.5t-50 231.5zM305 389q0 -130 46 -192t145 -62t172 76.5t110 207.5t37 298q0 254 -186 254q-92 0 -166 -75t-116 -208t-42 -299zM1085 606 q98 7 171.5 23t133 45.5t90.5 78t31 115.5q0 107 -92 107q-118 0 -207 -102t-127 -267z" />
<glyph unicode="&#x178;" horiz-adv-x="1357" d="M152 1346l22 131h551l-23 -131l-137 -39l203 -533h8l373 535l-133 37l22 131h455l-20 -131l-127 -39l-506 -691l-78 -446l164 -39l-23 -131h-637l23 131l184 39l78 451l-283 686zM528 1753q0 61 44 102t106 41t100.5 -39.5t38.5 -97.5q0 -61 -43 -103t-104 -42 t-101.5 40.5t-40.5 98.5zM961 1753q0 61 43.5 102t105.5 41q60 0 99.5 -40t39.5 -97q0 -61 -43.5 -103t-105.5 -42t-100.5 40.5t-38.5 98.5z" />
<glyph unicode="&#x2c6;" horiz-adv-x="1024" d="M291 1307l327 282h127l232 -286l-68 -78l-252 170l-319 -170z" />
<glyph unicode="&#x2dc;" horiz-adv-x="1024" d="M266 1341q122 230 266 230q50 0 149 -40t126 -40q68 0 137 98l100 -55q-123 -234 -264 -234q-50 0 -149.5 41t-124.5 41q-69 0 -137 -98z" />
<glyph unicode="&#x2000;" horiz-adv-x="1029" />
<glyph unicode="&#x2001;" horiz-adv-x="2058" />
<glyph unicode="&#x2002;" horiz-adv-x="1029" />
<glyph unicode="&#x2003;" horiz-adv-x="2058" />
<glyph unicode="&#x2004;" horiz-adv-x="686" />
<glyph unicode="&#x2005;" horiz-adv-x="514" />
<glyph unicode="&#x2006;" horiz-adv-x="343" />
<glyph unicode="&#x2007;" horiz-adv-x="343" />
<glyph unicode="&#x2008;" horiz-adv-x="257" />
<glyph unicode="&#x2009;" horiz-adv-x="411" />
<glyph unicode="&#x200a;" horiz-adv-x="114" />
<glyph unicode="&#x2010;" horiz-adv-x="739" d="M80 502l39 213h543l-39 -213h-543z" />
<glyph unicode="&#x2011;" horiz-adv-x="739" d="M80 502l39 213h543l-39 -213h-543z" />
<glyph unicode="&#x2012;" horiz-adv-x="739" d="M80 502l39 213h543l-39 -213h-543z" />
<glyph unicode="&#x2013;" horiz-adv-x="933" d="M96 535l29 163h715l-29 -163h-715z" />
<glyph unicode="&#x2014;" horiz-adv-x="1536" d="M92 535l29 163h1325l-29 -163h-1325z" />
<glyph unicode="&#x2018;" horiz-adv-x="638" d="M211 1067q0 50 13 99t45 101.5t80 97t123.5 83t170.5 61.5l29 -94q-261 -106 -295 -295q24 31 69 31q43 0 75 -34.5t32 -84.5q0 -68 -49.5 -110.5t-116.5 -42.5q-76 0 -126 52.5t-50 135.5z" />
<glyph unicode="&#x2019;" horiz-adv-x="638" d="M166 965q261 106 295 295q-24 -31 -70 -31q-43 0 -74.5 34.5t-31.5 84.5q0 68 49.5 110.5t116.5 42.5q76 0 126 -52.5t50 -135.5q0 -63 -22.5 -125.5t-70 -124.5t-134.5 -113t-205 -80z" />
<glyph unicode="&#x201a;" horiz-adv-x="636" d="M-45 -166q261 106 295 295q-24 -31 -70 -31q-43 0 -74.5 34.5t-31.5 84.5q0 68 49.5 111t116.5 43q76 0 126 -53t50 -136q0 -50 -13 -99t-45 -101.5t-80 -97t-123.5 -83t-170.5 -61.5z" />
<glyph unicode="&#x201c;" horiz-adv-x="1103" d="M211 1067q0 50 13 99t45 101.5t80 97t123.5 83t170.5 61.5l29 -94q-261 -106 -295 -295q24 31 69 31q43 0 75 -34.5t32 -84.5q0 -68 -49.5 -110.5t-116.5 -42.5q-76 0 -126 52.5t-50 135.5zM684 1067q0 50 13 99t45 101.5t80 97t123.5 83t170.5 61.5l29 -94 q-261 -106 -295 -295q24 31 70 31q43 0 74.5 -34.5t31.5 -84.5q0 -68 -49.5 -110.5t-116.5 -42.5q-76 0 -126 52.5t-50 135.5z" />
<glyph unicode="&#x201d;" horiz-adv-x="1103" d="M158 965q261 106 295 295q-24 -31 -70 -31q-43 0 -75 34.5t-32 84.5q0 68 49.5 110.5t116.5 42.5q76 0 126 -52.5t50 -135.5q0 -63 -22.5 -125.5t-70 -124.5t-134.5 -113t-205 -80zM631 965q261 106 295 295q-24 -31 -70 -31q-43 0 -74.5 34.5t-31.5 84.5q0 68 49 110.5 t116 42.5q76 0 126.5 -53t50.5 -135q0 -50 -13 -99.5t-45 -102t-80.5 -97t-124 -83t-170.5 -61.5z" />
<glyph unicode="&#x201e;" horiz-adv-x="1101" d="M-51 -166q261 106 295 295q-24 -31 -70 -31q-43 0 -74.5 34.5t-31.5 84.5q0 68 49 111t116 43q76 0 126.5 -53t50.5 -136q0 -63 -22.5 -125t-70 -124t-135 -113t-205.5 -80zM422 -166q261 106 295 295q-24 -31 -70 -31q-43 0 -74.5 34.5t-31.5 84.5q0 68 49.5 111 t116.5 43q76 0 126 -53t50 -136q0 -50 -13 -99t-45 -101.5t-80 -97t-123.5 -83t-170.5 -61.5z" />
<glyph unicode="&#x2022;" horiz-adv-x="1800" d="M100 760q0 215 107 396.5t291 287.5t401 106q162 0 310.5 -62.5t256.5 -168.5t172 -252.5t64 -306.5q0 -161 -64 -308t-172 -253.5t-256.5 -170t-310.5 -63.5q-163 0 -311 63.5t-255 170t-170 253.5t-63 308z" />
<glyph unicode="&#x2026;" horiz-adv-x="1835" d="M68 133q0 76 50 125t124 49q71 0 117.5 -47t46.5 -115q0 -74 -50.5 -123t-124.5 -49q-71 0 -117 47t-46 113zM666 133q0 76 50 125t124 49q71 0 117.5 -47t46.5 -115q0 -74 -50.5 -123t-124.5 -49q-71 0 -117 47t-46 113zM1264 133q0 76 50 125t124 49q71 0 117.5 -47 t46.5 -115q0 -74 -50.5 -123t-124.5 -49q-71 0 -117 47t-46 113z" />
<glyph unicode="&#x202f;" horiz-adv-x="411" />
<glyph unicode="&#x2039;" horiz-adv-x="618" d="M66 514l14 76l360 432h181l-322 -490l123 -479h-164z" />
<glyph unicode="&#x203a;" horiz-adv-x="618" d="M-16 53l321 490l-123 479h164l193 -461l-15 -76l-360 -432h-180z" />
<glyph unicode="&#x205f;" horiz-adv-x="514" />
<glyph unicode="&#x20ac;" horiz-adv-x="1325" d="M61 465l23 127h152q3 76 20 172h-143l22 127h154q83 240 268 372t412 132q178 0 269 -58t91 -163q0 -75 -59 -142h-197v174q-52 27 -121 27q-141 0 -239.5 -90.5t-153.5 -251.5h424l-22 -127h-435q-17 -96 -20 -172h424l-23 -127h-401q9 -155 90 -229t250 -74 q62 0 135 16.5t102 27t91 34.5l-27 -140q-65 -54 -165.5 -89.5t-213.5 -35.5q-240 0 -374.5 127.5t-155.5 362.5h-177z" />
<glyph unicode="&#x2122;" horiz-adv-x="2166" d="M160 1188l69 289h766l-41 -289h-123l-12 178h-119l-127 -596l99 -20l-19 -99h-415l18 99l102 20l129 596h-120l-86 -178h-121zM944 651l19 92l100 21l123 598l-90 22l18 93h356l39 -279q8 -55 14.5 -131t8.5 -125l2 -49h8q74 182 137 299l158 285h399l-20 -93l-107 -22 l-122 -596l98 -23l-19 -92h-391l21 92l86 23l55 272q13 62 34.5 151t36.5 147l15 59h-10q-100 -211 -174 -344l-207 -367h-133l-49 363q-8 59 -16 145t-12 142l-3 57h-10q-25 -218 -54 -357l-55 -268l80 -23l-18 -92h-318z" />
<glyph unicode="&#xe000;" horiz-adv-x="1136" d="M0 0v1137h1137v-1137h-1137z" />
</font>
</defs>
</svg>
