<?xml version="1.0" standalone="no"?>
<!DOCTYPE svg PUBLIC "-//W3C//DTD SVG 1.1//EN" "http://www.w3.org/Graphics/SVG/1.1/DTD/svg11.dtd" >
<svg xmlns="http://www.w3.org/2000/svg">
<metadata></metadata>
<defs>
<font id="WT1WebTextItalic" horiz-adv-x="1202" >
<font-face units-per-em="2048" ascent="1638" descent="-410" />
<missing-glyph horiz-adv-x="475" />
<glyph unicode="&#xfb01;" horiz-adv-x="1224" d="M-281 -256q0 45 39 90h136v-117q5 0 14.5 -1t13.5 -1q109 0 169 107.5t99 386.5l105 729q0 9 4 29h-147l18 86l156 49q29 125 72.5 219t94 153t113.5 95.5t126 50.5t138 14q118 0 184 -38.5t66 -112.5q0 -56 -39 -101h-149v125q-38 15 -74 15q-61 0 -107.5 -18.5 t-89.5 -65t-77.5 -131.5t-63.5 -213h451q63 0 95 -21t32 -82q0 -31 -13 -88l-172 -803q50 5 106 20t87 28l31 12l-19 -78q-47 -41 -122 -69.5t-142 -28.5q-127 0 -127 127q0 34 8 67l168 789h-407v-6l-127 -764q-51 -300 -156.5 -447t-286.5 -147q-88 0 -147.5 38t-59.5 103 z" />
<glyph unicode="&#xfb02;" horiz-adv-x="1228" d="M-281 -256q0 45 39 90h136v-117q5 0 14.5 -1t13.5 -1q109 0 169 107.5t99 386.5l105 729q0 9 4 29h-147l18 86l156 49q29 125 72.5 219t94 153t113.5 95.5t126 50.5t138 14q152 0 228 -73l121 71l22 -12l-321 -1520q52 6 114 22t98 29l37 13l-18 -78q-46 -40 -136 -71 t-159 -31q-127 0 -127 127q0 34 8 67l262 1233q-30 61 -62.5 86t-78.5 25q-61 0 -107.5 -18.5t-89.5 -65t-77.5 -131.5t-63.5 -213h260l-28 -127h-256v-6l-127 -764q-51 -300 -156.5 -447t-286.5 -147q-88 0 -147.5 38t-59.5 103z" />
<glyph unicode="&#xfb03;" horiz-adv-x="1796" d="M-281 -256q0 45 39 90h136v-117q5 0 14.5 -1t13.5 -1q109 0 169 107.5t99 386.5l105 729q0 9 4 29h-147l18 86l156 49q36 151 92 255t129.5 158.5t150 76.5t172.5 22q170 0 252 -88q130 108 320 108q118 0 184 -38.5t66 -112.5q0 -56 -39 -101h-150v125q-38 15 -73 15 q-61 0 -107.5 -18.5t-89.5 -65t-77.5 -131.5t-63.5 -213h450q63 0 95 -21t32 -82q0 -35 -12 -88l-172 -803q50 5 106 20t87 28l30 12l-18 -78q-47 -41 -122.5 -69.5t-142.5 -28.5q-127 0 -127 127q0 29 9 67l168 789h-408v-6l-127 -764q-44 -263 -134 -405t-241 -142 q-88 0 -146.5 37t-58.5 102q0 45 39 90h136v-117q4 0 13.5 -1t14.5 -1q66 0 115.5 107t83.5 342l104 729q0 9 4 29h-374v-6l-127 -764q-51 -300 -156.5 -447t-286.5 -147q-88 0 -147.5 38t-59.5 103zM520 1094h375q41 182 119 305q-55 102 -156 102q-61 0 -108 -17.5 t-90.5 -61.5t-78 -125.5t-61.5 -202.5z" />
<glyph unicode="&#xfb04;" horiz-adv-x="1800" d="M-281 -256q0 45 39 90h136v-117q5 0 14.5 -1t13.5 -1q109 0 169 107.5t99 386.5l105 729q0 9 4 29h-147l18 86l156 49q36 151 92 255t129.5 158.5t150 76.5t172.5 22q167 0 250 -86q125 106 322 106q151 0 227 -73l121 71l22 -12l-321 -1520q52 6 114.5 22t98.5 29l37 13 l-19 -78q-46 -40 -136 -71t-159 -31q-127 0 -127 127q0 29 9 67l262 1233q-30 61 -62.5 86t-78.5 25q-61 0 -107.5 -18.5t-89.5 -65t-77.5 -131.5t-63.5 -213h260l-29 -127h-256v-6l-127 -764q-44 -263 -134 -405t-241 -142q-88 0 -146.5 37t-58.5 102q0 45 39 90h136v-117 q4 0 13.5 -1t14.5 -1q66 0 115.5 107t83.5 342l104 729q0 9 4 29h-374v-6l-127 -764q-51 -300 -156.5 -447t-286.5 -147q-88 0 -147.5 38t-59.5 103zM520 1094h375q40 182 117 309q-55 98 -154 98q-61 0 -108 -17.5t-90.5 -61.5t-78 -125.5t-61.5 -202.5z" />
<glyph horiz-adv-x="0" />
<glyph horiz-adv-x="2048" />
<glyph unicode=" "  horiz-adv-x="475" />
<glyph unicode="&#x09;" horiz-adv-x="475" />
<glyph unicode="&#xa0;" horiz-adv-x="475" />
<glyph unicode="!" horiz-adv-x="532" d="M47 100q0 56 39 93.5t94 37.5t92 -36t37 -89q0 -56 -39.5 -93.5t-95.5 -37.5q-55 0 -91 36t-36 89zM160 410l145 1067h225l-251 -1067h-119z" />
<glyph unicode="&#x22;" horiz-adv-x="1103" d="M176 958q155 62 228 145t94 191q-24 -43 -82 -43q-47 0 -76 31t-29 78q0 63 47.5 102t110.5 39q69 0 115.5 -49t46.5 -129q0 -63 -23 -124.5t-71 -122t-135.5 -110.5t-204.5 -79zM641 958q155 62 228 145t94 191q-24 -43 -82 -43q-47 0 -76 31t-29 78q0 63 47.5 102 t110.5 39q69 0 115.5 -49t46.5 -129q0 -63 -23 -124.5t-71 -122t-135.5 -110.5t-204.5 -79z" />
<glyph unicode="#" horiz-adv-x="1155" d="M90 383l29 160h176l76 307h-199l29 160h209l90 360h129l-90 -360h262l90 360h129l-90 -360h166l-29 -160h-176l-76 -307h199l-29 -160h-209l-94 -383h-129l94 383h-262l-94 -383h-129l94 383h-166zM422 532h262l80 328h-262z" />
<glyph unicode="$" horiz-adv-x="1099" d="M6 229q0 82 51 133h156v-196q55 -49 123 -68l149 545l-65 37q-230 125 -230 336q0 167 123.5 273t333.5 106q29 0 43 -2l55 200h123l-57 -213q130 -25 198 -85t68 -130q0 -54 -45 -118h-155v172q-41 29 -101 47l-135 -488l47 -24q264 -144 266 -359q0 -88 -30 -162.5 t-89.5 -132t-157 -90.5t-222.5 -33q-6 0 -17.5 1.5t-17.5 1.5l-72 -271h-123l78 281q-142 25 -219.5 92.5t-77.5 146.5zM369 1055q0 -66 37.5 -116.5t128.5 -100.5l4 -4l127 454q-10 2 -29 2q-125 0 -196.5 -58.5t-71.5 -176.5zM449 82h6q86 0 148.5 23.5t96 65t49 88.5 t15.5 103q-1 71 -44 122.5t-132 101.5z" />
<glyph unicode="%" horiz-adv-x="1845" d="M147 924q0 193 112 310.5t267 117.5q140 0 226 -88.5t86 -233.5q0 -97 -31 -177.5t-84 -133t-121 -81t-143 -28.5q-141 0 -226.5 88t-85.5 226zM256 -63l1196 1433h147l-1196 -1433h-147zM315 901q0 -97 34.5 -144.5t111.5 -47.5q68 0 118 54t72.5 135t22.5 177 q0 87 -39 134.5t-111 47.5q-101 0 -155 -103.5t-54 -252.5zM1030 295q0 193 112 310.5t267 117.5q140 0 225.5 -88.5t85.5 -233.5q0 -97 -31 -177.5t-84 -132.5t-121 -80.5t-143 -28.5q-141 0 -226 87.5t-85 225.5zM1198 272q0 -97 34.5 -144.5t110.5 -47.5q68 0 118 54 t72.5 135t22.5 177q0 87 -38.5 135t-110.5 48q-101 0 -155 -104t-54 -253z" />
<glyph unicode="&#x26;" horiz-adv-x="1495" d="M37 348q0 165 103.5 273t318.5 194q-84 145 -84 266q0 98 36.5 179.5t96.5 133t134 79.5t153 28q144 0 229.5 -84t87.5 -205q0 -146 -101 -243.5t-300 -177.5l299 -435q112 139 164 314l-150 41l14 88h447l-15 -86l-153 -43q-88 -227 -244 -406l94 -137l172 -39l-14 -88 h-321l-84 123q-196 -146 -416 -146q-214 0 -340.5 107t-126.5 264zM256 371q0 -113 77 -192t218 -79q157 0 309 113l-348 518q-134 -63 -195 -148.5t-61 -211.5zM573 1118q0 -111 84 -248q267 111 267 349q0 73 -36 119t-110 46q-85 0 -145 -71t-60 -195z" />
<glyph unicode="'" horiz-adv-x="638" d="M176 958q155 62 228 145t94 191q-24 -43 -82 -43q-47 0 -76 31t-29 78q0 63 47.5 102t110.5 39q69 0 115.5 -49t46.5 -129q0 -63 -23 -124.5t-71 -122t-135.5 -110.5t-204.5 -79z" />
<glyph unicode="(" horiz-adv-x="718" d="M98 467q0 155 41.5 303t107 264.5t156.5 224t181 185t190 143.5l55 -67q-520 -452 -520 -1086q0 -366 207 -676l-78 -59q-52 58 -92 108t-89.5 128.5t-81.5 154t-54.5 175t-22.5 202.5z" />
<glyph unicode=")" horiz-adv-x="718" d="M-96 -233q86 75 157.5 153t140.5 181t116.5 213.5t76.5 249t29 288.5q0 366 -207 676l78 59q52 -58 92 -108t89.5 -128.5t81.5 -154t54.5 -175t22.5 -202.5q0 -155 -41.5 -303t-107 -264.5t-156.5 -224t-181 -185t-190 -143.5z" />
<glyph unicode="*" horiz-adv-x="956" d="M217 1016l334 94l-301 137l104 133l224 -229l-17 326h174l-106 -328l284 192l64 -145l-332 -94l299 -137l-104 -134l-224 232l17 -326h-174l108 330l-286 -197z" />
<glyph unicode="+" horiz-adv-x="1263" d="M160 598v133h411v422h142v-422h411v-133h-411v-422h-142v422h-411z" />
<glyph unicode="," horiz-adv-x="638" d="M-94 -268q159 59 239.5 132.5t106.5 170.5q-27 -27 -74 -27q-50 0 -81 34t-31 83q0 65 48 105t113 40q72 0 120 -50.5t48 -133.5q0 -43 -11.5 -86.5t-44 -95t-83 -95.5t-136 -85t-194.5 -66z" />
<glyph unicode="-" horiz-adv-x="739" d="M109 528l34 166h514l-34 -166h-514z" />
<glyph unicode="." horiz-adv-x="638" d="M76 113q0 68 47.5 112.5t114.5 44.5q66 0 109.5 -43t43.5 -106q0 -68 -47.5 -113t-114.5 -45q-66 0 -109.5 43.5t-43.5 106.5z" />
<glyph unicode="/" horiz-adv-x="768" d="M-119 -256l836 1817h143l-835 -1817h-144z" />
<glyph unicode="0" horiz-adv-x="1294" d="M98 506q0 165 52 311.5t139.5 249t205.5 162t246 59.5q210 0 338.5 -138t128.5 -388q0 -176 -49.5 -325t-135 -249.5t-202 -156.5t-248.5 -56q-221 0 -348 138t-127 393zM305 461q0 -369 273 -369q89 0 161 39.5t119.5 106.5t79 159.5t45.5 194t14 215.5q0 181 -66 274 t-196 93q-84 0 -155.5 -40.5t-121 -109.5t-85 -161t-52 -193.5t-16.5 -208.5z" />
<glyph unicode="1" horiz-adv-x="890" d="M4 0l16 82l259 35l170 956l-279 -22l14 79l459 152h57l-206 -1165l247 -35l-16 -82h-721z" />
<glyph unicode="2" horiz-adv-x="1069" d="M-66 0l17 96l391 275q222 155 333 289t111 272q0 105 -56 172t-167 67q-115 0 -203 -59v-197h-161q-54 51 -54 111q0 104 119.5 182t315.5 78q208 0 316 -91t108 -245q0 -76 -25.5 -145t-70 -129t-122 -126t-164 -125t-214.5 -138l-193 -119v-4h696l-47 -164h-930z" />
<glyph unicode="3" horiz-adv-x="1073" d="M-70 -98l17 96q54 -25 79 -36t78 -29.5t106.5 -26.5t113.5 -8q81 0 146 18.5t117 57.5t80.5 106t28.5 158q0 126 -74.5 186.5t-230.5 60.5h-100l22 123h105q181 0 266.5 90t85.5 240q0 110 -56 171.5t-188 61.5q-109 0 -178 -59v-184h-160q-53 50 -53 106 q0 102 114.5 177t293.5 75q110 0 194 -27t133.5 -75.5t74 -109t24.5 -132.5q0 -146 -89.5 -249.5t-258.5 -137.5v-8q130 -32 203 -119t73 -223q0 -108 -41.5 -193t-114 -138t-166 -80t-202.5 -27q-108 0 -201 23.5t-140.5 48.5t-101.5 63z" />
<glyph unicode="4" horiz-adv-x="1267" d="M-16 190l20 119l879 955h159l-165 -945h241l-22 -129h-242l-72 -403h-200l71 403h-669zM170 319h506l117 672h-11l-612 -665v-7z" />
<glyph unicode="5" horiz-adv-x="1075" d="M-47 -115l16 101q180 -90 357 -90q176 0 279.5 96.5t103.5 290.5q0 288 -326 288q-111 0 -236 -41l170 734h711l-47 -170h-569l-97 -414q90 22 164 22q218 0 326 -112t108 -303q0 -121 -44.5 -221t-119.5 -165.5t-173.5 -101t-208.5 -35.5q-236 0 -414 121z" />
<glyph unicode="6" horiz-adv-x="1204" d="M100 510q0 269 109 510q58 127 140.5 223t175 150.5t186.5 81t190 26.5q192 0 307 -88l-18 -98q-44 23 -124.5 41t-154.5 18q-67 0 -130.5 -15.5t-132 -56.5t-125 -104.5t-105 -169t-76.5 -240.5q166 115 356 115q186 0 290 -101.5t104 -271.5q0 -153 -62.5 -279.5 t-184.5 -203t-280 -76.5q-152 0 -258 70t-156.5 190t-50.5 279zM301 453q1 -81 14 -144t42 -115.5t82.5 -81t129.5 -28.5q100 0 171.5 61t105 157t33.5 214q0 264 -275 264q-146 0 -280 -92q-8 -24 -15.5 -101t-7.5 -134z" />
<glyph unicode="7" horiz-adv-x="1064" d="M98 -213l863 1296l2 11h-668l-84 -164h-90l65 334h930l-24 -148l-768 -1329h-226z" />
<glyph unicode="8" horiz-adv-x="1239" d="M68 340q0 85 35 157.5t94.5 123.5t127 85.5t142.5 53.5v10q-104 56 -158.5 143t-54.5 191q0 173 135.5 285t335.5 112q202 0 318 -91t116 -239q0 -274 -348 -389v-10q285 -135 285 -393q0 -174 -147.5 -290t-383.5 -116q-228 0 -362.5 103t-134.5 264zM252 348 q0 -118 80 -190t237 -72q156 0 245 78t89 203q0 58 -22 104.5t-71 87t-107 73t-150 73.5q-301 -102 -301 -357zM436 1128q0 -98 65.5 -164.5t217.5 -127.5q126 50 194 123t68 196q0 110 -71.5 172t-184.5 62q-124 0 -206.5 -71.5t-82.5 -189.5z" />
<glyph unicode="9" d="M6 -154l19 99q44 -23 124 -41.5t154 -18.5q76 0 146 17.5t139 60.5t124 108.5t98.5 167.5t66.5 232q-166 -115 -361 -115q-186 0 -289.5 101.5t-103.5 271.5q0 154 62.5 280t184 202.5t279.5 76.5q151 0 257 -70t156 -189.5t50 -278.5q0 -155 -25.5 -289t-69 -234 t-105 -180t-131.5 -133.5t-150 -89t-158.5 -51t-159.5 -15.5q-192 0 -307 88zM336 743q0 -264 274 -264q147 0 281 92q6 24 13 102t7 134q-1 64 -8.5 116.5t-26 100.5t-48 80.5t-76 52t-107.5 19.5q-100 0 -171.5 -61.5t-104.5 -157.5t-33 -214z" />
<glyph unicode=":" horiz-adv-x="659" d="M80 113q0 68 47.5 112.5t114.5 44.5q66 0 109.5 -43t43.5 -106q0 -68 -47.5 -113t-114.5 -45q-66 0 -109.5 43.5t-43.5 106.5zM221 772q0 68 47.5 113t114.5 45q66 0 110 -43.5t44 -106.5q0 -68 -47.5 -112.5t-114.5 -44.5q-66 0 -110 43t-44 106z" />
<glyph unicode=";" horiz-adv-x="659" d="M-84 -268q159 59 239.5 132.5t106.5 170.5q-27 -27 -74 -27q-50 0 -81 34t-31 83q0 65 48.5 105t113.5 40q72 0 120 -50.5t48 -133.5q0 -43 -11.5 -86.5t-44 -95t-83 -95.5t-136 -85t-194.5 -66zM221 772q0 68 47.5 113t114.5 45q66 0 110 -43.5t44 -106.5 q0 -68 -47.5 -112.5t-114.5 -44.5q-66 0 -110 43t-44 106z" />
<glyph unicode="&#x3c;" horiz-adv-x="1200" d="M168 608v109l866 413v-149l-694 -317l694 -320v-151z" />
<glyph unicode="=" horiz-adv-x="1220" d="M156 344v131h909v-131h-909zM156 725v133h909v-133h-909z" />
<glyph unicode="&#x3e;" horiz-adv-x="1200" d="M178 193v149l694 317l-694 320v151l866 -415v-109z" />
<glyph unicode="?" horiz-adv-x="919" d="M164 100q0 56 39 93.5t94 37.5t92 -36t37 -89q0 -56 -39.5 -93.5t-95.5 -37.5q-55 0 -91 36t-36 89zM205 1212l26 240q150 47 297 47q109 0 195.5 -34t141.5 -109.5t55 -181.5q0 -147 -80 -244t-258 -193q-38 -20 -55.5 -30t-46.5 -28.5t-42.5 -33.5t-29 -36t-21.5 -46 t-6 -55q0 -40 12 -98h-106q-29 60 -29 125q0 98 50.5 161.5t213.5 169.5q99 64 148 135t49 177q0 99 -64 152.5t-182 53.5q-51 0 -94 -6l-55 -166h-119z" />
<glyph unicode="@" horiz-adv-x="1966" d="M113 449q0 160 43.5 309t128 274t199.5 218.5t267 145.5t322 52q355 0 565.5 -196t210.5 -537q0 -139 -43.5 -255.5t-117.5 -194.5t-172.5 -121.5t-208.5 -43.5q-102 0 -158.5 35.5t-67.5 93.5h-6q-121 -114 -258 -114q-112 0 -177 76t-58 219q5 111 42.5 214.5t98.5 183 t149.5 127.5t188.5 48q53 0 95.5 -11.5t61 -22t56.5 -36.5l47 52h94l-158 -637q-14 -60 8 -89.5t70 -29.5q161 0 269 132.5t108 367.5q0 300 -165.5 466t-477.5 166q-153 0 -284 -46t-227.5 -128t-165 -193t-102.5 -244t-34 -279q0 -670 725 -670q272 0 496 78v-95 q-206 -94 -496 -94q-418 0 -643 205t-225 574zM768 406q-5 -93 24.5 -136t98.5 -43q89 0 182 82l123 494q-35 76 -141 76q-66 0 -120 -40t-88.5 -108.5t-54 -151t-24.5 -173.5z" />
<glyph unicode="A" horiz-adv-x="1449" d="M-88 0l14 90l158 37l733 1350h176l207 -1350l139 -37l-14 -90h-543l15 88l178 39l-45 340h-510l-182 -340l163 -39l-14 -88h-475zM479 575h436l-45 355q-9 70 -16.5 157t-10.5 139l-3 52h-11q-75 -195 -151 -334z" />
<glyph unicode="B" horiz-adv-x="1351" d="M-39 0l14 88l201 39l217 1223l-184 39l16 88h598q216 0 329.5 -89.5t113.5 -250.5q0 -67 -18 -123.5t-58 -106.5t-112.5 -84t-172.5 -47v-12q162 -26 244 -106.5t82 -206.5q0 -208 -146 -329.5t-434 -121.5h-690zM389 119h248q184 0 277.5 76.5t93.5 257.5q0 126 -71 191 t-206 65h-235zM514 817h188q178 0 260 78t82 244q0 118 -65 167.5t-193 49.5h-176z" />
<glyph unicode="C" horiz-adv-x="1325" d="M86 563q0 207 62 382.5t170.5 297t260 190t326.5 68.5q230 0 404 -76l-33 -354h-98l-60 256q-108 59 -235 59q-99 0 -184.5 -36t-147.5 -99t-110.5 -146t-78 -180t-44.5 -197.5t-15 -201.5q0 -201 93.5 -314.5t285.5 -113.5q66 0 137 19.5t123 44.5l121 258h104l-67 -367 q-217 -73 -410 -73q-134 0 -243 35.5t-190.5 106t-126 183t-44.5 258.5z" />
<glyph unicode="D" horiz-adv-x="1488" d="M-39 0l14 88l201 39l217 1221l-184 41l16 88h600q159 0 279 -41t195 -116.5t112 -178t37 -230.5q0 -207 -63 -379t-174.5 -288t-266 -180t-334.5 -64h-649zM389 117h236q293 0 446.5 214t153.5 621q0 116 -27.5 195.5t-84 126t-134.5 66.5t-188 20h-181z" />
<glyph unicode="E" horiz-adv-x="1308" d="M-39 0l14 88l201 39l217 1221l-184 41l16 88h1073l-20 -367h-104l-62 250h-502l-96 -545h281l90 203h92l-78 -516h-92l-27 205h-286l-105 -590h557l164 309h104l-98 -426h-1155z" />
<glyph unicode="F" horiz-adv-x="1298" d="M-39 0l14 88l201 37l217 1223l-184 41l16 88h1088l-23 -379h-104l-66 262h-510l-100 -572h285l86 201h92l-76 -518h-94l-23 209h-291l-98 -553l199 -39l-15 -88h-614z" />
<glyph unicode="G" horiz-adv-x="1462" d="M106 592q0 181 49.5 334.5t131.5 257.5t190 177t223 106.5t232 33.5q108 0 197 -15t122.5 -26.5t98.5 -38.5l-13 -338h-98l-61 228q-108 75 -252 75q-176 0 -313 -105.5t-213 -296.5t-76 -435q0 -215 101 -333t314 -118q137 0 222 39l73 410l-190 37l16 88h572l-17 -88 l-166 -37l-92 -512q-183 -60 -397 -60q-328 0 -491 158.5t-163 458.5z" />
<glyph unicode="H" horiz-adv-x="1607" d="M-39 0l14 88l199 37l217 1223l-184 41l16 88h592l-16 -88l-193 -41l-96 -539h666l96 539l-185 41l17 88h592l-17 -88l-192 -41l-217 -1223l178 -37l-14 -88h-592l14 88l199 37l102 575h-665l-103 -575l178 -37l-14 -88h-592z" />
<glyph unicode="I" horiz-adv-x="724" d="M-39 0l14 88l199 37l217 1225l-184 39l16 88h592l-16 -88l-193 -39l-217 -1225l178 -37l-14 -88h-592z" />
<glyph unicode="J" horiz-adv-x="976" d="M-25 152q0 58 50 104h147v-152q35 -6 80 -6q95 0 154 60t83 196l177 994l-185 41l17 88h592l-17 -88l-192 -41l-183 -1029q-30 -170 -136.5 -254.5t-280.5 -84.5q-151 0 -228.5 49.5t-77.5 122.5z" />
<glyph unicode="K" horiz-adv-x="1460" d="M-39 0l14 88l199 37l217 1225l-184 39l16 88h600l-16 -88l-201 -39l-117 -664l693 664l-138 39l17 88h463l-17 -88l-149 -39l-535 -500l348 -723l154 -39l-14 -88h-318l-331 705l-197 -150l-76 -430l186 -37l-14 -88h-600z" />
<glyph unicode="L" horiz-adv-x="1241" d="M-39 0l14 88l199 37l217 1225l-184 39l16 88h613l-17 -88l-213 -39l-219 -1233h508l156 350h100l-96 -467h-1094z" />
<glyph unicode="M" horiz-adv-x="1908" d="M-39 0l16 86l197 39l217 1225l-184 39l16 88h496l110 -703q13 -83 22 -210t12 -212l3 -86h11q129 320 227 508l362 703h531l-17 -88l-213 -39l-217 -1223l199 -39l-14 -88h-582l14 88l172 39l129 731l103 526h-10q-146 -306 -248 -501l-422 -811h-152l-123 811 q-14 89 -30.5 214.5t-26.5 206.5l-10 80h-10q-49 -321 -86 -526l-129 -731l159 -39l-14 -88h-508z" />
<glyph unicode="N" horiz-adv-x="1558" d="M-39 0l16 84l199 41l217 1223l-186 41l16 88h477l324 -826q23 -57 50 -142.5t43 -142.5l16 -57h10l184 1037l-184 43l16 88h508l-16 -86l-176 -43l-240 -1348h-170l-401 1020q-23 57 -50.5 140.5t-43.5 138.5l-17 55h-10l-217 -1227l186 -41l-16 -86h-535z" />
<glyph unicode="O" horiz-adv-x="1456" d="M92 598q0 206 64 379t170 286t241.5 175.5t280.5 62.5q256 0 408.5 -170.5t152.5 -458.5q0 -169 -43.5 -316t-117.5 -252t-171.5 -180.5t-207 -112t-222.5 -36.5q-251 0 -403 168t-152 455zM307 528q0 -434 346 -434q128 0 232 72t169 192t99.5 268t34.5 308 q0 215 -87.5 331.5t-258.5 116.5q-103 0 -191 -48.5t-150.5 -131.5t-107 -192.5t-65.5 -232t-21 -249.5z" />
<glyph unicode="P" horiz-adv-x="1269" d="M-39 0l14 88l199 39l217 1223l-184 39l16 88h584q242 0 362.5 -99t120.5 -270q0 -102 -28.5 -185t-77 -138t-115.5 -92t-141 -53.5t-156 -16.5q-142 0 -289 39l-94 -535l217 -39l-14 -88h-631zM504 770q114 -31 233 -31q332 0 332 365q0 128 -62.5 187t-209.5 59h-191z " />
<glyph unicode="Q" horiz-adv-x="1456" d="M92 598q0 206 64 379t170 286t241.5 175.5t280.5 62.5q256 0 408.5 -170.5t152.5 -458.5q0 -120 -21.5 -227.5t-57 -187.5t-84 -148t-101 -114.5t-109 -81t-106.5 -53t-96 -25.5v-10l616 -142l-53 -176l-828 258q-112 35 -195 83t-149 121.5t-99.5 180.5t-33.5 248z M307 528q0 -434 346 -434q128 0 232 72t169 192t99.5 268t34.5 308q0 215 -87.5 331.5t-258.5 116.5q-103 0 -191 -48.5t-150.5 -131.5t-107 -192.5t-65.5 -232t-21 -249.5z" />
<glyph unicode="R" horiz-adv-x="1417" d="M-39 0l14 88l203 39l217 1221l-182 41l16 88h598q232 0 347.5 -96.5t115.5 -260.5q0 -92 -29.5 -166.5t-81.5 -124.5t-113 -82t-132 -49v-8l233 -565l146 -39l-17 -86h-307l-260 662h-240l-96 -535l176 -39l-14 -88h-594zM508 770h227q76 0 135.5 21t96 55t60.5 81t33 94 t9 99q0 230 -270 230h-189z" />
<glyph unicode="S" horiz-adv-x="1155" d="M53 78l35 325h102l35 -219q48 -31 73.5 -45t82 -27.5t129.5 -13.5q146 0 229.5 77t83.5 200q0 88 -49 148.5t-160 125.5l-137 80q-237 141 -237 363q0 86 28 158.5t83.5 129.5t146.5 89t209 32q221 0 399 -80l-29 -303h-100l-31 191q-3 2 -20 13t-26 16.5t-32 15.5 t-44.5 15t-56 9t-73.5 4q-125 0 -197.5 -57t-72.5 -174q0 -84 47 -141t156 -121l137 -80q123 -72 192.5 -161t69.5 -216q0 -204 -138 -329.5t-388 -125.5q-105 0 -196 17t-139.5 35.5t-111.5 48.5z" />
<glyph unicode="T" horiz-adv-x="1329" d="M127 1055l92 422h1192l-47 -422h-102l-33 305h-322l-219 -1235l186 -37l-14 -88h-608l14 88l205 37l219 1235h-330l-131 -305h-102z" />
<glyph unicode="U" horiz-adv-x="1501" d="M166 1389l16 88h592l-16 -88l-195 -39l-149 -846q-11 -75 -11 -113q0 -141 83 -211.5t259 -70.5q172 0 267 80t129 272l155 887l-184 38l16 91h502l-16 -88l-170 -39l-162 -918q-81 -461 -571 -461q-138 0 -241 31t-164.5 87t-91.5 128.5t-30 161.5q0 39 11 110l151 861z " />
<glyph unicode="V" horiz-adv-x="1431" d="M168 1389l16 88h529l-17 -88l-178 -41l105 -699q12 -77 23.5 -186.5t16.5 -180.5l5 -71h10q119 268 205 438l356 699l-164 41l17 88h464l-16 -88l-143 -41l-705 -1348h-168l-225 1348z" />
<glyph unicode="W" horiz-adv-x="2062" d="M174 1389l16 88h498l-16 -88l-166 -41l49 -603q7 -88 12 -214.5t7 -209.5l1 -83h11q123 314 211 507l336 732h143l72 -732q8 -87 15 -213.5t10 -209.5l3 -84h10q119 314 203 507l262 603l-155 41l16 88h473l-16 -88l-158 -41l-604 -1348h-174l-72 688q-9 88 -13.5 216.5 t-4.5 213.5v84h-10q-128 -311 -222 -514l-317 -688h-174l-123 1348z" />
<glyph unicode="X" horiz-adv-x="1492" d="M-39 0l14 88l168 39l514 637l-270 586l-156 39l17 88h557l-17 -88l-159 -39l198 -482h11l350 482l-156 39l17 88h487l-16 -88l-168 -39l-455 -594l285 -631l151 -37l-14 -88h-547l14 88l166 37l-227 530h-10l-408 -528l156 -41l-17 -86h-485z" />
<glyph unicode="Y" horiz-adv-x="1357" d="M164 1389l16 88h506l-16 -88l-154 -41l238 -594h8l422 594l-152 41l17 88h440l-16 -88l-136 -41l-530 -713l-90 -508l178 -39l-14 -88h-590l14 88l197 39l90 512l-303 709z" />
<glyph unicode="Z" horiz-adv-x="1189" d="M-57 0l16 98l1045 1248v8h-590l-129 -281h-105l80 404h1030l-18 -99l-1045 -1249v-8h639l135 282h103l-84 -403h-1077z" />
<glyph unicode="[" horiz-adv-x="765" d="M10 -256l324 1817h506l-15 -86l-319 -39l-279 -1565l308 -39l-19 -88h-506z" />
<glyph unicode="\" horiz-adv-x="768" d="M250 1561h133l199 -1817h-133z" />
<glyph unicode="]" horiz-adv-x="765" d="M-57 -256l18 88l320 39l278 1565l-307 39l14 86h508l-323 -1817h-508z" />
<glyph unicode="^" horiz-adv-x="978" d="M143 883l478 594h124l234 -594h-113l-215 411l-387 -411h-121z" />
<glyph unicode="_" horiz-adv-x="716" d="M-160 -256l25 111h725l-25 -111h-725z" />
<glyph unicode="`" horiz-adv-x="1024" d="M422 1440l92 157l389 -272l-49 -78z" />
<glyph unicode="a" d="M68 264q0 168 58 323.5t150 264t207 173.5t226 65q70 0 111 -18t79 -56h12l31 78h145l23 -11l-211 -983q50 5 106 20t87 28l30 12l-18 -78q-46 -40 -118 -69t-126 -29q-139 0 -139 153q0 41 8 82h-10q-106 -125 -195.5 -184.5t-199.5 -59.5q-122 0 -189 79t-67 210z M264 301q0 -102 24 -145t101 -43q82 0 171.5 63.5t199.5 181.5l108 519q-38 50 -75.5 74t-100.5 24q-102 0 -202 -97.5t-163 -255t-63 -321.5z" />
<glyph unicode="b" horiz-adv-x="1159" d="M88 156l254 1308l-156 33l17 82l340 49l24 -10l-135 -698h10q91 96 178.5 145t194.5 49q128 0 204.5 -88t76.5 -283q0 -147 -47 -285t-130 -245.5t-207 -172.5t-268 -65q-134 0 -227.5 52t-128.5 129zM291 199q14 -46 60.5 -78.5t125.5 -32.5t147.5 41t115.5 108 t81 152.5t50 174.5t16 175q0 123 -36.5 173.5t-117.5 50.5q-87 0 -161 -42.5t-162 -121.5z" />
<glyph unicode="c" horiz-adv-x="946" d="M47 348q0 158 52 301t138.5 244.5t204 161t244.5 59.5q123 0 189.5 -40.5t66.5 -121.5q0 -23 -11 -58.5t-28 -62.5h-149v154q-51 14 -99 14q-112 0 -206.5 -88t-147.5 -229.5t-53 -300.5q0 -143 53 -205.5t170 -62.5q86 0 158.5 28.5t173.5 91.5l-29 -102 q-173 -156 -381 -156q-161 0 -253.5 97t-92.5 276z" />
<glyph unicode="d" horiz-adv-x="1239" d="M74 328q0 116 33.5 232.5t94 215t139 175t175 120t195.5 43.5q56 0 97 -7.5t59.5 -15.5t50.5 -26l69 399l-170 33l14 82l359 49l22 -10l-270 -1518q49 5 104.5 20t85.5 28l31 12l-18 -78q-46 -41 -112.5 -69.5t-125.5 -28.5q-79 0 -117 50q-31 42 -31 110q0 14 1 30h-8 q-68 -84 -161 -141.5t-204 -57.5q-140 0 -226.5 87.5t-86.5 265.5zM279 332q0 -114 41.5 -165.5t130.5 -51.5q63 0 123.5 27.5t104.5 64t103 98.5l107 600q-40 46 -82 70t-111 24q-109 0 -206.5 -98t-154 -252t-56.5 -317z" />
<glyph unicode="e" horiz-adv-x="985" d="M57 367q0 113 32 224t91.5 204.5t137.5 165.5t177 112.5t203 40.5q140 0 216 -70q68 -63 68 -154q0 -10 -1 -20q-6 -81 -49 -146.5t-110 -109t-160 -75t-190.5 -48t-211.5 -24.5q-4 -31 -4 -92q0 -141 58 -201.5t171 -60.5q91 0 168.5 31t184.5 96l-23 -105 q-173 -160 -407 -160q-158 0 -254.5 103t-96.5 289zM279 575q115 8 199 25.5t152.5 50.5t105.5 87t42 130q1 10 1 20q1 48 -21 76q-26 34 -78 35q-137 0 -247 -119.5t-154 -304.5z" />
<glyph unicode="f" horiz-adv-x="759" d="M-276 -256q0 46 38 90h136v-117q5 0 14.5 -1t13.5 -1q107 0 160 79t84 286l129 887h-147l18 86l149 47q25 145 74.5 249.5t121 166t159 90t196.5 28.5q118 0 184 -38.5t66 -112.5q0 -56 -39 -101h-149v125q-38 15 -74 15q-70 0 -121.5 -20t-95 -68t-74.5 -132t-51 -208 h285l-29 -127h-278l-146 -899q-39 -238 -138 -351.5t-280 -113.5q-88 0 -147 38t-59 103z" />
<glyph unicode="g" horiz-adv-x="1017" d="M-150 -195q0 195 381 312q-73 51 -73 125q0 93 112 209q-67 42 -106 110t-39 150q0 122 59 215t156.5 140.5t216.5 47.5q85 0 148 -35l362 41l-31 -145l-205 10v-6q72 -82 72 -193q0 -166 -126.5 -278.5t-303.5 -112.5q-73 0 -131 21q-43 -62 -43 -105q0 -32 24 -50.5 t97 -41.5l108 -35q173 -56 253.5 -120.5t80.5 -178.5q0 -162 -131 -255t-389 -93q-126 0 -223.5 23t-154.5 61.5t-85.5 85t-28.5 98.5zM37 -176q0 -76 72 -123t235 -47q171 0 251.5 53.5t80.5 126.5q0 64 -59 112.5t-156 78.5l-111 34q-4 1 -11 4.5t-11 4.5 q-291 -96 -291 -244zM309 680q0 -85 42 -132.5t124 -47.5q123 0 183.5 82t60.5 229q0 92 -41.5 146.5t-124.5 54.5q-116 0 -180 -90t-64 -242z" />
<glyph unicode="h" horiz-adv-x="1257" d="M100 0l314 1470l-156 33l18 82l336 51l21 -12l-146 -733h13q52 52 91.5 85.5t93.5 68.5t113.5 52t125.5 17q196 0 196 -188q0 -46 -12 -105l-154 -721q50 5 106 20t87 28l31 12l-19 -78q-47 -41 -122 -69.5t-142 -28.5q-127 0 -127 125q0 33 8 69l125 592q12 55 12 94 q0 99 -79 99q-170 0 -381 -230l-156 -733h-197z" />
<glyph unicode="i" horiz-adv-x="628" d="M68 901l18 78q54 57 141.5 96t153.5 39q59 0 90 -26.5t31 -90.5q0 -34 -13 -94l-172 -803q50 5 106 20t87 28l31 12l-19 -78q-47 -41 -122 -69.5t-142 -28.5q-127 0 -127 127q0 34 8 67l166 785q-49 -7 -108.5 -22.5t-94.5 -27.5zM369 1440q0 59 39 97t94 38 q53 0 89 -35.5t36 -83.5q0 -55 -39.5 -94t-93.5 -39q-52 0 -88.5 36t-36.5 81z" />
<glyph unicode="j" horiz-adv-x="598" d="M-324 -299q0 45 39 90h135v-115q10 -2 29 -2q77 0 125 46t72 157l229 1086q-49 -7 -108.5 -22.5t-94.5 -27.5l-34 -12l18 78q54 57 141.5 96t153.5 39q59 0 89 -26.5t30 -92.5q0 -41 -11 -92l-215 -1014q-33 -158 -131 -243.5t-239 -85.5q-102 0 -165 37.5t-63 103.5z M369 1440q0 59 39 97t94 38q53 0 89 -35.5t36 -83.5q0 -55 -39.5 -94t-93.5 -39q-52 0 -88.5 36t-36.5 81z" />
<glyph unicode="k" horiz-adv-x="1140" d="M78 0l295 1470l-156 33l16 82l336 51l21 -12l-193 -995l109 16q97 12 150.5 65t117.5 203q84 201 221 201q46 0 79 -24t46 -54l-20 -86h-156q-43 -104 -114.5 -196.5t-155.5 -130.5l203 -523q47 5 97.5 20t77.5 28l27 12l-18 -78q-63 -49 -108.5 -73.5t-94.5 -24.5 q-45 0 -79.5 18.5t-64 53.5t-61 107t-60.5 156t-73 224h-141l-105 -543h-196z" />
<glyph unicode="l" horiz-adv-x="628" d="M109 111q0 34 8 67l274 1290l-166 33l17 82l356 49l23 -12l-322 -1520q52 6 114.5 22t98.5 29l37 13l-19 -78q-46 -40 -135.5 -71t-158.5 -31q-127 0 -127 127z" />
<glyph unicode="m" horiz-adv-x="1832" d="M68 901l18 78q54 57 141.5 96t153.5 39q58 0 85.5 -23t27.5 -83q0 -44 -15 -105l-6 -26h12q103 110 201.5 173.5t206.5 63.5q187 0 187 -207q0 -14 -1 -30h13q104 111 201.5 174t205.5 63q91 0 144 -46.5t53 -147.5q0 -39 -13 -99l-153 -721q50 5 106 20t86 28l31 12 l-18 -78q-47 -41 -122.5 -69.5t-142.5 -28.5q-127 0 -127 125q0 28 9 69l125 592q12 62 12 100q0 50 -18 71.5t-54 21.5q-147 0 -358 -230l-156 -733h-196l163 770q13 67 13 100q0 50 -18 71.5t-54 21.5q-147 0 -358 -230l-156 -733h-197l203 961q-49 -6 -108 -21t-93 -27z " />
<glyph unicode="n" horiz-adv-x="1257" d="M68 901l18 78q54 57 141.5 96t153.5 39q58 0 85.5 -23t27.5 -83q0 -44 -15 -105l-6 -26h12q58 58 100.5 94.5t98 72.5t115 53t125.5 17q196 0 196 -188q0 -46 -12 -105l-154 -721q50 5 106 20t87 28l31 12l-19 -78q-47 -41 -122 -69.5t-142 -28.5q-127 0 -127 125 q0 33 8 69l125 592q12 55 12 94q0 99 -79 99q-170 0 -381 -230l-156 -733h-197l205 963q-49 -7 -108.5 -22.5t-94.5 -27.5z" />
<glyph unicode="o" horiz-adv-x="1124" d="M68 410q0 103 25.5 205t76 191t119 157.5t161 108.5t195.5 40q195 0 302.5 -119t107.5 -315q0 -104 -25.5 -206t-76 -191t-119.5 -158t-161.5 -108.5t-195.5 -39.5q-193 0 -301 122t-108 313zM264 389q0 -156 54 -226.5t169 -70.5q89 0 160.5 51t115.5 137t67.5 193.5 t23.5 226.5q0 297 -215 297q-106 0 -193 -85.5t-134.5 -224.5t-47.5 -298z" />
<glyph unicode="p" d="M-133 -444l10 71l168 31l229 1303q-48 -7 -105.5 -22t-90.5 -27l-33 -11l18 78q55 58 138 96.5t149 38.5q61 0 87 -19t26 -81q0 -31 -10 -99l-2 -12h10q92 105 183 158t200 53q128 0 207 -94t79 -281q0 -146 -45.5 -284t-125 -244.5t-198.5 -171t-255 -64.5 q-50 0 -92.5 9t-58.5 16.5t-50 24.5l-63 -363l180 -35l-10 -71h-545zM332 174q28 -39 70.5 -62.5t123.5 -23.5q98 0 177.5 60.5t127 156t72.5 204t25 214.5q0 129 -41 184.5t-123 55.5q-87 0 -160 -42.5t-162 -121.5z" />
<glyph unicode="q" horiz-adv-x="1204" d="M68 315q0 154 57 301.5t150.5 256t220.5 175t260 66.5q119 0 204 -17.5t168 -58.5l-292 -1380l151 -31l-14 -71h-545l14 71l199 35l113 533h-11q-95 -110 -184 -165t-209 -55q-128 0 -205 87t-77 253zM270 317q0 -93 37 -147.5t113 -54.5q70 0 131 29t110 76t123 136 l125 586q-21 27 -68.5 42t-103.5 15q-91 0 -177 -56t-149.5 -148.5t-102 -218.5t-38.5 -259z" />
<glyph unicode="r" horiz-adv-x="897" d="M68 901l18 78q54 57 141.5 96t153.5 39q57 0 85 -23.5t28 -82.5q0 -40 -15 -101l-10 -39h12q174 244 320 244q43 0 80 -29t37 -86q0 -71 -66 -141h-137v109q-65 -33 -127 -93t-137 -149l-154 -723h-197l203 961q-49 -6 -108 -21t-93 -27z" />
<glyph unicode="s" horiz-adv-x="868" d="M-10 199q0 53 43 106h153v-178q48 -33 150 -33q97 0 156 47t59 117q0 60 -36 105t-114 100l-65 45q-64 44 -103 83t-64.5 95.5t-25.5 126.5q0 134 107.5 216.5t273.5 82.5q151 0 228 -52t75 -138q0 -56 -45 -107h-143v156q-62 30 -129 30q-82 0 -136.5 -37t-54.5 -108 q0 -64 32.5 -108.5t117.5 -100.5l66 -43q98 -65 150 -137t52 -166q0 -57 -24.5 -113t-72 -104t-128.5 -77.5t-182 -29.5q-156 0 -249 65.5t-91 156.5z" />
<glyph unicode="t" horiz-adv-x="757" d="M125 135q0 33 8 66l162 766h-168l18 86l181 51l55 262h197l-58 -272h268l-28 -127h-268l-183 -856q75 4 151 21t115 32l39 16l-18 -84q-51 -44 -139 -78t-176 -34q-69 0 -112.5 38.5t-43.5 112.5z" />
<glyph unicode="u" horiz-adv-x="1216" d="M47 901l19 78q54 57 141 96t153 39q57 0 84 -24t27 -84q0 -42 -12 -103l-125 -586q-10 -55 -10 -86q0 -106 94 -106q85 0 167 52t181 157l164 760h196l-213 -994q50 5 106 20t87 28l31 12l-19 -78q-48 -42 -118 -70t-136 -28q-127 0 -127 122q0 36 8 72l5 23h-13 q-5 -5 -41.5 -39.5t-42.5 -39.5t-37 -32.5t-41.5 -33t-38 -24.5t-44 -23.5t-43 -14t-51.5 -12t-54 -2.5q-100 0 -159.5 58t-59.5 169q0 52 10 96l139 658q-48 -7 -105 -22t-89 -27z" />
<glyph unicode="v" horiz-adv-x="1114" d="M55 901l17 78q58 56 135 95.5t137 39.5q96 0 115 -129q34 -222 47 -584q1 -22 1 -46q0 -89 -9 -214h10q45 81 145 242q196 326 242 561h-92l22 121q48 51 111 51q66 0 103.5 -34.5t37.5 -104.5q0 -115 -175 -410.5t-398 -566.5h-160q-22 525 -82 954q-45 -9 -97 -22 t-81 -22z" />
<glyph unicode="w" horiz-adv-x="1576" d="M55 901l17 78q58 56 135 95.5t137 39.5q98 0 107 -129q17 -199 24 -553q0 -133 -12 -266h10q26 58 68.5 148t52.5 112q152 332 256 668h137q47 -304 60 -678q2 -31 2 -97q0 -75 -9 -186h11q23 45 70.5 133t68.5 131q149 299 182 547h-94l22 121q48 51 111 51 q66 0 103.5 -30.5t37.5 -92.5q0 -118 -147.5 -421.5t-343.5 -571.5h-168q-5 311 -23 580q-6 90 -6 179v44h-10q-33 -116 -76 -215q-116 -266 -297 -588h-168q-2 54 -9 235.5t-10.5 256.5t-12 210t-19.5 252q-45 -8 -97 -21t-81 -23z" />
<glyph unicode="x" horiz-adv-x="1095" d="M-14 12l30 152h148q119 140 272 409l-141 381q-45 -9 -97 -22t-81 -22l-29 -9l16 78q56 55 134 95t131 40q42 0 71 -27t54 -102l114 -354h6l80 160q92 185 156.5 255t142.5 70q21 0 48.5 -10.5t45.5 -28.5l-30 -141h-135q-89 -110 -258 -408l161 -422q44 7 91 20.5 t72 23.5l26 10l-19 -78q-113 -98 -219 -98q-74 0 -113.5 50t-87.5 191l-83 246h-5l-94 -166q-104 -184 -168.5 -257t-138.5 -73q-26 0 -55.5 11t-44.5 26z" />
<glyph unicode="y" horiz-adv-x="1126" d="M-119 -375l25 109q3 -1 20 -6.5t21 -7t18.5 -5t22.5 -4.5t21.5 -2.5t27.5 -1.5q76 0 124.5 10.5t110 53.5t129.5 127q-8 273 -46 562.5t-81 495.5q-48 -9 -101.5 -22.5t-82.5 -23.5l-29 -9l17 78q65 57 141 96t135 39q20 0 33.5 -3t32 -13t32 -35.5t21.5 -65.5 q49 -234 74 -598q6 -65 6 -149q0 -96 -10 -172h10q102 221 145 307q81 166 126.5 286t80.5 273h-90l23 121q48 51 110 51q66 0 104 -34.5t38 -104.5q0 -104 -134.5 -366.5t-328.5 -569.5q-87 -138 -151.5 -224t-132.5 -148t-136 -87.5t-150 -25.5q-93 0 -176 69z" />
<glyph unicode="z" horiz-adv-x="974" d="M-37 0v82l782 821l-454 29q-18 -34 -33 -74t-21 -63l-6 -23h-77q-9 46 -9 90q0 115 60.5 183.5t165.5 68.5q54 0 122 -25t156 -59.5t172 -48.5l107 113h84v-82l-785 -824l475 -30q19 37 35 82.5t23 72.5l6 27h78q8 -44 8 -94q0 -122 -60.5 -195.5t-164.5 -73.5 q-56 0 -127.5 26.5t-164 61t-181.5 48.5l-107 -113h-84z" />
<glyph unicode="{" horiz-adv-x="882" d="M88 602l25 137q105 8 167.5 29.5t85 49.5t29.5 71q4 32 4 63q0 32 -4 114.5t-4 125.5q0 69 8 113q9 46 27.5 83t55 70.5t89 56t132 35.5t180.5 13q48 0 73 -2l-14 -86q-182 -12 -253.5 -46.5t-88.5 -125.5q-8 -45 -8 -168q0 -160 -12 -230q-5 -32 -14.5 -56.5t-32.5 -52 t-58.5 -49t-95 -42t-139.5 -35.5v-11q139 -39 195.5 -92t56.5 -121q0 -62 -29 -150t-57.5 -171t-28.5 -133q0 -65 58 -97.5t216 -64.5l-18 -86q-130 12 -221 35.5t-141.5 58t-72.5 74.5t-22 92q0 48 21.5 115.5t48 123.5t48 118t21.5 100q0 53 -49.5 89t-177.5 52z" />
<glyph unicode="|" horiz-adv-x="509" d="M188 -256v1817h134v-1817h-134z" />
<glyph unicode="}" horiz-adv-x="882" d="M-53 -254l14 86q182 12 253.5 46.5t88.5 125.5q8 45 8 168q0 153 13 229q7 41 22 71t50 62.5t101.5 58t166.5 44.5v10q-139 39 -195.5 92t-56.5 121q0 62 28.5 150.5t57 171.5t28.5 133q0 65 -58 97.5t-216 64.5l18 86q130 -12 221 -35.5t141.5 -58t72.5 -74.5t22 -92 q0 -48 -21.5 -115.5t-48 -123.5t-48 -118t-21.5 -100q0 -53 49.5 -89t177.5 -52l-24 -138q-105 -8 -167.5 -29.5t-85.5 -49t-30 -70.5q-4 -32 -4 -64t4 -114t4 -125q0 -69 -8 -113q-9 -46 -27.5 -83t-55 -70.5t-89 -56t-132 -35.5t-180.5 -13q-48 0 -73 2z" />
<glyph unicode="~" horiz-adv-x="911" d="M76 541q67 125 128.5 180t145.5 55q50 0 103.5 -25t99 -50t76.5 -25q41 0 79.5 27.5t84.5 91.5l81 -41q-64 -124 -126.5 -179t-145.5 -55q-39 0 -82 16t-73 34.5t-64 34.5t-59 16q-40 0 -78.5 -28t-87.5 -93z" />
<glyph unicode="&#xa1;" horiz-adv-x="532" d="M4 -254l252 1067h119l-146 -1067h-225zM225 1116q0 56 39.5 93.5t95.5 37.5q55 0 91 -36t36 -89q0 -56 -39 -93.5t-94 -37.5t-92 36t-37 89z" />
<glyph unicode="&#xa2;" horiz-adv-x="1028" d="M47 348q0 306 176.5 522.5t442.5 241.5l55 197h123l-56 -197q112 -9 174 -50t62 -110q0 -23 -11 -58.5t-28 -62.5h-149v150q-50 12 -80 14l-244 -882h4q99 0 186 30t183 90l-29 -102q-154 -141 -383 -154l-80 -292h-123l82 297q-139 21 -222 116t-83 250zM248 381 q0 -206 151 -254l238 866q-112 -20 -201.5 -110t-138.5 -222.5t-49 -279.5z" />
<glyph unicode="&#xa3;" horiz-adv-x="1099" d="M-39 0l16 98q114 63 181 146.5t90 228.5l22 143h-145l22 125h144l31 195q20 125 74 217.5t128.5 143.5t153 74.5t162.5 23.5q142 0 214 -46t72 -130q0 -57 -45 -119h-166v168q-46 8 -73 8q-61 0 -109.5 -17t-92 -56.5t-76 -112t-52.5 -177.5l-33 -172h377l-22 -125h-379 l-19 -102q-15 -76 -35.5 -131t-50.5 -93.5t-56.5 -61.5t-70.5 -52v-8h731l-51 -168h-942z" />
<glyph unicode="&#xa4;" horiz-adv-x="1325" d="M70 477l18 107h172q3 90 23 190h-162l18 107h172q81 245 264 379.5t402 134.5q340 0 340 -215q0 -53 -51 -123h-168v188q-61 37 -140 37q-162 0 -274.5 -109t-169.5 -292h461l-19 -107h-471q-18 -90 -24 -190h463l-19 -107h-446q9 -368 399 -368q141 0 303 61l-14 -90 q-61 -43 -152.5 -74t-191.5 -31q-249 0 -387.5 128t-153.5 374h-192z" />
<glyph unicode="&#xa5;" horiz-adv-x="1269" d="M111 324l20 106h389l29 160h-391l18 106h344l-254 545l-110 41l16 88h477l-16 -88l-150 -41l213 -508h9l376 508l-139 41l16 88h414l-16 -88l-121 -41l-426 -545h348l-18 -106h-394l-28 -160h395l-20 -106h-394l-34 -197l184 -39l-14 -88h-584l14 88l203 39l35 197h-391z " />
<glyph unicode="&#xa6;" horiz-adv-x="509" d="M209 -256v850h133v-850h-133zM209 791v770h133v-770h-133z" />
<glyph unicode="&#xa7;" horiz-adv-x="1153" d="M59 -201l37 262h99l26 -167q97 -60 234 -60q103 0 171 51.5t68 145.5q0 128 -170 209l-159 77q-124 61 -189 136t-65 172q0 240 327 303q-104 87 -104 225q0 162 116 255t312 93q177 0 319 -65l-32 -236h-93l-26 135q-69 51 -185 51q-107 0 -171 -50.5t-64 -147.5 q0 -57 33 -99t114 -81l160 -76q126 -60 190 -131.5t64 -167.5q0 -249 -313 -320q121 -103 121 -233q0 -156 -117.5 -258.5t-327.5 -102.5q-195 0 -375 80zM287 670q0 -67 53 -119.5t156 -99.5l163 -76q46 9 85 25t73.5 40.5t54 62t19.5 83.5q0 63 -51.5 113t-155.5 98 l-154 71q-103 -13 -173 -64t-70 -134z" />
<glyph unicode="&#xa8;" horiz-adv-x="1024" d="M313 1360q0 48 35 82.5t86 34.5q49 0 81 -33.5t32 -79.5q0 -48 -35 -82.5t-86 -34.5q-49 0 -81 33.5t-32 79.5zM743 1360q0 48 35 82.5t86 34.5q49 0 81 -33.5t32 -79.5q0 -48 -35 -82.5t-86 -34.5q-49 0 -81 33.5t-32 79.5z" />
<glyph unicode="&#xa9;" horiz-adv-x="1718" d="M119 733q0 207 99.5 381t275 275.5t387.5 101.5q211 0 387 -101.5t276.5 -275.5t100.5 -381t-100.5 -382.5t-276.5 -278.5t-387 -103q-159 0 -301 60.5t-242.5 163.5t-159.5 244t-59 296zM229 733q0 -138 48 -262t132.5 -215.5t207 -145t264.5 -53.5q188 0 338 91.5 t231.5 245.5t81.5 339t-81.5 338t-231.5 243.5t-338 90.5q-189 0 -339 -90.5t-231.5 -243.5t-81.5 -338zM541 729q0 96 30.5 170t83.5 119t120.5 67.5t146.5 22.5q107 0 213 -27l10 -196h-70l-51 123q-58 24 -115 24q-196 0 -196 -282q0 -149 47.5 -227.5t157.5 -78.5 q83 0 106 17l57 147h72l-14 -205q-119 -36 -234 -36q-164 0 -264 94t-100 268z" />
<glyph unicode="&#xaa;" horiz-adv-x="1124" d="M113 735q0 155 54 299t139 243.5t191 159.5t208 60q66 0 104 -16.5t72 -50.5h12l29 71h141l20 -10l-192 -901q44 5 93 18.5t76 23.5l27 11l-18 -76q-42 -37 -108 -64.5t-115 -27.5q-129 0 -129 141q0 39 8 78h-10q-94 -118 -177.5 -171.5t-187.5 -53.5q-113 0 -175 72.5 t-62 193.5zM303 770q0 -91 23 -130.5t84 -39.5q76 0 157.5 59t184.5 170l100 471q-33 45 -67.5 65.5t-94.5 20.5q-94 0 -184.5 -88.5t-146.5 -232.5t-56 -295z" />
<glyph unicode="&#xab;" horiz-adv-x="1011" d="M76 518l12 62l395 440h135l-352 -483l135 -482h-122zM469 518l12 62l396 440h135l-353 -483l136 -482h-123z" />
<glyph unicode="&#xad;" horiz-adv-x="739" d="M109 528l34 166h514l-34 -166h-514z" />
<glyph unicode="&#xae;" horiz-adv-x="1718" d="M119 733q0 207 99.5 381t275 275.5t387.5 101.5q211 0 387 -101.5t276.5 -275.5t100.5 -381t-100.5 -382.5t-276.5 -278.5t-387 -103q-159 0 -301 60.5t-242.5 163.5t-159.5 244t-59 296zM229 733q0 -138 48 -262t132.5 -215.5t207 -145t264.5 -53.5q188 0 338 91.5 t231.5 245.5t81.5 339t-81.5 338t-231.5 243.5t-338 90.5q-189 0 -339 -90.5t-231.5 -243.5t-81.5 -338zM567 369v65l84 19v553l-82 20v61h324q132 0 206.5 -49t74.5 -145q0 -137 -148 -182v-11l156 -247l78 -19v-65h-193l-184 311h-84v-227l84 -19v-65h-316zM799 758h92 q131 0 131 127q0 67 -30 94t-101 27h-92v-248z" />
<glyph unicode="&#xaf;" horiz-adv-x="1024" d="M358 1354l29 131h567l-28 -131h-568z" />
<glyph unicode="&#xb0;" horiz-adv-x="911" d="M236 1155q0 141 100.5 240.5t249.5 99.5t248.5 -99.5t99.5 -240.5q0 -142 -99.5 -243t-248.5 -101t-249.5 101t-100.5 243zM362 1155q0 -103 61.5 -173.5t162.5 -70.5q100 0 160.5 70.5t60.5 173.5t-60.5 171.5t-160.5 68.5q-102 0 -163 -68.5t-61 -171.5z" />
<glyph unicode="&#xb2;" horiz-adv-x="745" d="M33 526l18 82l271 213q149 117 211.5 199t62.5 182q0 66 -40.5 106t-113.5 40q-60 0 -106 -27v-145h-127q-43 32 -43 81q0 78 85 132.5t216 54.5q148 0 226.5 -64.5t78.5 -171.5q0 -116 -90 -218t-285 -230l-159 -105v-6h446l-33 -123h-618z" />
<glyph unicode="&#xb3;" horiz-adv-x="737" d="M61 594l15 82q117 -53 239 -53q103 0 160 49t57 135q0 135 -176 135h-67l16 92h68q110 0 160.5 48.5t50.5 131.5q0 65 -41 101.5t-121 36.5q-42 0 -94 -25v-135h-119q-41 30 -41 80q0 77 79 123.5t212 46.5q131 0 211 -58t80 -147q0 -98 -63 -160t-173 -86v-4 q79 -19 132.5 -68.5t53.5 -125.5q0 -126 -101.5 -203.5t-254.5 -77.5q-168 0 -283 82z" />
<glyph unicode="&#xb4;" horiz-adv-x="1024" d="M432 1321l459 276l61 -157l-487 -193z" />
<glyph unicode="&#xb6;" horiz-adv-x="1263" d="M135 1042q0 205 134 320t415 115h709l-19 -88l-176 -39l-342 -1606h-133l346 1620h-203l-346 -1620h-133l207 967q-44 -6 -78 -6q-171 0 -276 90.5t-105 246.5z" />
<glyph unicode="&#xb7;" horiz-adv-x="638" d="M178 698q0 68 47.5 113t114.5 45q66 0 110 -43t44 -106q0 -68 -47.5 -113t-114.5 -45q-66 0 -110 43t-44 106z" />
<glyph unicode="&#xb8;" horiz-adv-x="1024" d="M158 -494l12 78q167 4 239 29.5t72 71.5q0 72 -184 86l57 229h101l-37 -139q221 -23 221 -156q0 -47 -20 -81t-71 -62t-148 -42t-242 -14z" />
<glyph unicode="&#xb9;" horiz-adv-x="614" d="M80 526l14 74l137 23l140 657l-152 -20l14 69l279 111h59l-172 -817l127 -23l-14 -74h-432z" />
<glyph unicode="&#xba;" horiz-adv-x="1038" d="M121 860q0 159 68 304.5t194.5 239t280.5 93.5q179 0 282 -106t103 -283q0 -160 -68 -306t-194 -239.5t-279 -93.5q-175 0 -281 109.5t-106 281.5zM311 840q0 -139 52.5 -198.5t154.5 -59.5q108 0 186.5 77.5t115 198.5t36.5 270q0 261 -199 261q-99 0 -179 -75.5 t-123.5 -201t-43.5 -272.5z" />
<glyph unicode="&#xbb;" horiz-adv-x="1011" d="M-23 55l353 484l-135 481h122l203 -463l-12 -61l-395 -441h-136zM371 55l352 484l-135 481h123l202 -463l-12 -61l-395 -441h-135z" />
<glyph unicode="&#xbc;" horiz-adv-x="1855" d="M96 526l15 74l137 23l139 657l-151 -20l14 69l278 111h60l-172 -817l127 -23l-15 -74h-432zM287 -82l1224 1542h148l-1225 -1542h-147zM985 111l21 90l546 553h140l-115 -543h135l-22 -100h-136l-55 -261h-162l56 261h-408zM1143 211h272l74 354h-6l-340 -348v-6z" />
<glyph unicode="&#xbd;" horiz-adv-x="1910" d="M96 526l15 74l137 23l139 657l-151 -20l14 69l278 111h60l-172 -817l127 -23l-15 -74h-432zM266 -82l1225 1542h147l-1224 -1542h-148zM1061 -150l18 82l271 213q149 117 211.5 199t62.5 182q0 66 -40.5 106t-113.5 40q-58 0 -106 -25v-147h-127q-43 32 -43 82 q0 78 85 132t216 54q148 0 226.5 -64.5t78.5 -171.5q0 -116 -90 -218t-285 -230l-159 -104v-7h446l-33 -123h-618z" />
<glyph unicode="&#xbe;" horiz-adv-x="1896" d="M66 594l14 82q117 -53 239 -53q103 0 160.5 49t57.5 135q0 135 -177 135h-67l16 92h68q110 0 160.5 48.5t50.5 131.5q0 65 -41 101.5t-121 36.5q-42 0 -94 -25v-135h-119q-41 30 -41 80q0 77 79 123.5t212 46.5q131 0 211 -58t80 -147q0 -98 -63 -160t-173 -86v-4 q79 -19 133 -68.5t54 -125.5q0 -126 -102 -203.5t-255 -77.5q-167 0 -282 82zM348 -82l1225 1542h147l-1224 -1542h-148zM1026 111l21 90l546 553h140l-115 -543h135l-22 -100h-136l-55 -261h-162l56 261h-408zM1184 211h272l74 354h-6l-340 -348v-6z" />
<glyph unicode="&#xbf;" horiz-adv-x="919" d="M2 49q0 76 20.5 137t65.5 113t104.5 95t147.5 91q45 24 66.5 36.5t52.5 35t45.5 42.5t25.5 50t11 66q0 35 -13 98h107q29 -60 29 -125q0 -98 -51 -162t-214 -170q-99 -64 -147.5 -134.5t-48.5 -176.5q0 -99 64.5 -153t181.5 -54q49 0 92 6l57 166h119l-27 -239 q-150 -47 -297 -47q-81 0 -150.5 20t-124 59t-85.5 102.5t-31 143.5zM496 1116q0 56 39.5 93.5t95.5 37.5q55 0 91 -36t36 -89q0 -56 -39 -93.5t-94 -37.5t-92 36t-37 89z" />
<glyph unicode="&#xc0;" horiz-adv-x="1449" d="M-88 0l14 90l158 37l733 1350h176l207 -1350l139 -37l-14 -90h-543l15 88l178 39l-45 340h-510l-182 -340l163 -39l-14 -88h-475zM479 575h436l-45 355q-9 70 -16.5 157t-10.5 139l-3 52h-11q-75 -195 -151 -334zM674 1788l92 158l389 -273l-49 -78z" />
<glyph unicode="&#xc1;" horiz-adv-x="1449" d="M-88 0l14 90l158 37l733 1350h176l207 -1350l139 -37l-14 -90h-543l15 88l178 39l-45 340h-510l-182 -340l163 -39l-14 -88h-475zM479 575h436l-45 355q-9 70 -16.5 157t-10.5 139l-3 52h-11q-75 -195 -151 -334zM705 1669l458 277l62 -158l-488 -193z" />
<glyph unicode="&#xc2;" horiz-adv-x="1449" d="M-88 0l14 90l158 37l733 1350h176l207 -1350l139 -37l-14 -90h-543l15 88l178 39l-45 340h-510l-182 -340l163 -39l-14 -88h-475zM479 575h436l-45 355q-9 70 -16.5 157t-10.5 139l-3 52h-11q-75 -195 -151 -334zM580 1624l327 299h101l219 -299l-51 -61l-238 196 l-320 -196z" />
<glyph unicode="&#xc3;" horiz-adv-x="1449" d="M-88 0l14 90l158 37l733 1350h176l207 -1350l139 -37l-14 -90h-543l15 88l178 39l-45 340h-510l-182 -340l163 -39l-14 -88h-475zM479 575h436l-45 355q-9 70 -16.5 157t-10.5 139l-3 52h-11q-75 -195 -151 -334zM557 1667q113 215 252 215q50 0 141.5 -44t116.5 -44 q74 0 150 109l81 -39q-116 -219 -251 -219q-50 0 -142 44t-117 44q-75 0 -149 -105z" />
<glyph unicode="&#xc4;" horiz-adv-x="1449" d="M-88 0l14 90l158 37l733 1350h176l207 -1350l139 -37l-14 -90h-543l15 88l178 39l-45 340h-510l-182 -340l163 -39l-14 -88h-475zM479 575h436l-45 355q-9 70 -16.5 157t-10.5 139l-3 52h-11q-75 -195 -151 -334zM586 1708q0 48 35 82.5t86 34.5q49 0 80.5 -33.5 t31.5 -79.5q0 -48 -35 -82.5t-86 -34.5q-49 0 -80.5 33.5t-31.5 79.5zM1016 1708q0 48 35 82.5t86 34.5q49 0 80.5 -33.5t31.5 -79.5q0 -48 -35 -82.5t-86 -34.5q-49 0 -80.5 33.5t-31.5 79.5z" />
<glyph unicode="&#xc5;" horiz-adv-x="1449" d="M-88 0l14 90l158 37l733 1350h176l207 -1350l139 -37l-14 -90h-543l15 88l178 39l-45 340h-510l-182 -340l163 -39l-14 -88h-475zM479 575h436l-45 355q-9 70 -16.5 157t-10.5 139l-3 52h-11q-75 -195 -151 -334zM676 1802q0 100 76.5 173t183.5 73q106 0 177 -69.5 t71 -170.5q0 -102 -74.5 -173.5t-181.5 -71.5t-179.5 69t-72.5 170zM782 1804q0 -70 39 -110.5t107 -40.5t109.5 41.5t41.5 111.5q0 69 -39 110.5t-106 41.5q-68 0 -110 -42.5t-42 -111.5z" />
<glyph unicode="&#xc6;" horiz-adv-x="2019" d="M-88 0l14 90l142 37l940 1239l-142 23l17 88h1136l-20 -367h-105l-61 250h-487l-97 -545h262l91 203h92l-78 -516h-92l-27 205h-268l-105 -590h537l164 309h104l-98 -426h-1129l15 88l198 39l62 350h-490l-262 -350l162 -39l-14 -88h-461zM569 586h426l84 469 q12 69 30 151t30 129l12 47h-8q-94 -153 -211 -313z" />
<glyph unicode="&#xc7;" horiz-adv-x="1325" d="M86 563q0 207 62 382.5t170.5 297t260 190t326.5 68.5q230 0 404 -76l-33 -354h-98l-60 256q-108 59 -235 59q-99 0 -184.5 -36t-147.5 -99t-110.5 -146t-78 -180t-44.5 -197.5t-15 -201.5q0 -201 93.5 -314.5t285.5 -113.5q66 0 137 19.5t123 44.5l121 258h104l-67 -367 q-217 -73 -410 -73q-12 0 -32.5 1t-30.5 1l-31 -121q221 -23 221 -156q0 -47 -20 -81t-71 -62t-148 -42t-242 -14l12 78q167 4 239 29.5t72 71.5q0 72 -184 86l55 223q-207 38 -325.5 181.5t-118.5 387.5z" />
<glyph unicode="&#xc8;" horiz-adv-x="1308" d="M-39 0l14 88l201 39l217 1221l-184 41l16 88h1073l-20 -367h-104l-62 250h-502l-96 -545h281l90 203h92l-78 -516h-92l-27 205h-286l-105 -590h557l164 309h104l-98 -426h-1155zM602 1788l92 158l389 -273l-49 -78z" />
<glyph unicode="&#xc9;" horiz-adv-x="1308" d="M-39 0l14 88l201 39l217 1221l-184 41l16 88h1073l-20 -367h-104l-62 250h-502l-96 -545h281l90 203h92l-78 -516h-92l-27 205h-286l-105 -590h557l164 309h104l-98 -426h-1155zM633 1669l459 277l61 -158l-487 -193z" />
<glyph unicode="&#xca;" horiz-adv-x="1308" d="M-39 0l14 88l201 39l217 1221l-184 41l16 88h1073l-20 -367h-104l-62 250h-502l-96 -545h281l90 203h92l-78 -516h-92l-27 205h-286l-105 -590h557l164 309h104l-98 -426h-1155zM518 1624l328 299h100l219 -299l-51 -61l-237 196l-320 -196z" />
<glyph unicode="&#xcb;" horiz-adv-x="1308" d="M-39 0l14 88l201 39l217 1221l-184 41l16 88h1073l-20 -367h-104l-62 250h-502l-96 -545h281l90 203h92l-78 -516h-92l-27 205h-286l-105 -590h557l164 309h104l-98 -426h-1155zM508 1708q0 48 35 82.5t86 34.5q49 0 80.5 -33.5t31.5 -79.5q0 -48 -35 -82.5t-85 -34.5 q-49 0 -81 33.5t-32 79.5zM938 1708q0 48 35 82.5t86 34.5q49 0 80.5 -33.5t31.5 -79.5q0 -48 -35 -82.5t-85 -34.5q-49 0 -81 33.5t-32 79.5z" />
<glyph unicode="&#xcc;" horiz-adv-x="724" d="M-39 0l14 88l199 37l217 1225l-184 39l16 88h592l-16 -88l-193 -39l-217 -1225l178 -37l-14 -88h-592zM332 1788l92 158l389 -273l-49 -78z" />
<glyph unicode="&#xcd;" horiz-adv-x="724" d="M-39 0l14 88l199 37l217 1225l-184 39l16 88h592l-16 -88l-193 -39l-217 -1225l178 -37l-14 -88h-592zM342 1669l459 277l61 -158l-487 -193z" />
<glyph unicode="&#xce;" horiz-adv-x="724" d="M-39 0l14 88l199 37l217 1225l-184 39l16 88h592l-16 -88l-193 -39l-217 -1225l178 -37l-14 -88h-592zM217 1624l328 299h100l219 -299l-51 -61l-238 196l-319 -196z" />
<glyph unicode="&#xcf;" horiz-adv-x="724" d="M-39 0l14 88l199 37l217 1225l-184 39l16 88h592l-16 -88l-193 -39l-217 -1225l178 -37l-14 -88h-592zM223 1708q0 48 35 82.5t86 34.5q49 0 81 -33.5t32 -79.5q0 -48 -35 -82.5t-86 -34.5q-49 0 -81 33.5t-32 79.5zM653 1708q0 48 35 82.5t86 34.5q49 0 81 -33.5 t32 -79.5q0 -48 -35 -82.5t-86 -34.5q-49 0 -81 33.5t-32 79.5z" />
<glyph unicode="&#xd0;" horiz-adv-x="1488" d="M-39 0l14 88l201 39l98 553h-174l23 125h174l96 543l-184 41l16 88h600q159 0 279 -41t195 -116.5t112 -178t37 -230.5q0 -207 -63 -379t-174.5 -288t-266 -180t-334.5 -64h-649zM389 117h236q293 0 446.5 214t153.5 621q0 116 -27.5 195.5t-84 126t-134.5 66.5t-188 20 h-181l-98 -555h385l-23 -125h-385z" />
<glyph unicode="&#xd1;" horiz-adv-x="1558" d="M-39 0l16 84l199 41l217 1223l-186 41l16 88h477l324 -826q23 -57 50 -142.5t43 -142.5l16 -57h10l184 1037l-184 43l16 88h508l-16 -86l-176 -43l-240 -1348h-170l-401 1020q-23 57 -50.5 140.5t-43.5 138.5l-17 55h-10l-217 -1227l186 -41l-16 -86h-535zM616 1667 q113 215 252 215q50 0 141.5 -44t116.5 -44q74 0 150 109l82 -39q-116 -219 -252 -219q-50 0 -141.5 44t-116.5 44q-76 0 -150 -105z" />
<glyph unicode="&#xd2;" horiz-adv-x="1456" d="M92 598q0 206 64 379t170 286t241.5 175.5t280.5 62.5q256 0 408.5 -170.5t152.5 -458.5q0 -169 -43.5 -316t-117.5 -252t-171.5 -180.5t-207 -112t-222.5 -36.5q-251 0 -403 168t-152 455zM307 528q0 -434 346 -434q128 0 232 72t169 192t99.5 268t34.5 308 q0 215 -87.5 331.5t-258.5 116.5q-103 0 -191 -48.5t-150.5 -131.5t-107 -192.5t-65.5 -232t-21 -249.5zM686 1788l92 158l389 -273l-49 -78z" />
<glyph unicode="&#xd3;" horiz-adv-x="1456" d="M92 598q0 206 64 379t170 286t241.5 175.5t280.5 62.5q256 0 408.5 -170.5t152.5 -458.5q0 -169 -43.5 -316t-117.5 -252t-171.5 -180.5t-207 -112t-222.5 -36.5q-251 0 -403 168t-152 455zM307 528q0 -434 346 -434q128 0 232 72t169 192t99.5 268t34.5 308 q0 215 -87.5 331.5t-258.5 116.5q-103 0 -191 -48.5t-150.5 -131.5t-107 -192.5t-65.5 -232t-21 -249.5zM655 1669l459 277l62 -158l-488 -193z" />
<glyph unicode="&#xd4;" horiz-adv-x="1456" d="M92 598q0 206 64 379t170 286t241.5 175.5t280.5 62.5q256 0 408.5 -170.5t152.5 -458.5q0 -169 -43.5 -316t-117.5 -252t-171.5 -180.5t-207 -112t-222.5 -36.5q-251 0 -403 168t-152 455zM307 528q0 -434 346 -434q128 0 232 72t169 192t99.5 268t34.5 308 q0 215 -87.5 331.5t-258.5 116.5q-103 0 -191 -48.5t-150.5 -131.5t-107 -192.5t-65.5 -232t-21 -249.5zM567 1624l328 299h100l219 -299l-51 -61l-237 196l-320 -196z" />
<glyph unicode="&#xd5;" horiz-adv-x="1456" d="M92 598q0 206 64 379t170 286t241.5 175.5t280.5 62.5q256 0 408.5 -170.5t152.5 -458.5q0 -169 -43.5 -316t-117.5 -252t-171.5 -180.5t-207 -112t-222.5 -36.5q-251 0 -403 168t-152 455zM307 528q0 -434 346 -434q128 0 232 72t169 192t99.5 268t34.5 308 q0 215 -87.5 331.5t-258.5 116.5q-103 0 -191 -48.5t-150.5 -131.5t-107 -192.5t-65.5 -232t-21 -249.5zM565 1667q113 215 252 215q50 0 141.5 -44t116.5 -44q74 0 150 109l82 -39q-116 -219 -252 -219q-50 0 -141.5 44t-116.5 44q-76 0 -150 -105z" />
<glyph unicode="&#xd6;" horiz-adv-x="1456" d="M92 598q0 206 64 379t170 286t241.5 175.5t280.5 62.5q256 0 408.5 -170.5t152.5 -458.5q0 -169 -43.5 -316t-117.5 -252t-171.5 -180.5t-207 -112t-222.5 -36.5q-251 0 -403 168t-152 455zM307 528q0 -434 346 -434q128 0 232 72t169 192t99.5 268t34.5 308 q0 215 -87.5 331.5t-258.5 116.5q-103 0 -191 -48.5t-150.5 -131.5t-107 -192.5t-65.5 -232t-21 -249.5zM578 1708q0 48 35 82.5t85 34.5q49 0 81 -33.5t32 -79.5q0 -48 -35 -82.5t-86 -34.5q-49 0 -80.5 33.5t-31.5 79.5zM1008 1708q0 48 35 82.5t85 34.5q49 0 81 -33.5 t32 -79.5q0 -48 -35 -82.5t-86 -34.5q-49 0 -80.5 33.5t-31.5 79.5z" />
<glyph unicode="&#xd7;" horiz-adv-x="1245" d="M186 307l351 346l-351 346l95 95l350 -349l348 347l94 -95l-348 -344l350 -346l-94 -94l-350 346l-350 -346z" />
<glyph unicode="&#xd8;" horiz-adv-x="1456" d="M23 -86l200 252q-131 165 -131 432q0 206 64 379t170 286t241.5 175.5t280.5 62.5q203 0 346 -112l119 151h147l-184 -231q133 -169 133 -437q0 -169 -43.5 -316t-117.5 -252t-171.5 -180.5t-207 -112t-222.5 -36.5q-199 0 -342 109l-135 -170h-147zM307 528 q0 -140 33 -227l760 965q-87 116 -258 116q-103 0 -191 -48.5t-150.5 -131.5t-107 -192.5t-65.5 -232t-21 -249.5zM393 203q86 -109 260 -109q128 0 232 72t169 192t99.5 268t34.5 308q0 129 -35 229z" />
<glyph unicode="&#xd9;" horiz-adv-x="1501" d="M166 1389l16 88h592l-16 -88l-195 -39l-149 -846q-11 -75 -11 -113q0 -141 83 -211.5t259 -70.5q172 0 267 80t129 272l155 887l-184 38l16 91h502l-16 -88l-170 -39l-162 -918q-81 -461 -571 -461q-138 0 -241 31t-164.5 87t-91.5 128.5t-30 161.5q0 39 11 110l151 861z M678 1788l92 158l389 -273l-49 -78z" />
<glyph unicode="&#xda;" horiz-adv-x="1501" d="M166 1389l16 88h592l-16 -88l-195 -39l-149 -846q-11 -75 -11 -113q0 -141 83 -211.5t259 -70.5q172 0 267 80t129 272l155 887l-184 38l16 91h502l-16 -88l-170 -39l-162 -918q-81 -461 -571 -461q-138 0 -241 31t-164.5 87t-91.5 128.5t-30 161.5q0 39 11 110l151 861z M770 1669l459 277l61 -158l-487 -193z" />
<glyph unicode="&#xdb;" horiz-adv-x="1501" d="M166 1389l16 88h592l-16 -88l-195 -39l-149 -846q-11 -75 -11 -113q0 -141 83 -211.5t259 -70.5q172 0 267 80t129 272l155 887l-184 38l16 91h502l-16 -88l-170 -39l-162 -918q-81 -461 -571 -461q-138 0 -241 31t-164.5 87t-91.5 128.5t-30 161.5q0 39 11 110l151 861z M635 1624l328 299h100l219 -299l-51 -61l-238 196l-319 -196z" />
<glyph unicode="&#xdc;" horiz-adv-x="1501" d="M166 1389l16 88h592l-16 -88l-195 -39l-149 -846q-11 -75 -11 -113q0 -141 83 -211.5t259 -70.5q172 0 267 80t129 272l155 887l-184 38l16 91h502l-16 -88l-170 -39l-162 -918q-81 -461 -571 -461q-138 0 -241 31t-164.5 87t-91.5 128.5t-30 161.5q0 39 11 110l151 861z M631 1708q0 48 35 82.5t86 34.5q49 0 80.5 -33.5t31.5 -79.5q0 -48 -35 -82.5t-86 -34.5q-49 0 -80.5 33.5t-31.5 79.5zM1061 1708q0 48 35 82.5t86 34.5q49 0 80.5 -33.5t31.5 -79.5q0 -48 -35 -82.5t-85 -34.5q-49 0 -81 33.5t-32 79.5z" />
<glyph unicode="&#xdd;" horiz-adv-x="1357" d="M164 1389l16 88h506l-16 -88l-154 -41l238 -594h8l422 594l-152 41l17 88h440l-16 -88l-136 -41l-530 -713l-90 -508l178 -39l-14 -88h-590l14 88l197 39l90 512l-303 709zM657 1669l459 277l62 -158l-488 -193z" />
<glyph unicode="&#xde;" horiz-adv-x="1251" d="M-39 0l14 88l199 39l217 1221l-184 41l16 88h592l-16 -88l-193 -41l-31 -172h173q129 0 224 -24.5t151 -70.5t83 -105t27 -134q0 -118 -40.5 -208t-114 -144.5t-170 -81.5t-214.5 -27q-138 0 -256 31l-49 -285l217 -39l-14 -88h-631zM459 520q101 -24 217 -24 q174 0 254 85.5t80 256.5q0 213 -262 213h-195z" />
<glyph unicode="&#xdf;" horiz-adv-x="1314" d="M-322 -256q0 45 39 90h136v-117q5 0 14.5 -1t13.5 -1q105 0 156 78t88 287l219 1096q91 458 516 458q169 0 263 -78.5t94 -203.5q0 -78 -39 -153t-94.5 -131t-110.5 -106t-94 -97t-39 -85q0 -64 110 -155l92 -78q148 -127 148 -252q0 -66 -22 -122t-67 -100.5t-120 -70 t-174 -25.5q-155 0 -243.5 62.5t-88.5 153.5q0 26 11.5 55t31.5 47h150v-160q54 -41 139 -41q96 0 147.5 39t51.5 107q0 89 -105 176l-94 78q-66 54 -102.5 106.5t-36.5 118.5q0 52 27.5 105.5t68.5 97.5t89 95t89 96.5t68.5 102.5t27.5 113q0 90 -48 139.5t-142 49.5 q-73 0 -125.5 -24.5t-87.5 -77t-56.5 -113.5t-41.5 -154l-234 -1081q-44 -239 -141 -352t-277 -113q-88 0 -147.5 38t-59.5 103z" />
<glyph unicode="&#xe0;" d="M68 264q0 168 58 323.5t150 264t207 173.5t226 65q70 0 111 -18t79 -56h12l31 78h145l23 -11l-211 -983q50 5 106 20t87 28l30 12l-18 -78q-46 -40 -118 -69t-126 -29q-139 0 -139 153q0 41 8 82h-10q-106 -125 -195.5 -184.5t-199.5 -59.5q-122 0 -189 79t-67 210z M264 301q0 -102 24 -145t101 -43q82 0 171.5 63.5t199.5 181.5l108 519q-38 50 -75.5 74t-100.5 24q-102 0 -202 -97.5t-163 -255t-63 -321.5zM510 1440l92 157l389 -272l-49 -78z" />
<glyph unicode="&#xe1;" d="M68 264q0 168 58 323.5t150 264t207 173.5t226 65q70 0 111 -18t79 -56h12l31 78h145l23 -11l-211 -983q50 5 106 20t87 28l30 12l-18 -78q-46 -40 -118 -69t-126 -29q-139 0 -139 153q0 41 8 82h-10q-106 -125 -195.5 -184.5t-199.5 -59.5q-122 0 -189 79t-67 210z M264 301q0 -102 24 -145t101 -43q82 0 171.5 63.5t199.5 181.5l108 519q-38 50 -75.5 74t-100.5 24q-102 0 -202 -97.5t-163 -255t-63 -321.5zM520 1321l459 276l61 -157l-487 -193z" />
<glyph unicode="&#xe2;" d="M68 264q0 168 58 323.5t150 264t207 173.5t226 65q70 0 111 -18t79 -56h12l31 78h145l23 -11l-211 -983q50 5 106 20t87 28l30 12l-18 -78q-46 -40 -118 -69t-126 -29q-139 0 -139 153q0 41 8 82h-10q-106 -125 -195.5 -184.5t-199.5 -59.5q-122 0 -189 79t-67 210z M264 301q0 -102 24 -145t101 -43q82 0 171.5 63.5t199.5 181.5l108 519q-38 50 -75.5 74t-100.5 24q-102 0 -202 -97.5t-163 -255t-63 -321.5zM395 1276l328 299h100l219 -299l-51 -62l-237 197l-320 -197z" />
<glyph unicode="&#xe3;" d="M68 264q0 168 58 323.5t150 264t207 173.5t226 65q70 0 111 -18t79 -56h12l31 78h145l23 -11l-211 -983q50 5 106 20t87 28l30 12l-18 -78q-46 -40 -118 -69t-126 -29q-139 0 -139 153q0 41 8 82h-10q-106 -125 -195.5 -184.5t-199.5 -59.5q-122 0 -189 79t-67 210z M264 301q0 -102 24 -145t101 -43q82 0 171.5 63.5t199.5 181.5l108 519q-38 50 -75.5 74t-100.5 24q-102 0 -202 -97.5t-163 -255t-63 -321.5zM393 1319q113 215 252 215q50 0 141.5 -44t116.5 -44q75 0 150 108l82 -38q-117 -220 -252 -220q-50 0 -141.5 44t-116.5 44 q-76 0 -150 -104z" />
<glyph unicode="&#xe4;" d="M68 264q0 168 58 323.5t150 264t207 173.5t226 65q70 0 111 -18t79 -56h12l31 78h145l23 -11l-211 -983q50 5 106 20t87 28l30 12l-18 -78q-46 -40 -118 -69t-126 -29q-139 0 -139 153q0 41 8 82h-10q-106 -125 -195.5 -184.5t-199.5 -59.5q-122 0 -189 79t-67 210z M264 301q0 -102 24 -145t101 -43q82 0 171.5 63.5t199.5 181.5l108 519q-38 50 -75.5 74t-100.5 24q-102 0 -202 -97.5t-163 -255t-63 -321.5zM401 1360q0 48 35 82.5t86 34.5q49 0 81 -33.5t32 -79.5q0 -48 -35 -82.5t-86 -34.5q-49 0 -81 33.5t-32 79.5zM831 1360 q0 48 35 82.5t86 34.5q49 0 81 -33.5t32 -79.5q0 -48 -35 -82.5t-86 -34.5q-49 0 -81 33.5t-32 79.5z" />
<glyph unicode="&#xe5;" d="M68 264q0 168 58 323.5t150 264t207 173.5t226 65q70 0 111 -18t79 -56h12l31 78h145l23 -11l-211 -983q50 5 106 20t87 28l30 12l-18 -78q-46 -40 -118 -69t-126 -29q-139 0 -139 153q0 41 8 82h-10q-106 -125 -195.5 -184.5t-199.5 -59.5q-122 0 -189 79t-67 210z M264 301q0 -102 24 -145t101 -43q82 0 171.5 63.5t199.5 181.5l108 519q-38 50 -75.5 74t-100.5 24q-102 0 -202 -97.5t-163 -255t-63 -321.5zM510 1454q0 100 76.5 173t183.5 73q106 0 177 -69.5t71 -170.5q0 -102 -74.5 -174t-181.5 -72t-179.5 69.5t-72.5 170.5z M616 1456q0 -70 39 -110.5t107 -40.5t109.5 41.5t41.5 111.5q0 69 -39 110.5t-106 41.5q-68 0 -110 -42.5t-42 -111.5z" />
<glyph unicode="&#xe6;" horiz-adv-x="1701" d="M68 264q0 168 58 323.5t150 264t207 173.5t226 65q74 0 112.5 -18t75.5 -68h12l33 90h115l-31 -142q177 162 389 162q140 0 215.5 -69.5t67.5 -174.5q-6 -81 -49 -146.5t-110 -109t-160 -75t-190.5 -48t-211.5 -24.5q-4 -31 -4 -92q0 -141 58 -201.5t171 -60.5 q91 0 168 31t184 96l-22 -105q-173 -160 -408 -160q-135 0 -226.5 75.5t-115.5 215.5h-8q-124 -149 -228 -220t-222 -71q-122 0 -189 79t-67 210zM264 301q0 -102 24 -145t101 -43q82 0 171.5 63.5t199.5 181.5l108 519q-38 50 -75.5 74t-100.5 24q-102 0 -202 -97.5 t-163 -255t-63 -321.5zM995 575q91 6 162 18t134 34t105.5 54t68.5 79t30 108q5 62 -20.5 96.5t-77.5 34.5q-137 0 -247.5 -119.5t-154.5 -304.5z" />
<glyph unicode="&#xe7;" horiz-adv-x="946" d="M47 348q0 158 52 301t138.5 244.5t204 161t244.5 59.5q123 0 189.5 -40.5t66.5 -121.5q0 -23 -11 -58.5t-28 -62.5h-149v154q-51 14 -99 14q-112 0 -206.5 -88t-147.5 -229.5t-53 -300.5q0 -143 53 -205.5t170 -62.5q86 0 158.5 28.5t173.5 91.5l-29 -102 q-171 -154 -379 -156l-30 -114q221 -23 221 -156q0 -47 -20 -81t-71 -62t-148.5 -42t-242.5 -14l13 78q167 4 239 29.5t72 71.5q0 72 -184 86l53 215q-119 27 -184.5 119.5t-65.5 242.5z" />
<glyph unicode="&#xe8;" horiz-adv-x="985" d="M57 367q0 113 32 224t91.5 204.5t137.5 165.5t177 112.5t203 40.5q140 0 215.5 -69.5t67.5 -174.5q-6 -81 -49 -146.5t-110 -109t-160 -75t-190.5 -48t-211.5 -24.5q-4 -31 -4 -92q0 -141 58 -201.5t171 -60.5q91 0 168.5 31t184.5 96l-23 -105q-173 -160 -407 -160 q-158 0 -254.5 103t-96.5 289zM279 575q115 8 199 25.5t152.5 50.5t105.5 87t42 130q5 62 -20.5 96.5t-77.5 34.5q-137 0 -247 -119.5t-154 -304.5zM414 1440l92 157l389 -272l-49 -78z" />
<glyph unicode="&#xe9;" horiz-adv-x="985" d="M57 367q0 113 32 224t91.5 204.5t137.5 165.5t177 112.5t203 40.5q140 0 215.5 -69.5t67.5 -174.5q-6 -81 -49 -146.5t-110 -109t-160 -75t-190.5 -48t-211.5 -24.5q-4 -31 -4 -92q0 -141 58 -201.5t171 -60.5q91 0 168.5 31t184.5 96l-23 -105q-173 -160 -407 -160 q-158 0 -254.5 103t-96.5 289zM279 575q115 8 199 25.5t152.5 50.5t105.5 87t42 130q5 62 -20.5 96.5t-77.5 34.5q-137 0 -247 -119.5t-154 -304.5zM408 1321l458 276l62 -157l-488 -193z" />
<glyph unicode="&#xea;" horiz-adv-x="985" d="M57 367q0 113 32 224t91.5 204.5t137.5 165.5t177 112.5t203 40.5q140 0 215.5 -69.5t67.5 -174.5q-6 -81 -49 -146.5t-110 -109t-160 -75t-190.5 -48t-211.5 -24.5q-4 -31 -4 -92q0 -141 58 -201.5t171 -60.5q91 0 168.5 31t184.5 96l-23 -105q-173 -160 -407 -160 q-158 0 -254.5 103t-96.5 289zM279 575q115 8 199 25.5t152.5 50.5t105.5 87t42 130q5 62 -20.5 96.5t-77.5 34.5q-137 0 -247 -119.5t-154 -304.5zM324 1276l327 299h101l219 -299l-51 -62l-238 197l-320 -197z" />
<glyph unicode="&#xeb;" horiz-adv-x="985" d="M57 367q0 113 32 224t91.5 204.5t137.5 165.5t177 112.5t203 40.5q140 0 215.5 -69.5t67.5 -174.5q-6 -81 -49 -146.5t-110 -109t-160 -75t-190.5 -48t-211.5 -24.5q-4 -31 -4 -92q0 -141 58 -201.5t171 -60.5q91 0 168.5 31t184.5 96l-23 -105q-173 -160 -407 -160 q-158 0 -254.5 103t-96.5 289zM279 575q115 8 199 25.5t152.5 50.5t105.5 87t42 130q5 62 -20.5 96.5t-77.5 34.5q-137 0 -247 -119.5t-154 -304.5zM332 1360q0 48 35 82.5t86 34.5q49 0 80.5 -33.5t31.5 -79.5q0 -48 -35 -82.5t-86 -34.5q-49 0 -80.5 33.5t-31.5 79.5z M762 1360q0 48 35 82.5t86 34.5q49 0 80.5 -33.5t31.5 -79.5q0 -48 -35 -82.5t-86 -34.5q-49 0 -80.5 33.5t-31.5 79.5z" />
<glyph unicode="&#xec;" horiz-adv-x="628" d="M68 901l18 78q54 57 141.5 96t153.5 39q59 0 90 -26.5t31 -90.5q0 -34 -13 -94l-172 -803q50 5 106 20t87 28l31 12l-19 -78q-47 -41 -122 -69.5t-142 -28.5q-127 0 -127 127q0 34 8 67l166 785q-49 -7 -108.5 -22.5t-94.5 -27.5zM182 1440l92 157l390 -272l-50 -78z" />
<glyph unicode="&#xed;" horiz-adv-x="628" d="M68 901l18 78q54 57 141.5 96t153.5 39q59 0 90 -26.5t31 -90.5q0 -34 -13 -94l-172 -803q50 5 106 20t87 28l31 12l-19 -78q-47 -41 -122 -69.5t-142 -28.5q-127 0 -127 127q0 34 8 67l166 785q-49 -7 -108.5 -22.5t-94.5 -27.5zM233 1321l459 276l62 -157l-488 -193z " />
<glyph unicode="&#xee;" horiz-adv-x="628" d="M68 901l18 78q54 57 141.5 96t153.5 39q59 0 90 -26.5t31 -90.5q0 -34 -13 -94l-172 -803q50 5 106 20t87 28l31 12l-19 -78q-47 -41 -122 -69.5t-142 -28.5q-127 0 -127 127q0 34 8 67l166 785q-49 -7 -108.5 -22.5t-94.5 -27.5zM92 1276l328 299h100l219 -299l-51 -62 l-237 197l-320 -197z" />
<glyph unicode="&#xef;" horiz-adv-x="628" d="M68 901l18 78q54 57 141.5 96t153.5 39q59 0 90 -26.5t31 -90.5q0 -34 -13 -94l-172 -803q50 5 106 20t87 28l31 12l-19 -78q-47 -41 -122 -69.5t-142 -28.5q-127 0 -127 127q0 34 8 67l166 785q-49 -7 -108.5 -22.5t-94.5 -27.5zM113 1360q0 48 35 82.5t85 34.5 q49 0 81 -33.5t32 -79.5q0 -48 -35 -82.5t-86 -34.5q-49 0 -80.5 33.5t-31.5 79.5zM543 1360q0 48 35 82.5t86 34.5q49 0 80.5 -33.5t31.5 -79.5q0 -48 -35 -82.5t-86 -34.5q-49 0 -80.5 33.5t-31.5 79.5z" />
<glyph unicode="&#xf0;" horiz-adv-x="1112" d="M68 401q0 202 73 366t199 255.5t278 91.5q98 0 156.5 -34t99.5 -109q-55 215 -184 372l-313 -126l26 120l213 86q-79 76 -176 136l58 83q154 -66 266 -159l319 129l-28 -121l-211 -86q217 -237 217 -604q0 -189 -44.5 -346t-122 -261.5t-182 -161.5t-225.5 -57 q-103 0 -183.5 32.5t-131.5 90.5t-77.5 135t-26.5 168zM264 373q0 -144 56.5 -212.5t179.5 -68.5q101 0 183 78.5t129.5 221.5t47.5 323q0 142 -61 212t-174 70q-57 0 -110 -25.5t-98.5 -77t-79.5 -125t-53.5 -175.5t-19.5 -221z" />
<glyph unicode="&#xf1;" horiz-adv-x="1257" d="M68 901l18 78q54 57 141.5 96t153.5 39q58 0 85.5 -23t27.5 -83q0 -44 -15 -105l-6 -26h12q58 58 100.5 94.5t98 72.5t115 53t125.5 17q196 0 196 -188q0 -46 -12 -105l-154 -721q50 5 106 20t87 28l31 12l-19 -78q-47 -41 -122 -69.5t-142 -28.5q-127 0 -127 125 q0 33 8 69l125 592q12 55 12 94q0 99 -79 99q-170 0 -381 -230l-156 -733h-197l205 963q-49 -7 -108.5 -22.5t-94.5 -27.5zM403 1319q113 215 252 215q50 0 141.5 -44t116.5 -44q75 0 150 108l82 -38q-117 -220 -252 -220q-50 0 -141.5 44t-116.5 44q-76 0 -150 -104z" />
<glyph unicode="&#xf2;" horiz-adv-x="1124" d="M68 410q0 103 25.5 205t76 191t119 157.5t161 108.5t195.5 40q195 0 302.5 -119t107.5 -315q0 -104 -25.5 -206t-76 -191t-119.5 -158t-161.5 -108.5t-195.5 -39.5q-193 0 -301 122t-108 313zM264 389q0 -156 54 -226.5t169 -70.5q89 0 160.5 51t115.5 137t67.5 193.5 t23.5 226.5q0 297 -215 297q-106 0 -193 -85.5t-134.5 -224.5t-47.5 -298zM451 1440l92 157l389 -272l-49 -78z" />
<glyph unicode="&#xf3;" horiz-adv-x="1124" d="M68 410q0 103 25.5 205t76 191t119 157.5t161 108.5t195.5 40q195 0 302.5 -119t107.5 -315q0 -104 -25.5 -206t-76 -191t-119.5 -158t-161.5 -108.5t-195.5 -39.5q-193 0 -301 122t-108 313zM264 389q0 -156 54 -226.5t169 -70.5q89 0 160.5 51t115.5 137t67.5 193.5 t23.5 226.5q0 297 -215 297q-106 0 -193 -85.5t-134.5 -224.5t-47.5 -298zM522 1321l459 276l61 -157l-487 -193z" />
<glyph unicode="&#xf4;" horiz-adv-x="1124" d="M68 410q0 103 25.5 205t76 191t119 157.5t161 108.5t195.5 40q195 0 302.5 -119t107.5 -315q0 -104 -25.5 -206t-76 -191t-119.5 -158t-161.5 -108.5t-195.5 -39.5q-193 0 -301 122t-108 313zM264 389q0 -156 54 -226.5t169 -70.5q89 0 160.5 51t115.5 137t67.5 193.5 t23.5 226.5q0 297 -215 297q-106 0 -193 -85.5t-134.5 -224.5t-47.5 -298zM346 1276l328 299h100l219 -299l-51 -62l-237 197l-320 -197z" />
<glyph unicode="&#xf5;" horiz-adv-x="1124" d="M68 410q0 103 25.5 205t76 191t119 157.5t161 108.5t195.5 40q195 0 302.5 -119t107.5 -315q0 -104 -25.5 -206t-76 -191t-119.5 -158t-161.5 -108.5t-195.5 -39.5q-193 0 -301 122t-108 313zM264 389q0 -156 54 -226.5t169 -70.5q89 0 160.5 51t115.5 137t67.5 193.5 t23.5 226.5q0 297 -215 297q-106 0 -193 -85.5t-134.5 -224.5t-47.5 -298zM334 1319q113 215 252 215q50 0 141.5 -44t116.5 -44q74 0 149 108l82 -38q-117 -220 -252 -220q-50 0 -141.5 44t-116.5 44q-36 0 -71.5 -22t-77.5 -82z" />
<glyph unicode="&#xf6;" horiz-adv-x="1124" d="M68 410q0 103 25.5 205t76 191t119 157.5t161 108.5t195.5 40q195 0 302.5 -119t107.5 -315q0 -104 -25.5 -206t-76 -191t-119.5 -158t-161.5 -108.5t-195.5 -39.5q-193 0 -301 122t-108 313zM264 389q0 -156 54 -226.5t169 -70.5q89 0 160.5 51t115.5 137t67.5 193.5 t23.5 226.5q0 297 -215 297q-106 0 -193 -85.5t-134.5 -224.5t-47.5 -298zM360 1360q0 48 35 82.5t86 34.5q49 0 81 -33.5t32 -79.5q0 -48 -35 -82.5t-86 -34.5q-49 0 -81 33.5t-32 79.5zM791 1360q0 48 35 82.5t85 34.5q49 0 81 -33.5t32 -79.5q0 -48 -35 -82.5t-86 -34.5 q-49 0 -80.5 33.5t-31.5 79.5z" />
<glyph unicode="&#xf7;" horiz-adv-x="1263" d="M160 598v133h964v-133h-964zM506 254q0 55 38.5 93t94.5 38t96.5 -38t40.5 -93q0 -51 -41 -91t-96 -40t-94 39.5t-39 91.5zM506 1073q0 55 38.5 93t94.5 38t96.5 -38t40.5 -93q0 -51 -41 -90t-96 -39t-94 38.5t-39 90.5z" />
<glyph unicode="&#xf8;" horiz-adv-x="1124" d="M8 -86l154 199q-94 117 -94 297q0 103 25.5 205t76 191t119 157.5t161 108.5t195.5 40q135 0 227 -59l82 104h148l-141 -180q94 -117 94 -299q0 -104 -25.5 -206t-76 -191t-119.5 -158t-161.5 -108.5t-195.5 -39.5q-128 0 -227 60l-94 -121h-148zM260 389q0 -88 14 -145 l525 696q-51 57 -160 57q-106 0 -194 -85.5t-136.5 -224.5t-48.5 -298zM326 143q54 -51 161 -51q89 0 161 51t117 137t69 193.5t24 226.5q0 76 -12 134z" />
<glyph unicode="&#xf9;" horiz-adv-x="1216" d="M47 901l19 78q54 57 141 96t153 39q57 0 84 -24t27 -84q0 -42 -12 -103l-125 -586q-10 -55 -10 -86q0 -106 94 -106q85 0 167 52t181 157l164 760h196l-213 -994q50 5 106 20t87 28l31 12l-19 -78q-48 -42 -118 -70t-136 -28q-127 0 -127 122q0 36 8 72l5 23h-13 q-5 -5 -41.5 -39.5t-42.5 -39.5t-37 -32.5t-41.5 -33t-38 -24.5t-44 -23.5t-43 -14t-51.5 -12t-54 -2.5q-100 0 -159.5 58t-59.5 169q0 52 10 96l139 658q-48 -7 -105 -22t-89 -27zM477 1440l92 157l389 -272l-49 -78z" />
<glyph unicode="&#xfa;" horiz-adv-x="1216" d="M47 901l19 78q54 57 141 96t153 39q57 0 84 -24t27 -84q0 -42 -12 -103l-125 -586q-10 -55 -10 -86q0 -106 94 -106q85 0 167 52t181 157l164 760h196l-213 -994q50 5 106 20t87 28l31 12l-19 -78q-48 -42 -118 -70t-136 -28q-127 0 -127 122q0 36 8 72l5 23h-13 q-5 -5 -41.5 -39.5t-42.5 -39.5t-37 -32.5t-41.5 -33t-38 -24.5t-44 -23.5t-43 -14t-51.5 -12t-54 -2.5q-100 0 -159.5 58t-59.5 169q0 52 10 96l139 658q-48 -7 -105 -22t-89 -27zM528 1321l459 276l62 -157l-488 -193z" />
<glyph unicode="&#xfb;" horiz-adv-x="1216" d="M47 901l19 78q54 57 141 96t153 39q57 0 84 -24t27 -84q0 -42 -12 -103l-125 -586q-10 -55 -10 -86q0 -106 94 -106q85 0 167 52t181 157l164 760h196l-213 -994q50 5 106 20t87 28l31 12l-19 -78q-48 -42 -118 -70t-136 -28q-127 0 -127 122q0 36 8 72l5 23h-13 q-5 -5 -41.5 -39.5t-42.5 -39.5t-37 -32.5t-41.5 -33t-38 -24.5t-44 -23.5t-43 -14t-51.5 -12t-54 -2.5q-100 0 -159.5 58t-59.5 169q0 52 10 96l139 658q-48 -7 -105 -22t-89 -27zM403 1276l328 299h100l220 -299l-52 -62l-237 197l-320 -197z" />
<glyph unicode="&#xfc;" horiz-adv-x="1216" d="M47 901l19 78q54 57 141 96t153 39q57 0 84 -24t27 -84q0 -42 -12 -103l-125 -586q-10 -55 -10 -86q0 -106 94 -106q85 0 167 52t181 157l164 760h196l-213 -994q50 5 106 20t87 28l31 12l-19 -78q-48 -42 -118 -70t-136 -28q-127 0 -127 122q0 36 8 72l5 23h-13 q-5 -5 -41.5 -39.5t-42.5 -39.5t-37 -32.5t-41.5 -33t-38 -24.5t-44 -23.5t-43 -14t-51.5 -12t-54 -2.5q-100 0 -159.5 58t-59.5 169q0 52 10 96l139 658q-48 -7 -105 -22t-89 -27zM410 1360q0 48 35 82.5t85 34.5q49 0 81 -33.5t32 -79.5q0 -48 -35 -82.5t-86 -34.5 q-49 0 -80.5 33.5t-31.5 79.5zM840 1360q0 48 35 82.5t86 34.5q49 0 80.5 -33.5t31.5 -79.5q0 -48 -35 -82.5t-86 -34.5q-49 0 -80.5 33.5t-31.5 79.5z" />
<glyph unicode="&#xfd;" horiz-adv-x="1126" d="M-119 -375l25 109q3 -1 20 -6.5t21 -7t18.5 -5t22.5 -4.5t21.5 -2.5t27.5 -1.5q76 0 124.5 10.5t110 53.5t129.5 127q-8 273 -46 562.5t-81 495.5q-48 -9 -101.5 -22.5t-82.5 -23.5l-29 -9l17 78q65 57 141 96t135 39q20 0 33.5 -3t32 -13t32 -35.5t21.5 -65.5 q49 -234 74 -598q6 -65 6 -149q0 -96 -10 -172h10q102 221 145 307q81 166 126.5 286t80.5 273h-90l23 121q48 51 110 51q66 0 104 -34.5t38 -104.5q0 -104 -134.5 -366.5t-328.5 -569.5q-87 -138 -151.5 -224t-132.5 -148t-136 -87.5t-150 -25.5q-93 0 -176 69zM459 1321 l459 276l61 -157l-487 -193z" />
<glyph unicode="&#xfe;" horiz-adv-x="1175" d="M-160 -444l10 71l168 31l332 1806l-155 33l16 82l340 49l24 -10l-135 -698h11q86 91 173.5 142.5t192.5 51.5q128 0 207.5 -92.5t79.5 -282.5q0 -146 -45.5 -284t-125.5 -244.5t-199 -171t-255 -64.5q-50 0 -92.5 9t-57.5 16t-50 25l-64 -363l180 -35l-10 -71h-545z M305 174q28 -39 71 -62.5t124 -23.5q98 0 177.5 60.5t126.5 156t72 204t25 214.5q0 130 -41 185t-123 55q-87 0 -159.5 -42.5t-161.5 -121.5z" />
<glyph unicode="&#xff;" horiz-adv-x="1126" d="M-119 -375l25 109q3 -1 20 -6.5t21 -7t18.5 -5t22.5 -4.5t21.5 -2.5t27.5 -1.5q76 0 124.5 10.5t110 53.5t129.5 127q-8 273 -46 562.5t-81 495.5q-48 -9 -101.5 -22.5t-82.5 -23.5l-29 -9l17 78q65 57 141 96t135 39q20 0 33.5 -3t32 -13t32 -35.5t21.5 -65.5 q49 -234 74 -598q6 -65 6 -149q0 -96 -10 -172h10q102 221 145 307q81 166 126.5 286t80.5 273h-90l23 121q48 51 110 51q66 0 104 -34.5t38 -104.5q0 -104 -134.5 -366.5t-328.5 -569.5q-87 -138 -151.5 -224t-132.5 -148t-136 -87.5t-150 -25.5q-93 0 -176 69zM358 1360 q0 48 35 82.5t86 34.5q49 0 81 -33.5t32 -79.5q0 -48 -35 -82.5t-86 -34.5q-49 0 -81 33.5t-32 79.5zM788 1360q0 48 35 82.5t86 34.5q49 0 81 -33.5t32 -79.5q0 -48 -35 -82.5t-86 -34.5q-49 0 -81 33.5t-32 79.5z" />
<glyph unicode="&#x152;" horiz-adv-x="2019" d="M88 565q0 207 63 379t174.5 288.5t266 180.5t334.5 64h1083l-20 -367h-105l-61 250h-482l-96 -545h260l90 203h93l-78 -516h-92l-27 205h-266l-105 -590h537l164 309h104l-98 -426h-1077q-335 0 -498.5 151t-163.5 414zM311 524q0 -115 30.5 -195.5t90.5 -126t138 -65.5 t184 -20h151l221 1243h-215q-293 0 -446.5 -214t-153.5 -622z" />
<glyph unicode="&#x153;" horiz-adv-x="1753" d="M68 410q0 103 25.5 205t76 191t119 157.5t161 108.5t195.5 40q145 0 235.5 -67.5t125.5 -188.5q86 120 204.5 189t255.5 69q140 0 215.5 -69.5t67.5 -174.5q-6 -81 -49 -146.5t-110 -109t-160 -75t-190.5 -48t-211.5 -24.5q-4 -31 -4 -92q0 -141 58 -201.5t171 -60.5 q91 0 168.5 31t184.5 96l-23 -105q-173 -160 -407 -160q-114 0 -191.5 53t-110.5 156q-72 -98 -173 -153.5t-224 -55.5q-193 0 -301 122t-108 313zM264 389q0 -156 54 -226.5t169 -70.5q89 0 160.5 51t115.5 137t67.5 193.5t23.5 226.5q0 297 -215 297q-106 0 -193 -85.5 t-134.5 -224.5t-47.5 -298zM1047 575q115 8 199 25.5t152.5 50.5t105.5 87t42 130q5 62 -20.5 96.5t-77.5 34.5q-137 0 -247 -119.5t-154 -304.5z" />
<glyph unicode="&#x178;" horiz-adv-x="1357" d="M164 1389l16 88h506l-16 -88l-154 -41l238 -594h8l422 594l-152 41l17 88h440l-16 -88l-136 -41l-530 -713l-90 -508l178 -39l-14 -88h-590l14 88l197 39l90 512l-303 709zM549 1708q0 48 35 82.5t86 34.5q49 0 80.5 -33.5t31.5 -79.5q0 -48 -35 -82.5t-85 -34.5 q-49 0 -81 33.5t-32 79.5zM979 1708q0 48 35 82.5t86 34.5q49 0 80.5 -33.5t31.5 -79.5q0 -48 -35 -82.5t-85 -34.5q-49 0 -81 33.5t-32 79.5z" />
<glyph unicode="&#x2c6;" horiz-adv-x="1024" d="M307 1276l328 299h100l219 -299l-51 -62l-237 197l-320 -197z" />
<glyph unicode="&#x2dc;" horiz-adv-x="1024" d="M285 1319q113 215 252 215q50 0 141.5 -44t116.5 -44q74 0 149 108l82 -38q-117 -220 -252 -220q-50 0 -141.5 44t-116.5 44q-36 0 -71.5 -22t-77.5 -82z" />
<glyph unicode="&#x2000;" horiz-adv-x="1024" />
<glyph unicode="&#x2001;" horiz-adv-x="2048" />
<glyph unicode="&#x2002;" horiz-adv-x="1024" />
<glyph unicode="&#x2003;" horiz-adv-x="2048" />
<glyph unicode="&#x2004;" horiz-adv-x="682" />
<glyph unicode="&#x2005;" horiz-adv-x="512" />
<glyph unicode="&#x2006;" horiz-adv-x="341" />
<glyph unicode="&#x2007;" horiz-adv-x="341" />
<glyph unicode="&#x2008;" horiz-adv-x="256" />
<glyph unicode="&#x2009;" horiz-adv-x="409" />
<glyph unicode="&#x200a;" horiz-adv-x="113" />
<glyph unicode="&#x2010;" horiz-adv-x="739" d="M109 528l34 166h514l-34 -166h-514z" />
<glyph unicode="&#x2011;" horiz-adv-x="739" d="M109 528l34 166h514l-34 -166h-514z" />
<glyph unicode="&#x2012;" horiz-adv-x="739" d="M109 528l34 166h514l-34 -166h-514z" />
<glyph unicode="&#x2013;" horiz-adv-x="933" d="M102 555l27 133h709l-27 -133h-709z" />
<glyph unicode="&#x2014;" horiz-adv-x="1536" d="M102 555l27 133h1311l-27 -133h-1311z" />
<glyph unicode="&#x2018;" horiz-adv-x="638" d="M217 1071q0 63 23 124.5t71 122t135.5 110.5t204.5 79l21 -71q-155 -62 -228 -145t-94 -191q24 43 82 43q47 0 76 -31t29 -78q0 -63 -47.5 -102t-110.5 -39q-69 0 -115.5 49t-46.5 129z" />
<glyph unicode="&#x2019;" horiz-adv-x="638" d="M176 958q155 62 228 145t94 191q-24 -43 -82 -43q-47 0 -76 31t-29 78q0 63 47.5 102t110.5 39q69 0 115.5 -49t46.5 -129q0 -63 -23 -124.5t-71 -122t-135.5 -110.5t-204.5 -79z" />
<glyph unicode="&#x201a;" horiz-adv-x="636" d="M-55 -193q155 62 227.5 145t93.5 191q-24 -43 -82 -43q-46 0 -75 31t-29 78q0 63 47.5 102t110.5 39q69 0 115 -49t46 -129q0 -63 -23 -124.5t-71 -122t-135.5 -110.5t-204.5 -79z" />
<glyph unicode="&#x201c;" horiz-adv-x="1103" d="M217 1071q0 63 23 124.5t71 122t135.5 110.5t204.5 79l21 -71q-155 -62 -228 -145t-94 -191q24 43 82 43q47 0 76 -31t29 -78q0 -63 -47.5 -102t-110.5 -39q-69 0 -115.5 49t-46.5 129zM682 1071q0 63 23 124.5t71 122t135.5 110.5t204.5 79l21 -71q-155 -62 -228 -145 t-94 -191q24 43 82 43q46 0 75 -31t29 -78q0 -63 -47 -102t-110 -39q-69 0 -115.5 49t-46.5 129z" />
<glyph unicode="&#x201d;" horiz-adv-x="1103" d="M176 958q155 62 228 145t94 191q-24 -43 -82 -43q-47 0 -76 31t-29 78q0 63 47.5 102t110.5 39q69 0 115.5 -49t46.5 -129q0 -63 -23 -124.5t-71 -122t-135.5 -110.5t-204.5 -79zM641 958q155 62 228 145t94 191q-24 -43 -82 -43q-47 0 -76 31t-29 78q0 63 47.5 102 t110.5 39q69 0 115.5 -49t46.5 -129q0 -63 -23 -124.5t-71 -122t-135.5 -110.5t-204.5 -79z" />
<glyph unicode="&#x201e;" horiz-adv-x="1101" d="M-55 -193q155 62 227.5 145t93.5 191q-24 -43 -82 -43q-46 0 -75 31t-29 78q0 63 47.5 102t110.5 39q69 0 115 -49t46 -129q0 -63 -23 -124.5t-71 -122t-135.5 -110.5t-204.5 -79zM410 -193q155 62 227.5 145t93.5 191q-24 -43 -82 -43q-46 0 -75 31t-29 78q0 63 47 102 t110 39q69 0 115.5 -49t46.5 -129q0 -63 -23 -124.5t-71 -122t-135.5 -110.5t-204.5 -79z" />
<glyph unicode="&#x2022;" horiz-adv-x="1800" d="M100 760q0 215 107 396.5t291 287.5t401 106q162 0 310.5 -62.5t256.5 -168.5t172 -252.5t64 -306.5q0 -161 -64 -308t-172 -253.5t-256.5 -170t-310.5 -63.5q-163 0 -311 63.5t-255 170t-170 253.5t-63 308z" />
<glyph unicode="&#x2026;" horiz-adv-x="1835" d="M76 113q0 68 47.5 112.5t114.5 44.5q66 0 109.5 -43t43.5 -106q0 -68 -47.5 -113t-114.5 -45q-66 0 -109.5 43.5t-43.5 106.5zM674 113q0 68 47.5 112.5t114.5 44.5q66 0 109.5 -43t43.5 -106q0 -68 -47.5 -113t-114.5 -45q-66 0 -109.5 43.5t-43.5 106.5zM1272 113 q0 68 47.5 112.5t114.5 44.5q66 0 109.5 -43t43.5 -106q0 -68 -47.5 -113t-114.5 -45q-66 0 -109.5 43.5t-43.5 106.5z" />
<glyph unicode="&#x202f;" horiz-adv-x="409" />
<glyph unicode="&#x2039;" horiz-adv-x="618" d="M76 518l12 62l395 440h135l-352 -483l135 -482h-122z" />
<glyph unicode="&#x203a;" horiz-adv-x="618" d="M-23 55l353 484l-135 481h122l203 -463l-12 -61l-395 -441h-136z" />
<glyph unicode="&#x205f;" horiz-adv-x="512" />
<glyph unicode="&#x20ac;" horiz-adv-x="1325" d="M70 477l18 107h172q3 90 23 190h-162l18 107h172q81 245 264 379.5t402 134.5q340 0 340 -215q0 -53 -51 -123h-168v188q-61 37 -140 37q-162 0 -274.5 -109t-169.5 -292h461l-19 -107h-471q-18 -90 -24 -190h463l-19 -107h-446q9 -368 399 -368q141 0 303 61l-14 -90 q-61 -43 -152.5 -74t-191.5 -31q-249 0 -387.5 128t-153.5 374h-192z" />
<glyph unicode="&#x2122;" horiz-adv-x="2166" d="M213 1196l72 281h733l-41 -281h-100l-11 190h-147l-133 -626l104 -21l-16 -75h-385l16 75l111 21l133 626h-143l-93 -190h-100zM985 664l16 75l109 21l131 616l-100 25l16 76h330l45 -277q9 -57 16.5 -136.5t11.5 -129.5l3 -51h10q84 190 156 311l167 283h357l-17 -76 l-120 -25l-131 -614l112 -23l-16 -75h-371l16 75l93 23l65 311q13 59 34 142t36 137l14 53h-10q-100 -193 -176 -320l-230 -385h-98l-57 385q-9 56 -17.5 136t-13.5 132l-4 52h-10q-31 -199 -60 -332l-65 -311l90 -23l-17 -75h-315z" />
<glyph unicode="&#xe000;" horiz-adv-x="1116" d="M0 0v1116h1116v-1116h-1116z" />
</font>
</defs>
</svg>
