<?xml version="1.0" standalone="no"?>
<!DOCTYPE svg PUBLIC "-//W3C//DTD SVG 1.1//EN" "http://www.w3.org/Graphics/SVG/1.1/DTD/svg11.dtd" >
<svg xmlns="http://www.w3.org/2000/svg">
<metadata></metadata>
<defs>
<font id="WT1WebTextRegular" horiz-adv-x="1214" >
<font-face units-per-em="2048" ascent="1638" descent="-410" />
<missing-glyph horiz-adv-x="475" />
<glyph unicode="&#xfb01;" horiz-adv-x="1306" d="M57 0v72l160 34v861h-154v86l154 53v145q0 92 35.5 166t98 120.5t144 71.5t175.5 25q206 0 284 -32v-238h-118l-37 143q-51 15 -105 15q-280 0 -280 -283v-145h536l109 16l22 -12v-992l162 -34v-72h-516v72l158 34v861h-471v-861l157 -34v-72h-514z" />
<glyph unicode="&#xfb02;" horiz-adv-x="1296" d="M57 0v72l160 34v861h-154v86l154 53v145q0 184 127.5 283.5t333.5 99.5q172 0 297 -67l82 65l24 -12v-1514l162 -34v-72h-516v72l158 34v1336q-52 41 -99 60.5t-124 19.5q-248 0 -248 -283v-145h291v-127h-291v-861l157 -34v-72h-514z" />
<glyph unicode="&#xfb03;" horiz-adv-x="1974" d="M57 0v72l160 34v861h-154v86l154 53v121q0 184 127.5 283.5t333.5 99.5q171 0 321 -86q125 110 338 110q207 0 285 -32v-238h-119l-37 143q-51 15 -104 15q-281 0 -281 -283v-145h537l108 16l23 -12v-992l162 -34v-72h-516v72l157 34v861h-471v-861l158 -34v-72h-512v72 l158 34v861h-471v-861l157 -34v-72h-514zM414 1094h471v157q0 83 28 150q-57 51 -113.5 73.5t-137.5 22.5q-248 0 -248 -283v-120z" />
<glyph unicode="&#xfb04;" horiz-adv-x="1964" d="M57 0v72l160 34v861h-154v86l154 53v121q0 184 127.5 283.5t333.5 99.5q176 0 321 -86q122 110 347 110q171 0 296 -67l82 65l25 -12v-1514l162 -34v-72h-516v72l157 34v1336q-52 41 -99 60.5t-124 19.5q-248 0 -248 -283v-145h291v-127h-291v-861l158 -34v-72h-514v72 l160 34v861h-471v-861l157 -34v-72h-514zM414 1094h471v157q0 90 26 152q-56 49 -113 71.5t-136 22.5q-248 0 -248 -283v-120z" />
<glyph horiz-adv-x="0" />
<glyph horiz-adv-x="2048" />
<glyph unicode=" "  horiz-adv-x="475" />
<glyph unicode="&#x09;" horiz-adv-x="475" />
<glyph unicode="&#xa0;" horiz-adv-x="475" />
<glyph unicode="!" horiz-adv-x="532" d="M137 104q0 53 37.5 90t91.5 37t92.5 -37.5t38.5 -89.5t-38.5 -90.5t-92.5 -38.5q-53 0 -91 38.5t-38 90.5zM150 1477h225l-53 -1067h-119z" />
<glyph unicode="&#x22;" horiz-adv-x="1087" d="M90 956q148 71 204.5 147t61.5 179q-29 -29 -84 -29q-49 0 -81.5 32t-32.5 89q0 59 42 93t107 34q75 0 127.5 -57.5t52.5 -165.5q0 -275 -366 -395zM557 956q148 71 204.5 147t61.5 179q-29 -29 -84 -29q-49 0 -81.5 32t-32.5 89q0 59 42 93t107 34q75 0 127.5 -57.5 t52.5 -165.5q0 -275 -366 -395z" />
<glyph unicode="#" horiz-adv-x="1155" d="M96 383v160h197l49 307h-178v160h203l57 360h129l-57 -360h262l57 360h129l-57 -360h172v-160h-197l-49 -307h178v-160h-203l-59 -383h-129l59 383h-262l-59 -383h-129l59 383h-172zM422 532h262l51 328h-262z" />
<glyph unicode="$" horiz-adv-x="1099" d="M92 348h98l68 -201q75 -41 166 -55l53 551l-74 31q-65 26 -114 56t-92.5 72t-67 100.5t-23.5 129.5q0 161 112 260.5t331 102.5l20 198h123l-20 -204q39 -4 78 -12t62 -15t57 -17.5t44 -13.5l15 -266h-99l-55 174q-77 31 -115 39l-49 -490l49 -18q60 -24 104 -45.5 t91.5 -55t77.5 -71.5t49.5 -92t19.5 -119q0 -85 -26.5 -156t-81.5 -127.5t-147.5 -89.5t-215.5 -37l-24 -268h-123l27 271q-166 11 -304 63zM279 1075q0 -91 44.5 -140t165.5 -97l7 -4l45 454q-119 0 -190.5 -56.5t-71.5 -156.5zM541 84q139 4 207.5 72t68.5 178 q0 99 -51.5 154t-173.5 108z" />
<glyph unicode="%" horiz-adv-x="1845" d="M82 975q0 179 99 278t245 99q92 0 168.5 -40.5t125 -126t48.5 -202.5q0 -175 -98 -274t-246 -99q-149 0 -245.5 96.5t-96.5 268.5zM254 983q0 -274 170 -274q88 0 129 66t41 200q0 282 -168 282q-90 0 -131 -69t-41 -205zM348 -63l989 1433h148l-989 -1433h-148z M1077 344q0 179 99.5 279t244.5 100q144 0 243 -97.5t99 -271.5q0 -176 -97.5 -274t-246.5 -98q-148 0 -245 95t-97 267zM1249 354q0 -276 170 -276q89 0 129.5 65.5t40.5 200.5q0 283 -168 283q-172 0 -172 -273z" />
<glyph unicode="&#x26;" horiz-adv-x="1478" d="M66 373q0 140 87.5 239.5t262.5 196.5q-66 86 -99.5 161t-33.5 163q0 167 113 267.5t278 100.5q143 0 242.5 -78.5t99.5 -212.5q0 -68 -25.5 -127t-76 -109t-106 -89t-134.5 -82l370 -430q90 140 121 295l-157 43v88h446v-86l-147 -43q-49 -204 -185 -387l133 -156 l181 -39v-88h-332l-119 137q-197 -162 -432 -162q-217 0 -352 110t-135 288zM285 395q0 -128 84.5 -210.5t228.5 -82.5q171 0 315 121l-430 504q-101 -68 -149.5 -146.5t-48.5 -185.5zM479 1159q0 -77 31 -138.5t98 -139.5q113 68 164 142t51 179q0 86 -43 133t-116 47 q-83 0 -134 -61t-51 -162z" />
<glyph unicode="'" horiz-adv-x="620" d="M90 956q148 71 204.5 147t61.5 179q-29 -29 -84 -29q-49 0 -81.5 32t-32.5 89q0 59 42 93t107 34q75 0 127.5 -57.5t52.5 -165.5q0 -275 -366 -395z" />
<glyph unicode="(" horiz-adv-x="718" d="M106 643q0 128 31 251.5t78.5 221t115 190t131.5 158t136 125.5l68 -63q-151 -167 -247.5 -385t-96.5 -455q0 -160 27 -301t77 -254t107.5 -200.5t132.5 -168.5l-68 -65q-77 64 -136.5 122t-130 149t-116.5 184.5t-77.5 222t-31.5 268.5z" />
<glyph unicode=")" horiz-adv-x="718" d="M53 -238q151 165 247.5 383t96.5 455q0 161 -27 302t-77 254t-107.5 200t-132.5 170l70 63q77 -64 136.5 -122t129 -149t115.5 -184.5t77 -222t31 -268.5q0 -128 -30.5 -251.5t-78 -221t-114.5 -189.5t-130.5 -158t-135.5 -126z" />
<glyph unicode="*" horiz-adv-x="956" d="M115 989l315 117l-315 117l84 141l254 -215l-62 328h174l-61 -326l254 213l84 -141l-318 -117l318 -117l-84 -141l-254 217l61 -328h-174l62 328l-254 -217z" />
<glyph unicode="+" horiz-adv-x="1263" d="M150 598v133h411v422h141v-422h412v-133h-412v-422h-141v422h-411z" />
<glyph unicode="," horiz-adv-x="638" d="M84 -274q148 71 211.5 145.5t69.5 171.5q-30 -35 -91 -35q-48 0 -84 35.5t-36 93.5q0 59 44 96t111 37q81 0 135 -58t54 -165q0 -54 -17 -105t-57.5 -104.5t-118.5 -102t-188 -83.5z" />
<glyph unicode="-" horiz-adv-x="739" d="M113 528v166h514v-166h-514z" />
<glyph unicode="." horiz-adv-x="638" d="M162 117q0 66 45.5 109.5t111.5 43.5q67 0 112.5 -43.5t45.5 -109.5t-46 -110t-112 -44t-111.5 44t-45.5 110z" />
<glyph unicode="/" horiz-adv-x="768" d="M35 -256l516 1817h139l-516 -1817h-139z" />
<glyph unicode="0" horiz-adv-x="1296" d="M102 621q0 169 42.5 299t117.5 209t172.5 119t212.5 40q114 0 210.5 -38t172.5 -114.5t119 -204.5t43 -296q0 -167 -40.5 -295.5t-113.5 -208.5t-170.5 -120t-216.5 -40q-120 0 -218.5 39t-173 116.5t-116 203.5t-41.5 291zM315 635q0 -276 82.5 -410.5t253.5 -134.5 q172 0 250 125.5t78 405.5q0 278 -81 414t-251 136q-171 0 -251.5 -130.5t-80.5 -405.5z" />
<glyph unicode="1" horiz-adv-x="890" d="M90 1051v79l432 152h58v-1165l251 -35v-82h-720v82l254 35v956z" />
<glyph unicode="2" horiz-adv-x="1069" d="M41 0v96l346 297q168 143 257 263.5t89 230.5q0 127 -70.5 201.5t-207.5 74.5q-82 0 -179 -22l-57 -217h-119v290q80 31 193.5 52.5t220.5 21.5q203 0 320.5 -97t117.5 -280q0 -47 -12.5 -92.5t-31.5 -84t-56 -83t-70.5 -79t-92 -83.5t-103.5 -83.5t-121 -92.5l-193 -145 v-4h717l-18 -164h-930z" />
<glyph unicode="3" horiz-adv-x="1073" d="M53 -41q180 -63 348 -63q165 0 265 76.5t100 211.5q0 168 -84.5 234.5t-275.5 66.5h-95v123h78q158 0 248 76t90 207q0 133 -68.5 205.5t-209.5 72.5q-85 0 -150 -12l-59 -219h-119v291q194 59 377 59q205 0 317.5 -96t112.5 -272q0 -131 -79.5 -225.5t-219.5 -131.5v-8 q344 -59 344 -375q0 -190 -138 -303t-370 -113q-233 0 -412 99v96z" />
<glyph unicode="4" horiz-adv-x="1267" d="M55 190v119l711 955h160v-945h241v-129h-241v-403h-201v403h-670zM215 319h510v676h-10l-500 -669v-7z" />
<glyph unicode="5" horiz-adv-x="1085" d="M70 -41q101 -34 171 -49.5t152 -15.5q171 0 277 89.5t106 247.5q0 172 -90.5 252t-284.5 80q-29 0 -66 -3.5t-59 -6.5t-64.5 -10t-51.5 -8l57 729h721l-18 -170h-584l-33 -412q94 20 193 20q240 0 364.5 -120.5t124.5 -331.5q0 -220 -151 -353t-392 -133q-192 0 -372 99 v96z" />
<glyph unicode="6" horiz-adv-x="1204" d="M94 664q0 173 38 315t103 237.5t152.5 161t184 94.5t200.5 29q190 0 299 -71v-99q-105 43 -270 43q-74 0 -138 -16.5t-126.5 -59t-109 -108t-79.5 -169.5t-43 -239q176 123 381 123q187 0 307.5 -118.5t120.5 -323.5q0 -138 -57.5 -248.5t-171.5 -177t-267 -66.5 q-245 0 -384.5 187.5t-139.5 505.5zM303 647q0 -561 313 -561q144 0 215.5 95t71.5 261q0 170 -78 253t-211 83q-175 0 -311 -98v-33z" />
<glyph unicode="7" horiz-adv-x="1064" d="M51 930l19 334h929v-148l-555 -1329h-225l655 1296v11h-671l-62 -164h-90z" />
<glyph unicode="8" horiz-adv-x="1251" d="M106 362q0 138 97.5 238.5t234.5 147.5v10q-141 65 -205.5 152t-64.5 214q0 160 123 268.5t323 108.5q209 0 336 -93.5t127 -260.5q0 -70 -22 -127t-63 -99t-88.5 -71.5t-108.5 -54.5v-11q175 -70 261.5 -161.5t86.5 -231.5q0 -186 -133 -303t-379 -117 q-244 0 -384.5 103.5t-140.5 287.5zM289 373q0 -137 86 -213t250 -76q162 0 244.5 72t82.5 198q0 38 -9.5 70.5t-24.5 58.5t-44.5 51t-58.5 43.5t-78 41t-92 39.5t-110 42q-246 -105 -246 -327zM346 1157q0 -62 20.5 -109t66.5 -84t106 -65t153 -59q100 50 153.5 119 t53.5 176q0 87 -41.5 146.5t-103 84.5t-136.5 25q-121 0 -196.5 -66t-75.5 -168z" />
<glyph unicode="9" horiz-adv-x="1204" d="M92 799q0 138 57 248t170.5 175.5t266.5 65.5q246 0 386 -186.5t140 -505.5q0 -174 -34.5 -314.5t-95 -237.5t-146.5 -162t-186 -94.5t-216 -29.5q-191 0 -299 74v98q94 -43 268 -43q81 0 148 16.5t128.5 58t106 108t75 170t40.5 239.5q-176 -123 -381 -123 q-188 0 -308 118.5t-120 324.5zM303 817q0 -168 78 -251t209 -83q175 0 313 99v32q0 562 -315 562q-143 0 -214 -96.5t-71 -262.5z" />
<glyph unicode=":" horiz-adv-x="659" d="M172 117q0 66 45.5 109.5t112.5 43.5q66 0 111.5 -43.5t45.5 -109.5t-45.5 -110t-111.5 -44t-112 44t-46 110zM172 776q0 66 46 110t112 44t111.5 -44t45.5 -110t-45.5 -109.5t-111.5 -43.5q-67 0 -112.5 43.5t-45.5 109.5z" />
<glyph unicode=";" horiz-adv-x="659" d="M94 -274q148 71 211.5 145.5t69.5 171.5q-30 -35 -90 -35q-48 0 -84.5 36t-36.5 93q0 59 44 96t111 37q81 0 135 -58t54 -165q0 -54 -17 -105t-57.5 -104.5t-118.5 -102t-188 -83.5zM172 776q0 66 46 110t112 44t111.5 -44t45.5 -110t-45.5 -109.5t-111.5 -43.5 q-67 0 -112.5 43.5t-45.5 109.5z" />
<glyph unicode="&#x3c;" horiz-adv-x="1200" d="M156 608v109l866 413v-149l-694 -317l694 -320v-151z" />
<glyph unicode="=" horiz-adv-x="1220" d="M156 344v131h909v-131h-909zM156 725v133h909v-133h-909z" />
<glyph unicode="&#x3e;" horiz-adv-x="1200" d="M178 193v149l694 317l-694 320v151l866 -415v-109z" />
<glyph unicode="?" horiz-adv-x="927" d="M76 1212v230q156 59 342 59q87 0 160.5 -21t131.5 -63t91 -113t33 -163q0 -70 -15.5 -124t-52 -100.5t-81.5 -83t-118 -83.5q-12 -8 -42 -26.5t-41 -26t-31.5 -24.5t-28.5 -31t-15.5 -35t-7.5 -46q0 -53 23 -151h-107q-41 100 -41 178q0 27 5.5 50.5t11.5 41.5t23.5 40 t28.5 35t40.5 37.5t44.5 36.5t55 43q80 61 112 115.5t32 149.5q0 122 -72 184.5t-211 62.5q-44 0 -106 -8l-45 -164h-119zM242 104q0 53 37.5 90t91.5 37t92.5 -37.5t38.5 -89.5t-39 -90.5t-92 -38.5t-91 38.5t-38 90.5z" />
<glyph unicode="@" horiz-adv-x="1966" d="M115 449q0 160 43.5 309t128 274t199.5 218.5t267 145.5t322 52q234 0 409 -88.5t271 -258.5t96 -401q0 -135 -42.5 -249t-115.5 -190t-170.5 -118.5t-207.5 -42.5q-189 0 -221 127h-7q-112 -112 -245 -112q-112 0 -182 76t-70 219q0 150 54 279.5t158.5 211.5t237.5 82 q53 0 95.5 -11.5t62.5 -22.5t57 -36l45 52h95l-127 -652q-22 -104 75 -104q160 0 265.5 128.5t105.5 356.5q0 308 -165.5 477.5t-477.5 169.5q-153 0 -284 -46t-227.5 -128t-165 -193t-102.5 -244t-34 -279q0 -670 725 -670q272 0 496 78v-95q-206 -94 -496 -94 q-418 0 -643 205t-225 574zM776 406q0 -92 32 -135.5t101 -43.5q88 0 178 82l97 494q-41 76 -146 76q-88 0 -149 -70.5t-87 -174.5t-26 -228z" />
<glyph unicode="A" horiz-adv-x="1449" d="M18 0v90l150 37l477 1350h176l463 -1350l148 -37v-90h-551v88l170 39l-111 340h-506l-117 -340l172 -39v-88h-471zM471 575h434l-119 369q-18 57 -39 138.5t-33 134.5l-12 53h-10q-51 -199 -94 -326z" />
<glyph unicode="B" horiz-adv-x="1351" d="M68 0v88l192 39v1223l-190 39v88h610q261 0 388.5 -89t127.5 -274q0 -57 -17 -108.5t-53.5 -97.5t-101.5 -79.5t-152 -46.5v-12q217 -27 308.5 -118.5t91.5 -258.5q0 -173 -139 -283t-398 -110h-667zM475 119h227q172 0 256 68t84 223q0 160 -81.5 229.5t-249.5 69.5 h-236v-590zM475 817h191q141 0 220 58t79 198q0 88 -19 144.5t-60.5 86.5t-93 41t-130.5 11h-187v-539z" />
<glyph unicode="C" horiz-adv-x="1347" d="M86 721q0 171 40.5 306.5t108.5 223t163 145t197.5 81.5t219.5 24q247 0 410 -55l10 -361h-98l-88 244q-47 20 -119 36.5t-142 16.5q-236 0 -355.5 -161t-119.5 -459q0 -332 119 -499t379 -167q141 0 246 60l88 264h104l-14 -371q-174 -74 -455 -74q-127 0 -231.5 25.5 t-191.5 82.5t-146.5 143t-92 211.5t-32.5 283.5z" />
<glyph unicode="D" horiz-adv-x="1492" d="M68 0v88l192 39v1221l-190 41v88h594q200 0 344 -46t232 -137.5t129.5 -219t41.5 -298.5q0 -776 -723 -776h-620zM475 117h217q126 0 214 31t151 103t93 193.5t30 298.5q0 116 -12.5 206t-34.5 155t-59 111t-79 74t-102 44t-119.5 21.5t-140.5 5.5h-158v-1243z" />
<glyph unicode="E" horiz-adv-x="1308" d="M68 0v88l192 39v1221l-190 41v88h1106l24 -367h-104l-92 250h-529v-545h283l59 203h92v-516h-92l-59 205h-283v-590h551l115 309h104l-28 -426h-1149z" />
<glyph unicode="F" horiz-adv-x="1298" d="M68 0v88l192 37v1223l-190 41v88h1108l24 -379h-104l-92 262h-531v-572h287l57 201h92v-518h-94l-55 209h-287v-553l207 -39v-88h-614z" />
<glyph unicode="G" horiz-adv-x="1468" d="M86 721q0 171 41.5 306.5t111.5 223t166.5 145t200.5 81.5t221 24q258 0 426 -53l17 -365h-99l-90 242q-107 57 -276 57q-242 0 -367 -161.5t-125 -458.5q0 -332 119.5 -499t380.5 -167q125 0 236 39v412l-197 37v88h571v-88l-159 -37v-508q-195 -68 -437 -68 q-177 0 -311.5 42t-232 131t-147.5 234t-50 343z" />
<glyph unicode="H" horiz-adv-x="1607" d="M68 0v88l190 37v1223l-190 41v88h591v-88l-186 -41v-539h666v539l-191 41v88h592v-88l-186 -41v-1223l186 -37v-88h-592v88l191 37v575h-666v-575l186 -37v-88h-591z" />
<glyph unicode="I" horiz-adv-x="724" d="M68 0v88l190 37v1225l-190 39v88h591v-88l-186 -39v-1225l186 -37v-88h-591z" />
<glyph unicode="J" horiz-adv-x="917" d="M47 33v119q61 -20 106 -28.5t115 -8.5q101 0 153 48.5t52 176.5v1008l-190 41v88h591v-88l-186 -41v-1029q0 -164 -102.5 -251.5t-288.5 -87.5q-146 0 -250 53z" />
<glyph unicode="K" horiz-adv-x="1460" d="M68 0v88l190 37v1225l-190 39v88h600v-88l-195 -39v-664l582 664l-137 39v88h462v-88l-145 -39l-453 -496l473 -727l162 -39v-88h-334l-446 702l-164 -145v-432l195 -37v-88h-600z" />
<glyph unicode="L" horiz-adv-x="1241" d="M68 0v88l190 37v1225l-190 39v88h612v-88l-207 -39v-1233h502l106 350h101l-27 -467h-1087z" />
<glyph unicode="M" horiz-adv-x="1908" d="M68 0v86l190 39v1225l-190 39v88h503l236 -703q28 -83 59.5 -205t48.5 -203l17 -81h10q74 301 137 489l238 703h524v-88l-207 -39v-1223l207 -39v-88h-581v88l163 39v731q0 91 2.5 222.5t4.5 217.5l2 86h-11q-89 -306 -159 -501l-279 -811h-152l-268 811 q-30 87 -68.5 212t-61.5 207l-23 82h-11q9 -321 9 -526v-731l167 -39v-88h-507z" />
<glyph unicode="N" horiz-adv-x="1570" d="M68 0v84l192 41v1223l-192 41v88h477l479 -809q33 -56 76 -141.5t70 -142.5l26 -58h10v1020l-190 43v88h508v-86l-170 -43v-1348h-170l-592 1001q-33 56 -76 139.5t-70 139.5l-26 55h-10v-1208l192 -41v-86h-534z" />
<glyph unicode="O" horiz-adv-x="1517" d="M86 739q0 153 38.5 281t103.5 215.5t152.5 148.5t183.5 89t198 28q140 0 261.5 -49.5t212.5 -143t143.5 -239t52.5 -326.5q0 -153 -38.5 -282t-103.5 -217t-152 -150t-183.5 -90.5t-198.5 -28.5q-140 0 -261.5 50.5t-212.5 145t-143.5 241t-52.5 327.5zM313 758 q0 -662 447 -662q89 0 162 30.5t125 85.5t87.5 132.5t52.5 171t17 201.5q0 326 -113 495.5t-337 169.5q-147 0 -248 -82.5t-147 -220t-46 -321.5z" />
<glyph unicode="P" horiz-adv-x="1245" d="M68 0v88l190 39v1223l-190 39v88h610q530 0 530 -410q0 -216 -137 -330t-362 -114q-114 0 -236 20v-516l225 -39v-88h-630zM473 754q100 -17 203 -17q159 0 233 73.5t74 242.5q0 160 -70.5 228.5t-232.5 68.5h-207v-596z" />
<glyph unicode="Q" horiz-adv-x="1517" d="M86 739q0 153 38.5 281t103.5 215.5t152.5 148.5t183.5 89t198 28q140 0 261.5 -49.5t212.5 -143t143.5 -239t52.5 -326.5q0 -309 -139.5 -489t-370.5 -215v-10l686 -138l-54 -184l-970 285q-72 22 -136.5 55.5t-133 94.5t-117 140t-80 197t-31.5 260zM313 758 q0 -662 447 -662q89 0 162 30.5t125 85.5t87.5 132.5t52.5 171t17 201.5q0 326 -113 495.5t-337 169.5q-147 0 -248 -82.5t-147 -220t-46 -321.5z" />
<glyph unicode="R" horiz-adv-x="1417" d="M68 0v88l194 39v1221l-188 41v88h624q261 0 388.5 -103t127.5 -297q0 -266 -305 -364v-8l342 -580l152 -39v-86h-320l-378 662h-228v-535l185 -39v-88h-594zM477 770h217q82 0 142 25t93 68.5t48.5 95.5t15.5 114q0 147 -70 212t-231 65h-215v-580z" />
<glyph unicode="S" horiz-adv-x="1167" d="M125 383h102l70 -217q123 -68 283 -68q144 0 223.5 74t79.5 186q0 57 -17 99.5t-56 76.5t-82 57.5t-116 55.5l-180 78q-65 28 -114 61t-88 79t-59.5 108.5t-20.5 140.5q0 81 29 150.5t85.5 123t147.5 84.5t206 31q215 0 369 -53l14 -315h-100l-59 190q-33 16 -52.5 24.5 t-73 19.5t-114.5 11q-120 0 -196 -55.5t-76 -161.5q0 -94 53.5 -152.5t171.5 -105.5l180 -74q64 -27 109 -50t92.5 -58.5t76.5 -76t47.5 -98.5t18.5 -128q0 -89 -30 -166.5t-90.5 -141t-163.5 -100.5t-236 -37q-237 0 -420 72z" />
<glyph unicode="T" horiz-adv-x="1327" d="M45 1055l23 422h1192l22 -422h-102l-82 305h-326v-1235l195 -37v-88h-609v88l197 37v1235h-326l-82 -305h-102z" />
<glyph unicode="U" horiz-adv-x="1501" d="M27 1389v88h591v-88l-188 -39v-865q0 -376 365 -376q182 0 275 92t93 286v861l-190 38v91h502v-88l-164 -39v-881q0 -231 -144.5 -364.5t-404.5 -133.5q-269 0 -409 128.5t-140 349.5v901z" />
<glyph unicode="V" horiz-adv-x="1431" d="M29 1389v88h536v-88l-172 -41l230 -699q24 -76 54 -185.5t48 -181.5l18 -71h11q70 268 127 438l231 699l-170 41v88h459v-88l-137 -41l-465 -1348h-168l-465 1348z" />
<glyph unicode="W" horiz-adv-x="2062" d="M35 1389v88h504v-88l-160 -41l158 -603q23 -88 50 -214.5t43 -209.5l15 -83h10q68 312 123 507l205 732h143l203 -732q24 -88 53.5 -214.5t46.5 -209.5l17 -83h10q66 310 115 507l153 603l-161 41v88h467v-88l-152 -41l-365 -1348h-174l-192 688q-24 88 -52 216.5 t-43 213.5l-16 84h-10q-72 -315 -129 -514l-197 -688h-174l-362 1348z" />
<glyph unicode="X" horiz-adv-x="1492" d="M68 0v88l159 39l402 637l-375 586l-162 39v88h565v-88l-153 -39l282 -482h11l264 482l-162 39v88h481v-88l-161 -39l-349 -594l396 -631l159 -37v-88h-555v88l158 37l-319 530h-11l-313 -528l162 -41v-86h-479z" />
<glyph unicode="Y" horiz-adv-x="1357" d="M25 1389v88h512v-88l-148 -41l344 -594h8l316 594l-158 41v88h434v-88l-129 -41l-403 -713v-508l186 -39v-88h-590v88l189 39v512l-430 709z" />
<glyph unicode="Z" horiz-adv-x="1189" d="M49 0v98l825 1248v8h-587l-92 -281h-105l21 404h1024v-99l-828 -1249v-8h639l94 282h103l-21 -403h-1073z" />
<glyph unicode="[" horiz-adv-x="765" d="M164 -256v1817h506v-86l-314 -39v-1565l314 -39v-88h-506z" />
<glyph unicode="\" horiz-adv-x="768" d="M80 1561h139l516 -1817h-139z" />
<glyph unicode="]" horiz-adv-x="765" d="M96 -168l314 39v1565l-314 39v86h508v-1817h-508v88z" />
<glyph unicode="^" horiz-adv-x="978" d="M72 883l356 594h125l354 -594h-116l-302 411l-301 -411h-116z" />
<glyph unicode="_" horiz-adv-x="716" d="M-4 -145h725v-111h-725v111z" />
<glyph unicode="`" horiz-adv-x="1024" d="M250 1440l72 162l444 -275l-35 -80z" />
<glyph unicode="a" horiz-adv-x="1067" d="M59 279q0 69 23.5 120.5t71 85.5t105 55t138.5 38l283 57v102q0 46 -3 78t-12.5 63t-26.5 50t-44.5 34.5t-67.5 22t-94 6.5q-49 0 -131 -14l-47 -176h-119v256q68 22 182 39.5t211 17.5q180 0 264.5 -78t84.5 -243v-629q0 -47 24 -60.5t80 -13.5h68v-74 q-111 -36 -189 -36q-141 0 -160 112h-12q-117 -121 -293 -121q-148 0 -242 85.5t-94 222.5zM262 299q0 -89 51.5 -142t153.5 -53q61 0 119 24t94 54v326l-221 -16q-107 -7 -152 -56t-45 -137z" />
<glyph unicode="b" d="M-4 1497v82l321 49l27 -10v-623h10q159 119 344 119q67 0 125 -13.5t115.5 -50.5t97.5 -94.5t65 -151.5t25 -216q0 -298 -152.5 -455.5t-414.5 -157.5q-213 0 -401 78v1411zM354 154q32 -21 52.5 -32t68 -22.5t107.5 -11.5q162 0 251 106.5t89 354.5q0 222 -82 318 t-242 96q-112 0 -244 -54v-755z" />
<glyph unicode="c" horiz-adv-x="1021" d="M80 537q0 121 30 218.5t82.5 163.5t126 110.5t158 64.5t180.5 20q160 0 287 -43v-274h-113l-43 180q-58 20 -155 20q-165 0 -257.5 -110.5t-92.5 -325.5q0 -122 29.5 -210.5t83.5 -139t121 -73.5t151 -23q185 0 297 55v-98q-139 -97 -353 -97q-253 0 -392.5 151 t-139.5 411z" />
<glyph unicode="d" horiz-adv-x="1284" d="M90 520q0 294 151 444t414 150q100 0 205 -31v381l-176 33v82l348 49l25 -10v-1483l162 -35v-71l-322 -49l-25 10v110h-12q-102 -125 -303 -125q-66 0 -128.5 15.5t-125 55t-109 99.5t-75.5 156.5t-29 218.5zM293 545q0 -221 82 -321.5t241 -100.5q124 0 244 61v746 q-31 22 -52.5 34t-69 23.5t-107.5 11.5q-78 0 -137.5 -22.5t-106 -73t-70.5 -140.5t-24 -218z" />
<glyph unicode="e" horiz-adv-x="1110" d="M80 555q0 255 144 407t360 152q450 0 450 -575h-751q7 -209 104.5 -317.5t269.5 -108.5q108 0 182 18t146 51v-96q-159 -111 -369 -111q-138 0 -242 42.5t-167.5 121t-95 183t-31.5 233.5zM283 645h528q0 187 -59 270.5t-181 83.5q-132 0 -204 -85.5t-84 -268.5z" />
<glyph unicode="f" horiz-adv-x="759" d="M57 0v72l160 34v861h-154v86l154 53v145q0 183 120 283t314 100q29 0 57.5 -2t45.5 -3.5t45.5 -6.5t35.5 -6.5t38.5 -9t33.5 -7.5v-235h-119l-36 145q-59 13 -107 13q-231 0 -231 -283v-145h291v-127h-291v-861l188 -34v-72h-545z" />
<glyph unicode="g" horiz-adv-x="1134" d="M37 -197q0 82 58.5 147.5t168.5 108.5v13q-54 19 -85.5 58.5t-31.5 90.5q0 60 33.5 125t95.5 119q-174 81 -174 285q0 116 58 200t152 124t212 40q125 0 213 -39l369 45v-145l-256 12v-8q50 -44 73 -90t23 -117q0 -116 -58 -199.5t-152.5 -123t-213.5 -39.5 q-97 0 -170 20q-24 -27 -38.5 -69t-14.5 -70q0 -32 25 -55t77 -23h355q331 0 331 -264q0 -173 -159 -290.5t-436 -117.5q-95 0 -173 15.5t-129.5 41t-86.5 60t-50.5 71t-15.5 74.5zM223 -166q0 -81 70.5 -126.5t216.5 -45.5q194 0 298.5 67.5t104.5 166.5q0 73 -47.5 106 t-142.5 33h-336q-81 -30 -122.5 -82.5t-41.5 -118.5zM297 764q0 -126 61.5 -188t163.5 -62q106 0 168 62.5t62 183.5q0 126 -63.5 189t-166.5 63q-104 0 -164.5 -64t-60.5 -184z" />
<glyph unicode="h" horiz-adv-x="1298" d="M55 0v72l162 34v1364l-162 33v82l326 49l22 -12v-621h13q202 113 370 113q158 0 234 -68t76 -225v-715l161 -34v-72h-516v72l158 34v664q0 109 -55.5 152t-175.5 43q-107 0 -254 -52v-807l157 -34v-72h-516z" />
<glyph unicode="i" horiz-adv-x="628" d="M45 977v82l346 51l23 -12v-992l161 -34v-72h-518v72l160 34v838zM178 1448q0 54 37.5 90.5t91.5 36.5t91.5 -36.5t37.5 -90.5q0 -50 -38 -87.5t-91 -37.5t-91 37.5t-38 87.5z" />
<glyph unicode="j" horiz-adv-x="612" d="M-61 -319q54 -7 98 -7q89 0 140.5 45.5t51.5 161.5v1063l-172 33v82l346 51l25 -12v-1237q0 -145 -86 -223t-244 -78q-77 0 -159 32v89zM190 1448q0 54 37.5 90.5t91.5 36.5t92 -36.5t38 -90.5q0 -50 -38.5 -87.5t-91.5 -37.5t-91 37.5t-38 87.5z" />
<glyph unicode="k" horiz-adv-x="1187" d="M55 0v72l162 32v1364l-162 33v82l334 49l25 -12v-1055l110 45l287 373l-129 33v78h434v-78l-158 -33l-307 -373l373 -504l139 -34v-72h-293l-354 489l-102 9v-394l166 -32v-72h-525z" />
<glyph unicode="l" horiz-adv-x="628" d="M43 1501v82l346 49l25 -12v-1514l161 -34v-72h-520v72l162 34v1362z" />
<glyph unicode="m" horiz-adv-x="1939" d="M55 0v72l162 34v838l-162 33v82l326 51l22 -12v-94h13q97 55 178.5 82.5t187.5 27.5q190 0 256 -121h13q194 121 383 121q150 0 224.5 -74t74.5 -229v-705l159 -34v-72h-514v72l156 34v652q0 115 -54.5 161t-174.5 46q-101 0 -242 -50q10 -38 10 -104v-705l156 -34v-72 h-512v72l160 34v652q0 114 -54.5 160.5t-165.5 46.5q-47 0 -91 -7.5t-72.5 -16t-79.5 -26.5v-809l157 -34v-72h-516z" />
<glyph unicode="n" horiz-adv-x="1302" d="M55 0v72l162 34v838l-162 33v82l326 51l22 -12v-97h13q202 113 370 113q158 0 234 -68t76 -225v-715l161 -34v-72h-516v72l158 34v664q0 108 -55 150.5t-176 42.5q-113 0 -254 -50v-807l157 -34v-72h-516z" />
<glyph unicode="o" d="M80 539q0 126 41.5 234.5t112 182.5t166.5 116t204 42q238 0 384.5 -154.5t146.5 -410.5q0 -167 -71 -300t-190.5 -205.5t-263.5 -72.5q-238 0 -384 156t-146 412zM285 553q0 -124 27 -216.5t74.5 -144.5t104 -77t121.5 -25q64 0 118 22.5t100 71.5t72 138t26 210 q0 125 -27.5 218.5t-74.5 145.5t-103 76.5t-121 24.5q-64 0 -118.5 -22.5t-100.5 -72t-72 -138.5t-26 -211z" />
<glyph unicode="p" horiz-adv-x="1265" d="M47 977v82l322 51l24 -12v-103h13q159 119 344 119q67 0 125 -14t115 -50.5t97 -94t64.5 -151.5t24.5 -216q0 -298 -152 -455.5t-414 -157.5q-107 0 -204 19v-332l188 -35v-71h-545v71l160 31v1286zM406 150q33 -20 52.5 -30t67 -21t107.5 -11q162 0 251 106.5t89 354.5 q0 222 -81.5 318t-242.5 96q-111 0 -243 -54v-759z" />
<glyph unicode="q" horiz-adv-x="1236" d="M90 510q0 293 151 448.5t406 155.5q212 0 410 -65v-1391l160 -31v-71h-545v71l190 35v432h-14q-74 -58 -142.5 -88.5t-168.5 -30.5q-66 0 -126 14.5t-120 52.5t-103.5 96.5t-70.5 154t-27 217.5zM293 545q0 -221 82 -321.5t241 -100.5q124 0 244 61v746q-32 22 -53 33.5 t-70 23.5t-114 12q-74 0 -131.5 -22.5t-103.5 -73t-70.5 -141t-24.5 -217.5z" />
<glyph unicode="r" horiz-adv-x="827" d="M55 0v72l162 34v838l-162 33v82l326 51l22 -12v-140h13q53 62 137 109t168 47q39 0 59 -8v-178q-40 6 -84 6q-178 0 -282 -68v-760l184 -34v-72h-543z" />
<glyph unicode="s" horiz-adv-x="950" d="M82 295h102l58 -158q84 -47 213 -47q106 0 170.5 42t64.5 124q0 79 -44.5 117.5t-164.5 77.5l-119 38q-134 43 -201 116.5t-67 191.5q0 135 104 225t294 90q177 0 305 -41v-246h-97l-51 136q-67 36 -176 36q-209 0 -209 -153q0 -70 46.5 -111t166.5 -78l119 -37 q147 -45 209.5 -118t62.5 -191q0 -147 -111.5 -242.5t-316.5 -95.5q-162 0 -342 62z" />
<glyph unicode="t" horiz-adv-x="806" d="M39 967v86l168 51v262h196v-272h310v-127h-310v-682q0 -94 41.5 -135t151.5 -41q62 0 137 14v-78q-36 -25 -107.5 -44t-138.5 -19q-145 0 -212.5 59.5t-67.5 204.5v721h-168z" />
<glyph unicode="u" horiz-adv-x="1302" d="M35 993v80l334 35l24 -12v-748q0 -122 44.5 -175.5t168.5 -53.5q62 0 119 11.5t81 20.5t71 29v778l-158 35v80l332 35l24 -12v-961l160 -35v-71l-322 -49l-24 10v119h-12q-145 -129 -365 -129q-315 0 -315 319v659z" />
<glyph unicode="v" horiz-adv-x="1198" d="M20 1016v78h474v-78l-136 -25l191 -542q17 -50 37.5 -123.5t32.5 -121.5l12 -48h10q41 180 82 293l195 542l-136 25v78h396v-78l-121 -33l-373 -983h-166l-377 983z" />
<glyph unicode="w" horiz-adv-x="1732" d="M20 1016v78h451v-78l-139 -33l145 -483q17 -56 32 -140t21 -140l7 -56h10q45 207 86 336l192 594h138l192 -594q18 -57 34 -141t23 -139l7 -56h10q43 209 80 336l141 483l-135 33v78h397v-78l-115 -33l-307 -983h-155l-158 504q-16 54 -39 151.5t-38 168.5l-15 71h-11 q-65 -270 -106 -391l-172 -504h-156l-305 983z" />
<glyph unicode="x" horiz-adv-x="1200" d="M45 0v72l131 32l309 439l-305 440l-127 33v78h477v-78l-127 -27l232 -366h4l229 366l-137 27v78h402v-78l-125 -33l-297 -420l313 -459l131 -32v-72h-483v72l135 28l-242 375h-4l-246 -375l138 -28v-72h-408z" />
<glyph unicode="y" horiz-adv-x="1181" d="M20 1016v78h484v-78l-146 -29l189 -483q19 -48 39 -120.5t30 -120.5l11 -48h10q47 178 86 289l166 479l-139 33v78h411v-78l-121 -33l-436 -1145q-57 -151 -127 -216.5t-188 -65.5q-105 0 -168 53v110q88 -18 112 -18q94 0 148 38.5t96 139.5l64 152l-400 952z" />
<glyph unicode="z" horiz-adv-x="1064" d="M84 0v102l643 875v10h-440l-64 -196h-100l16 303h819v-99l-643 -880v-9h465l80 240h103l-29 -346h-850z" />
<glyph unicode="{" horiz-adv-x="882" d="M86 586v135q84 10 136.5 24.5t78 36.5t33.5 44t8 57q0 43 -34 190.5t-34 210.5q0 62 24 109t80.5 84.5t158.5 58.5t249 25v-86q-78 -11 -122 -19.5t-85 -21.5t-59.5 -30.5t-29.5 -43.5t-11 -64q0 -47 25.5 -179t25.5 -199q0 -37 -4 -62.5t-21.5 -57.5t-49 -55t-89.5 -46 t-141 -40v-10q83 -17 141 -40t89.5 -46t49 -54.5t21.5 -57t4 -62.5q0 -66 -25.5 -199t-25.5 -180q0 -37 10.5 -62.5t30 -43.5t60 -30.5t85 -21t121.5 -18.5v-88q-119 3 -208 17.5t-146.5 38t-93 58t-50 73.5t-14.5 89q0 64 34 212t34 192q0 34 -8 56.5t-33.5 44.5t-78.5 37 t-136 24z" />
<glyph unicode="|" horiz-adv-x="509" d="M188 -256v1817h134v-1817h-134z" />
<glyph unicode="}" horiz-adv-x="882" d="M96 -168q77 10 121.5 18.5t85 21t60 30.5t30 43.5t10.5 62.5q0 47 -25.5 180t-25.5 199q0 37 4 62.5t21.5 57t49 54.5t89.5 46t141 40v10q-83 17 -141 40t-89.5 46t-49 55t-21.5 57.5t-4 62.5q0 67 25.5 199t25.5 179q0 38 -11 64t-29.5 43.5t-59.5 30.5t-85 21.5 t-122 19.5v86q147 -4 249 -25t158.5 -58.5t80.5 -84.5t24 -109q0 -63 -33.5 -210.5t-33.5 -190.5q0 -35 8 -57.5t33.5 -44.5t78 -36.5t136.5 -23.5v-135q-84 -11 -136.5 -26t-78 -36.5t-33.5 -43.5t-8 -56q0 -44 33.5 -192t33.5 -212q0 -50 -14.5 -89t-50 -73.5t-93 -58 t-146.5 -38t-208 -17.5v88z" />
<glyph unicode="~" horiz-adv-x="911" d="M68 541q51 124 108 179.5t141 55.5q50 0 105.5 -25t103 -50t78.5 -25q81 0 150 119l88 -41q-48 -123 -106 -178.5t-142 -55.5q-50 0 -105.5 25t-103 50.5t-78.5 25.5q-41 0 -76.5 -28t-74.5 -93z" />
<glyph unicode="&#xa1;" horiz-adv-x="532" d="M135 1118q0 52 38.5 90.5t92.5 38.5q53 0 91 -38.5t38 -90.5q0 -53 -37.5 -90t-91.5 -37t-92.5 37.5t-38.5 89.5zM158 -254l53 1067h119l53 -1067h-225z" />
<glyph unicode="&#xa2;" horiz-adv-x="1021" d="M80 537q0 139 38.5 246t108.5 174.5t159 105t198 47.5l18 199h123l-20 -197q137 -6 239 -41v-274h-113l-43 188q-59 17 -94 19l-88 -893q50 -5 62 -5q166 0 297 64v-98q-139 -97 -353 -97h-18l-29 -290h-123l31 305q-189 38 -291 181.5t-102 365.5zM283 561 q0 -329 211 -422l84 862q-139 -18 -217 -131t-78 -309z" />
<glyph unicode="&#xa3;" horiz-adv-x="1099" d="M68 0v100q100 62 147 153.5t47 240.5v122h-139v125h139v172q0 101 27 183t73 136.5t109.5 92t134.5 54t150 16.5q129 0 264 -41v-291h-119l-61 207q-37 6 -86 6q-65 0 -115.5 -19t-91 -61t-63.5 -115t-27 -176l-6 -164h380v-125h-385l-2 -69q-4 -103 -25 -172.5t-51 -109 t-87 -89.5v-8h751l-22 -168h-942z" />
<glyph unicode="&#xa4;" horiz-adv-x="1325" d="M90 477v107h166q-4 33 -4 102q0 59 2 88h-164v107h178q20 111 64 199t102.5 146t133 97t153.5 55.5t166 16.5q164 0 330 -56l10 -335h-92l-88 231q-79 45 -185 45q-172 0 -271 -102.5t-126 -296.5h461v-107h-471v-49q0 -77 6 -141h465v-107h-453q35 -188 138.5 -277 t285.5 -89q154 0 338 67v-92q-159 -111 -377 -111q-235 0 -390 126.5t-200 375.5h-178z" />
<glyph unicode="&#xa5;" horiz-adv-x="1269" d="M35 1282v88h485v-88l-143 -41l305 -508h8l285 508l-146 41v88h406v-88l-115 -41l-329 -545h350v-106h-393v-160h393v-106h-393v-197l192 -39v-88h-584v88l195 39v197h-391v106h391v160h-391v106h344l-352 545z" />
<glyph unicode="&#xa6;" horiz-adv-x="509" d="M188 -256v850h134v-850h-134zM188 791v770h134v-770h-134z" />
<glyph unicode="&#xa7;" horiz-adv-x="1153" d="M80 633q0 204 285 276q-154 89 -154 273q0 143 107 231t296 88q167 0 308 -45v-235h-99l-51 127q-63 36 -178 36q-93 0 -154 -40.5t-61 -122.5q0 -76 39 -119.5t147 -85.5l174 -68q81 -31 136.5 -60t103 -67.5t71 -87.5t23.5 -110q0 -218 -280 -287q186 -106 186 -283 q0 -142 -110 -238t-310 -96q-175 0 -354 64l-17 258h103l59 -154q104 -51 217 -51q98 0 165 44t67 128q0 75 -51.5 127t-161.5 96l-174 70q-80 32 -135.5 62t-102.5 69.5t-70.5 89.5t-23.5 111zM256 670q0 -41 17.5 -73t58 -59t81.5 -46t111 -46l148 -57q93 11 158 63 t65 128q0 33 -13.5 60.5t-34 47.5t-58 41t-72 36t-90.5 36l-146 55q-93 -11 -159 -62t-66 -124z" />
<glyph unicode="&#xa8;" horiz-adv-x="1024" d="M180 1362q0 47 33.5 81t83.5 34t83.5 -34t33.5 -81t-33.5 -81t-83.5 -34t-83.5 34t-33.5 81zM610 1362q0 47 33.5 81t83.5 34t83.5 -34t33.5 -81t-33.5 -81t-83.5 -34t-83.5 34t-33.5 81z" />
<glyph unicode="&#xa9;" horiz-adv-x="1718" d="M96 733q0 207 99.5 381t275 275.5t387.5 101.5q211 0 387 -101.5t276.5 -275.5t100.5 -381t-100.5 -382.5t-276.5 -278.5t-387 -103q-159 0 -301 60.5t-242.5 163.5t-159.5 244t-59 296zM207 733q0 -138 48 -262t132 -215.5t206.5 -145t264.5 -53.5q188 0 338 91.5 t231.5 245.5t81.5 339t-81.5 338t-231.5 243.5t-338 90.5q-142 0 -264.5 -53t-206.5 -143.5t-132 -214t-48 -261.5zM518 729q0 96 30.5 170t83.5 119t120.5 67.5t146.5 22.5q107 0 213 -27l10 -196h-69l-52 123q-58 24 -114 24q-197 0 -197 -282q0 -149 47.5 -227.5 t157.5 -78.5q83 0 106 17l58 147h71l-14 -205q-119 -36 -233 -36q-164 0 -264.5 94.5t-100.5 267.5z" />
<glyph unicode="&#xaa;" horiz-adv-x="1003" d="M80 743q0 120 81.5 184t231.5 93l244 47v90q0 61 -8.5 99.5t-33 66.5t-69 39.5t-114.5 11.5q-40 0 -86 -6l-45 -147h-119v215q61 26 154.5 43.5t183.5 17.5q325 0 325 -289v-557q0 -43 22 -57t71 -14h47v-72q-55 -33 -156 -33q-138 0 -154 103h-10q-109 -109 -264 -109 q-134 0 -217.5 75t-83.5 199zM268 760q0 -76 45.5 -120t130.5 -44q57 0 110 18t83 43v291l-188 -14q-90 -7 -135.5 -53t-45.5 -121z" />
<glyph unicode="&#xab;" horiz-adv-x="1011" d="M92 508v61l301 451h129l-243 -481l243 -484h-129zM485 508v61l301 451h129l-243 -481l243 -484h-129z" />
<glyph unicode="&#xad;" horiz-adv-x="739" d="M113 528v166h514v-166h-514z" />
<glyph unicode="&#xae;" horiz-adv-x="1718" d="M96 733q0 207 99.5 381t275 275.5t387.5 101.5q211 0 387 -101.5t276.5 -275.5t100.5 -381t-100.5 -382.5t-276.5 -278.5t-387 -103q-159 0 -301 60.5t-242.5 163.5t-159.5 244t-59 296zM207 733q0 -138 48 -262t132 -215.5t206.5 -145t264.5 -53.5q188 0 338 91.5 t231.5 245.5t81.5 339t-81.5 338t-231.5 243.5t-338 90.5q-142 0 -264.5 -53t-206.5 -143.5t-132 -214t-48 -261.5zM545 369v65l84 19v553l-82 20v61h323q132 0 206.5 -49t74.5 -145q0 -138 -147 -182v-11l155 -247l78 -19v-65h-193l-184 311h-84v-227l84 -19v-65h-315z M776 758h92q131 0 131 127q0 67 -30 94t-101 27h-92v-248z" />
<glyph unicode="&#xaf;" horiz-adv-x="1024" d="M227 1354v131h568v-131h-568z" />
<glyph unicode="&#xb0;" horiz-adv-x="911" d="M106 1155q0 141 101 240.5t250 99.5t248.5 -99.5t99.5 -240.5q0 -142 -99.5 -243t-248.5 -101t-250 101.5t-101 242.5zM233 1155q0 -103 61.5 -173.5t162.5 -70.5q100 0 160.5 70.5t60.5 173.5t-60.5 171.5t-160.5 68.5q-102 0 -163 -68.5t-61 -171.5z" />
<glyph unicode="&#xb2;" horiz-adv-x="745" d="M45 526v84l223 219q108 106 158.5 178.5t50.5 153.5q0 187 -192 187q-35 0 -70 -7l-49 -141h-84v197q106 47 256 47q148 0 230.5 -67t82.5 -195q0 -98 -73.5 -193.5t-221.5 -216.5l-145 -119v-4h461l-10 -123h-617z" />
<glyph unicode="&#xb3;" horiz-adv-x="737" d="M51 573v82q100 -34 209 -34q101 0 158 38t57 117q0 91 -48 127.5t-153 36.5h-67v92h55q91 0 142 42.5t51 115.5q0 160 -172 160q-48 0 -68 -2l-51 -148h-84v203q39 18 111.5 29.5t146.5 11.5q132 0 207.5 -62.5t75.5 -171.5q0 -77 -56 -132.5t-141 -80.5v-4 q97 -15 161 -69t64 -154q0 -116 -92.5 -187t-247.5 -71q-153 0 -258 61zM104 1325q4 1 12.5 4t12.5 4z" />
<glyph unicode="&#xb4;" horiz-adv-x="1024" d="M258 1327l444 275l72 -162l-481 -193z" />
<glyph unicode="&#xb6;" horiz-adv-x="1310" d="M61 1100q0 181 120.5 279t393.5 98h668v-88l-168 -39v-1606h-133v1620h-203v-1620h-133v969q-70 -8 -108 -8q-88 0 -165 24t-139 71t-97.5 124t-35.5 176z" />
<glyph unicode="&#xb7;" horiz-adv-x="638" d="M162 702q0 66 45.5 110t111.5 44t112 -44t46 -110t-45.5 -109.5t-112.5 -43.5q-66 0 -111.5 43.5t-45.5 109.5z" />
<glyph unicode="&#xb8;" horiz-adv-x="1024" d="M356 -418q89 7 150 18t93.5 26.5t46 32.5t13.5 38q0 70 -196 70v233h100v-137q133 -5 197.5 -42t64.5 -112q0 -43 -19.5 -76t-68.5 -62t-144.5 -46t-236.5 -21v78z" />
<glyph unicode="&#xb9;" horiz-adv-x="614" d="M86 1268v69l254 103h59v-817l133 -23v-74h-432v74l131 23v657z" />
<glyph unicode="&#xba;" horiz-adv-x="1095" d="M72 979q0 227 136.5 372.5t334.5 145.5q216 0 348.5 -139t132.5 -369q0 -113 -37.5 -211t-101.5 -165.5t-150.5 -105.5t-183.5 -38q-215 0 -347 140t-132 370zM266 993q0 -91 15.5 -162.5t42 -118t64 -77.5t78 -44t87.5 -13q57 0 104.5 20t86.5 64t61 123t22 188 q0 91 -15.5 163t-42 119t-63.5 77.5t-77 43.5t-86 13q-57 0 -105 -20t-87.5 -64t-62 -123.5t-22.5 -188.5z" />
<glyph unicode="&#xbb;" horiz-adv-x="1011" d="M96 55l244 482l-244 483h129l301 -453v-61l-301 -451h-129zM489 55l244 482l-244 483h129l302 -453v-61l-302 -451h-129z" />
<glyph unicode="&#xbc;" horiz-adv-x="1855" d="M86 1268v69l254 103h59v-817l133 -23v-74h-432v74l131 23v657zM381 -82l983 1542h141l-983 -1542h-141zM1079 111v90l430 553h140v-543h135v-100h-135v-261h-162v261h-408zM1206 211h281v360h-6l-275 -354v-6z" />
<glyph unicode="&#xbd;" horiz-adv-x="1910" d="M86 1268v69l254 103h59v-817l133 -23v-74h-432v74l131 23v657zM381 -82l983 1542h141l-983 -1542h-141zM1210 -66l224 220q71 70 109.5 113.5t68.5 102.5t30 115q0 187 -192 187q-40 0 -70 -6l-49 -142h-84v197q106 47 256 47q148 0 231 -67t83 -195q0 -98 -73.5 -193.5 t-221.5 -216.5l-146 -119v-4h461l-10 -123h-617v84z" />
<glyph unicode="&#xbe;" horiz-adv-x="1896" d="M51 573v82q100 -34 209 -34q101 0 158 38t57 117q0 91 -48 127.5t-153 36.5h-67v92h55q91 0 142 42.5t51 115.5q0 160 -172 160q-48 0 -68 -2l-51 -148h-84v203q39 18 111.5 29.5t146.5 11.5q132 0 207.5 -62.5t75.5 -171.5q0 -77 -56 -132.5t-141 -80.5v-4 q97 -15 161 -69t64 -154q0 -116 -92.5 -187t-247.5 -71q-153 0 -258 61zM104 1325q4 1 12.5 4t12.5 4zM442 -82l983 1542h142l-983 -1542h-142zM1120 111v90l430 553h140v-543h135v-100h-135v-261h-162v261h-408zM1247 211h281v360h-6l-275 -354v-6z" />
<glyph unicode="&#xbf;" horiz-adv-x="927" d="M94 82q0 93 31.5 162t84.5 117.5t150 111.5q12 8 42 26.5t41 26t31.5 24.5t28.5 31t15.5 35t7.5 46q0 58 -22 151h106q41 -100 41 -178q0 -31 -5 -56.5t-20 -50.5t-27.5 -42.5t-43 -44t-50 -42t-63.5 -49.5q-80 -61 -111.5 -115t-31.5 -149q0 -122 72 -185t211 -63 q42 0 104 8l47 164h119v-229q-159 -60 -342 -60q-87 0 -160.5 21t-131.5 63.5t-91 113.5t-33 163zM426 1118q0 52 39 90.5t92 38.5t91 -38.5t38 -90.5q0 -53 -37.5 -90t-91.5 -37t-92.5 37.5t-38.5 89.5z" />
<glyph unicode="&#xc0;" horiz-adv-x="1449" d="M18 0v90l150 37l477 1350h176l463 -1350l148 -37v-90h-551v88l170 39l-111 340h-506l-117 -340l172 -39v-88h-471zM463 1788l72 162l444 -275l-35 -80zM471 575h434l-119 369q-18 57 -39 138.5t-33 134.5l-12 53h-10q-51 -199 -94 -326z" />
<glyph unicode="&#xc1;" horiz-adv-x="1449" d="M18 0v90l150 37l477 1350h176l463 -1350l148 -37v-90h-551v88l170 39l-111 340h-506l-117 -340l172 -39v-88h-471zM471 575h434l-119 369q-18 57 -39 138.5t-33 134.5l-12 53h-10q-51 -199 -94 -326zM471 1675l444 275l72 -162l-481 -193z" />
<glyph unicode="&#xc2;" horiz-adv-x="1449" d="M18 0v90l150 37l477 1350h176l463 -1350l148 -37v-90h-551v88l170 39l-111 340h-506l-117 -340l172 -39v-88h-471zM397 1624l277 299h100l277 -299l-39 -61l-287 196l-289 -196zM471 575h434l-119 369q-18 57 -39 138.5t-33 134.5l-12 53h-10q-51 -199 -94 -326z" />
<glyph unicode="&#xc3;" horiz-adv-x="1449" d="M18 0v90l150 37l477 1350h176l463 -1350l148 -37v-90h-551v88l170 39l-111 340h-506l-117 -340l172 -39v-88h-471zM365 1667q90 215 231 215q50 0 145.5 -44t120.5 -44q74 0 137 109l86 -39q-91 -219 -231 -219q-50 0 -145.5 44t-120.5 44q-75 0 -137 -105zM471 575h434 l-119 369q-18 57 -39 138.5t-33 134.5l-12 53h-10q-51 -199 -94 -326z" />
<glyph unicode="&#xc4;" horiz-adv-x="1449" d="M18 0v90l150 37l477 1350h176l463 -1350l148 -37v-90h-551v88l170 39l-111 340h-506l-117 -340l172 -39v-88h-471zM393 1710q0 47 33.5 81t83.5 34t83.5 -34t33.5 -81t-33.5 -81t-83.5 -34t-83.5 34t-33.5 81zM471 575h434l-119 369q-18 57 -39 138.5t-33 134.5l-12 53 h-10q-51 -199 -94 -326zM823 1710q0 47 33.5 81t83.5 34t83.5 -34t33.5 -81t-33.5 -81t-83.5 -34t-83.5 34t-33.5 81z" />
<glyph unicode="&#xc5;" horiz-adv-x="1449" d="M18 0v90l150 37l477 1350h176l463 -1350l148 -37v-90h-551v88l170 39l-111 340h-506l-117 -340l172 -39v-88h-471zM471 575h434l-119 369q-18 57 -39 138.5t-33 134.5l-12 53h-10q-51 -199 -94 -326zM471 1806q0 100 74.5 171t181.5 71q106 0 179 -70.5t73 -171.5 q0 -102 -72.5 -172.5t-179.5 -70.5t-181.5 71t-74.5 172zM578 1806q0 -70 40.5 -111.5t108.5 -41.5t107.5 41.5t39.5 111.5q0 69 -40 110.5t-107 41.5q-68 0 -108.5 -41.5t-40.5 -110.5z" />
<glyph unicode="&#xc6;" horiz-adv-x="2019" d="M18 0v90l134 37l718 1239l-143 23v88h1167l23 -367h-102l-93 250h-512v-545h267l57 203h94v-516h-94l-57 205h-267v-590h533l117 309h102l-27 -426h-1126v88l190 39v350h-495l-201 -350l170 -39v-88h-455zM565 586h434v469q0 69 3.5 151t7.5 129l4 47h-8 q-121 -237 -164 -313z" />
<glyph unicode="&#xc7;" horiz-adv-x="1347" d="M86 721q0 171 40.5 306.5t108.5 223t163 145t197.5 81.5t219.5 24q247 0 410 -55l10 -361h-98l-88 244q-47 20 -119 36.5t-142 16.5q-236 0 -355.5 -161t-119.5 -459q0 -332 119 -499t379 -167q141 0 246 60l88 264h104l-14 -371q-174 -74 -455 -74q-37 0 -55 2v-114 q133 -5 197.5 -42t64.5 -112q0 -43 -19.5 -76t-68.5 -62t-144.5 -46t-236.5 -21v78q89 7 150 18t93.5 26.5t46 32.5t13.5 38q0 70 -196 70v221q-257 37 -398 216t-141 517z" />
<glyph unicode="&#xc8;" horiz-adv-x="1308" d="M68 0v88l192 39v1221l-190 41v88h1106l24 -367h-104l-92 250h-529v-545h283l59 203h92v-516h-92l-59 205h-283v-590h551l115 309h104l-28 -426h-1149zM391 1788l72 162l444 -275l-35 -80z" />
<glyph unicode="&#xc9;" horiz-adv-x="1308" d="M68 0v88l192 39v1221l-190 41v88h1106l24 -367h-104l-92 250h-529v-545h283l59 203h92v-516h-92l-59 205h-283v-590h551l115 309h104l-28 -426h-1149zM399 1675l445 275l71 -162l-481 -193z" />
<glyph unicode="&#xca;" horiz-adv-x="1308" d="M68 0v88l192 39v1221l-190 41v88h1106l24 -367h-104l-92 250h-529v-545h283l59 203h92v-516h-92l-59 205h-283v-590h551l115 309h104l-28 -426h-1149zM326 1624l276 299h100l277 -299l-39 -61l-287 196l-288 -196z" />
<glyph unicode="&#xcb;" horiz-adv-x="1308" d="M68 0v88l192 39v1221l-190 41v88h1106l24 -367h-104l-92 250h-529v-545h283l59 203h92v-516h-92l-59 205h-283v-590h551l115 309h104l-28 -426h-1149zM322 1710q0 47 33 81t83 34t83.5 -34t33.5 -81t-33.5 -81t-83.5 -34t-83 34t-33 81zM752 1710q0 47 33 81t83 34 t83.5 -34t33.5 -81t-33.5 -81t-83.5 -34t-83 34t-33 81z" />
<glyph unicode="&#xcc;" horiz-adv-x="724" d="M68 0v88l190 37v1225l-190 39v88h591v-88l-186 -39v-1225l186 -37v-88h-591zM100 1788l72 162l444 -275l-34 -80z" />
<glyph unicode="&#xcd;" horiz-adv-x="724" d="M68 0v88l190 37v1225l-190 39v88h591v-88l-186 -39v-1225l186 -37v-88h-591zM109 1675l444 275l72 -162l-482 -193z" />
<glyph unicode="&#xce;" horiz-adv-x="724" d="M35 1624l276 299h101l276 -299l-39 -61l-287 196l-288 -196zM68 0v88l190 37v1225l-190 39v88h591v-88l-186 -39v-1225l186 -37v-88h-591z" />
<glyph unicode="&#xcf;" horiz-adv-x="724" d="M31 1710q0 47 33 81t83 34t83.5 -34t33.5 -81t-33.5 -81t-83.5 -34t-83 34t-33 81zM68 0v88l190 37v1225l-190 39v88h591v-88l-186 -39v-1225l186 -37v-88h-591zM461 1710q0 47 33.5 81t83.5 34t83 -34t33 -81t-33 -81t-83 -34t-83.5 34t-33.5 81z" />
<glyph unicode="&#xd0;" horiz-adv-x="1492" d="M68 0v88l192 39v553h-174v125h174v543l-190 41v88h594q200 0 344 -46t232 -137.5t129.5 -219t41.5 -298.5q0 -776 -723 -776h-620zM475 117h217q126 0 214 31t151 103t93 193.5t30 298.5q0 116 -12.5 206t-34.5 155t-59 111t-79 74t-102 44t-119.5 21.5t-140.5 5.5h-158 v-555h385v-125h-385v-563z" />
<glyph unicode="&#xd1;" horiz-adv-x="1570" d="M68 0v84l192 41v1223l-192 41v88h477l479 -809q33 -56 76 -141.5t70 -142.5l26 -58h10v1020l-190 43v88h508v-86l-170 -43v-1348h-170l-592 1001q-33 56 -76 139.5t-70 139.5l-26 55h-10v-1208l192 -41v-86h-534zM424 1667q90 215 231 215q50 0 146 -44t121 -44 q74 0 137 109l86 -39q-91 -219 -232 -219q-50 0 -145.5 44t-120.5 44q-75 0 -137 -105z" />
<glyph unicode="&#xd2;" horiz-adv-x="1517" d="M86 739q0 153 38.5 281t103.5 215.5t152.5 148.5t183.5 89t198 28q140 0 261.5 -49.5t212.5 -143t143.5 -239t52.5 -326.5q0 -153 -38.5 -282t-103.5 -217t-152 -150t-183.5 -90.5t-198.5 -28.5q-140 0 -261.5 50.5t-212.5 145t-143.5 241t-52.5 327.5zM313 758 q0 -662 447 -662q89 0 162 30.5t125 85.5t87.5 132.5t52.5 171t17 201.5q0 326 -113 495.5t-337 169.5q-147 0 -248 -82.5t-147 -220t-46 -321.5zM496 1788l71 162l445 -275l-35 -80z" />
<glyph unicode="&#xd3;" horiz-adv-x="1517" d="M86 739q0 153 38.5 281t103.5 215.5t152.5 148.5t183.5 89t198 28q140 0 261.5 -49.5t212.5 -143t143.5 -239t52.5 -326.5q0 -153 -38.5 -282t-103.5 -217t-152 -150t-183.5 -90.5t-198.5 -28.5q-140 0 -261.5 50.5t-212.5 145t-143.5 241t-52.5 327.5zM313 758 q0 -662 447 -662q89 0 162 30.5t125 85.5t87.5 132.5t52.5 171t17 201.5q0 326 -113 495.5t-337 169.5q-147 0 -248 -82.5t-147 -220t-46 -321.5zM504 1675l444 275l72 -162l-481 -193z" />
<glyph unicode="&#xd4;" horiz-adv-x="1517" d="M86 739q0 153 38.5 281t103.5 215.5t152.5 148.5t183.5 89t198 28q140 0 261.5 -49.5t212.5 -143t143.5 -239t52.5 -326.5q0 -153 -38.5 -282t-103.5 -217t-152 -150t-183.5 -90.5t-198.5 -28.5q-140 0 -261.5 50.5t-212.5 145t-143.5 241t-52.5 327.5zM313 758 q0 -662 447 -662q89 0 162 30.5t125 85.5t87.5 132.5t52.5 171t17 201.5q0 326 -113 495.5t-337 169.5q-147 0 -248 -82.5t-147 -220t-46 -321.5zM430 1624l277 299h100l276 -299l-39 -61l-286 196l-289 -196z" />
<glyph unicode="&#xd5;" horiz-adv-x="1517" d="M86 739q0 153 38.5 281t103.5 215.5t152.5 148.5t183.5 89t198 28q140 0 261.5 -49.5t212.5 -143t143.5 -239t52.5 -326.5q0 -153 -38.5 -282t-103.5 -217t-152 -150t-183.5 -90.5t-198.5 -28.5q-140 0 -261.5 50.5t-212.5 145t-143.5 241t-52.5 327.5zM313 758 q0 -662 447 -662q89 0 162 30.5t125 85.5t87.5 132.5t52.5 171t17 201.5q0 326 -113 495.5t-337 169.5q-147 0 -248 -82.5t-147 -220t-46 -321.5zM397 1667q90 215 232 215q50 0 145.5 -44t120.5 -44q74 0 137 109l86 -39q-91 -219 -231 -219q-50 0 -145.5 44t-120.5 44 q-76 0 -138 -105z" />
<glyph unicode="&#xd6;" horiz-adv-x="1517" d="M86 739q0 153 38.5 281t103.5 215.5t152.5 148.5t183.5 89t198 28q140 0 261.5 -49.5t212.5 -143t143.5 -239t52.5 -326.5q0 -153 -38.5 -282t-103.5 -217t-152 -150t-183.5 -90.5t-198.5 -28.5q-140 0 -261.5 50.5t-212.5 145t-143.5 241t-52.5 327.5zM313 758 q0 -662 447 -662q89 0 162 30.5t125 85.5t87.5 132.5t52.5 171t17 201.5q0 326 -113 495.5t-337 169.5q-147 0 -248 -82.5t-147 -220t-46 -321.5zM426 1710q0 47 33.5 81t83.5 34t83 -34t33 -81t-33 -81t-83 -34t-83.5 34t-33.5 81zM856 1710q0 47 33.5 81t83.5 34t83.5 -34 t33.5 -81t-33.5 -81t-83.5 -34t-83.5 34t-33.5 81z" />
<glyph unicode="&#xd7;" horiz-adv-x="1245" d="M178 307l350 346l-350 346l94 95l351 -349l348 347l94 -95l-348 -344l350 -346l-94 -94l-350 346l-351 -346z" />
<glyph unicode="&#xd8;" horiz-adv-x="1517" d="M86 739q0 153 38.5 281t103.5 215.5t152.5 148.5t183.5 89t198 28q215 0 377 -110l102 149h143l-155 -225q203 -209 203 -572q0 -153 -38.5 -282t-103.5 -217t-152 -150t-183.5 -90.5t-198.5 -28.5q-213 0 -373 109l-117 -170h-143l170 246q-207 207 -207 579zM311 758 q0 -323 76 -469l676 983q-104 110 -309 110q-147 0 -248.5 -82.5t-148 -220.5t-46.5 -321zM455 197q104 -101 305 -101q110 0 196 46.5t140 130.5t82 196.5t28 247.5q0 306 -78 461z" />
<glyph unicode="&#xd9;" horiz-adv-x="1501" d="M27 1389v88h591v-88l-188 -39v-865q0 -376 365 -376q182 0 275 92t93 286v861l-190 38v91h502v-88l-164 -39v-881q0 -231 -144.5 -364.5t-404.5 -133.5q-269 0 -409 128.5t-140 349.5v901zM487 1788l72 162l445 -275l-35 -80z" />
<glyph unicode="&#xda;" horiz-adv-x="1501" d="M27 1389v88h591v-88l-188 -39v-865q0 -376 365 -376q182 0 275 92t93 286v861l-190 38v91h502v-88l-164 -39v-881q0 -231 -144.5 -364.5t-404.5 -133.5q-269 0 -409 128.5t-140 349.5v901zM496 1675l444 275l72 -162l-482 -193z" />
<glyph unicode="&#xdb;" horiz-adv-x="1501" d="M27 1389v88h591v-88l-188 -39v-865q0 -376 365 -376q182 0 275 92t93 286v861l-190 38v91h502v-88l-164 -39v-881q0 -231 -144.5 -364.5t-404.5 -133.5q-269 0 -409 128.5t-140 349.5v901zM422 1624l276 299h101l276 -299l-39 -61l-286 196l-289 -196z" />
<glyph unicode="&#xdc;" horiz-adv-x="1501" d="M27 1389v88h591v-88l-188 -39v-865q0 -376 365 -376q182 0 275 92t93 286v861l-190 38v91h502v-88l-164 -39v-881q0 -231 -144.5 -364.5t-404.5 -133.5q-269 0 -409 128.5t-140 349.5v901zM418 1710q0 47 33.5 81t83.5 34t83 -34t33 -81t-33 -81t-83 -34t-83.5 34 t-33.5 81zM848 1710q0 47 33.5 81t83.5 34t83 -34t33 -81t-33 -81t-83 -34t-83.5 34t-33.5 81z" />
<glyph unicode="&#xdd;" horiz-adv-x="1357" d="M25 1389v88h512v-88l-148 -41l344 -594h8l316 594l-158 41v88h434v-88l-129 -41l-403 -713v-508l186 -39v-88h-590v88l189 39v512l-430 709zM424 1675l444 275l72 -162l-481 -193z" />
<glyph unicode="&#xde;" horiz-adv-x="1251" d="M68 0v88l190 39v1221l-190 41v88h591v-88l-186 -41v-172h193q147 0 252.5 -28t166.5 -81.5t89 -123t28 -159.5q0 -203 -133 -303t-360 -100q-114 0 -236 20v-274l225 -39v-88h-630zM473 512q94 -16 203 -16q156 0 228.5 66.5t72.5 205.5q0 150 -67 216.5t-222 66.5h-215 v-539z" />
<glyph unicode="&#xdf;" horiz-adv-x="1333" d="M57 0v72l160 34v861h-154v75l154 54v102q0 186 140 311t358 125q183 0 296 -80t113 -219q0 -66 -33.5 -134t-82 -122.5t-96.5 -103t-81.5 -92.5t-33.5 -74q0 -48 25 -76t100 -69l94 -54q47 -27 74.5 -44.5t63.5 -47t54.5 -58.5t32.5 -71t14 -92q0 -140 -98 -233t-276 -93 q-153 0 -279 52l-16 231h104l53 -139q62 -25 142 -25q91 0 141.5 39.5t50.5 114.5q0 66 -37.5 106.5t-117.5 85.5l-95 53q-49 28 -76.5 46.5t-60.5 50t-48 70.5t-15 89q0 48 22.5 98.5t56 92t73 89.5t73 90.5t56 95.5t22.5 104q0 95 -55 149t-158 54q-82 0 -142 -27.5 t-94.5 -76t-50.5 -109t-16 -134.5v-1171h-357z" />
<glyph unicode="&#xe0;" horiz-adv-x="1067" d="M59 279q0 69 23.5 120.5t71 85.5t105 55t138.5 38l283 57v102q0 46 -3 78t-12.5 63t-26.5 50t-44.5 34.5t-67.5 22t-94 6.5q-49 0 -131 -14l-47 -176h-119v256q68 22 182 39.5t211 17.5q180 0 264.5 -78t84.5 -243v-629q0 -47 24 -60.5t80 -13.5h68v-74 q-111 -36 -189 -36q-141 0 -160 112h-12q-117 -121 -293 -121q-148 0 -242 85.5t-94 222.5zM262 299q0 -89 51.5 -142t153.5 -53q61 0 119 24t94 54v326l-221 -16q-107 -7 -152 -56t-45 -137zM270 1440l72 162l444 -275l-34 -80z" />
<glyph unicode="&#xe1;" horiz-adv-x="1067" d="M59 279q0 69 23.5 120.5t71 85.5t105 55t138.5 38l283 57v102q0 46 -3 78t-12.5 63t-26.5 50t-44.5 34.5t-67.5 22t-94 6.5q-49 0 -131 -14l-47 -176h-119v256q68 22 182 39.5t211 17.5q180 0 264.5 -78t84.5 -243v-629q0 -47 24 -60.5t80 -13.5h68v-74 q-111 -36 -189 -36q-141 0 -160 112h-12q-117 -121 -293 -121q-148 0 -242 85.5t-94 222.5zM262 299q0 -89 51.5 -142t153.5 -53q61 0 119 24t94 54v326l-221 -16q-107 -7 -152 -56t-45 -137zM279 1327l444 275l72 -162l-482 -193z" />
<glyph unicode="&#xe2;" horiz-adv-x="1067" d="M59 279q0 69 23.5 120.5t71 85.5t105 55t138.5 38l283 57v102q0 46 -3 78t-12.5 63t-26.5 50t-44.5 34.5t-67.5 22t-94 6.5q-49 0 -131 -14l-47 -176h-119v256q68 22 182 39.5t211 17.5q180 0 264.5 -78t84.5 -243v-629q0 -47 24 -60.5t80 -13.5h68v-74 q-111 -36 -189 -36q-141 0 -160 112h-12q-117 -121 -293 -121q-148 0 -242 85.5t-94 222.5zM205 1276l276 299h101l276 -299l-39 -62l-287 197l-288 -197zM262 299q0 -89 51.5 -142t153.5 -53q61 0 119 24t94 54v326l-221 -16q-107 -7 -152 -56t-45 -137z" />
<glyph unicode="&#xe3;" horiz-adv-x="1067" d="M59 279q0 69 23.5 120.5t71 85.5t105 55t138.5 38l283 57v102q0 46 -3 78t-12.5 63t-26.5 50t-44.5 34.5t-67.5 22t-94 6.5q-49 0 -131 -14l-47 -176h-119v256q68 22 182 39.5t211 17.5q180 0 264.5 -78t84.5 -243v-629q0 -47 24 -60.5t80 -13.5h68v-74 q-111 -36 -189 -36q-141 0 -160 112h-12q-117 -121 -293 -121q-148 0 -242 85.5t-94 222.5zM172 1319q90 215 231 215q50 0 146 -44t121 -44q36 0 68.5 23t68.5 85l86 -38q-91 -220 -231 -220q-50 0 -146 44t-121 44q-36 0 -69 -22t-68 -82zM262 299q0 -89 51.5 -142 t153.5 -53q61 0 119 24t94 54v326l-221 -16q-107 -7 -152 -56t-45 -137z" />
<glyph unicode="&#xe4;" horiz-adv-x="1067" d="M59 279q0 69 23.5 120.5t71 85.5t105 55t138.5 38l283 57v102q0 46 -3 78t-12.5 63t-26.5 50t-44.5 34.5t-67.5 22t-94 6.5q-49 0 -131 -14l-47 -176h-119v256q68 22 182 39.5t211 17.5q180 0 264.5 -78t84.5 -243v-629q0 -47 24 -60.5t80 -13.5h68v-74 q-111 -36 -189 -36q-141 0 -160 112h-12q-117 -121 -293 -121q-148 0 -242 85.5t-94 222.5zM201 1362q0 47 33 81t83 34t83.5 -34t33.5 -81t-33.5 -81t-83.5 -34t-83 34t-33 81zM262 299q0 -89 51.5 -142t153.5 -53q61 0 119 24t94 54v326l-221 -16q-107 -7 -152 -56 t-45 -137zM631 1362q0 47 33.5 81t83.5 34t83 -34t33 -81t-33 -81t-83 -34t-83.5 34t-33.5 81z" />
<glyph unicode="&#xe5;" horiz-adv-x="1067" d="M59 279q0 69 23.5 120.5t71 85.5t105 55t138.5 38l283 57v102q0 46 -3 78t-12.5 63t-26.5 50t-44.5 34.5t-67.5 22t-94 6.5q-49 0 -131 -14l-47 -176h-119v256q68 22 182 39.5t211 17.5q180 0 264.5 -78t84.5 -243v-629q0 -47 24 -60.5t80 -13.5h68v-74 q-111 -36 -189 -36q-141 0 -160 112h-12q-117 -121 -293 -121q-148 0 -242 85.5t-94 222.5zM262 299q0 -89 51.5 -142t153.5 -53q61 0 119 24t94 54v326l-221 -16q-107 -7 -152 -56t-45 -137zM279 1458q0 100 74.5 171t181.5 71q106 0 178.5 -70.5t72.5 -171.5 q0 -102 -72 -173t-179 -71t-181.5 71.5t-74.5 172.5zM385 1458q0 -70 41 -111.5t109 -41.5t107.5 41.5t39.5 111.5q0 69 -40 110.5t-107 41.5q-68 0 -109 -41.5t-41 -110.5z" />
<glyph unicode="&#xe6;" horiz-adv-x="1701" d="M59 279q0 69 24.5 120.5t73 85.5t106.5 55t140 38l289 53v106q0 69 -9 112t-35.5 77.5t-77.5 49.5t-132 15q-59 0 -137 -16l-47 -174h-119v233q68 30 185.5 55t214.5 25q240 0 301 -168q123 168 346 168q119 0 205 -39.5t138 -116t76.5 -180t24.5 -239.5h-739 q7 -209 102 -317.5t266 -108.5q107 0 178 17.5t144 51.5v-96q-159 -111 -363 -111q-288 0 -423 185q-63 -79 -168.5 -134t-221.5 -55q-149 0 -245.5 85.5t-96.5 222.5zM262 299q0 -88 54.5 -141.5t156.5 -53.5q140 0 275 129q-54 109 -64 273l-219 -14q-108 -7 -155.5 -56 t-47.5 -137zM887 645h516q0 188 -56 271t-178 83q-131 0 -200.5 -85t-81.5 -269z" />
<glyph unicode="&#xe7;" horiz-adv-x="1021" d="M80 537q0 121 30 218.5t82.5 163.5t126 110.5t158 64.5t180.5 20q160 0 287 -43v-274h-113l-43 180q-58 20 -155 20q-165 0 -257.5 -110.5t-92.5 -325.5q0 -122 29.5 -210.5t83.5 -139t121 -73.5t151 -23q185 0 297 55v-98q-139 -97 -353 -97q-9 0 -26 1t-25 1v-114 q133 -5 197.5 -42t64.5 -112q0 -43 -19.5 -76t-68.5 -62t-144.5 -46t-236.5 -21v78q89 7 150 18t93.5 26.5t46 32.5t13.5 38q0 70 -196 70v225q-183 41 -282 184t-99 361z" />
<glyph unicode="&#xe8;" horiz-adv-x="1110" d="M80 555q0 255 144 407t360 152q450 0 450 -575h-751q7 -209 104.5 -317.5t269.5 -108.5q108 0 182 18t146 51v-96q-159 -111 -369 -111q-138 0 -242 42.5t-167.5 121t-95 183t-31.5 233.5zM283 645h528q0 187 -59 270.5t-181 83.5q-132 0 -204 -85.5t-84 -268.5z M293 1440l72 162l444 -275l-35 -80z" />
<glyph unicode="&#xe9;" horiz-adv-x="1110" d="M80 555q0 255 144 407t360 152q450 0 450 -575h-751q7 -209 104.5 -317.5t269.5 -108.5q108 0 182 18t146 51v-96q-159 -111 -369 -111q-138 0 -242 42.5t-167.5 121t-95 183t-31.5 233.5zM283 645h528q0 187 -59 270.5t-181 83.5q-132 0 -204 -85.5t-84 -268.5z M301 1327l444 275l72 -162l-481 -193z" />
<glyph unicode="&#xea;" horiz-adv-x="1110" d="M80 555q0 255 144 407t360 152q450 0 450 -575h-751q7 -209 104.5 -317.5t269.5 -108.5q108 0 182 18t146 51v-96q-159 -111 -369 -111q-138 0 -242 42.5t-167.5 121t-95 183t-31.5 233.5zM227 1276l277 299h100l277 -299l-39 -62l-287 197l-289 -197zM283 645h528 q0 187 -59 270.5t-181 83.5q-132 0 -204 -85.5t-84 -268.5z" />
<glyph unicode="&#xeb;" horiz-adv-x="1110" d="M80 555q0 255 144 407t360 152q450 0 450 -575h-751q7 -209 104.5 -317.5t269.5 -108.5q108 0 182 18t146 51v-96q-159 -111 -369 -111q-138 0 -242 42.5t-167.5 121t-95 183t-31.5 233.5zM223 1362q0 47 33.5 81t83.5 34t83.5 -34t33.5 -81t-33.5 -81t-83.5 -34 t-83.5 34t-33.5 81zM283 645h528q0 187 -59 270.5t-181 83.5q-132 0 -204 -85.5t-84 -268.5zM653 1362q0 47 33.5 81t83.5 34t83.5 -34t33.5 -81t-33.5 -81t-83.5 -34t-83.5 34t-33.5 81z" />
<glyph unicode="&#xec;" horiz-adv-x="628" d="M45 977v82l346 51l23 -12v-992l161 -34v-72h-518v72l160 34v838zM51 1440l72 162l444 -275l-35 -80z" />
<glyph unicode="&#xed;" horiz-adv-x="628" d="M45 977v82l346 51l23 -12v-992l161 -34v-72h-518v72l160 34v838zM59 1327l445 275l71 -162l-481 -193z" />
<glyph unicode="&#xee;" horiz-adv-x="628" d="M-14 1276l276 299h100l277 -299l-39 -62l-287 197l-288 -197zM45 977v82l346 51l23 -12v-992l161 -34v-72h-518v72l160 34v838z" />
<glyph unicode="&#xef;" horiz-adv-x="628" d="M-18 1362q0 47 33 81t83 34t83.5 -34t33.5 -81t-33.5 -81t-83.5 -34t-83 34t-33 81zM45 977v82l346 51l23 -12v-992l161 -34v-72h-518v72l160 34v838zM412 1362q0 47 33 81t83 34t83.5 -34t33.5 -81t-33.5 -81t-83.5 -34t-83 34t-33 81z" />
<glyph unicode="&#xf0;" d="M80 539q0 126 40 234.5t108 182.5t160 116t194 42q171 0 290 -139q-86 201 -256 368l-276 -122v114l192 84q-88 73 -202 142l51 81q172 -73 295 -159l285 127v-115l-191 -84q365 -311 365 -797q0 -155 -41 -278.5t-113 -202.5t-166.5 -120.5t-204.5 -41.5 q-238 0 -384 156t-146 412zM285 553q0 -124 27 -216.5t74.5 -144.5t104 -77t121.5 -25q64 0 118 22.5t100 71.5t72 138t26 210q0 125 -29 218.5t-78 145.5t-106 76.5t-121 24.5t-117 -22.5t-97.5 -72t-69.5 -138.5t-25 -211z" />
<glyph unicode="&#xf1;" horiz-adv-x="1302" d="M55 0v72l162 34v838l-162 33v82l326 51l22 -12v-97h13q202 113 370 113q158 0 234 -68t76 -225v-715l161 -34v-72h-516v72l158 34v664q0 108 -55 150.5t-176 42.5q-113 0 -254 -50v-807l157 -34v-72h-516zM291 1319q90 215 231 215q50 0 145.5 -44t120.5 -44 q36 0 69 23.5t69 84.5l86 -38q-91 -220 -232 -220q-50 0 -145.5 44t-120.5 44q-36 0 -69 -22t-68 -82z" />
<glyph unicode="&#xf2;" d="M80 539q0 126 41.5 234.5t112 182.5t166.5 116t204 42q238 0 384.5 -154.5t146.5 -410.5q0 -167 -71 -300t-190.5 -205.5t-263.5 -72.5q-238 0 -384 156t-146 412zM285 553q0 -124 27 -216.5t74.5 -144.5t104 -77t121.5 -25q64 0 118 22.5t100 71.5t72 138t26 210 q0 125 -27.5 218.5t-74.5 145.5t-103 76.5t-121 24.5q-64 0 -118.5 -22.5t-100.5 -72t-72 -138.5t-26 -211zM344 1440l72 162l444 -275l-35 -80z" />
<glyph unicode="&#xf3;" d="M80 539q0 126 41.5 234.5t112 182.5t166.5 116t204 42q238 0 384.5 -154.5t146.5 -410.5q0 -167 -71 -300t-190.5 -205.5t-263.5 -72.5q-238 0 -384 156t-146 412zM285 553q0 -124 27 -216.5t74.5 -144.5t104 -77t121.5 -25q64 0 118 22.5t100 71.5t72 138t26 210 q0 125 -27.5 218.5t-74.5 145.5t-103 76.5t-121 24.5q-64 0 -118.5 -22.5t-100.5 -72t-72 -138.5t-26 -211zM352 1327l445 275l71 -162l-481 -193z" />
<glyph unicode="&#xf4;" d="M80 539q0 126 41.5 234.5t112 182.5t166.5 116t204 42q238 0 384.5 -154.5t146.5 -410.5q0 -167 -71 -300t-190.5 -205.5t-263.5 -72.5q-238 0 -384 156t-146 412zM279 1276l276 299h100l277 -299l-39 -62l-287 197l-289 -197zM285 553q0 -124 27 -216.5t74.5 -144.5 t104 -77t121.5 -25q64 0 118 22.5t100 71.5t72 138t26 210q0 125 -27.5 218.5t-74.5 145.5t-103 76.5t-121 24.5q-64 0 -118.5 -22.5t-100.5 -72t-72 -138.5t-26 -211z" />
<glyph unicode="&#xf5;" d="M80 539q0 126 41.5 234.5t112 182.5t166.5 116t204 42q238 0 384.5 -154.5t146.5 -410.5q0 -167 -71 -300t-190.5 -205.5t-263.5 -72.5q-238 0 -384 156t-146 412zM246 1319q90 215 231 215q50 0 145.5 -44t120.5 -44q36 0 69 23.5t69 84.5l86 -38q-91 -220 -232 -220 q-50 0 -145.5 44t-120.5 44q-36 0 -69 -22t-68 -82zM285 553q0 -124 27 -216.5t74.5 -144.5t104 -77t121.5 -25q64 0 118 22.5t100 71.5t72 138t26 210q0 125 -27.5 218.5t-74.5 145.5t-103 76.5t-121 24.5q-64 0 -118.5 -22.5t-100.5 -72t-72 -138.5t-26 -211z" />
<glyph unicode="&#xf6;" d="M80 539q0 126 41.5 234.5t112 182.5t166.5 116t204 42q238 0 384.5 -154.5t146.5 -410.5q0 -167 -71 -300t-190.5 -205.5t-263.5 -72.5q-238 0 -384 156t-146 412zM274 1362q0 47 33.5 81t83.5 34t83.5 -34t33.5 -81t-33.5 -81t-83.5 -34t-83.5 34t-33.5 81zM285 553 q0 -124 27 -216.5t74.5 -144.5t104 -77t121.5 -25q64 0 118 22.5t100 71.5t72 138t26 210q0 125 -27.5 218.5t-74.5 145.5t-103 76.5t-121 24.5q-64 0 -118.5 -22.5t-100.5 -72t-72 -138.5t-26 -211zM705 1362q0 47 33 81t83 34t83.5 -34t33.5 -81t-33.5 -81t-83.5 -34 t-83 34t-33 81z" />
<glyph unicode="&#xf7;" horiz-adv-x="1263" d="M150 598v133h964v-133h-964zM496 254q0 55 38.5 93t94.5 38t96.5 -38t40.5 -93q0 -51 -41 -91t-96 -40t-94 39.5t-39 91.5zM496 1073q0 55 38.5 93t94.5 38t96.5 -38t40.5 -93q0 -51 -41 -90t-96 -39t-94 38.5t-39 90.5z" />
<glyph unicode="&#xf8;" d="M57 -86l164 217q-141 154 -141 408q0 126 41.5 234.5t112 182.5t166.5 116t204 42q169 0 299 -84l98 127h144l-154 -201q144 -153 144 -407q0 -167 -71 -300t-190.5 -205.5t-263.5 -72.5q-175 0 -303 84l-106 -141h-144zM281 553q0 -177 49 -291l495 651q-81 84 -223 84 q-64 0 -119 -22.5t-101.5 -71.5t-73.5 -138.5t-27 -211.5zM389 174q81 -84 223 -84q51 0 96 13.5t86.5 46t71.5 81.5t48 126t18 175q0 180 -49 291z" />
<glyph unicode="&#xf9;" horiz-adv-x="1302" d="M35 993v80l334 35l24 -12v-748q0 -122 44.5 -175.5t168.5 -53.5q62 0 119 11.5t81 20.5t71 29v778l-158 35v80l332 35l24 -12v-961l160 -35v-71l-322 -49l-24 10v119h-12q-145 -129 -365 -129q-315 0 -315 319v659zM389 1440l72 162l444 -275l-35 -80z" />
<glyph unicode="&#xfa;" horiz-adv-x="1302" d="M35 993v80l334 35l24 -12v-748q0 -122 44.5 -175.5t168.5 -53.5q62 0 119 11.5t81 20.5t71 29v778l-158 35v80l332 35l24 -12v-961l160 -35v-71l-322 -49l-24 10v119h-12q-145 -129 -365 -129q-315 0 -315 319v659zM397 1327l445 275l71 -162l-481 -193z" />
<glyph unicode="&#xfb;" horiz-adv-x="1302" d="M35 993v80l334 35l24 -12v-748q0 -122 44.5 -175.5t168.5 -53.5q62 0 119 11.5t81 20.5t71 29v778l-158 35v80l332 35l24 -12v-961l160 -35v-71l-322 -49l-24 10v119h-12q-145 -129 -365 -129q-315 0 -315 319v659zM324 1276l276 299h100l277 -299l-39 -62l-287 197 l-289 -197z" />
<glyph unicode="&#xfc;" horiz-adv-x="1302" d="M35 993v80l334 35l24 -12v-748q0 -122 44.5 -175.5t168.5 -53.5q62 0 119 11.5t81 20.5t71 29v778l-158 35v80l332 35l24 -12v-961l160 -35v-71l-322 -49l-24 10v119h-12q-145 -129 -365 -129q-315 0 -315 319v659zM319 1362q0 47 33.5 81t83.5 34t83.5 -34t33.5 -81 t-33.5 -81t-83.5 -34t-83.5 34t-33.5 81zM750 1362q0 47 33 81t83 34t83.5 -34t33.5 -81t-33.5 -81t-83.5 -34t-83 34t-33 81z" />
<glyph unicode="&#xfd;" horiz-adv-x="1181" d="M20 1016v78h484v-78l-146 -29l189 -483q19 -48 39 -120.5t30 -120.5l11 -48h10q47 178 86 289l166 479l-139 33v78h411v-78l-121 -33l-436 -1145q-57 -151 -127 -216.5t-188 -65.5q-105 0 -168 53v110q88 -18 112 -18q94 0 148 38.5t96 139.5l64 152l-400 952zM336 1327 l444 275l72 -162l-481 -193z" />
<glyph unicode="&#xfe;" horiz-adv-x="1243" d="M23 1497v82l335 49l25 -10v-614h14q74 52 151 81t181 29q67 0 125 -14t115 -50.5t97 -94t64.5 -151.5t24.5 -216q0 -298 -152.5 -455.5t-414.5 -157.5q-110 0 -203 19v-332l186 -35v-71h-544v71l159 31v1806zM383 154q32 -21 53 -32t68.5 -22.5t107.5 -11.5 q162 0 251 106.5t89 354.5q0 222 -82 318t-243 96q-112 0 -244 -54v-755z" />
<glyph unicode="&#xff;" horiz-adv-x="1181" d="M20 1016v78h484v-78l-146 -29l189 -483q19 -48 39 -120.5t30 -120.5l11 -48h10q47 178 86 289l166 479l-139 33v78h411v-78l-121 -33l-436 -1145q-57 -151 -127 -216.5t-188 -65.5q-105 0 -168 53v110q88 -18 112 -18q94 0 148 38.5t96 139.5l64 152l-400 952zM258 1362 q0 47 33.5 81t83.5 34t83.5 -34t33.5 -81t-33.5 -81t-83.5 -34t-83.5 34t-33.5 81zM688 1362q0 47 33.5 81t83.5 34t83.5 -34t33.5 -81t-33.5 -81t-83.5 -34t-83.5 34t-33.5 81z" />
<glyph unicode="&#x152;" horiz-adv-x="2007" d="M84 700q0 381 185.5 579t564.5 198h1046l25 -367h-103l-94 250h-506v-545h262l58 203h92v-516h-92l-58 205h-262v-590h529l116 309h103l-29 -426h-1063q-402 0 -588 178t-186 522zM313 733q0 -101 9.5 -183t30.5 -143.5t47.5 -108t66.5 -78t81.5 -52t99 -32t112.5 -15.5 t127 -4h100v1243h-158q-130 0 -223 -31t-160.5 -103t-100 -194t-32.5 -299z" />
<glyph unicode="&#x153;" horiz-adv-x="1951" d="M80 539q0 126 41.5 234.5t112 182.5t166.5 116t204 42q149 0 256 -63.5t166 -182.5q59 119 161.5 182.5t237.5 63.5q451 0 451 -575h-752q7 -209 105 -317.5t270 -108.5q108 0 182 18t146 51v-96q-159 -111 -369 -111q-328 0 -438 246q-62 -118 -168.5 -184t-241.5 -66 q-238 0 -384 156t-146 412zM285 553q0 -124 27 -216.5t74.5 -144.5t104 -77t121.5 -25q64 0 118 22.5t100 71.5t72 138t26 210q0 125 -27.5 218.5t-74.5 145.5t-103 76.5t-121 24.5q-64 0 -118.5 -22.5t-100.5 -72t-72 -138.5t-26 -211zM1124 645h529q0 187 -59 270.5 t-181 83.5q-132 0 -204.5 -86t-84.5 -268z" />
<glyph unicode="&#x178;" horiz-adv-x="1357" d="M25 1389v88h512v-88l-148 -41l344 -594h8l316 594l-158 41v88h434v-88l-129 -41l-403 -713v-508l186 -39v-88h-590v88l189 39v512l-430 709zM346 1710q0 47 33.5 81t83.5 34t83.5 -34t33.5 -81t-33.5 -81t-83.5 -34t-83.5 34t-33.5 81zM776 1710q0 47 33.5 81t83.5 34 t83.5 -34t33.5 -81t-33.5 -81t-83.5 -34t-83.5 34t-33.5 81z" />
<glyph unicode="&#x2c6;" horiz-adv-x="1024" d="M184 1276l277 299h100l277 -299l-39 -62l-287 197l-289 -197z" />
<glyph unicode="&#x2dc;" horiz-adv-x="1024" d="M152 1319q90 215 231 215q50 0 145.5 -44t120.5 -44q36 0 68.5 23t68.5 85l86 -38q-91 -220 -231 -220q-50 0 -145.5 44t-120.5 44q-36 0 -69 -22t-68 -82z" />
<glyph unicode="&#x2000;" horiz-adv-x="1024" />
<glyph unicode="&#x2001;" horiz-adv-x="2048" />
<glyph unicode="&#x2002;" horiz-adv-x="1024" />
<glyph unicode="&#x2003;" horiz-adv-x="2048" />
<glyph unicode="&#x2004;" horiz-adv-x="682" />
<glyph unicode="&#x2005;" horiz-adv-x="512" />
<glyph unicode="&#x2006;" horiz-adv-x="341" />
<glyph unicode="&#x2007;" horiz-adv-x="341" />
<glyph unicode="&#x2008;" horiz-adv-x="256" />
<glyph unicode="&#x2009;" horiz-adv-x="409" />
<glyph unicode="&#x200a;" horiz-adv-x="113" />
<glyph unicode="&#x2010;" horiz-adv-x="739" d="M113 528v166h514v-166h-514z" />
<glyph unicode="&#x2011;" horiz-adv-x="739" d="M113 528v166h514v-166h-514z" />
<glyph unicode="&#x2012;" horiz-adv-x="739" d="M113 528v166h514v-166h-514z" />
<glyph unicode="&#x2013;" horiz-adv-x="933" d="M113 555v133h708v-133h-708z" />
<glyph unicode="&#x2014;" horiz-adv-x="1536" d="M113 555v133h1310v-133h-1310z" />
<glyph unicode="&#x2018;" horiz-adv-x="620" d="M133 1116q0 43 9 83t34 85t65 84t106 77t153 66l30 -73q-148 -71 -204.5 -147t-61.5 -179q29 29 84 29q49 0 82 -32.5t33 -88.5q0 -58 -42.5 -92.5t-107.5 -34.5q-75 0 -127.5 57.5t-52.5 165.5z" />
<glyph unicode="&#x2019;" horiz-adv-x="620" d="M90 956q148 71 204.5 147t61.5 179q-29 -29 -84 -29q-49 0 -81.5 32t-32.5 89q0 59 42 93t107 34q75 0 127.5 -57.5t52.5 -165.5q0 -275 -366 -395z" />
<glyph unicode="&#x201a;" horiz-adv-x="620" d="M90 -195q148 71 204.5 147t61.5 179q-29 -29 -84 -29q-49 0 -81.5 32t-32.5 89q0 59 42 93t107 34q75 0 127.5 -57.5t52.5 -165.5q0 -275 -366 -395z" />
<glyph unicode="&#x201c;" horiz-adv-x="1087" d="M133 1116q0 43 9 83t34 85t65 84t106 77t153 66l30 -73q-148 -71 -204.5 -147t-61.5 -179q29 29 84 29q49 0 82 -32.5t33 -88.5q0 -58 -42.5 -92.5t-107.5 -34.5q-75 0 -127.5 57.5t-52.5 165.5zM600 1116q0 43 9 83t34 85t65 84t106 77t153 66l30 -73 q-148 -71 -204.5 -147t-61.5 -179q29 29 84 29q49 0 82 -32.5t33 -88.5q0 -58 -42.5 -92.5t-107.5 -34.5q-75 0 -127.5 57.5t-52.5 165.5z" />
<glyph unicode="&#x201d;" horiz-adv-x="1087" d="M90 956q148 71 204.5 147t61.5 179q-29 -29 -84 -29q-49 0 -81.5 32t-32.5 89q0 59 42 93t107 34q75 0 127.5 -57.5t52.5 -165.5q0 -275 -366 -395zM557 956q148 71 204.5 147t61.5 179q-29 -29 -84 -29q-49 0 -81.5 32t-32.5 89q0 59 42 93t107 34q75 0 127.5 -57.5 t52.5 -165.5q0 -275 -366 -395z" />
<glyph unicode="&#x201e;" horiz-adv-x="1087" d="M90 -195q148 71 204.5 147t61.5 179q-29 -29 -84 -29q-49 0 -81.5 32t-32.5 89q0 59 42 93t107 34q75 0 127.5 -57.5t52.5 -165.5q0 -275 -366 -395zM557 -195q148 71 204.5 147t61.5 179q-29 -29 -84 -29q-49 0 -81.5 32t-32.5 89q0 59 42 93t107 34q75 0 127.5 -57.5 t52.5 -165.5q0 -275 -366 -395z" />
<glyph unicode="&#x2022;" horiz-adv-x="1800" d="M100 760q0 215 107 396.5t291 287.5t401 106q162 0 310.5 -62.5t256.5 -168.5t172 -252.5t64 -306.5q0 -161 -64 -308t-172 -253.5t-256.5 -170t-310.5 -63.5q-163 0 -311 63.5t-255 170t-170 253.5t-63 308z" />
<glyph unicode="&#x2026;" horiz-adv-x="1835" d="M162 117q0 66 45.5 109.5t111.5 43.5q67 0 112.5 -43.5t45.5 -109.5t-46 -110t-112 -44t-111.5 44t-45.5 110zM760 117q0 66 45.5 109.5t112.5 43.5q66 0 111.5 -43.5t45.5 -109.5t-45.5 -110t-111.5 -44t-112 44t-46 110zM1358 117q0 66 45.5 109.5t112.5 43.5 q66 0 111.5 -43.5t45.5 -109.5t-45.5 -110t-111.5 -44t-112 44t-46 110z" />
<glyph unicode="&#x202f;" horiz-adv-x="409" />
<glyph unicode="&#x2039;" horiz-adv-x="618" d="M92 508v61l301 451h129l-243 -481l243 -484h-129z" />
<glyph unicode="&#x203a;" horiz-adv-x="618" d="M96 55l244 482l-244 483h129l301 -453v-61l-301 -451h-129z" />
<glyph unicode="&#x205f;" horiz-adv-x="512" />
<glyph unicode="&#x20ac;" horiz-adv-x="1325" d="M90 477v107h166q-4 33 -4 102q0 59 2 88h-164v107h178q20 111 64 199t102.5 146t133 97t153.5 55.5t166 16.5q164 0 330 -56l10 -335h-92l-88 231q-79 45 -185 45q-172 0 -271 -102.5t-126 -296.5h461v-107h-471v-49q0 -77 6 -141h465v-107h-453q35 -188 138.5 -277 t285.5 -89q154 0 338 67v-92q-159 -111 -377 -111q-235 0 -390 126.5t-200 375.5h-178z" />
<glyph unicode="&#x2122;" horiz-adv-x="2185" d="M96 1196l15 281h741l16 -281h-102l-53 190h-144v-626l109 -21v-75h-393v75l106 21v626h-141l-53 -190h-101zM973 664v75l104 21v616l-104 25v76h346l104 -283q20 -55 44 -132.5t39 -127.5l14 -51h10q43 190 90 311l109 283h366v-76l-117 -25v-614l117 -23v-75h-381v75 l88 23v311q0 59 3 142t7 137l3 53h-11q-59 -193 -108 -320l-148 -385h-104l-146 385q-21 56 -46.5 136t-40.5 132l-15 52h-10q12 -199 12 -332v-311l94 -23v-75h-319z" />
<glyph unicode="&#xe000;" horiz-adv-x="1095" d="M0 0v1096h1096v-1096h-1096z" />
</font>
</defs>
</svg>
