<?xml version="1.0" encoding="UTF-8" standalone="no"?>
<svg width="200px" height="200px" viewBox="0 0 200 200" version="1.1" xmlns="http://www.w3.org/2000/svg" xmlns:xlink="http://www.w3.org/1999/xlink" xmlns:sketch="http://www.bohemiancoding.com/sketch/ns">
    <title>image-1x1</title>
    <description>Created with Sketch (http://www.bohemiancoding.com/sketch)</description>
    <defs></defs>
    <g id="Page 1" stroke="none" stroke-width="1" fill="none" fill-rule="evenodd" sketch:type="MSPage">
        <g id="image-1x1" sketch:type="MSLayerGroup" fill="#CCCCCC">
            <g id="Page 1" sketch:type="MSShapeGroup">
                <path d="M0,0 L0,200 L200,200 L200,0 L0,0 L0,0 Z M0,0" id="Rectangle 1"></path>
            </g>
        </g>
        <g id="Group" sketch:type="MSLayerGroup" transform="translate(34.000000, 82.000000)" fill="#E5E5E5">
            <polygon d="M114,0 L132,36 L96,36 L114,0 Z M114,0" id="Triangle 1" sketch:type="MSShapeGroup" points="114 0 132 36 96 36 "></polygon>
            <rect d="M48,0 L48,36 L84,36 L84,0 L48,0 Z M48,0" id="Rectangle 1" sketch:type="MSShapeGroup" x="48" y="0" width="36" height="36"></rect>
            <circle d="M18,36 C27.941126,36 36,27.941126 36,18 C36,8.05887401 27.941126,0 18,0 C8.05887401,0 0,8.05887401 0,18 C0,27.941126 8.05887401,36 18,36 Z M18,36" id="Oval 1" sketch:type="MSShapeGroup" cx="18" cy="18" r="18"></circle>
        </g>
    </g>
</svg>