<?xml version="1.0" encoding="UTF-8" standalone="no"?>
<svg width="70px" height="70px" xmlns="http://www.w3.org/2000/svg" version="1.1">
    <title></title>
    <description>Created with Sketch (http://www.bohemiancoding.com/sketch)</description>
    <defs>
        <linearGradient id="gradient-1" x1="50%" y1="0%" x2="50%" y2="100%">
            <stop offset="0%" style="stop-color:rgb(255,255,255); stop-opacity:100"></stop>
            <stop offset="100%" style="stop-color:rgb(0,0,0); stop-opacity:100"></stop>
        </linearGradient>
        <linearGradient id="gradient-2" x1="56%" y1="0%" x2="43%" y2="99%">
            <stop offset="0%" style="stop-color:rgb(255,255,255); stop-opacity:100"></stop>
            <stop offset="100%" style="stop-color:rgb(0,0,0); stop-opacity:100"></stop>
        </linearGradient>
        <linearGradient id="gradient-3" x1="50%" y1="0%" x2="50%" y2="100%">
            <stop offset="0%" style="stop-color:rgb(255,255,255); stop-opacity:100"></stop>
            <stop offset="100%" style="stop-color:rgb(0,0,0); stop-opacity:100"></stop>
        </linearGradient>
        <linearGradient id="gradient-4" x1="50%" y1="0%" x2="50%" y2="100%">
            <stop offset="0%" style="stop-color:rgb(255,255,255); stop-opacity:100"></stop>
            <stop offset="100%" style="stop-color:rgb(0,0,0); stop-opacity:100"></stop>
        </linearGradient>
    </defs>
    <g fill="rgb(215,215,215)" id="Page 1">
        <g fill="rgb(204,204,204)" id="Oval 23"></g>
        <path id="Oval 23" d="M27,47 C22,43 20,36 21,28 C22,17 30,10 37,11 C45,12 50,21 48,32 C48,37 46,41 43,44 C49,44 55,44 59,46 C72,51 71,70 71,70 L1,70 L10,51 C10,51 17,49 27,47 Z M27,47" fill="rgb(204,204,204)"></path>
        <path id="Oval 23 decoration" d="" fill="rgb(204,204,204)"></path>
    </g>
</svg>