<?xml version="1.0" encoding="utf-8"?>
<!-- Generator: Adobe Illustrator 15.1.0, SVG Export Plug-In . SVG Version: 6.00 Build 0)  -->
<!DOCTYPE svg PUBLIC "-//W3C//DTD SVG 1.1//EN" "http://www.w3.org/Graphics/SVG/1.1/DTD/svg11.dtd">
<svg version="1.1" id="Layer_1" xmlns="http://www.w3.org/2000/svg" xmlns:xlink="http://www.w3.org/1999/xlink" x="0px" y="0px"
	 width="500px" height="300px" viewBox="0 0 500 300" enable-background="new 0 0 500 300" xml:space="preserve">
<title></title>
<description>Created with Sketch (http://www.bohemiancoding.com/sketch)</description>
<g id="Rectangle_1">
</g>
<rect fill="#C1C1C1" width="500" height="300"/>
<circle fill="#FFFFFF" cx="250" cy="150" r="62"/>
<polygon fill="#C1C1C1" points="231.5,118 279.5,149.999 231.5,182 "/>
<g>
	<path fill="#777777" d="M13.338,14.762h7.812v3.237h-3.61v22.8h3.61v3.253h-7.812V14.762z"/>
	<path fill="#777777" d="M39.789,27.99c-1.343,1.121-3.261,1.681-5.753,1.681h-4.776v8.249h-4.763v-22.94h9.85
		c2.271,0,4.082,0.591,5.432,1.774c1.35,1.183,2.025,3.014,2.025,5.494C41.803,24.956,41.131,26.87,39.789,27.99z M36.13,19.727
		c-0.607-0.509-1.458-0.763-2.551-0.763h-4.32v6.754h4.32c1.093,0,1.944-0.275,2.551-0.825c0.607-0.55,0.91-1.422,0.91-2.615
		C37.041,21.085,36.737,20.235,36.13,19.727z"/>
	<path fill="#777777" d="M49.818,37.92h-4.436v-22.94h4.436V37.92z"/>
	<path fill="#777777" d="M60.863,27.602c0.826-0.104,1.417-0.233,1.771-0.389c0.638-0.27,0.957-0.69,0.957-1.261
		c0-0.695-0.244-1.175-0.733-1.439s-1.207-0.397-2.153-0.397c-1.062,0-1.814,0.259-2.256,0.778
		c-0.316,0.384-0.526,0.902-0.631,1.556h-4.28c0.093-1.484,0.51-2.703,1.25-3.657c1.177-1.494,3.199-2.241,6.065-2.241
		c1.865,0,3.522,0.368,4.971,1.105c1.448,0.737,2.172,2.127,2.172,4.171v7.782c0,0.54,0.01,1.193,0.031,1.961
		c0.031,0.581,0.12,0.975,0.265,1.183c0.146,0.208,0.363,0.379,0.654,0.514v0.654h-4.825c-0.135-0.343-0.228-0.664-0.28-0.965
		c-0.052-0.301-0.093-0.644-0.125-1.027c-0.616,0.664-1.325,1.229-2.129,1.696c-0.96,0.55-2.046,0.825-3.256,0.825
		c-1.544,0-2.821-0.438-3.827-1.315c-1.008-0.876-1.511-2.119-1.511-3.728c0-2.085,0.81-3.595,2.43-4.529
		c0.889-0.508,2.195-0.872,3.92-1.089L60.863,27.602z M63.576,29.671c-0.284,0.176-0.57,0.319-0.86,0.428s-0.687,0.21-1.191,0.304
		l-1.01,0.187c-0.947,0.166-1.626,0.369-2.039,0.607c-0.699,0.405-1.048,1.033-1.048,1.883c0,0.757,0.213,1.305,0.64,1.642
		c0.427,0.337,0.946,0.506,1.557,0.506c0.969,0,1.862-0.28,2.679-0.841c0.816-0.56,1.24-1.582,1.272-3.066V29.671z"/>
	<path fill="#777777" d="M72.541,41.172l0.56,0.031c0.436,0.021,0.851,0.005,1.245-0.047c0.394-0.052,0.726-0.171,0.996-0.358
		c0.259-0.176,0.5-0.544,0.724-1.105c0.223-0.56,0.319-0.902,0.288-1.027L70.12,20.956h4.934l3.704,12.513l3.502-12.513h4.715
		L81.16,37.64c-1.125,3.216-2.013,5.211-2.667,5.984s-1.963,1.16-3.927,1.16c-0.394,0-0.711-0.002-0.95-0.008
		c-0.24-0.005-0.598-0.023-1.075-0.055V41.172z"/>
	<path fill="#777777" d="M103.013,18.933h-4.498v-4.093h4.498V18.933z M98.515,20.956h4.498V37.92h-4.498V20.956z"/>
	<path fill="#777777" d="M120.987,21.929c1.111,0.918,1.667,2.441,1.667,4.568V37.92h-4.544V27.602c0-0.893-0.118-1.577-0.355-2.055
		c-0.433-0.872-1.257-1.307-2.472-1.307c-1.494,0-2.518,0.638-3.075,1.914c-0.289,0.675-0.432,1.536-0.432,2.583v9.183h-4.436
		V20.987h4.295v2.475c0.568-0.872,1.105-1.499,1.612-1.883c0.909-0.685,2.061-1.027,3.457-1.027
		C118.449,20.551,119.877,21.01,120.987,21.929z"/>
	<path fill="#777777" d="M149.9,22.777c1.384,1.463,2.075,3.611,2.075,6.443c0,2.988-0.676,5.266-2.028,6.833
		c-1.353,1.567-3.095,2.35-5.224,2.35c-1.358,0-2.485-0.337-3.384-1.012c-0.49-0.374-0.972-0.918-1.441-1.634v8.84h-4.389v-23.64
		h4.249v2.505c0.48-0.736,0.992-1.317,1.536-1.743c0.991-0.757,2.171-1.136,3.539-1.136C146.828,20.583,148.516,21.314,149.9,22.777
		z M146.496,25.967c-0.604-1.006-1.581-1.51-2.933-1.51c-1.625,0-2.742,0.763-3.349,2.288c-0.315,0.809-0.472,1.836-0.472,3.082
		c0,1.971,0.529,3.356,1.586,4.155c0.629,0.467,1.373,0.7,2.233,0.7c1.248,0,2.2-0.477,2.855-1.432
		c0.655-0.955,0.983-2.226,0.983-3.813C147.399,28.13,147.099,26.974,146.496,25.967z"/>
	<path fill="#777777" d="M161.823,27.602c0.825-0.104,1.415-0.233,1.771-0.389c0.637-0.27,0.956-0.69,0.956-1.261
		c0-0.695-0.245-1.175-0.734-1.439s-1.206-0.397-2.153-0.397c-1.062,0-1.814,0.259-2.255,0.778
		c-0.316,0.384-0.526,0.902-0.632,1.556h-4.28c0.093-1.484,0.511-2.703,1.25-3.657c1.177-1.494,3.199-2.241,6.064-2.241
		c1.865,0,3.522,0.368,4.971,1.105c1.448,0.737,2.172,2.127,2.172,4.171v7.782c0,0.54,0.01,1.193,0.031,1.961
		c0.031,0.581,0.12,0.975,0.265,1.183c0.146,0.208,0.363,0.379,0.654,0.514v0.654h-4.825c-0.135-0.343-0.228-0.664-0.28-0.965
		c-0.052-0.301-0.093-0.644-0.125-1.027c-0.616,0.664-1.325,1.229-2.129,1.696c-0.959,0.55-2.045,0.825-3.255,0.825
		c-1.544,0-2.821-0.438-3.827-1.315c-1.008-0.876-1.511-2.119-1.511-3.728c0-2.085,0.811-3.595,2.43-4.529
		c0.889-0.508,2.194-0.872,3.919-1.089L161.823,27.602z M164.535,29.671c-0.284,0.176-0.571,0.319-0.86,0.428
		c-0.29,0.109-0.687,0.21-1.192,0.304l-1.009,0.187c-0.947,0.166-1.626,0.369-2.039,0.607c-0.699,0.405-1.048,1.033-1.048,1.883
		c0,0.757,0.212,1.305,0.641,1.642c0.425,0.337,0.944,0.506,1.556,0.506c0.969,0,1.861-0.28,2.678-0.841
		c0.817-0.56,1.24-1.582,1.272-3.066V29.671z"/>
	<path fill="#777777" d="M181.222,20.94c1.076,0.446,1.947,1.266,2.611,2.459v-2.443h4.326v16.092c0,2.189-0.368,3.839-1.105,4.949
		c-1.266,1.909-3.693,2.863-7.283,2.863c-2.168,0-3.938-0.425-5.307-1.276c-1.37-0.851-2.127-2.122-2.272-3.813h4.825
		c0.125,0.519,0.327,0.892,0.607,1.121c0.478,0.404,1.281,0.607,2.412,0.607c1.598,0,2.667-0.535,3.206-1.603
		c0.353-0.685,0.529-1.836,0.529-3.455v-1.089c-0.425,0.726-0.882,1.271-1.37,1.634c-0.882,0.674-2.028,1.012-3.439,1.012
		c-2.179,0-3.919-0.765-5.221-2.295c-1.302-1.53-1.953-3.603-1.953-6.218c0-2.521,0.626-4.64,1.88-6.357
		c1.254-1.717,3.031-2.576,5.332-2.576C179.849,20.551,180.589,20.681,181.222,20.94z M182.732,33.103
		c0.713-0.783,1.07-2.031,1.07-3.743c0-1.608-0.338-2.833-1.016-3.673c-0.677-0.84-1.583-1.261-2.72-1.261
		c-1.55,0-2.618,0.732-3.208,2.195c-0.31,0.778-0.464,1.738-0.464,2.879c0,0.986,0.165,1.862,0.496,2.63
		c0.599,1.432,1.674,2.147,3.224,2.147C181.146,34.278,182.02,33.886,182.732,33.103z"/>
	<path fill="#777777" d="M203.353,21.3c1.184,0.53,2.161,1.367,2.932,2.509c0.694,1.008,1.146,2.176,1.352,3.507
		c0.119,0.78,0.167,1.901,0.146,3.367h-12.355c0.069,1.701,0.66,2.895,1.774,3.579c0.677,0.426,1.493,0.638,2.446,0.638
		c1.01,0,1.832-0.259,2.462-0.778c0.345-0.28,0.649-0.669,0.913-1.167h4.529c-0.12,1.006-0.668,2.028-1.645,3.066
		c-1.52,1.65-3.647,2.475-6.382,2.475c-2.258,0-4.249-0.695-5.975-2.087c-1.726-1.392-2.588-3.656-2.588-6.792
		c0-2.939,0.779-5.191,2.337-6.759c1.558-1.568,3.58-2.353,6.066-2.353C200.841,20.504,202.17,20.769,203.353,21.3z M196.718,25.131
		c-0.626,0.647-1.021,1.521-1.182,2.626h7.642c-0.08-1.177-0.475-2.071-1.181-2.681c-0.707-0.609-1.584-0.914-2.63-0.914
		C198.228,24.162,197.344,24.485,196.718,25.131z"/>
	<path fill="#777777" d="M208.688,40.799h3.61V17.937h-3.61v-3.175h7.812v29.29h-7.812V40.799z"/>
</g>
</svg>
