<?xml version="1.0" encoding="utf-8"?>
<!-- Generator: Adobe Illustrator 15.1.0, SVG Export Plug-In . SVG Version: 6.00 Build 0)  -->
<!DOCTYPE svg PUBLIC "-//W3C//DTD SVG 1.1//EN" "http://www.w3.org/Graphics/SVG/1.1/DTD/svg11.dtd">
<svg version="1.1" id="Layer_1" xmlns="http://www.w3.org/2000/svg" xmlns:xlink="http://www.w3.org/1999/xlink" x="0px" y="0px"
	 width="40px" height="40px" viewBox="0 0 40 40" enable-background="new 0 0 40 40" xml:space="preserve">
<path fill="#005689" d="M31.898,29.07l-6.56-6.56C26.387,20.932,27,19.038,27,17c0-5.523-4.479-10-10-10C11.478,7,7,11.477,7,17
	c0,5.523,4.478,10,10,10c2.038,0,3.932-0.613,5.512-1.66l6.561,6.561L31.898,29.07z M11,17c0-3.314,2.687-6,6-6s6,2.686,6,6
	s-2.687,6-6,6S11,20.314,11,17z"/>
<rect id="_x3C_Slice_x3E__1_" fill="none" width="40" height="40"/>
</svg>
