<?xml version="1.0" encoding="UTF-8" standalone="no"?>
<svg width="100px" height="100px" viewBox="0 0 100 100" version="1.1" xmlns="http://www.w3.org/2000/svg" xmlns:xlink="http://www.w3.org/1999/xlink" xmlns:sketch="http://www.bohemiancoding.com/sketch/ns">
    <title>comment-teaser-poll</title>
    <description>Created with Sketch (http://www.bohemiancoding.com/sketch)</description>
    <defs>
        <linearGradient x1="100%" y1="50%" x2="0%" y2="50%" id="linearGradient-1">
            <stop stop-color="#999999" offset="0%"></stop>
            <stop stop-color="#999999" offset="49.3925781%"></stop>
            <stop stop-color="#666666" offset="49.4794922%"></stop>
            <stop stop-color="#666666" offset="100%"></stop>
        </linearGradient>
    </defs>
    <g id="Page-1" stroke="none" stroke-width="1" fill="none" fill-rule="evenodd" sketch:type="MSPage">
        <path d="M50,100 C77.6142389,100 100,77.6142389 100,50 C100,22.3857611 77.6142389,0 50,0 C22.3857611,0 0,22.3857611 0,50 C0,77.6142389 22.3857611,100 50,100 Z M50,80 C66.5685433,80 80,66.5685433 80,50 C80,33.4314567 66.5685433,20 50,20 C33.4314567,20 20,33.4314567 20,50 C20,66.5685433 33.4314567,80 50,80 Z M50,80" id="Oval-1" fill="url(#linearGradient-1)" sketch:type="MSShapeGroup"></path>
    </g>
</svg>