<?xml version="1.0" encoding="utf-8"?>
<!-- Generator: Adobe Illustrator 15.1.0, SVG Export Plug-In . SVG Version: 6.00 Build 0)  -->
<!DOCTYPE svg PUBLIC "-//W3C//DTD SVG 1.1//EN" "http://www.w3.org/Graphics/SVG/1.1/DTD/svg11.dtd">
<svg version="1.1" id="Layer_1" xmlns="http://www.w3.org/2000/svg" xmlns:xlink="http://www.w3.org/1999/xlink" x="0px" y="0px"
	 width="82.836px" height="117.336px" viewBox="0 0 82.836 117.336" enable-background="new 0 0 82.836 117.336"
	 xml:space="preserve">
<path fill="#D3D3D3" d="M57.006,63.559H30.31c-3.932,0-6.009-1.412-6.009-4.113c0-1.989,1.36-4.074,3.094-5.575
	c3.816,0.917,7.974,1.379,12.374,1.379c20.051,0,34.517-9.36,34.517-26.277c0-6.496-2.272-12.052-7.336-16.11v-1.044l11.528,3.884
	h1.75V0h-1.516L60.691,5.692h-1.492C54.037,2.8,48.008,1.104,39.773,1.104C19.67,1.104,5.108,10.8,5.108,28.176
	c0,9.983,5.436,17.887,13.478,22.414v1.238C11.701,54.444,5.421,60.82,5.421,68.273c0,7.694,4.8,14.392,11.546,16.404v1.055
	C8.129,87.582,0,91.05,0,99.568c0,10.513,13.67,17.769,38.333,17.769c30.658,0,44.503-11.728,44.503-30.399
	C82.836,71.596,74.328,63.559,57.006,63.559z M39.773,10.934c5.668,0,8.452,3.571,8.452,17.242c0,13.671-2.832,16.388-8.452,16.388
	c-5.619,0-8.365-5.031-8.365-16.388C31.408,16.819,34.103,10.934,39.773,10.934z M38.329,107.083
	c-13.136,0-16.115-4.556-16.115-10.015c0-3.401,0.993-5.528,3.007-7.892h26.021c6.445,0,9.396,2.654,9.396,6.726
	C60.639,102.645,53.941,107.083,38.329,107.083z"/>
</svg>
