<?xml version="1.0" encoding="utf-8"?>
<!-- Generator: Adobe Illustrator 15.1.0, SVG Export Plug-In . SVG Version: 6.00 Build 0)  -->
<!DOCTYPE svg PUBLIC "-//W3C//DTD SVG 1.1//EN" "http://www.w3.org/Graphics/SVG/1.1/DTD/svg11.dtd">
<svg version="1.1" id="Layer_1" xmlns="http://www.w3.org/2000/svg" xmlns:xlink="http://www.w3.org/1999/xlink" x="0px" y="0px"
	 width="129.917px" height="117.336px" viewBox="0 0 129.917 117.336" enable-background="new 0 0 129.917 117.336"
	 xml:space="preserve">
<g>
	<g>
		<polygon fill="#274D7F" points="117.114,63.062 94.815,59.931 80.969,67.462 81.014,91.529 103.312,94.665 117.158,87.133 		"/>
	</g>
	<g>
		<polygon fill="#274D7F" points="103.444,70.656 81.146,67.523 67.3,75.056 67.345,99.123 89.643,102.259 103.49,94.727 		"/>
	</g>
	<g>
		<polygon fill="#274D7F" points="89.776,78.25 67.478,75.118 53.632,82.649 53.676,106.717 75.975,109.853 89.822,102.32 		"/>
		<polygon fill="#274D7F" points="68.515,75.213 46.216,72.08 32.37,79.611 32.414,103.68 54.713,106.815 68.559,99.282 		"/>
		<polygon fill="#274D7F" points="45.733,72.176 23.436,69.043 9.589,76.574 9.634,100.643 31.932,103.778 45.778,96.244 		"/>
	</g>
</g>
<g>
	<g>
		<polygon fill="#274D7F" points="117.114,38.764 94.815,35.631 80.969,43.162 81.014,67.23 103.312,70.366 117.158,62.833 		"/>
	</g>
	<g>
		<polygon fill="#274D7F" points="103.444,46.357 81.146,43.225 67.3,50.756 67.345,74.824 89.643,77.96 103.49,70.426 		"/>
	</g>
	<g>
		<polygon fill="#274D7F" points="89.776,53.951 67.478,50.818 53.632,58.35 53.676,82.418 75.975,85.554 89.822,78.02 		"/>
		<polygon fill="#274D7F" points="68.515,50.913 46.216,47.781 32.37,55.312 32.414,79.381 54.713,82.516 68.559,74.982 		"/>
		<polygon fill="#274D7F" points="45.733,47.876 23.436,44.744 9.589,52.275 9.634,76.343 31.932,79.478 45.778,71.945 		"/>
	</g>
</g>
<polygon fill="#274D7F" points="95.853,11.427 73.554,8.294 59.706,15.825 59.751,39.894 82.049,43.029 95.896,35.496 "/>
<polygon fill="#274D7F" points="73.071,8.39 50.772,5.257 36.925,12.788 36.971,36.856 59.27,39.992 73.115,32.458 "/>
<polygon fill="#274D7F" points="82.183,19.021 59.884,15.888 46.038,23.419 46.082,47.487 68.381,50.623 82.229,43.09 "/>
<polygon fill="#274D7F" points="59.402,15.982 37.104,12.851 23.257,20.382 23.302,44.45 45.6,47.585 59.447,40.052 "/>
<polygon fill="#274D7F" points="68.515,26.613 46.216,23.481 32.37,31.013 32.414,55.081 54.713,58.216 68.559,50.684 "/>
<polygon fill="#274D7F" points="45.733,23.576 23.436,20.444 9.589,27.976 9.634,52.043 31.932,55.178 45.778,47.646 "/>
<path fill="#FFFFFF" d="M38.008,76.072l-9.394-1.423c-1.382-0.206-2.142-0.829-2.197-1.808c-0.041-0.721,0.396-1.402,0.975-1.852
	c1.364,0.531,2.834,0.924,4.384,1.158c7.052,1.066,11.953-1.553,11.609-7.676c-0.131-2.352-1.045-4.486-2.908-6.222l-0.023-0.381
	l4.139,2.021l0.614,0.094l-0.32-5.685l-0.53-0.08l-6.226,1.1l-0.525-0.081c-1.874-1.32-4.031-2.257-6.929-2.695
	c-7.072-1.07-11.998,1.664-11.646,7.955c0.202,3.612,2.276,6.763,5.198,8.833l0.026,0.446c-2.37,0.581-4.451,2.557-4.3,5.253
	c0.158,2.786,1.983,5.468,4.397,6.555l0.021,0.382c-3.073,0.198-5.862,1.021-5.69,4.105c0.215,3.806,5.174,7.161,13.851,8.474
	c10.784,1.633,15.418-1.878,15.039-8.635C47.26,80.359,44.1,76.994,38.008,76.072z M30.875,56.104
	c1.996,0.302,3.045,1.745,3.322,6.689c0.278,4.952-0.661,5.783-2.639,5.485c-1.977-0.3-3.047-2.267-3.276-6.381
	C28.052,57.789,28.881,55.802,30.875,56.104z M32.32,90.837c-4.623-0.701-5.762-2.507-5.874-4.484
	c-0.069-1.234,0.236-1.952,0.897-2.697l9.155,1.385c2.269,0.342,3.36,1.462,3.444,2.937C40.08,90.418,37.814,91.668,32.32,90.837z"
	/>
<g opacity="0.2">
	<polygon fill="#274D7F" points="80.177,43.853 80.131,19.053 94.384,11.3 117.275,14.516 117.323,39.316 103.068,47.072 	"/>
	<path fill="#FFFFFF" d="M94.478,11.818l22.299,3.132l0.046,24.069l-13.848,7.534l-22.299-3.136L80.632,19.35L94.478,11.818
		 M94.29,10.782L94,10.94l-13.846,7.531l-0.523,0.285l0.001,0.596l0.044,24.068l0.002,0.868l0.858,0.121l22.299,3.136l0.327,0.046
		l0.29-0.158l13.848-7.534l0.523-0.285l-0.001-0.596l-0.046-24.069l-0.002-0.868l-0.859-0.121l-22.299-3.132L94.29,10.782
		L94.29,10.782z"/>
</g>
<g opacity="0.35">
	<polygon fill="#274D7F" points="66.177,51.853 66.131,27.053 80.384,19.3 103.275,22.516 103.323,47.316 89.068,55.072 	"/>
	<path fill="#FFFFFF" d="M80.478,19.818l22.299,3.132l0.046,24.069l-13.848,7.534l-22.299-3.136L66.632,27.35L80.478,19.818
		 M80.29,18.782L80,18.94l-13.846,7.531l-0.523,0.285l0.001,0.596l0.044,24.068l0.002,0.868l0.858,0.121l22.299,3.136l0.327,0.046
		l0.29-0.158l13.848-7.534l0.523-0.285l-0.001-0.596l-0.046-24.069l-0.002-0.868l-0.859-0.121l-22.299-3.132L80.29,18.782
		L80.29,18.782z"/>
</g>
<g opacity="0.5">
	<polygon fill="#274D7F" points="52.177,59.853 52.131,35.053 66.384,27.3 89.275,30.516 89.323,55.316 75.068,63.072 	"/>
	<path fill="#FFFFFF" d="M66.478,27.818l22.299,3.132l0.046,24.069l-13.848,7.534l-22.299-3.136L52.632,35.35L66.478,27.818
		 M66.29,26.782L66,26.94l-13.846,7.531l-0.523,0.285l0.001,0.596l0.044,24.068l0.002,0.867l0.858,0.121l22.299,3.136l0.327,0.046
		l0.29-0.158L89.3,55.898l0.523-0.285l-0.001-0.596l-0.046-24.069l-0.002-0.868l-0.859-0.121l-22.299-3.132L66.29,26.782
		L66.29,26.782z"/>
</g>
</svg>
