<?xml version="1.0" encoding="utf-8"?>
<!-- Generator: Adobe Illustrator 15.1.0, SVG Export Plug-In . SVG Version: 6.00 Build 0)  -->
<!DOCTYPE svg PUBLIC "-//W3C//DTD SVG 1.1//EN" "http://www.w3.org/Graphics/SVG/1.1/DTD/svg11.dtd">
<svg version="1.1" id="Layer_1" xmlns:sketch="http://www.bohemiancoding.com/sketch/ns"
	 xmlns="http://www.w3.org/2000/svg" xmlns:xlink="http://www.w3.org/1999/xlink" x="0px" y="0px" width="200px" height="200px"
	 viewBox="0 0 200 200" enable-background="new 0 0 200 200" xml:space="preserve">
<title>headshot-w-background</title>
<description>Created with Sketch (http://www.bohemiancoding.com/sketch)</description>
<g id="Page-1" sketch:type="MSPage">
	<path id="Rectangle-1" sketch:type="MSShapeGroup" fill="#CCCCCC" d="M0,0v200h200V0H0L0,0L0,0L0,0z"/>
</g>
<path fill="#848484" d="M111.5,136.527v-5.798c15.646-6.352,27-25.317,27-47.729c0-27.614-17.236-50-38.5-50
	c-21.263,0-38.5,22.386-38.5,50c0,23.819,12.829,43.734,30,48.762v4.567C27.544,141.191,5.25,200,5.25,200h189.5
	C194.75,200,177.473,142.599,111.5,136.527z"/>
<g id="Page_1_1_" sketch:type="MSPage">
	<g id="Layer_1_1_" sketch:type="MSLayerGroup">
		<g id="Page_1" sketch:type="MSShapeGroup">
			<g id="Rectangle_1">
				<polygon fill="#CCCCCC" points="-103.996,-96 -103.996,0 56.004,0 56.004,-96 				"/>
			</g>
		</g>
	</g>
</g>
<g>
	<path fill="#848484" d="M-6.029-37.473c0,1.412-1.154,2.557-2.578,2.557h-32.785c-1.424,0-2.578-1.145-2.578-2.557v-23.389
		c0-1.411,1.154-2.555,2.578-2.555h32.783c1.424,0,2.578,1.144,2.578,2.555v23.389H-6.029z"/>
	<circle fill="#F1F1F1" cx="-35.857" cy="-54.996" r="3.486"/>
	<polygon fill="#F1F1F1" points="-39.343,-39.729 -11.089,-39.729 -20.279,-53.978 -29.212,-42.582 -34.037,-47.501 	"/>
</g>
</svg>
