<?xml version="1.0" encoding="utf-8"?>
<!-- Generator: Adobe Illustrator 15.1.0, SVG Export Plug-In . SVG Version: 6.00 Build 0)  -->
<!DOCTYPE svg PUBLIC "-//W3C//DTD SVG 1.1//EN" "http://www.w3.org/Graphics/SVG/1.1/DTD/svg11.dtd">
<svg version="1.1" id="Layer_1" xmlns:sketch="http://www.bohemiancoding.com/sketch/ns"
	 xmlns="http://www.w3.org/2000/svg" xmlns:xlink="http://www.w3.org/1999/xlink" x="0px" y="0px" width="161px" height="97px"
	 viewBox="0 0 161 97" enable-background="new 0 0 161 97" xml:space="preserve">
<title>image-5x3</title>
<description>Created with Sketch (http://www.bohemiancoding.com/sketch)</description>
<g id="Page_1_1_" sketch:type="MSPage">
	<g id="Layer_1_1_" sketch:type="MSLayerGroup">
		<g id="Page_1" sketch:type="MSShapeGroup">
			<g id="Rectangle_1">
				<polygon points="0.504,0.5 0.504,91.167 160.504,91.167 160.504,0.5 				"/>
			</g>
		</g>
	</g>
</g>
<g id="Page_1_2_" sketch:type="MSPage">
	<g id="Layer_1_2_" sketch:type="MSLayerGroup">
		<g id="Page_1_3_" sketch:type="MSShapeGroup">
			<g id="Rectangle_1_1_">
				<polygon fill="#848484" points="0.504,0.5 0.504,45.862 81.5,45.862 81.5,0.5 				"/>
			</g>
		</g>
	</g>
</g>
<g id="Page_1_4_" sketch:type="MSPage">
	<g id="Layer_1_3_" sketch:type="MSLayerGroup">
		<g id="Page_1_5_" sketch:type="MSShapeGroup">
			<g id="Rectangle_1_2_">
				<polygon fill="#F1F1F1" points="81.5,0.5 81.5,23.148 121.002,23.148 121.002,0.5 				"/>
			</g>
		</g>
	</g>
</g>
<g id="Page_1_6_" sketch:type="MSPage">
	<g id="Layer_1_4_" sketch:type="MSLayerGroup">
		<g id="Page_1_7_" sketch:type="MSShapeGroup">
			<g id="Rectangle_1_3_">
				<polygon fill="#494949" points="81.5,23.213 81.5,45.862 121.002,45.862 121.002,23.213 				"/>
			</g>
		</g>
	</g>
</g>
<g id="Page_1_14_" sketch:type="MSPage">
	<g id="Layer_1_8_" sketch:type="MSLayerGroup">
		<g id="Page_1_15_" sketch:type="MSShapeGroup">
			<g id="Rectangle_1_7_">
				<polygon fill="#F1F1F1" points="41.999,45.805 41.999,68.454 81.5,68.454 81.5,45.805 				"/>
			</g>
		</g>
	</g>
</g>
<g id="Page_1_12_" sketch:type="MSPage">
	<g id="Layer_1_7_" sketch:type="MSLayerGroup">
		<g id="Page_1_13_" sketch:type="MSShapeGroup">
			<g id="Rectangle_1_6_">
				<polygon fill="#494949" points="41.999,68.52 41.999,91.167 81.5,91.167 81.5,68.52 				"/>
			</g>
		</g>
	</g>
</g>
<g id="Page_1_10_" sketch:type="MSPage">
	<g id="Layer_1_6_" sketch:type="MSLayerGroup">
		<g id="Page_1_11_" sketch:type="MSShapeGroup">
			<g id="Rectangle_1_5_">
				<polygon fill="#B5B5B5" points="120.916,0.532 120.916,23.181 160.418,23.181 160.418,0.532 				"/>
			</g>
		</g>
	</g>
</g>
<g id="Page_1_8_" sketch:type="MSPage">
	<g id="Layer_1_5_" sketch:type="MSLayerGroup">
		<g id="Page_1_9_" sketch:type="MSShapeGroup">
			<g id="Rectangle_1_4_">
				<polygon fill="#E0E0E0" points="120.916,23.245 120.916,45.894 160.418,45.894 160.418,23.245 				"/>
			</g>
		</g>
	</g>
</g>
<text transform="matrix(1 0 0 1 142.832 95)" font-family="'TE32TextEgyptian'" font-size="2">the whole picture</text>
<text transform="matrix(1 0 0 1 25.999 95)" font-family="'TE32TextEgyptian'" font-size="2">web | print | tablet | mobile</text>
<g>
	<polyline points="17.93,92.99 17.93,93.198 18.157,93.303 18.157,94.611 17.941,94.712 17.941,94.945 19.096,94.945 19.096,94.712 
		18.88,94.611 18.88,92.854 18.823,92.854 17.93,92.99 	"/>
	<path d="M21.167,94.734l0.216-0.101v-1.329l-0.227-0.105v-0.207l0.862-0.137h0.057v0.271h0.021c0.183-0.166,0.428-0.27,0.703-0.27
		c0.342,0,0.536,0.172,0.536,0.543v1.232l0.217,0.1v0.211h-1.145v-0.211l0.205-0.1v-1.057c0-0.207-0.067-0.284-0.251-0.284
		c-0.1,0-0.173,0.019-0.255,0.052v1.289l0.205,0.1v0.211h-1.144V94.734L21.167,94.734L21.167,94.734z"/>
	<path d="M16.961,94.562v-1.328c-0.053-0.039-0.084-0.073-0.207-0.073c-0.211,0-0.351,0.169-0.351,0.741
		c0,0.505,0.138,0.699,0.372,0.699C16.879,94.604,16.915,94.581,16.961,94.562 M16.961,92.47l-0.226-0.104v-0.208l0.892-0.135h0.057
		v2.55l0.215,0.118v0.199l-0.827,0.09h-0.057V94.77h-0.024c-0.084,0.107-0.258,0.222-0.512,0.222c-0.372,0-0.837-0.236-0.837-1.017
		c0-0.819,0.476-1.115,1.015-1.115c0.111,0,0.222,0.025,0.304,0.084V92.47z"/>
	<path d="M1.984,94.378v-1.091H1.695v-0.344l0.289-0.041v-0.385l0.72-0.094v0.479h0.423v0.385H2.704v1.01
		c0,0.198,0.116,0.303,0.258,0.303c0.071,0,0.137-0.009,0.186-0.019v0.287c-0.11,0.063-0.339,0.118-0.551,0.118
		C2.195,94.984,1.984,94.811,1.984,94.378"/>
	<path d="M6.219,93.984h1.19c0-0.854-0.294-1.125-0.903-1.125c-0.606,0-1.027,0.39-1.027,1.059c0,0.691,0.384,1.071,1.083,1.071
		c0.375,0,0.668-0.163,0.796-0.291v-0.222c-0.141,0.043-0.286,0.068-0.546,0.068C6.464,94.547,6.241,94.363,6.219,93.984z
		 M6.495,93.105c0.132,0,0.237,0.142,0.237,0.58L6.22,93.707C6.236,93.173,6.322,93.105,6.495,93.105z"/>
	<path d="M14.112,92.992v0.207l0.227,0.105v1.329l-0.216,0.101v0.211h1.193v-0.211l-0.254-0.101v-1.069
		c0.114-0.057,0.244-0.073,0.425-0.073c0.06,0,0.131,0.007,0.172,0.018V92.87c-0.023-0.007-0.067-0.011-0.101-0.011
		c-0.223,0-0.382,0.166-0.5,0.438h-0.022v-0.444h-0.057L14.112,92.992"/>
	<path d="M12.651,93.18l-0.127,0.367h-0.35v-0.533c0.189-0.06,0.443-0.154,0.8-0.154c0.542,0,0.892,0.16,0.892,0.617v1.15
		l0.215,0.102v0.177c-0.065,0.034-0.239,0.079-0.403,0.079c-0.211,0-0.402-0.066-0.433-0.286h-0.018
		c-0.091,0.183-0.354,0.292-0.607,0.292c-0.36,0-0.57-0.231-0.57-0.57c0-0.415,0.281-0.506,0.727-0.6l0.366-0.065v-0.237
		c0-0.263-0.054-0.346-0.314-0.346C12.77,93.171,12.693,93.175,12.651,93.18z M13.144,94.521v-0.526L13.01,94.01
		c-0.156,0.016-0.244,0.119-0.244,0.314c0,0.209,0.083,0.273,0.213,0.273C13.053,94.598,13.106,94.561,13.144,94.521"/>
	<path d="M19.696,93.18l-0.128,0.367h-0.349v-0.533c0.188-0.06,0.443-0.154,0.799-0.154c0.542,0,0.892,0.16,0.892,0.617v1.15
		l0.216,0.102v0.177c-0.066,0.034-0.24,0.079-0.404,0.079c-0.211,0-0.401-0.066-0.433-0.286H20.27
		c-0.09,0.183-0.354,0.292-0.606,0.292c-0.361,0-0.57-0.231-0.57-0.57c0-0.415,0.28-0.506,0.727-0.6l0.366-0.065v-0.237
		c0-0.263-0.055-0.346-0.315-0.346C19.815,93.171,19.737,93.175,19.696,93.18z M20.188,94.521v-0.526l-0.133,0.015
		c-0.157,0.016-0.244,0.119-0.244,0.314c0,0.209,0.083,0.273,0.212,0.273C20.098,94.598,20.15,94.561,20.188,94.521"/>
	<path d="M9.912,93.257l-0.204-0.104V92.99l0.869-0.135h0.057v1.41c0,0.231,0.109,0.272,0.28,0.272c0.09,0,0.144-0.019,0.201-0.048
		v-1.234l-0.227-0.105v-0.16l0.893-0.135h0.057v1.738l0.225,0.117v0.178l-0.845,0.09h-0.057l-0.001-0.283h-0.022
		c-0.13,0.162-0.345,0.293-0.62,0.293c-0.409,0-0.607-0.293-0.607-0.646L9.912,93.257L9.912,93.257z"/>
	<path d="M3.185,94.734l0.216-0.101v-2.167l-0.227-0.104v-0.209L4.06,92.02h0.057v1.106h0.022c0.182-0.166,0.404-0.269,0.679-0.269
		c0.342,0,0.536,0.17,0.536,0.543v1.231l0.217,0.101v0.211H4.425v-0.211l0.205-0.101v-1.057c0-0.206-0.067-0.284-0.251-0.284
		c-0.1,0-0.173,0.02-0.255,0.052v1.289l0.205,0.101v0.211H3.185V94.734L3.185,94.734z"/>
	<path d="M18.504,92c0.21,0,0.38,0.171,0.38,0.38c0,0.211-0.171,0.382-0.38,0.382c-0.21,0-0.381-0.171-0.381-0.382
		C18.124,92.171,18.294,92,18.504,92"/>
	<path d="M9.069,94.479H8.377c-0.102,0-0.156-0.037-0.156-0.106c0-0.052,0.035-0.104,0.081-0.146
		c0.099,0.023,0.207,0.035,0.32,0.035c0.52,0,0.895-0.242,0.895-0.68c0-0.169-0.059-0.312-0.19-0.418v-0.027l0.299,0.102h0.045
		V92.83H9.632l-0.467,0.148H9.126c-0.133-0.076-0.29-0.119-0.504-0.119c-0.521,0-0.898,0.25-0.898,0.701
		c0,0.258,0.141,0.463,0.349,0.58v0.032c-0.178,0.068-0.341,0.233-0.341,0.427c0,0.198,0.125,0.373,0.3,0.426v0.026
		c-0.229,0.048-0.44,0.138-0.44,0.358c0,0.271,0.355,0.461,0.994,0.461c0.795,0,1.154-0.305,1.154-0.788
		C9.738,94.686,9.518,94.479,9.069,94.479z M8.622,93.114c0.147,0,0.22,0.093,0.22,0.446s-0.073,0.424-0.22,0.424
		c-0.145,0-0.216-0.129-0.216-0.424C8.406,93.268,8.475,93.114,8.622,93.114z M8.585,95.605c-0.34,0-0.417-0.117-0.417-0.26
		c0-0.088,0.025-0.144,0.078-0.203H8.92c0.167,0,0.243,0.066,0.243,0.174C9.163,95.49,8.99,95.605,8.585,95.605z"/>
</g>
<g>
	<path d="M50.157,27.955c0,0.682-0.558,1.234-1.244,1.234h-15.82c-0.687,0-1.245-0.552-1.245-1.234V16.668
		c0-0.681,0.558-1.233,1.245-1.233h15.819c0.687,0,1.244,0.552,1.244,1.233L50.157,27.955L50.157,27.955z"/>
	<circle fill="#F1F1F1" cx="35.763" cy="19.499" r="1.682"/>
	<polygon fill="#F1F1F1" points="34.081,26.867 47.715,26.867 43.28,19.99 38.97,25.489 36.641,23.116 	"/>
</g>
<g>
	<path fill="#848484" d="M106.598,15.151c0,0.398-0.326,0.721-0.727,0.721h-9.238c-0.402,0-0.729-0.322-0.729-0.721v-6.59
		c0-0.398,0.326-0.72,0.729-0.72h9.237c0.401,0,0.728,0.322,0.728,0.72V15.151L106.598,15.151z"/>
	<circle fill="#F1F1F1" cx="98.191" cy="10.213" r="0.982"/>
	<polygon fill="#F1F1F1" points="97.21,14.516 105.171,14.516 102.582,10.5 100.064,13.711 98.705,12.325 	"/>
</g>
<g>
	<path fill="#848484" d="M146.598,15.151c0,0.398-0.326,0.721-0.727,0.721h-9.238c-0.402,0-0.729-0.322-0.729-0.721v-6.59
		c0-0.398,0.326-0.72,0.729-0.72h9.237c0.401,0,0.728,0.322,0.728,0.72V15.151L146.598,15.151z"/>
	<circle fill="#F1F1F1" cx="138.191" cy="10.213" r="0.982"/>
	<polygon fill="#F1F1F1" points="137.21,14.516 145.171,14.516 142.582,10.5 140.064,13.711 138.705,12.325 	"/>
</g>
<g>
	<path fill="#848484" d="M106.598,38.151c0,0.398-0.326,0.721-0.727,0.721h-9.238c-0.402,0-0.729-0.322-0.729-0.721v-6.59
		c0-0.398,0.326-0.72,0.729-0.72h9.237c0.401,0,0.728,0.322,0.728,0.72V38.151L106.598,38.151z"/>
	<circle fill="#F1F1F1" cx="98.191" cy="33.213" r="0.982"/>
	<polygon fill="#F1F1F1" points="97.21,37.516 105.171,37.516 102.582,33.5 100.064,36.711 98.705,35.325 	"/>
</g>
<g>
	<path fill="#848484" d="M146.598,38.151c0,0.398-0.326,0.721-0.727,0.721h-9.238c-0.402,0-0.729-0.322-0.729-0.721v-6.59
		c0-0.398,0.326-0.72,0.729-0.72h9.237c0.401,0,0.728,0.322,0.728,0.72V38.151L146.598,38.151z"/>
	<circle fill="#F1F1F1" cx="138.191" cy="33.213" r="0.982"/>
	<polygon fill="#F1F1F1" points="137.21,37.516 145.171,37.516 142.582,33.5 140.064,36.711 138.705,35.325 	"/>
</g>
<g>
	<path fill="#848484" d="M66.598,60.15c0,0.397-0.326,0.721-0.727,0.721h-9.238c-0.402,0-0.728-0.322-0.728-0.721v-6.59
		c0-0.398,0.325-0.722,0.728-0.722h9.237c0.401,0,0.727,0.322,0.727,0.722L66.598,60.15L66.598,60.15z"/>
	<circle fill="#F1F1F1" cx="58.191" cy="55.213" r="0.982"/>
	<polygon fill="#F1F1F1" points="57.21,59.516 65.171,59.516 62.582,55.5 60.064,58.711 58.705,57.325 	"/>
</g>
<g>
	<path fill="#848484" d="M66.598,84.15c0,0.397-0.326,0.721-0.727,0.721h-9.238c-0.402,0-0.728-0.322-0.728-0.721v-6.59
		c0-0.398,0.325-0.722,0.728-0.722h9.237c0.401,0,0.727,0.322,0.727,0.722L66.598,84.15L66.598,84.15z"/>
	<circle fill="#F1F1F1" cx="58.191" cy="79.213" r="0.982"/>
	<polygon fill="#F1F1F1" points="57.21,83.516 65.171,83.516 62.582,79.5 60.064,82.711 58.705,81.325 	"/>
</g>
<g>
	<path fill="#848484" d="M130.156,73.955c0,0.682-0.557,1.232-1.244,1.232h-15.82c-0.688,0-1.244-0.552-1.244-1.232V62.668
		c0-0.682,0.559-1.232,1.244-1.232h15.82c0.688,0,1.244,0.553,1.244,1.232V73.955L130.156,73.955z"/>
	<circle fill="#F1F1F1" cx="115.764" cy="65.499" r="1.683"/>
	<polygon fill="#F1F1F1" points="114.081,72.867 127.715,72.867 123.279,65.99 118.971,71.489 116.641,69.115 	"/>
</g>
<rect x="0.504" y="40.148" fill="#383F7C" width="159.914" height="11.556"/>
<text transform="matrix(1 0 0 1 10.7402 47.7041)" fill="#FFFFFF" font-family="'DE3DisplayEgyptian'" font-size="7">Visit Guardian homepage, for the whole picture</text>
</svg>
