<?xml version="1.0" encoding="utf-8"?>
<!-- Generator: Adobe Illustrator 15.1.0, SVG Export Plug-In . SVG Version: 6.00 Build 0)  -->
<!DOCTYPE svg PUBLIC "-//W3C//DTD SVG 1.1//EN" "http://www.w3.org/Graphics/SVG/1.1/DTD/svg11.dtd">
<svg version="1.1" id="Layer_1" xmlns:sketch="http://www.bohemiancoding.com/sketch/ns"
	 xmlns="http://www.w3.org/2000/svg" xmlns:xlink="http://www.w3.org/1999/xlink" x="0px" y="0px" width="161px" height="97px"
	 viewBox="0 0 161 97" enable-background="new 0 0 161 97" xml:space="preserve">
<title>image-5x3</title>
<description>Created with Sketch (http://www.bohemiancoding.com/sketch)</description>
<g id="Page_1_1_" sketch:type="MSPage">
	<g id="Layer_1_1_" sketch:type="MSLayerGroup">
		<g id="Page_1" sketch:type="MSShapeGroup">
			<g id="Rectangle_1">
				<polygon fill="#CCCCCC" points="0.504,0.5 0.504,96.5 160.504,96.5 160.504,0.5 				"/>
			</g>
		</g>
	</g>
</g>
<rect x="0.504" y="0.5" fill="#ED4854" width="21.164" height="96"/>
<text transform="matrix(1 0 0 1 3.0005 10.6665)" fill="#F1F1F1" font-family="'HelveticaNeue-Medium'" font-size="7">LIVE</text>
<rect x="3" y="79.667" fill="none" width="18.667" height="17.333"/>
<text transform="matrix(1 0 0 1 3.0005 83.9512)"><tspan x="0" y="0" fill="#FFFFFF" font-family="'HelveticaNeue-Bold'" font-size="6">1 min </tspan><tspan x="0" y="7.2" fill="#FFFFFF" font-family="'HelveticaNeue-Bold'" font-size="6">ago</tspan></text>
<rect x="26.334" y="5.333" fill="none" width="54.17" height="87"/>
<text transform="matrix(1 0 0 1 26.334 10.5698)"><tspan x="0" y="0" fill="#ED4854" font-family="'DE5DisplayEgyptianSemiBold'" font-size="7">Eric Schmidt </tspan><tspan x="0" y="8.399" fill="#ED4854" font-family="'DE5DisplayEgyptianSemiBold'" font-size="7">explains how to </tspan><tspan x="0" y="16.8" fill="#ED4854" font-family="'DE5DisplayEgyptianSemiBold'" font-size="7">switch from </tspan><tspan x="0" y="25.199" fill="#ED4854" font-family="'DE5DisplayEgyptianSemiBold'" font-size="7">iPhones to the </tspan><tspan x="0" y="33.6" fill="#ED4854" font-family="'DE5DisplayEgyptianSemiBold'" font-size="7">&apos;more intuitive&apos; </tspan><tspan x="0" y="42" fill="#ED4854" font-family="'DE5DisplayEgyptianSemiBold'" font-size="7">Android system</tspan></text>
<circle fill="#545454" cx="29.334" cy="86.75" r="3"/>
<circle fill="#545454" cx="39.334" cy="86.75" r="3"/>
<g>
	<path fill="#848484" d="M110.682,6.838c-1.24,0-2.354,0.529-3.137,1.37c-0.049-0.289-0.075-0.587-0.075-0.896
		c0-2.15,1.502-3.893,3.711-3.893c0.989,0,1.916,0.36,2.615,0.939h0.313c-0.993-0.823-1.669-1.143-3.188-1.193
		c-3.476-0.113-5.881,2.744-5.881,6.127c0,3.385,2.068,6.128,5.546,6.128v-0.005c0.031,0,0.062,0.005,0.095,0.005
		c2.37,0,4.291-1.921,4.291-4.292C114.973,8.76,113.052,6.838,110.682,6.838"/>
	<path fill="#848484" d="M100.045,6.838c-1.239,0-2.353,0.529-3.137,1.37c-0.049-0.289-0.075-0.587-0.075-0.896
		c0-2.15,1.502-3.893,3.712-3.893c0.989,0,1.916,0.36,2.614,0.939h0.314c-0.994-0.823-1.669-1.143-3.188-1.193
		c-3.475-0.113-5.881,2.744-5.881,6.127c0,3.385,2.07,6.128,5.547,6.128v-0.005c0.031,0,0.062,0.005,0.094,0.005
		c2.371,0,4.293-1.921,4.293-4.292C104.338,8.76,102.416,6.838,100.045,6.838"/>
</g>
<rect x="95.5" y="21.667" fill="none" width="67.404" height="58"/>
<text transform="matrix(1 0 0 1 95.5 26.437)"><tspan x="0" y="0" fill="#848484" font-family="'TE32TextEgyptian'" font-size="6">Cras justo odio, </tspan><tspan x="0" y="7.2" fill="#848484" font-family="'TE32TextEgyptian'" font-size="6">dapibus ac facilisis in, </tspan><tspan x="0" y="14.4" fill="#848484" font-family="'TE32TextEgyptian'" font-size="6">egestas eget quam. </tspan><tspan x="0" y="21.6" fill="#848484" font-family="'TE32TextEgyptian'" font-size="6">Donec sed odio dui. </tspan><tspan x="0" y="28.8" fill="#848484" font-family="'TE32TextEgyptian'" font-size="6">Sed posuere </tspan><tspan x="0" y="36" fill="#848484" font-family="'TE32TextEgyptian'" font-size="6">consectetur est at </tspan><tspan x="0" y="43.2" fill="#848484" font-family="'TE32TextEgyptian'" font-size="6">lobortis.</tspan></text>
</svg>
