<?xml version="1.0" encoding="utf-8"?>
<!-- Generator: Adobe Illustrator 15.1.0, SVG Export Plug-In . SVG Version: 6.00 Build 0)  -->
<!DOCTYPE svg PUBLIC "-//W3C//DTD SVG 1.1//EN" "http://www.w3.org/Graphics/SVG/1.1/DTD/svg11.dtd">
<svg version="1.1" id="Layer_1" xmlns="http://www.w3.org/2000/svg" xmlns:xlink="http://www.w3.org/1999/xlink" x="0px" y="0px"
	 width="106.57px" height="31px" viewBox="0 0 106.57 31" enable-background="new 0 0 106.57 31" xml:space="preserve">
<text transform="matrix(1 0 0 1 297.6406 420.9453)" font-family="'MyriadPro-Regular'" font-size="12">$guardian-logo-header : &quot;#{$img-path}/guardian-logo-4#{$img-extension}&quot;;</text>
<text transform="matrix(1 0 0 1 297.6406 420.9453)" font-family="'MyriadPro-Regular'" font-size="12">$guardian-logo-header : &quot;#{$img-path}/guardian-logo-4#{$img-extension}&quot;;</text>
<text transform="matrix(1 0 0 1 0.167 -6.417)" font-family="'DE5DisplayEgyptianSemiBold'" font-size="29">us news</text>
<g>
	<path fill="#FFFFFF" d="M0.058,21.465l1.828-0.435v-9.688L0,10.878V8.703l5.744-0.696l0.435,0.203v1.537h0.174
		c1.451-1.044,3.017-1.77,5.047-1.77c2.495,0,4.09,1.073,4.09,3.858v9.195l1.741,0.435v2.118H9.485v-2.118l1.508-0.377v-7.744
		c0-1.509-0.725-1.973-2.204-1.973c-0.899,0-1.654,0.232-2.437,0.493v9.224l1.509,0.377v2.118H0.058V21.465z"/>
	<path fill="#FFFFFF" d="M18.096,15.867c0-4.989,3.075-7.89,7.513-7.89c4.612,0,6.729,2.582,6.729,8.5h-9.601
		c0.232,3.104,1.798,4.38,4.467,4.38c2.06,0,3.307-0.377,4.409-0.726v2.35c-1.045,0.668-2.785,1.479-5.599,1.479
		C20.707,23.96,18.096,20.885,18.096,15.867z M27.842,14.156c0-2.64-0.899-3.568-2.35-3.568c-1.538,0-2.582,0.957-2.756,3.742
		L27.842,14.156z"/>
	<path fill="#FFFFFF" d="M34.133,10.849l-1.276-0.406V8.296h7.223v2.146l-1.45,0.348l2.002,7.367h0.116l3.017-9.862h3.074
		l3.017,9.862h0.116l2.002-7.367l-1.422-0.348V8.296h5.975v2.146l-1.305,0.406l-3.828,12.734h-3.772l-2.813-9.456h-0.087
		l-2.959,9.456h-3.771L34.133,10.849z"/>
	<path fill="#FFFFFF" d="M57.506,23.061l-0.262-4.177h2.699l0.666,1.973c0.406,0.261,1.219,0.522,2.264,0.522
		c1.449,0,2.406-0.552,2.406-1.654c0-1.044-0.551-1.421-2.176-1.855l-1.652-0.436c-2.697-0.696-4.178-1.973-4.178-4.554
		c0-2.813,2.031-4.902,6.439-4.902c1.828,0,3.656,0.291,4.816,0.754v3.945h-2.611l-0.465-1.77c-0.404-0.232-0.986-0.435-1.943-0.435
		c-1.275,0-2.262,0.435-2.262,1.509c0,0.957,0.58,1.363,2.35,1.827l1.799,0.464c2.986,0.783,4.119,2.234,4.119,4.496
		c0,3.046-2.09,5.192-6.816,5.192C60.987,23.96,59.014,23.611,57.506,23.061z"/>
</g>
</svg>
