<?xml version="1.0" encoding="utf-8"?>
<!-- Generator: Adobe Illustrator 15.1.0, SVG Export Plug-In . SVG Version: 6.00 Build 0)  -->
<!DOCTYPE svg PUBLIC "-//W3C//DTD SVG 1.1//EN" "http://www.w3.org/Graphics/SVG/1.1/DTD/svg11.dtd">
<svg version="1.1" id="Layer_1" xmlns="http://www.w3.org/2000/svg" xmlns:xlink="http://www.w3.org/1999/xlink" x="0px" y="0px"
	 width="124.844px" height="124.844px" viewBox="0 0 124.844 124.844" enable-background="new 0 0 124.844 124.844"
	 xml:space="preserve">
<g>
	<defs>
		<rect id="SVGID_1_" width="124.844" height="124.844"/>
	</defs>
	<clipPath id="SVGID_2_">
		<use xlink:href="#SVGID_1_"  overflow="visible"/>
	</clipPath>
	<path clip-path="url(#SVGID_2_)" fill="#A5A4A4" d="M97.569,49.343c-7.433,0-14.111,3.172-18.806,8.212
		c-0.29-1.728-0.449-3.519-0.449-5.372c0-12.888,9.003-23.334,22.246-23.334c5.932,0,11.487,2.162,15.674,5.629h1.882
		c-5.954-4.936-10.005-6.85-19.11-7.151c-20.829-0.682-35.25,16.446-35.25,36.729c0,20.285,12.401,36.733,33.246,36.733v-0.034
		c0.19,0.003,0.377,0.034,0.567,0.034c14.204,0,25.721-11.518,25.721-25.729C123.29,60.86,111.773,49.343,97.569,49.343"/>
	<path clip-path="url(#SVGID_2_)" fill="#A5A4A4" d="M33.813,49.343c-7.431,0-14.108,3.172-18.8,8.212
		c-0.293-1.728-0.453-3.522-0.453-5.372c0-12.888,9.004-23.334,22.246-23.334c5.934,0,11.489,2.162,15.672,5.629h1.884
		c-5.957-4.936-10.003-6.85-19.113-7.151C14.423,26.645,0,43.772,0,64.055c0,20.285,12.407,36.733,33.244,36.733v-0.034
		c0.19,0.003,0.379,0.034,0.57,0.034c14.209,0,25.727-11.518,25.727-25.729C59.54,60.86,48.022,49.343,33.813,49.343"/>
</g>
</svg>
