<?xml version="1.0" encoding="utf-8"?>
<!-- Generator: Adobe Illustrator 15.1.0, SVG Export Plug-In . SVG Version: 6.00 Build 0)  -->
<!DOCTYPE svg PUBLIC "-//W3C//DTD SVG 1.1//EN" "http://www.w3.org/Graphics/SVG/1.1/DTD/svg11.dtd">
<svg version="1.1" id="Layer_1" xmlns:sketch="http://www.bohemiancoding.com/sketch/ns"
	 xmlns="http://www.w3.org/2000/svg" xmlns:xlink="http://www.w3.org/1999/xlink" x="0px" y="0px" width="161px" height="97px"
	 viewBox="0 0 161 97" enable-background="new 0 0 161 97" xml:space="preserve">
<title>image-5x3</title>
<description>Created with Sketch (http://www.bohemiancoding.com/sketch)</description>
<g id="Page_1_2_" sketch:type="MSPage">
	<g id="Layer_1_2_" sketch:type="MSLayerGroup">
		<g id="Page_1_3_" sketch:type="MSShapeGroup">
			<g id="Rectangle_1_1_">
				<polygon fill="#CCCCCC" points="-0.496,0.5 -0.496,96.5 159.504,96.5 159.504,0.5 				"/>
			</g>
		</g>
	</g>
</g>
<g>
	<path fill="#848484" d="M97.471,59.027c0,1.412-1.154,2.557-2.578,2.557H62.108c-1.424,0-2.578-1.145-2.578-2.557V35.638
		c0-1.411,1.154-2.555,2.578-2.555h32.783c1.424,0,2.578,1.144,2.578,2.555v23.389H97.471z"/>
</g>
<g>
	<path fill="#F1F1F1" d="M85.883,43.703c-0.472,0.283-1.242,0.746-1.715,1.028l-0.197,0.118c-0.472,0.283-0.857,0.064-0.857-0.484
		v-3.586c0-0.551-0.449-1-1-1H69.504c-0.55,0-1,0.449-1,1v12.608c0,0.55,0.45,1,1,1h12.609c0.55,0,1-0.45,1-1v-3.643
		c0-0.551,0.386-0.77,0.857-0.485l0.196,0.119c0.472,0.282,1.243,0.745,1.715,1.028l3.015,1.811
		c0.472,0.283,0.856,0.064,0.856-0.485v-3.677c0-0.55,0-1.45,0-2v-3.678c0-0.55-0.386-0.769-0.856-0.485L85.883,43.703z"/>
</g>
</svg>
